<?xml version="1.0" encoding="utf-8"?>
<!-- Generator: Adobe Illustrator 24.0.0, SVG Export Plug-In . SVG Version: 6.00 Build 0)  -->
<svg version="1.1" id="Layer_2" xmlns="http://www.w3.org/2000/svg" xmlns:xlink="http://www.w3.org/1999/xlink" x="0px" y="0px"
	 viewBox="0 0 1190.6 719.9" style="enable-background:new 0 0 1190.6 719.9;" xml:space="preserve">
<style type="text/css">
	.st0{fill:#FFFFFF;}
</style>
<g>
	<path class="st0" d="M119.4,353.4c0,19,0,37.4,0,56.1c-2.4,0-4.8,0-7.5,0c0-14.4,0-28.9,0-43.4c-0.3-0.1-0.5-0.2-0.8-0.3
		c-0.6,1-1.2,1.9-1.7,2.9c-6.5,12.7-13.2,25.4-19.5,38.2c-1.4,2.8-3.1,2.8-5.6,2.9c-2.5,0.1-4.2-0.4-5.5-3
		c-6.3-12.7-12.9-25.3-19.4-37.9c-0.5-0.9-1-1.8-2.2-2.6c0,14.3,0,28.6,0,43.2c-2.9,0-5.3,0-7.9,0c0-18.7,0-37.3,0-56.3
		c3.1,0,6-0.2,8.9,0.1c1,0.1,2.1,1.6,2.7,2.7c7.3,14,14.6,28.1,21.8,42.2c0.4,0.8,0.9,1.6,1.6,2.8c2.8-5.4,5.4-10.3,7.9-15.2
		c5.1-9.8,10.2-19.6,15.1-29.4c1.2-2.3,2.4-3.4,5.1-3.1C114.6,353.6,116.8,353.4,119.4,353.4z"/>
	<path class="st0" d="M433.3,401.1c6.1-11.9,12-23.3,17.9-34.8c1.8-3.4,3.6-6.8,5.3-10.3c0.9-2,2.1-2.8,4.3-2.6c2.3,0.2,4.7,0,7.3,0
		c0,18.7,0,37.3,0,56.2c-2.4,0-4.7,0-7.4,0c0-14.5,0-29,0-43.6c-0.2-0.1-0.5-0.2-0.7-0.3c-0.6,1-1.2,2-1.7,3
		c-6.6,12.8-13.2,25.6-19.7,38.5c-1.2,2.4-2.7,2.8-5,2.6c-2.3-0.2-4.3,0.3-5.7-2.6c-6.3-12.7-12.9-25.2-19.4-37.8
		c-0.5-1-1.1-2-2.3-3c0,14.3,0,28.6,0,43.1c-2.9,0-5.3,0-7.9,0c-0.1-1-0.2-2-0.2-3c0-16.6,0.1-33.1-0.1-49.7c0-3,1-3.5,3.8-3.8
		c5.1-0.5,7.6,1.3,9.8,5.9c6.4,13.4,13.5,26.5,20.3,39.7C432.2,399.4,432.6,399.9,433.3,401.1z"/>
	<path class="st0" d="M84.4,126.1c7.8-15.3,15.4-29.7,22.6-44.3c1.5-3,3-4.6,6.6-4.1c1.8,0.3,3.7,0.1,5.7,0.1c0,18.9,0,37.5,0,56.4
		c-2.5,0-4.8,0-7.6,0c0-14.5,0-29,0-43.4c-0.3-0.1-0.5-0.1-0.8-0.2c-2.8,5.5-5.6,10.9-8.4,16.4c-4.2,8.1-8.5,16.2-12.4,24.5
		c-1.4,3-3.5,3.1-6.2,3.2c-2.6,0.1-4-0.8-5.1-3.1C71.9,118,65,104.5,57.3,91.1c-0.1,1.1-0.2,2.3-0.2,3.4c0,11.7,0,23.5,0,35.2
		c0,4.9,0,4.9-5.1,4.8c-0.8,0-1.6-0.2-2.6-0.3c0-18.7,0-37.3,0-56.4c3,0,5.9-0.2,8.7,0.1c1,0.1,2.1,1.6,2.7,2.7
		C68,94.3,75,108.1,82.1,121.9C82.8,123.1,83.4,124.3,84.4,126.1z"/>
	<path class="st0" d="M547.9,353.2c3,0,5.8-0.2,8.5,0.1c1,0.1,2.2,1.5,2.8,2.6c7.2,13.8,14.3,27.7,21.4,41.5c0.6,1.1,1.2,2.2,2,3.7
		c2.5-4.8,4.8-9.2,7.1-13.7c5.3-10.3,10.7-20.6,15.8-31c1.2-2.5,2.7-3.5,5.4-3.2c2.1,0.2,4.2,0,6.5,0c0,18.8,0,37.4,0,56.2
		c-2.4,0-4.7,0-7.4,0c0-14.4,0-28.9,0-43.4c-0.3-0.1-0.5-0.2-0.8-0.3c-0.5,0.9-1.1,1.8-1.5,2.7c-6.6,12.8-13.3,25.6-19.7,38.5
		c-1.2,2.5-2.8,2.9-5.2,2.8c-2.4-0.1-4.2,0-5.6-2.8c-6.8-13.7-13.9-27.3-21.7-40.8c0,14.4,0,28.8,0,43.4c-2.8,0-5.1,0-7.7,0
		C547.9,391,547.9,372.4,547.9,353.2z"/>
	<path class="st0" d="M595.7,78.3c5.5,0,10.8,0,16,0c6.8,0,13.6-0.2,20.4,0.2c10.4,0.7,17.3,9.5,15.8,19.7
		c-0.9,6.2-4.7,9.7-11.1,11.6c9.8,5.4,8.4,16.6,14.5,24.6c-3.1,0-5.4,0.2-7.7-0.1c-1-0.1-2.4-1.2-2.8-2.1c-1.5-3.7-3-7.4-4.1-11.2
		c-1.4-4.8-4.6-7.5-9.3-7.7c-7.8-0.3-15.7-0.1-23.8-0.1c0,7,0,13.9,0,21c-2.8,0-5.3,0-8,0C595.7,115.6,595.7,97.1,595.7,78.3z
		 M603.8,106c8.6,0,16.8,0.1,25,0c6.1-0.1,10.2-3.8,10.7-9.1c0.4-5.6-2.8-10.4-8.7-10.8c-8.9-0.6-18-0.2-27-0.2
		C603.8,92.6,603.8,99.1,603.8,106z"/>
	<path class="st0" d="M743.6,565.2c9.9,5.5,8.5,16.5,14.6,24.5c-3.3,0-5.9,0.2-8.3-0.1c-0.9-0.1-1.9-1.3-2.3-2.3
		c-1.4-3.6-2.7-7.2-3.8-10.9c-1.4-4.7-4.6-7.6-9.3-7.8c-7.8-0.3-15.7-0.1-23.9-0.1c0,7,0,13.9,0,21c-2.8,0-5.2,0-7.9,0
		c0-18.4,0-36.9,0-55.4c0.1-0.1,0.3-0.4,0.5-0.4c12,0,24-0.4,35.9,0.1c11.1,0.5,18.1,10.7,15.4,21.5
		C753,560.7,749.1,563.4,743.6,565.2z M710.7,561.2c8.8,0,17.5,0.4,26.1-0.1c6.8-0.4,10.3-5.3,9.3-11.8c-0.7-4.9-4.7-8.1-10.6-8.3
		c-4.9-0.2-9.8-0.1-14.8-0.1c-3.3,0-6.7,0-10,0C710.7,547.9,710.7,554.5,710.7,561.2z"/>
	<path class="st0" d="M216.2,565.4c9.6,5.1,8,16.5,14.4,24.4c-3.2,0-5.8,0.2-8.2-0.1c-0.9-0.1-2-1.2-2.4-2.1
		c-1.4-3.4-2.7-7-3.9-10.5c-1.9-5.8-4.6-8.4-10.5-8.6c-7.4-0.2-14.8-0.1-22.6-0.1c0,7.1,0,14,0,21.2c-3,0-5.5,0-8.3,0
		c0-18.5,0-37,0-55.7c0.4-0.1,0.8-0.3,1.2-0.3c11.4,0,22.8-0.2,34.1,0.1c8.5,0.2,14.8,5.4,16.5,12.7
		C228.7,555.4,225.8,560.7,216.2,565.4z M183.1,540.9c0,7,0,13.6,0,20.4c8.6,0,16.9,0.2,25.2-0.1c6.3-0.2,10.2-4.3,10.3-9.9
		c0.1-5.9-4-10.2-10.5-10.4C199.8,540.7,191.6,540.9,183.1,540.9z"/>
	<path class="st0" d="M484.6,205.9c9.9,5.5,8.4,16.7,14.7,24.7c-3.2,0-5.6,0.2-8-0.1c-0.9-0.1-2.1-1-2.4-1.9
		c-1.4-3.3-2.7-6.7-3.8-10.2c-2.1-6.6-4.7-9-11.6-9.3c-7.1-0.3-14.3-0.1-21.8-0.1c0,7,0,14,0,21.5c-1.9,0-3.5-0.1-5.1,0
		c-2.6,0.3-3.4-0.8-3.4-3.4c0.1-12.6,0.1-25.1,0.1-37.7c0-4.9,0-9.8,0-14.8c0.7-0.2,1.2-0.4,1.6-0.4c11.3,0,22.6-0.2,33.8,0.1
		c11.9,0.3,19.5,10.6,16.6,21.8C493.9,201.4,490.2,204.1,484.6,205.9z M451.7,201.9c8.9,0,17.4,0.3,25.9-0.1c6-0.3,9.6-4.2,9.8-9.5
		c0.2-5.5-3.2-10-9.3-10.3c-8.7-0.5-17.5-0.1-26.4-0.1C451.7,188.7,451.7,195.4,451.7,201.9z"/>
	<path class="st0" d="M629,381.3c0.1-15.6,11.9-28.1,28.1-29.3c11.6-0.9,22,1.9,29.6,11.4c14.1,17.6,3.3,43.7-19.3,47
		c-8,1.2-15.7,0.4-22.9-3.4C634.6,401.9,629,392.4,629,381.3z M684,381.6c0-13.4-8.7-21.8-22.5-21.8c-14.9,0-23.8,8.2-23.8,21.8
		c0.1,13.3,9.1,21.8,23.2,21.8C675.1,403.3,684,394.9,684,381.6z"/>
	<path class="st0" d="M358.3,591.3c-16.1-0.3-28.4-9.7-31.1-24c-3.3-17,7.9-32.4,25.1-34.8c9.8-1.4,19,0,27,6.2
		c9.6,7.5,12.9,17.7,10.3,29.5c-2.7,12.1-10.9,19.1-22.7,22C364.2,590.8,361.2,590.9,358.3,591.3z M358.6,583.3
		c14.4,0,23.1-8.5,23.1-22.5c-0.1-10.3-6.1-17.9-16-20.4c-11.6-2.9-23,1.3-27.7,10C329.4,566.5,340.1,583.3,358.6,583.3z"/>
	<path class="st0" d="M689.3,135.6c-15,0.1-27.1-8.3-30.6-21.1c-4.9-17.6,6.4-34.8,24.5-37.3c12.5-1.7,23.8,0.8,32,11
		c7.2,9,8.2,19.4,3.7,29.8c-4.8,11-14,16.2-25.7,17.5C691.9,135.7,690.6,135.6,689.3,135.6z M689.6,128c7.9,0,14.9-2.2,19.5-9.1
		c9.4-14.1,1.2-32-15.6-34.2c-13.1-1.7-23.6,4.3-26.3,15.1C663.1,115.8,672.8,128.1,689.6,128z"/>
	<path class="st0" d="M970.6,589.5c0-18.8,0-37.4,0-56.4c1.4,0,2.6,0,3.9,0c8.4,0,16.9-0.2,25.3,0.1c22.9,0.8,29,17.8,27,32.8
		c-1.9,14.4-11.2,23-25.7,23.5c-9.6,0.4-19.2,0.1-28.8,0.2C971.9,589.8,971.4,589.6,970.6,589.5z M978.8,582.3
		c8,0,15.8,0.4,23.6-0.1c5.5-0.3,10.2-3.1,12.9-8.1c4.1-7.6,4.2-15.5,0.9-23.3c-2-4.7-5.7-7.8-10.5-9.1c-8.8-2.4-17.8-0.7-26.8-1.1
		C978.8,554.8,978.8,568.4,978.8,582.3z"/>
	<path class="st0" d="M145.6,231.7c-16.1,0-28.4-8.6-31.8-21.7c-4.6-18,7.2-35.1,25.8-37c12-1.2,22.8,1.3,30.7,11
		c7.2,8.9,8.3,19.1,4.1,29.5c-4.4,10.9-13.3,16.3-24.6,17.9C148.1,231.7,146.4,231.7,145.6,231.7z M144.1,224.1
		c16.2,0,25.9-10.8,23.5-25.6c-1.5-9.4-7.4-15.6-16.8-17.5c-10.6-2.2-21,1.2-25.8,8.7c-4.7,7.6-4.9,15.6-1,23.5
		C128.3,221.4,136,223.9,144.1,224.1z"/>
	<path class="st0" d="M947.7,578.5c0-15.5,0-30.2,0-45.1c2.8,0,5.2,0,8,0c0,1.3,0,2.7,0,4.1c0,15.7,0,31.5-0.1,47.2
		c0,1.7-0.2,4.1-1.2,4.9c-2,1.5-7.5,0-9-1.8c-6.5-7.9-12.9-15.8-19.3-23.7c-5.3-6.5-10.7-13-16.8-20.4c0,2.2,0,3.4,0,4.6
		c0,12.2,0,24.4,0,36.6c0,5,0,5-4.9,4.9c-0.8,0-1.6-0.1-2.7-0.2c0-18.8,0-37.5,0-56.2c5-0.8,8.9-0.5,12.5,4.3
		c9.8,12.9,20.3,25.2,30.6,37.7C945.6,576.3,946.4,577.1,947.7,578.5z"/>
	<path class="st0" d="M240,109.9c9.9,5.4,8.5,16.5,14.1,23.8c-6.5,2.3-9.3,1.2-11.4-4.7c-0.9-2.5-1.8-5.1-2.5-7.7
		c-1.3-4.9-4.6-7.5-9.5-8.1c-2-0.2-4-0.2-6-0.2c-5.8,0-11.7,0-17.8,0c0,7.2,0,14.1,0,21.2c-2.7,0-5.1,0-7.8,0c0-18.4,0-36.9,0-55.5
		c0.2-0.1,0.5-0.4,0.8-0.4c11.8,0,23.7-0.4,35.5,0.2c10.8,0.5,17.8,10.4,15.6,20.8C249.8,105,246,108.1,240,109.9z M207,105.9
		c8.9,0,17.5,0.4,26-0.1c7.7-0.4,11.9-7.2,9-14c-1.9-4.5-5.7-6.1-10.2-6.2c-7.9-0.2-15.7-0.1-23.6,0c-0.4,0-0.8,0.3-1.2,0.4
		C207,92.6,207,99.1,207,105.9z"/>
	<path class="st0" d="M643,533.2c15.8,0,31.3,0,47.2,0c0,2.3,0,4.6,0,7.3c-13,0-26,0-39.1,0c0,5.7,0,11.1,0,16.7
		c11.4,0,22.6,0,34.1,0c0,2.6,0,4.8,0,7.4c-11.3,0-22.6,0-34,0c0,6,0,11.7,0,17.8c13.4,0,26.8,0,40.4,0c0,2.5,0,4.7,0,7.2
		c-0.8,0.1-1.7,0.3-2.6,0.3c-14.3,0-28.6,0-43,0c-1.9,0-3.3-0.1-3.3-2.7c0.1-17.5,0.1-35,0.1-52.5C642.7,534.3,642.8,534,643,533.2z
		"/>
	<path class="st0" d="M1047.2,582.5c13.5,0,26.7,0,39.8,0c0.3,0.4,0.5,0.6,0.5,0.8c0.6,6.5,0.6,6.5-6,6.5c-12.9,0-25.8,0-38.7,0
		c-1.3,0-2.5,0-4,0c0-18.9,0-37.5,0-56.4c15.7,0,31.5,0,47.5,0c0,2.2,0,4.5,0,7.1c-13,0-25.9,0-39,0c0,5.6,0,11,0,16.8
		c2,0,4.1,0,6.2,0c8.3,0,16.7,0.1,25-0.1c3.3-0.1,2.7,2,2.8,4c0.1,2,0.1,3.6-2.8,3.6c-9-0.2-18.1-0.1-27.1-0.1c-1.3,0-2.6,0-4.1,0
		C1047.2,570.6,1047.2,576.3,1047.2,582.5z"/>
	<path class="st0" d="M57.5,564.7c0,6.1,0,11.7,0,17.7c13.5,0,26.9,0,40.5,0c0,2.5,0,4.7,0,7.1c-0.9,0.1-1.8,0.3-2.7,0.3
		c-14.3,0-28.6,0-43,0c-1.9,0-3.3,0-3.3-2.7c0.1-17.5,0.1-35,0.1-52.5c0-0.3,0.1-0.7,0.3-1.2c15.7,0,31.3,0,47.3,0
		c0,2.2,0,4.5,0,7.1c-13,0-26,0-39.1,0c0,5.6,0,10.9,0,16.7c1.2,0,2.4,0,3.6,0c9,0,18.1,0.1,27.1-0.1c3-0.1,3.6,1.1,3.5,3.7
		c0,2.5-0.3,3.9-3.4,3.8C78.3,564.5,68.1,564.7,57.5,564.7z"/>
	<path class="st0" d="M426.1,198c0,2.6,0,4.7,0,7.3c-11.3,0-22.6,0-34.1,0c0,6.1,0,11.8,0,17.9c13.5,0,26.8,0,40.4,0
		c0,2.6,0,4.7,0,7.2c-16.1,0-32.1,0-48.4,0c0-18.7,0-37.2,0-56.1c0.8-0.1,1.7-0.3,2.6-0.3c13.8,0,27.7,0.1,41.5-0.1
		c2.9,0,3.5,1,3.5,3.7c0,2.8-0.7,3.9-3.7,3.9c-11.8-0.2-23.7-0.1-36.1-0.1c0,5.2-0.1,10.2,0.1,15.1c0,0.6,1.9,1.5,2.9,1.5
		c9,0.1,18.1,0.1,27.1,0.1C423.2,198,424.4,198,426.1,198z"/>
	<path class="st0" d="M356.2,88.6c0,15.8,0,30.7,0,45.7c-2.6,0-4.9,0-7.5,0c0-18.7,0-37.4,0-56.2c4.9-0.7,8.8-0.5,12.4,4.3
		c10,13,20.7,25.5,31.1,38.3c0.6,0.7,1.2,1.4,2.5,2.8c0-15.6,0-30.4,0-45.4c2.8,0,5.1,0,7.8,0c0.1,1,0.2,2,0.2,3
		c0,16.7-0.1,33.4,0.1,50c0,2.9-0.9,3.5-3.6,3.6c-3.4,0-5.8-0.7-8.1-3.6c-10.9-13.7-22.1-27.1-33.1-40.7
		C357.5,90,357.2,89.7,356.2,88.6z"/>
	<path class="st0" d="M814.4,578.7c0-15.6,0-30.3,0-45.3c2.6,0,5,0,7.6,0c0,18.7,0,37.4,0,56.1c-5.4,1.2-9.2,0-12.8-4.7
		c-10.3-13.4-21.2-26.3-31.9-39.4c-0.3-0.4-0.5-0.8-1.5-0.9c0,14.9,0,29.8,0,45c-2.8,0-5.1,0-7.7,0c0-18.6,0-37.3,0-56.1
		c4.9-0.8,8.9-0.6,12.6,4.2c10.4,13.5,21.4,26.4,32.1,39.6C813.1,577.6,813.4,577.8,814.4,578.7z"/>
	<path class="st0" d="M868.7,134.2c0-18.8,0-37.4,0-56.2c15.8,0,31.5,0,47.1,0c0.2,0.3,0.4,0.5,0.4,0.7c0.5,6.6,0.5,6.6-6,6.6
		c-11,0-22,0-33.4,0c0,5.6,0,10.9,0,16.6c11.2,0,22.4,0,33.9,0c0,2.6,0,4.9,0,7.5c-11.4,0-22.6,0-34,0c0,6,0,11.6,0,17.6
		c13.4,0,26.8,0,40.4,0c0,2.6,0,4.8,0,7.2C901.1,134.2,885.1,134.2,868.7,134.2z"/>
	<path class="st0" d="M477.8,543.1c-0.4,0.4-0.6,0.6-0.9,0.8c-5.1,3.5-5,3.3-10.1-0.1c-7.4-5-15.5-5.7-23.9-3
		c-3.3,1.1-5.7,3.2-5.7,7.1c0.1,4,2.8,5.7,5.9,6.4c6.6,1.6,13.3,2.6,19.9,4.2c3.3,0.8,6.6,1.8,9.5,3.5c9.2,5.5,9.6,18.1,0.6,24
		c-3.4,2.2-7.7,3.6-11.7,4.3c-8.3,1.4-16.6,0.9-24.4-3c-4.9-2.5-8.1-5.7-10.4-10.4c2.3-1.2,4.5-2.4,7-3.7c3.6,5,8.2,8.9,14.3,9.3
		c5.5,0.4,11.2,0,16.7-1c4.3-0.8,6.1-3.7,6.1-7.1c0-3.5-2.1-6.5-6.2-7.6c-5.4-1.5-11-2.2-16.5-3.5c-4.1-1-8.3-1.7-12.1-3.5
		c-10.5-4.9-9.1-17.7-1.5-23.2c8.9-6.5,32-7.5,41.6,4.2C476.8,541.7,477.3,542.4,477.8,543.1z"/>
	<path class="st0" d="M1145.5,543.2c-2.7,1.7-4.7,3-7,4.4c-7.3-7.8-16.3-9.4-26.2-7.4c-1.1,0.2-2.3,0.7-3.3,1.2
		c-2.7,1.4-4.4,3.4-4.4,6.6c0,3.3,2.1,5.1,4.7,5.9c4.5,1.4,9.1,2.1,13.7,3.2c4.3,1,8.8,1.7,13,3c6.9,2.2,10.7,7,11,13.1
		c0.3,6.8-3,12.4-9.9,15.1c-11,4.2-22.1,4.1-32.8-1c-4.4-2.1-7.9-5.4-10.2-10.2c2.4-1.2,4.6-2.4,7.1-3.7c7.4,10.3,17.8,11.1,29,9.1
		c0.8-0.1,1.6-0.4,2.3-0.7c3.3-1.2,5.7-3.3,5.7-7.2c0-3.5-1.9-6.4-5.8-7.5c-5.5-1.5-11.2-2.4-16.8-3.6c-3.8-0.9-7.6-1.5-11.2-3
		c-4.8-2-8.1-5.5-8.4-11.1c-0.3-5.9,2.2-10.3,7.1-13.2c6.4-3.9,13.5-4.4,20.8-3.9c7.3,0.5,13.8,2.7,19,8.1
		C1143.7,541.1,1144.5,542.1,1145.5,543.2z"/>
	<path class="st0" d="M268.8,363.1c-2.3,1.5-4.5,2.9-6.8,4.4c-6.7-7.2-15.1-9.5-24.6-7.8c-2.5,0.5-5.2,1.6-7.2,3.3
		c-3.6,2.9-3.1,8,1.1,9.9c4.1,1.8,8.7,2.6,13.1,3.7c5.3,1.3,10.8,2.1,16,3.8c5,1.6,8.9,5,9.8,10.6c0.9,5.7-0.5,10.6-5.1,14.5
		c-8.4,7.2-34.5,8.8-45-4.5c-0.9-1.2-1.7-2.5-2.7-4c2.2-1.1,4.1-2.3,6.1-3.1c0.6-0.2,1.9,0.4,2.5,1c7.8,8.4,21.6,11,31.6,5.9
		c5.5-2.8,6-9.7,0.5-12.6c-3.7-2-8.1-2.7-12.3-3.7c-4.9-1.2-9.9-1.7-14.8-3c-7.1-1.9-11.1-6.4-11.4-12.2c-0.3-6.8,3.2-12,10.1-14.9
		c12.7-5.3,29.2-2.4,37.4,6.4C267.6,361.5,268.1,362.2,268.8,363.1z"/>
	<path class="st0" d="M569.2,217.8c2.4-1.3,4.7-2.5,7.1-3.8c7.6,10.5,18.1,11.4,29.4,9c2.2-0.5,4.5-1.7,6-3.3
		c3.7-3.8,1.6-10.2-4.2-11.9c-5.7-1.7-11.7-2.4-17.5-3.8c-4.2-1-8.6-1.9-12.3-3.9c-8.3-4.6-8.8-15.9-1.5-21.9
		c11.6-9.5,35.4-6.4,44.2,5.9c-2.2,1.4-4.3,2.8-6.8,4.4c-4-4.3-8.8-7.5-14.8-7.8c-4.5-0.2-9.1,0.2-13.5,1.1
		c-3.9,0.9-5.8,3.9-5.7,7.1c0.2,3.7,2.7,5.5,5.8,6.2c6.5,1.6,13.1,2.6,19.6,4.2c3.5,0.8,7.1,1.9,10.2,3.7c8.6,5.1,9.4,16.4,1.9,23.1
		c-11.2,10-37.7,6.9-46.3-5.3C570.3,219.8,569.8,218.8,569.2,217.8z"/>
	<path class="st0" d="M799.8,78c2.9,0,5.4,0,8.3,0c0,4,0,7.9,0,11.7c0,3.9,0,7.7,0,11.8c12.4,0,24.7,0,37.2,0c0-7.7,0-15.4,0-23.4
		c2.9,0,5.5,0,8.5,0c0,1.3,0,2.6,0,3.8c0,16,0,32,0,47.9c0,4.7,0,4.7-4.9,4.6c-1,0-2.1-0.1-3.4-0.2c0-8.4,0-16.7,0-25.3
		c-12.6,0-24.8,0-37.4,0c0,8.4,0,16.7,0,25.2c-2.9,0-5.5,0-8.3,0C799.8,115.5,799.8,96.9,799.8,78z"/>
	<path class="st0" d="M781.8,115.8c2.5,0.9,4.8,1.8,7.1,2.6c-2.3,10.8-16.4,18.3-31.8,17.2c-15.1-1.1-26.9-12.6-27.9-27.3
		c-1-15.1,8.7-27.6,24.1-30.9c15.8-3.4,30.8,3.7,35.7,17.1c-2.4,0.8-4.8,1.6-7.1,2.4c-9.3-12-18.6-15.3-30.6-11
		c-8.9,3.2-13.8,11.1-13.4,21.3c0.5,10.2,6.1,17.4,15.4,19.9C765.5,130.4,775.1,126.6,781.8,115.8z"/>
	<path class="st0" d="M837.6,391.1c2.4,0.8,5,1.7,7.5,2.6c-5.1,13-20.4,19.9-36.1,16.5c-14.9-3.2-24.8-15.6-24-30
		c0.8-15.3,12.1-26.8,27.7-28.2c15.4-1.4,28.8,6,31.9,17.8c-2.4,0.8-4.8,1.6-7.1,2.4c-5.3-10.6-14.2-14.9-28.8-11.5
		c-9.3,2.2-14.8,10.1-14.8,19.8c0,11.5,5.1,18.9,15.1,21.8C820.8,405.6,830.9,401.8,837.6,391.1z"/>
	<path class="st0" d="M105.5,190.5c-1.1,0.4-2,0.6-2.8,1.1c-3.1,1.7-4.8,1.2-6.8-2.2c-5.2-8.9-16.2-10.6-26.7-7.8
		c-8.9,2.4-14.5,10-14.6,19.3c-0.2,11.7,5.1,19.4,15,22.2c12,3.4,22.2-0.5,28.7-11.2c2.4,0.8,4.8,1.7,7.3,2.6
		c-3.7,12-18.7,19.3-34.1,17C57,229.2,46,217.5,45.8,203.9c-0.3-16.2,9.5-28.1,25.4-30.8C86.8,170.5,101.2,177.7,105.5,190.5z"/>
	<path class="st0" d="M319.5,549.8c-2.5,0.8-4.8,1.6-7.6,2.5c-2.9-6.3-7.5-10.6-14.4-12.1c-5.9-1.2-11.7-0.9-17.3,1.5
		c-8.2,3.5-12.7,11.9-12,21.6c0.8,10.1,6.5,17.1,16.2,19.1c10.5,2.2,21.3,0.3,27.6-11.4c2.4,0.8,4.9,1.7,7.4,2.6
		c-4,11.9-18.6,19.2-33.5,17c-15.1-2.2-25.9-13.5-26.3-27.6c-0.5-15.5,8.8-27.3,24.1-30.5C299.6,529.4,313.8,536.1,319.5,549.8z"/>
	<path class="st0" d="M564.2,230.6c-2.2,0-4.1,0.3-5.9-0.1c-1.2-0.3-2.8-1.1-3.3-2.2c-1.7-3-2.9-6.4-4.6-9.5c-0.6-1-2.2-2.1-3.3-2.1
		c-8.9-0.2-17.8-0.2-26.8,0c-1,0-2.5,1-3,2c-1.3,2.1-2.1,4.4-3.2,6.6c-2.7,5.9-3.3,6.1-10.6,4.7c2-4.5,4-9,6.1-13.4
		c6.1-13.2,12.4-26.3,18.2-39.6c1.7-3.9,4.6-3,7.5-3.3c2.8-0.3,3.5,1.4,4.4,3.4c7.7,16.6,15.4,33.2,23,49.7
		C563.2,228,563.6,229.1,564.2,230.6z M546.1,209.5c-4.1-9-8.1-17.6-12.4-26.9c-4.3,9.3-8.3,17.9-12.4,26.9
		C529.8,209.5,537.7,209.5,546.1,209.5z"/>
	<path class="st0" d="M107.6,533.3c2.8,0,5.3,0,8.2,0c0,3.4,0,6.7,0,9.9c0,7.7-0.1,15.5,0.1,23.2c0.2,10.7,5.9,16.4,16.6,16.8
		c1.1,0,2.1,0.1,3.2,0c11-0.4,16.7-5.8,17.1-16.8c0.3-9.7,0.1-19.5,0.1-29.2c0-1.3,0-2.5,0-4c2.8,0,5.2,0,7.9,0
		c0.1,0.7,0.3,1.4,0.3,2.2c0,10.4,0.1,20.9,0,31.3c-0.2,13.4-8.1,22.5-21.5,23.8c-5.6,0.5-11.6,0-17-1.6
		c-10.1-3-14.5-11.2-14.9-21.2C107.3,556.5,107.6,545.1,107.6,533.3z"/>
	<path class="st0" d="M128.5,409.6c5.9-12.7,11.5-25,17.2-37.3c2.7-5.7,5.3-11.5,8.1-17.1c0.5-1,2.3-2,3.5-1.9
		c2.3,0.2,5.4-1.7,6.9,1.6c8.3,17.8,16.6,35.7,24.9,53.5c0.1,0.3,0,0.7,0,1.3c-2,0-4,0.2-5.9-0.1c-1-0.2-2.4-1-2.8-1.8
		c-1.7-3.3-3.1-6.8-4.8-10.1c-0.5-1-2-1.9-3.1-1.9c-8.9-0.2-17.8-0.2-26.7,0c-1.1,0-2.4,1-3.1,2c-1.1,1.6-1.8,3.5-2.6,5.3
		C136.8,410.1,136.8,410.1,128.5,409.6z M159.1,361.8c-4.3,9.3-8.2,17.9-12.3,26.7c8.4,0,16.2,0,24.6,0
		C167.3,379.7,163.4,371.1,159.1,361.8z"/>
	<path class="st0" d="M485.8,409.7c-2.7,0-5.3,0-8.4,0c0.8-1.9,1.5-3.7,2.3-5.4c7.6-16.2,15.2-32.4,22.6-48.7
		c0.8-1.8,1.8-2.7,3.7-2.3c2.4,0.5,5.5-1.6,7.1,1.9c8.2,17.7,16.5,35.5,24.7,53.2c0.1,0.3,0.1,0.7,0.1,1c-0.2,0.2-0.4,0.4-0.6,0.4
		c-7.4,0.4-8,0.6-10.3-6.5c-2.1-6.1-5.3-8.3-11.7-7.7c-6.6,0.6-13.4,0.3-20,0.1c-2.4-0.1-3.6,0.8-4.4,2.9
		C489.4,402.3,487.6,406,485.8,409.7z M507.9,361.8c-4.3,9.3-8.2,17.9-12.3,26.7c8.4,0,16.3,0,24.5,0
		C516.1,379.6,512.2,371.1,507.9,361.8z"/>
	<path class="st0" d="M284.2,409.7c-2.7,0-5.2,0-8.4,0c2.4-5.2,4.6-10.1,6.9-15c6-13,12-25.9,18-38.9c0.8-1.8,1.8-3.1,3.9-2.6
		c2.4,0.5,5.5-1.6,7.1,2c8.2,17.7,16.5,35.5,24.7,53.2c0.1,0.3,0.1,0.7,0.2,1.4c-2.3,0-4.5,0.2-6.6-0.1c-0.9-0.1-1.9-1.2-2.3-2
		c-1.6-3.1-3.1-6.3-4.4-9.6c-0.7-1.7-1.6-2.5-3.6-2.4c-8.8,0.1-17.6,0-26.4,0.2c-1.1,0-2.7,1.1-3.2,2.2
		C287.8,401.8,286.1,405.8,284.2,409.7z M294.1,388.3c8.3,0,16.2,0,24.5,0c-4.1-8.8-8-17.3-12.2-26.5
		C302.1,371,298.2,379.5,294.1,388.3z"/>
	<path class="st0" d="M892.1,589.8c-2.5,0-4.7,0.2-6.9-0.1c-0.8-0.1-1.7-1-2.2-1.8c-1.1-1.9-2.3-3.9-2.8-6c-1.3-4.7-4-6.2-8.9-5.9
		c-7.5,0.5-15,0.2-22.5,0.1c-2,0-3.3,0.4-4,2.5c-0.7,2-1.7,3.8-2.6,5.8c-3,6.4-3,6.4-10.8,5.1c1.7-3.8,3.4-7.5,5.1-11.1
		c6.5-14.1,13.2-28.2,19.6-42.4c1.5-3.4,3.9-2.5,6.3-2.7c2.2-0.1,3.8,0,5,2.6c7.8,17.3,15.9,34.4,23.9,51.6
		C891.6,588,891.7,588.6,892.1,589.8z M861.8,541.9c-4.3,9.4-8.3,18.1-12.4,27c8.5,0,16.5,0,24.8,0
		C870.1,560,866.1,551.3,861.8,541.9z"/>
	<path class="st0" d="M189.2,134c-0.5,0.2-0.6,0.3-0.7,0.3c-7.1,0.7-7.6,0.9-10-5.9c-2.2-6.3-5.7-8.5-12.3-7.8
		c-6.7,0.7-13.6,0.2-20.4,0.1c-1.9,0-3,0.6-3.7,2.4c-1,2.6-2.6,5-3.4,7.7c-1,3.2-3,4.1-6.1,3.7c-1.2-0.2-2.5,0-4.2,0
		c3.3-7.1,6.3-13.8,9.4-20.5c5.3-11.4,10.7-22.7,15.9-34c0.9-1.9,2-2.5,3.8-2.1c2.3,0.5,5.2-1.5,6.8,1.9
		c8.1,17.6,16.3,35.3,24.5,52.9C189,133,189,133.5,189.2,134z M171.5,113.7c-4.2-9.1-8.2-17.7-12.5-27.1c-4.3,9.4-8.3,18-12.4,27.1
		C155.2,113.7,163,113.7,171.5,113.7z"/>
	<path class="st0" d="M545.6,589.8c-2.2,0-4.4,0.2-6.5-0.1c-0.9-0.1-1.9-1.2-2.4-2c-1.6-3-3-6.1-4.3-9.2c-0.7-1.8-1.8-2.3-3.7-2.3
		c-8.8,0.1-17.6,0.1-26.4,0c-2,0-2.9,0.7-3.6,2.4c-1,2.5-2.5,4.8-3.3,7.4c-1.1,3.2-3,4.5-6.3,4c-1.1-0.2-2.3,0-4.1,0
		c2.6-5.6,4.9-10.6,7.2-15.7c6-13,12-25.9,18.2-38.8c0.5-1,2.3-2.1,3.3-2c2.3,0.2,5.4-1.8,6.9,1.5c8.4,18,16.7,35.9,25,53.9
		C545.6,588.9,545.6,589.1,545.6,589.8z M515.5,541.9c-4.3,9.3-8.3,18-12.4,26.9c8.5,0,16.4,0,24.8,0
		C523.8,559.9,519.9,551.3,515.5,541.9z"/>
	<path class="st0" d="M556.8,134.5c-2.3,0-4.5,0.2-6.5-0.1c-0.9-0.1-2-1.1-2.5-1.9c-1.6-3-3-6.1-4.3-9.2c-0.7-1.7-1.6-2.5-3.6-2.5
		c-8.9,0.1-17.8,0-26.8,0.2c-1.1,0-2.6,1.1-3.3,2.2c-1.3,1.9-2,4.2-3,6.3c-2.7,5.7-3.5,6.1-10.6,4.5c1.6-3.5,3.2-7,4.8-10.5
		c6.7-14.3,13.4-28.6,19.9-43c1-2.3,2.4-2.9,4.6-2.6c2.3,0.4,4.9-1.1,6.5,2.4c7.9,17.4,16,34.6,24.1,52
		C556.5,132.8,556.6,133.5,556.8,134.5z M526.6,86.6c-4.3,9.3-8.3,18-12.4,27c8.4,0,16.4,0,24.8,0C534.9,104.6,531,96,526.6,86.6z"
		/>
	<path class="st0" d="M632.6,533.3c0.2,0.5,0.3,0.7,0.3,0.9c0.5,6.3,0.4,6.3-5.9,6.3c-10.1,0-20.2,0-30.3,0c-1.3,0-2.6,0-4.1,0
		c0,5.8,0,11.2,0,17.1c10.9,0,21.9,0,32.5,0c0.4,0.5,0.5,0.6,0.5,0.7c0.9,6.8,0.9,6.8-6,6.8c-8.9,0-17.8,0-27.1,0
		c0,8.2,0,16.1,0,24.3c-2.8,0-5.2,0-7.9,0c0-18.6,0-37.3,0-56.2C600.7,533.3,616.6,533.3,632.6,533.3z"/>
	<path class="st0" d="M723,409.8c-8.2-18.9-16.2-37.4-24.5-56.6c2.7,0,4.9-0.3,7,0.1c1,0.2,2.1,1.6,2.6,2.7
		c6.2,14.2,12.2,28.4,18.3,42.6c0.3,0.6,0.6,1.2,1.1,2.3c3.4-7.8,6.6-15.2,9.7-22.6c3-7,6.1-13.9,8.9-21c1.1-2.9,2.5-4.5,5.8-3.9
		c1.2,0.2,2.5,0,4.4,0c-2.6,5.9-4.9,11.3-7.3,16.8c-5.1,11.7-10.3,23.4-15.1,35.2c-1.4,3.4-3.1,5.1-6.9,4.5
		C725.8,409.6,724.5,409.8,723,409.8z"/>
	<path class="st0" d="M215.4,432.7c-0.2,0.6-0.2,1.2-0.4,1.3c-5.5,2.2-7.2,7.4-9.7,11.9c-5.8,10.7-11.6,21.4-17.5,32.1
		c-0.6,1-1.9,1.6-2.9,2.4c-0.4-1.1-1.1-2.2-1.1-3.3c-0.1-10.1-0.1-20.2-0.8-30.5c-0.5,0.7-1,1.3-1.4,2c-5.1,9.7-10.2,19.5-15.4,29.2
		c-0.6,1.2-1.9,2-2.8,3c-0.5-0.2-1.1-0.4-1.6-0.6c0-13.2,0-26.5,0-39.7c0-3.4-0.6-6.2-4.9-6.1c0.9-2.2,10.1-3,17.8-1.4
		c-1.4,0.8-2.1,1.4-2.8,1.5c-2.6,0.3-3.6,1.9-3.6,4.3c0,9.4,0,18.7,0.6,28.3c0.9-1.5,1.7-3.1,2.6-4.6c3.4-6.3,6.8-12.6,10.2-18.9
		c3.3-6,2.4-8-4.1-9.6c1.1-1.9,8.9-2.5,18-0.8c-0.8,0.4-1.7,0.7-2.5,1.3c-1.2,0.9-3.1,2-3.1,3.1c-0.2,9.8-0.1,19.6,0.5,29.6
		c3.6-6.8,7.2-13.5,10.8-20.3c1-2,2.1-3.9,3.1-5.9c2.2-4.5,1.8-5.3-2.6-6.9C202.7,432.2,208,431.6,215.4,432.7z"/>
	<path class="st0" d="M282.9,230.4c-3.1,0-5.6,0-8.5,0c0-16.3,0-32.4,0-49c-8.1,0-15.9,0-23.9,0c0-2.7,0-4.9,0-7.3
		c18.7,0,37.3,0,56.1,0c0,2.4,0,4.5,0,7.1c-7.9,0-15.7,0-23.8,0C282.9,197.7,282.9,213.9,282.9,230.4z"/>
	<path class="st0" d="M291.5,134.3c-2.9,0-5.3,0-8.1,0c0-1.5,0-2.9,0-4.2c0-13.8-0.1-27.7,0.1-41.5c0-2.7-0.8-3.4-3.4-3.4
		c-6.9,0.2-13.8,0.1-20.9,0.1c0-2.5,0-4.7,0-7.2c18.7,0,37.5,0,56.3,0c0.1,0.3,0.3,0.5,0.3,0.7c0.4,6.5,0.4,6.5-6.1,6.5
		c-5.9,0-11.9,0-18.2,0C291.5,101.8,291.5,118,291.5,134.3z"/>
	<path class="st0" d="M454.6,78c0,16.3,0,32.5,0,49.1c12.7,0,25,0,37.6,0c0,2.6,0,4.8,0,7.2c-15.2,0-30.3,0-45.5,0
		c0-18.8,0-37.4,0-56.2C449.2,78,451.7,78,454.6,78z"/>
	<path class="st0" d="M453.8,658.6c4.7,2.7,4.9,9.1,0.2,11.9c-7,4-14.4,4.1-21.6,0.5c-4.2-2.1-4.2-6.1-0.4-9c1.3-1,2.7-1.7,4.1-2.6
		c-4.1-2.8-4.1-4,0-6.9c1.2-0.9,2.5-1.7,3.7-2.6c-3.5-8.2-1.7-15.5,4.9-19.7c3.3-2.1,6.6-2.7,10.3-0.8c0.9,0.5,2.4,0,3.6-0.3
		c1-0.3,1.9-1.3,2.8-1.3c1.3,0,2.7,0.4,3.7,1.2c0.5,0.4,0.5,2.3,0,2.8c-0.8,0.7-2.2,1-3.4,1.2c-0.8,0.1-1.7-0.3-2.9-0.5
		c0.1,1.3,0.2,2.2,0.3,3.1c1.2,9.8-5.3,16.7-15.2,16.1c-1.1-0.1-2.3,0.8-3.4,1.3c0,0.4,0.1,0.8,0.1,1.2 M455.1,637.2
		c-1.3-2-2.1-5.1-3.9-5.8c-2.9-1.2-5.1,1.5-6,4.1c-1.1,3.2-2.1,6.8-1.9,10.1c0.1,3.9,3.5,4.9,6.6,2.5
		C453.2,645.5,453.9,641.7,455.1,637.2z M443.1,670.9c2.3-0.6,4.7-1,6.9-1.9c2.4-1.1,2.7-3.3,1.1-5.1c-3.6-3.9-12.4-3.7-15.7,0.4
		c-1.6,2-1.2,3.9,1.1,4.8C438.5,670,440.7,670.3,443.1,670.9z"/>
	<path class="st0" d="M470.1,451.4c1.3,6.2,0.2,11.2-3.6,15.9c-3.9,4.8-9.9,2.4-14.6,4.4c0,0.4,0,0.9,0,1.3c1.8,0.6,3.6,1.1,5.4,1.7
		c2.6,0.9,5.5,1.6,7.8,3c4.5,2.6,4.6,8.6,0.3,11.7c-5.1,3.7-16.6,4-21.9,0.6c-3.8-2.5-4-6-0.4-8.9c1.3-1,2.7-1.8,4.1-2.6
		c-4-3.3-4-3.3,3.9-9.8c-3.4-6.5-2.5-12.7,2.5-17.6c4.3-4.2,8.7-4.7,14.4-1.7c1.4-0.8,2.7-2,4.3-2.3c1.3-0.3,2.9,0.2,4.1,0.8
		c0.5,0.3,0.6,2.5,0.2,2.8c-1.1,0.7-2.6,0.9-3.9,1.2C472.1,451.8,471.3,451.5,470.1,451.4z M466.2,456.8c-0.9-2.8-0.5-5.9-3.7-6.7
		c-3-0.7-4.9,1.6-5.9,4c-1.1,2.8-2.1,5.8-2.2,8.7c-0.1,1.7,1.3,4.5,2.7,5c1.4,0.5,4.3-0.8,5.2-2.2C464.1,463,465,459.8,466.2,456.8z
		 M454.4,489.4c0,0.1,0.1,0.3,0.1,0.4c2.2-0.6,4.6-0.9,6.6-1.9c3-1.4,3.1-4.4,0.2-5.9c-1.9-1.1-4.1-1.6-6.2-2.2
		c-3.2-0.8-8.9,2.4-9.3,5.1c-0.4,2.4,2.4,4.2,7.2,4.5C453.5,489.4,453.9,489.4,454.4,489.4z"/>
	<path class="st0" d="M704.8,452.2c-1.9,2.2-3.8,4.3-6.3,7.3c0-1.5-0.3-2.4,0-2.8c2.1-2.8,4.3-5.6,6.8-8c0.9-0.9,3.4-1.5,4.3-0.9
		c1.1,0.7,2.1,3,1.9,4.3c-0.6,3.5-1.8,7-2.9,10.5c-1,3.1-2.2,6.2-3.1,9.3c-0.3,1,0.3,2.1,0.5,3.2c1.2-0.3,2.6-0.3,3.4-1
		c1.4-1.3,2.8-2.9,3.6-4.7c2.7-5.8,5.3-11.7,7.6-17.7c1.7-4.2,1.5-4.2,6-3.5c-1.4,7-2.9,14-3.9,21c-0.3,2.2,0.9,4.5,1.4,6.8
		c1.8-1.4,4.2-2.5,5.4-4.4c2-3.1,3.6-6.6,4.5-10.2c0.6-2.2-0.3-4.9-0.7-7.4c-0.1-0.9-1.1-1.9-0.9-2.6c0.5-1.5,1.5-2.8,2.3-4.2
		c1.2,0.8,2.8,1.4,3.6,2.6c0.7,1,0.8,2.7,0.6,4.1c-1.1,7.9-3.8,15.2-8.6,21.6c-2.9,3.9-6.5,5.5-9.2,4.4c-2.9-1.1-4.4-5.3-3.7-10.2
		c0.2-1.1,0.4-2.3,0.1-3.6c-1,1.9-1.8,3.9-3,5.7c-1.7,2.4-3.3,5-5.6,6.7c-1.5,1.1-4.5,1.7-6,0.9c-1.5-0.8-2.3-3.5-2.8-5.5
		c-0.3-1.3,0.3-3,0.8-4.4c1.4-4.5,2.8-8.9,4.2-13.4c0.3-1,0.6-2.1,0.8-3.2C705.5,452.7,705.1,452.5,704.8,452.2z"/>
	<path class="st0" d="M706.6,647.3c-2.6,3.9-4.8,7.6-7.4,11c-1.9,2.4-4.5,4.1-7.7,2.5c-3.2-1.6-3.3-4.7-2.5-7.7
		c1.4-5.3,3.2-10.5,4.8-15.8c0.3-1.1,0.6-2.1,0.9-3.2c-0.4-0.3-0.8-0.5-1.1-0.8c-1.9,2.1-3.7,4.3-6.1,7.1c-0.1-1.2-0.5-2.2-0.2-2.6
		c2.2-2.9,4.4-5.7,7-8.3c0.9-0.8,3.1-1.3,4-0.8c1.1,0.7,2.2,2.8,1.9,4c-0.7,3.9-2.1,7.7-3.2,11.5c-0.9,3-2.1,6-2.9,9
		c-0.2,0.9,0.1,2.6,0.6,2.8c0.9,0.3,2.4,0.1,3.1-0.5c1.5-1.3,2.9-2.9,3.7-4.6c2.8-5.9,5.4-11.9,7.8-18c1.7-4.2,1.5-4.2,6.1-3.6
		c-1.3,7-2.9,14-3.9,21c-0.3,2.2,0.8,4.6,1.3,6.9c1.8-1.4,4.2-2.5,5.4-4.3c1.9-2.9,3.2-6.2,4.5-9.5c1.1-2.8,1-5.7-0.8-8.4
		c-0.6-0.9-1.1-2.4-0.8-3.3c0.4-1.3,1.5-2.8,2.7-3.1c0.8-0.3,2.5,1,3.1,2c0.7,1.2,0.9,3,0.7,4.4c-1.1,7.9-3.8,15.2-8.6,21.6
		c-3,4.1-6.7,5.6-9.5,4.4c-2.7-1.3-4.1-5.3-3.4-10C706.2,649.8,706.4,648.7,706.6,647.3z"/>
	<path class="st0" d="M145,660.7c1-1.1,1.4-2,2-2c3.9-0.5,5.8-3.3,7.5-6.3c6.7-11.3,13.5-22.5,20-34c2-3.5,4.7-4.8,8.7-5.3
		c0.3,4.4,0.7,8.7,0.9,13c0.5,8.8,1.1,17.6,1.6,26.3c0.3,5,0.7,5.5,6.2,6.6c-0.9,0.7-1.5,1.6-2,1.6c-5.4,0.1-10.7,0.1-16.1,0.1
		c-0.1-0.3-0.2-0.7-0.3-1c0.8-0.4,1.6-1,2.5-1.1c2.6-0.3,3.6-1.6,3.5-4.2c-0.2-3.3,0-6.5,0-10.3c-5.4,0-10.3-0.1-15.2,0.1
		c-0.7,0-1.5,0.9-2,1.6c-1.4,2.3-2.7,4.6-4,7c-2.3,4.2-1.8,5.2,3.7,6.2c-1.1,0.8-1.7,1.6-2.4,1.6C155,660.7,150.4,660.7,145,660.7z
		 M178.7,640.8c-0.3-6.9-0.7-13.5-1-20.2c-0.3-0.1-0.5-0.2-0.8-0.2c-3.9,6.7-7.8,13.5-11.8,20.5
		C169.9,640.8,174.1,640.8,178.7,640.8z"/>
	<path class="st0" d="M191.6,297.5c-1.7,1.8-9,2.3-18,0.7c0.8-0.4,1.5-1.1,2.3-1.2c2.8-0.2,3.9-1.6,3.7-4.4c-0.2-3.2,0-6.3,0-10.1
		c-5.4,0-10.4-0.1-15.4,0.1c-0.7,0-1.4,1-1.9,1.8c-1.4,2.2-2.6,4.4-3.9,6.7c-2.4,4.3-2,5.2,2.8,6.3c-1,2-4.8,2.4-16,1.5
		c0.9-0.9,1.4-1.7,2-1.8c3.5-0.6,5.4-3,7.1-5.8c6.7-11.3,13.5-22.5,20-33.9c2-3.6,4.6-5.3,9-5.7c0.3,4.1,0.7,8.3,0.9,12.4
		c0.6,8.8,1.1,17.6,1.6,26.3C186,296,186.1,296.2,191.6,297.5z M178.7,279.2c-0.4-7-0.7-13.6-1.1-20.2c-0.2-0.1-0.5-0.2-0.7-0.2
		c-3.9,6.7-7.8,13.5-11.8,20.5C169.9,279.2,174.1,279.2,178.7,279.2z"/>
	<path class="st0" d="M671.4,476.4c1-1.3,2-2.6,2.9-4c0.8-1.2,1.6-2.5,2.9-4.6c0.3,5.1-4.3,11.4-7.9,12.3c-2.9,0.7-4.6-1.1-5.3-5.4
		c-2,1.5-4,3.5-6.3,4.7c-4,2-7.6,0.4-8.8-3.9c-0.6-2.2-0.9-4.7-0.5-6.9c1.1-6.8,4.4-12.6,9.4-17.3c3.8-3.6,8-5.9,13.5-2.6
		c1-3.7,2-7.1,2.8-10.5c0.8-3.5-2.3-2.2-4.7-3.2c3.6-3.3,7.8-2.2,12.1-3.8c-4.1,15.2-8,29.7-11.9,44.2
		C670.1,475.9,670.8,476.2,671.4,476.4z M653.8,473.2c0.5,0.9,1.1,2.9,2.2,3.3c1.2,0.4,3.3-0.5,4.3-1.5c5.4-5.5,8.2-12.5,9.1-20
		c0.2-1.5-1-4-2.2-4.5c-1.2-0.5-3.7,0.5-4.8,1.6C657.2,457.9,655,465,653.8,473.2z"/>
	<path class="st0" d="M660.1,629.8c0.8-3,1.6-5.7,2.3-8.4c1.1-4.1,1-4.2-3.3-4.7c0.5-2.4,0.5-2.4,11-3.7c-4,14.7-7.9,29.2-11.9,44.2
		c5.3-0.5,4.5-5.9,8.1-6.9c-1.4,4.3-3,8.5-7.5,10.6c-3.3,1.6-5.5-0.5-5.9-5.3c-1.8,1.5-3.4,3.2-5.3,4.4c-4.7,2.9-8.8,1.2-10.2-4.2
		c-0.5-1.9-0.6-4-0.3-5.9c1.3-7.4,4.9-13.6,10.6-18.5C651.8,628,654.6,627.6,660.1,629.8z M658.5,635c-0.7-1-1.4-3.1-2.6-3.5
		c-1.3-0.4-3.6,0.4-4.5,1.5c-5.3,5.8-7.8,13-8.5,20.7c-0.1,1.3,0.7,3.5,1.6,3.8c1.2,0.4,3.3-0.2,4.3-1.2
		C654.5,650.8,656.9,643.5,658.5,635z"/>
	<path class="st0" d="M824.3,629.7c0.8-3,1.6-5.7,2.3-8.4c1.1-4.1,0.9-4.2-3.3-4.7c0.6-2.4,0.6-2.4,11-3.7
		c-4,14.7-7.9,29.2-11.8,43.7c0.6,0.3,1.1,0.6,1.7,0.9c1.9-2.6,3.8-5.2,5.7-7.7c0.3,0.3,0.7,0.6,1,0.8c-1.8,4-3.5,8.2-7.9,10.2
		c-3.3,1.5-5.5-0.5-5.9-5.1c-2.1,1.6-4,3.5-6.3,4.7c-4.1,2.1-7.8,0.5-9-4c-0.6-2.1-0.8-4.4-0.5-6.6c1.2-7.3,4.8-13.4,10.4-18.3
		C815.8,628.1,818.7,627.6,824.3,629.7z M806.7,654.1c0.5,0.9,1,3.2,2,3.5c1.3,0.4,3.5-0.4,4.6-1.5c5.4-5.5,8.1-12.5,9-20.1
		c0.2-1.5-1.1-4-2.3-4.5c-1.2-0.5-3.7,0.6-4.7,1.8C810.2,639,808,646.1,806.7,654.1z"/>
	<path class="st0" d="M358.5,657.6c1.8-2.6,3.6-5.2,5.8-8.4c0.1,5-4.2,11-7.8,12c-3.1,0.9-5.1-1-5.4-5.6c-1.6,1.5-3,3-4.6,4.1
		c-5.1,3.5-9.7,1.7-11.1-4.3c-0.4-1.9-0.4-4,0-5.9c1.2-6.4,4.2-11.9,8.9-16.4c3.9-3.8,8.1-6.6,14-3c1-3.6,2-6.9,2.7-10.1
		c0.5-2.4,0.2-2.6-4.9-3.4c3.8-3.3,8.1-2.3,12.2-3.8c-3.7,15.2-8.4,29.5-11.6,44.2C357.4,657.1,357.9,657.3,358.5,657.6z
		 M340.9,654.2c0.5,0.9,1,3.2,2,3.4c1.3,0.3,3.5-0.5,4.6-1.5c5.4-5.6,8.1-12.5,9-20.1c0.2-1.5-1.1-4-2.3-4.4
		c-1.3-0.4-3.7,0.7-4.7,1.8C344.3,639.1,342.1,646.1,340.9,654.2z"/>
	<path class="st0" d="M379.7,431.9c-4,14.8-7.9,29.3-12,44.3c5.2-0.8,4.6-5.8,7.7-7.4c0.7,4.3-4.9,11.5-8.7,11.4
		c-3.6-0.1-4.1-2.8-4.1-5.7c-2,1.6-3.7,3.4-5.7,4.6c-4.5,2.6-8.5,0.9-9.7-4.1c-0.5-2.1-0.7-4.5-0.3-6.6c1.3-7,4.7-12.9,10-17.7
		c3.7-3.3,7.7-5,12.9-2c1-3.6,2-6.9,2.7-10.3c0.5-2.4,0.2-2.5-3.7-3C369.3,433.1,369.3,433.1,379.7,431.9z M368.1,454.1
		c-0.7-1-1.4-3.3-2.7-3.7c-1.3-0.4-3.7,0.7-4.8,1.9c-5,5.7-7.4,12.6-8.2,20.1c-0.1,1.4,0.8,3.9,1.7,4.1c1.4,0.3,3.5-0.4,4.6-1.5
		C364.2,469.4,366.5,462.4,368.1,454.1z"/>
	<path class="st0" d="M835.5,448.7c1-3.5,1.9-6.8,2.7-10c0.9-3.6-2.1-2.7-4.5-3.3c3.3-3.8,7.7-2,11.8-4.2
		c-3.8,15.6-8.5,29.9-11.7,44.5c0.5,0.3,1.1,0.5,1.6,0.8c1.8-2.6,3.7-5.2,5.9-8.4c0.2,4.9-4.4,11.2-8,12c-2.9,0.6-4.5-1.1-5.2-5.3
		c-2.1,1.5-4.2,3.5-6.6,4.7c-3.7,1.8-7.2,0.2-8.4-3.7c-0.7-2.3-1-4.9-0.6-7.2c1.1-6.7,4.3-12.3,9.1-17
		C825.6,447.9,829.8,445.5,835.5,448.7z M834,453.9c-0.7-1-1.4-3.1-2.6-3.5c-1.3-0.4-3.6,0.4-4.5,1.5c-5.3,5.8-7.8,13-8.5,20.7
		c-0.1,1.3,0.7,3.5,1.6,3.8c1.2,0.4,3.3-0.2,4.3-1.2C830,469.6,832.4,462.4,834,453.9z"/>
	<path class="st0" d="M991.3,438.6c-0.3,1.4-0.6,2.9-0.9,4.3c-0.4,1.5-0.8,2.9-1.3,4.7c0.8-0.1,1.3-0.1,1.8-0.2
		c5.2-0.9,8.9,1.4,10.3,6.6c3.1,11.1-5.6,24.5-17.5,25.9c-4.1,0.5-4.4,3-4.5,5.6c0,1.4,1.6,2.8,2.7,4.5c-0.7,1-5.9,1.4-14,0.4
		c0.7-0.7,1.1-1.6,1.6-1.7c3-0.2,3.8-2.3,4.4-4.7c2.6-9.8,5.2-19.7,8.1-30.6c-2,1.4-3.2,2.3-4.5,3.1c-0.7,0.4-1.6,0.4-2.4,0.6
		c0.3-0.8,0.6-1.7,1-2.5c0.3-0.5,0.8-0.9,1.3-1.2c5.1-2.5,7.3-6.9,8.3-12.1C986.4,438.5,988,437.2,991.3,438.6z M981.2,477.4
		c4.4-0.2,7.6-1.5,10-4.6c3.2-4.2,5.2-9,5.3-14.2c0-2.3-1.1-5.1-2.5-6.9c-1.8-2.3-5.5-1.5-6.1,0.9
		C985.6,460.7,983.5,468.9,981.2,477.4z"/>
	<path class="st0" d="M956.7,671.7c0.6-0.8,0.8-1.7,1.2-1.7c3.7-0.1,4.4-2.9,5.1-5.7c2.3-8.6,4.5-17.2,6.8-25.8c0.3-1,0.4-2,0.8-3.7
		c-2.1,1.5-3.5,2.6-5.1,3.5c-0.4,0.2-1.1-0.1-1.7-0.2c0.1-0.5,0-1.2,0.3-1.5c0.7-0.8,1.4-1.7,2.4-2.1c5.1-2.3,7-6.9,8.1-11.9
		c0.7-2.9,2.1-4.3,5.6-3c-0.7,2.8-1.4,5.7-2.1,8.6c0.2,0.2,0.4,0.5,0.5,0.5c6.1-2,11.3,1.6,12,9c1,11.2-7.2,22.1-18.3,23.3
		c-4.3,0.5-4.1,3.4-4.3,5.8c-0.1,1.2,1.7,2.5,2.8,4.1C970,672.2,966.3,672.6,956.7,671.7z M970,658.4c4.2,0.2,7.4-1.2,9.8-4.2
		c3.4-4.2,5.4-9.2,5.4-14.5c0-2.2-1-4.8-2.3-6.7c-1.7-2.4-5.6-1.8-6.3,0.5C974.3,641.7,972.2,649.9,970,658.4z"/>
	<path class="st0" d="M325.5,77.9c2.6,0,5.1,0,8,0c0,1.3,0,2.6,0,3.8c0,16,0,31.9,0,47.9c0,4.9,0,4.9-4.9,4.9c-0.9,0-1.9,0-3.1,0
		C325.5,115.6,325.5,97,325.5,77.9z"/>
	<path class="st0" d="M248.2,589.6c-2.6,0-5.2,0-8,0c0-18.7,0-37.4,0-56.3c2.6,0,5.2,0,8,0C248.2,552,248.2,570.7,248.2,589.6z"/>
	<path class="st0" d="M760.8,615.9c3.2-2.5,7.1-2.1,11.2-3.2c-1.8,6.6-3.4,12.6-5.2,19.4c1.6-1.1,2.5-1.9,3.5-2.5
		c3.9-2.5,8.1-1.4,9.9,2.9c0.9,2.2,1.4,4.8,1.2,7.2c-0.6,7.5-3.9,13.7-9.6,18.6c-1.5,1.3-3.4,2.2-5.2,2.8c-5.5,1.7-10.1-1.7-9.9-7.4
		c0.1-3.1,0.8-6.3,1.6-9.3c1.9-7.4,4-14.7,5.9-22.1C765.5,617.4,765.5,617.4,760.8,615.9z M776.6,637.9c-1.3-2.2-2.4-4.2-3.6-6.2
		c-1.9,1.3-4.8,2.2-5.6,4c-2.4,5.9-4.2,12.1-5.8,18.3c-0.3,1.2,0.7,3.5,1.8,4.1c1.1,0.6,3.2,0.1,4.5-0.6c1.3-0.8,2.6-2.2,3.2-3.6
		C773.1,648.7,774.7,643.5,776.6,637.9z"/>
	<path class="st0" d="M783.2,432c-1.7,6.3-3.3,12.4-5,18.7c0.7-0.2,1-0.2,1.1-0.4c2.4-2.2,5.1-4.1,8.5-2.6c3.8,1.6,4.8,5.1,4.8,8.7
		c0.1,9.2-3.8,16.6-11.2,21.9c-3.1,2.2-6.7,3.1-10.2,0.8c-3.5-2.3-4-6-3.1-9.7c2.3-9.6,4.9-19.1,7.4-28.6c1.2-4.6,1.2-4.6-3.2-5.4
		C773.1,433,773.8,432.8,783.2,432z M787.6,457.4c-0.2-0.1-0.5-0.2-0.7-0.2c-0.1-0.9,0.1-2-0.2-2.8c-0.6-1.3-1.3-3.1-2.3-3.5
		c-1.1-0.4-2.7,0.7-4,1.4c-0.6,0.3-1.1,1-1.3,1.6c-2.1,6.4-4.3,12.8-6.1,19.3c-0.3,1.1,0.7,3.3,1.7,3.8c1.2,0.6,3.3,0.3,4.5-0.5
		c1.5-0.9,2.9-2.5,3.6-4.2C784.5,467.3,786,462.3,787.6,457.4z"/>
	<path class="st0" d="M614.2,479.2c2.3-9.2,6.9-17.6,8.3-26.8c-0.5-0.2-1-0.4-1.4-0.6c-1.1,1.4-2.2,2.9-3.4,4.2c-1,1.1-2,2.2-3,3.3
		c-0.4-0.4-0.9-0.8-1.3-1.2c2.5-3.1,4.9-6.4,7.6-9.3c0.9-0.9,3.3-1.6,4.3-1c1.2,0.7,2.3,2.8,2.2,4.3c-0.3,3.1-1.3,6.1-2.1,9.2
		c-0.4,1.3-1,2.6-0.8,4.2c2.2-3.6,4.3-7.3,6.7-10.8c1.5-2.2,3.1-4.5,5.1-6.1c2.9-2.4,6.2-0.9,6.5,2.8c0.2,2.3-0.4,4.7-1,6.9
		c-1.4,4.8-3.1,9.6-4.6,14.4c-0.3,1.1-0.5,2.2-0.8,3.2c0.4,0.3,0.7,0.5,1.1,0.8c2-2.4,4-4.7,6.2-7.3c0.3,0.7,0.8,1.5,0.6,1.8
		c-2,2.7-3.8,5.7-6.2,8c-1.1,1-4,1.4-5,0.7c-1.2-0.9-2.1-3.5-1.7-5c1.5-6,3.7-11.8,5.5-17.8c0.4-1.4,0.5-3,0.7-4.5
		c-0.4-0.2-0.9-0.4-1.3-0.6c-1.2,1.4-2.6,2.7-3.6,4.3c-4.2,6.8-8.4,13.6-12.3,20.5C619.1,479.1,617.3,480.3,614.2,479.2z"/>
	<path class="st0" d="M632.7,650.2c0.3,0.8,0.7,1.4,0.6,1.6c-2,2.8-3.9,5.9-6.4,8.3c-1,1-4,1.4-5,0.7c-1.2-0.9-2.1-3.5-1.7-5.1
		c1.5-6,3.7-11.8,5.5-17.8c0.4-1.4,0.5-3,0.7-4.4c-0.4-0.2-0.9-0.4-1.3-0.6c-1.3,1.5-2.7,2.9-3.8,4.6c-4.1,6.7-8.3,13.4-12.1,20.2
		c-1.5,2.7-3.3,3.8-6.4,2.7c2.2-9.1,6.9-17.5,8.3-27.6c-4.4,1.7-4.7,6.5-8,7.7c-0.4-0.4-0.8-0.8-1.2-1.2c2.5-3.1,4.9-6.4,7.6-9.3
		c0.9-0.9,3.4-1.6,4.3-1c1.2,0.7,2.3,2.9,2.2,4.3c-0.3,3.1-1.3,6.1-2.1,9.2c-0.4,1.3-1,2.6-0.8,4.2c2.2-3.6,4.4-7.3,6.7-10.9
		c1.4-2.1,3-4.3,4.9-5.9c3.1-2.7,6.7-1.1,6.8,3c0.1,2.2-0.5,4.4-1.1,6.5c-1.4,4.8-3.1,9.6-4.6,14.4c-0.3,1.1-0.5,2.2-0.8,3.2
		c0.4,0.2,0.7,0.5,1.1,0.7C628.3,655.2,630.3,652.9,632.7,650.2z"/>
	<path class="st0" d="M486.9,632.8c-1.3,1.6-2.7,3.1-3.7,4.8c-4.1,6.6-8.1,13.2-12,19.9c-1.5,2.6-3.2,3.9-6.4,2.9
		c2.1-9.1,6.9-17.5,8.2-26.9c-0.4-0.2-0.8-0.4-1.2-0.6c-2.2,2.5-4.3,5.1-6.5,7.6c-0.5-0.4-0.9-0.8-1.4-1.3c2.6-3.2,5-6.5,7.9-9.5
		c0.8-0.9,3.2-1.5,4-0.9c1.2,0.8,2.5,2.9,2.3,4.2c-0.6,3.9-1.9,7.7-3,11.5c-0.1,0.5-0.3,1.1,0.1,1.9c2.1-3.5,4.2-7,6.5-10.4
		c1.5-2.2,3.1-4.5,5-6.2c1-0.9,3.3-1.5,4.3-1c1.3,0.7,2.4,2.6,2.5,4.1c0.2,2.1-0.5,4.4-1.1,6.5c-1.4,4.7-3,9.4-4.5,14.1
		c-0.3,1.1-0.6,2.2-0.9,3.3c0.4,0.3,0.7,0.5,1.1,0.8c2.1-2.4,4.2-4.8,6.6-7.5c0.1,4.4-5.1,10.8-8.6,11.3c-3,0.4-5.1-2.1-4.1-5.6
		c1.7-6,3.8-11.8,5.6-17.8c0.4-1.4,0.6-3,0.8-4.5C487.9,633.3,487.4,633.1,486.9,632.8z"/>
	<path class="st0" d="M476,479.1c2.5-9.1,6.8-17.5,8.4-26.7c-0.5-0.2-1-0.4-1.5-0.7c-1.1,1.4-2.2,2.8-3.4,4.2c-1,1.2-2,2.3-3.1,3.4
		c-0.4-0.4-0.9-0.8-1.3-1.2c2.5-3.1,4.8-6.4,7.6-9.4c0.9-1,3.3-1.6,4.3-1.1c1.2,0.7,2.4,2.8,2.2,4.2c-0.3,3.1-1.3,6.1-2.1,9.2
		c-0.4,1.3-0.9,2.6-0.8,4.2c2.2-3.6,4.3-7.3,6.7-10.8c1.5-2.2,3.1-4.5,5.1-6.2c2.9-2.4,6.3-1,6.6,2.8c0.2,2.3-0.4,4.7-1,6.9
		c-1.4,4.8-3.1,9.6-4.6,14.4c-0.3,1.1-0.6,2.2-0.8,3.3c0.4,0.3,0.7,0.5,1.1,0.8c2.1-2.4,4.2-4.7,6.7-7.5c-0.1,4.4-5,10.6-8.4,11.3
		c-3.2,0.6-5.4-2-4.4-5.6c1.7-6,3.8-11.8,5.6-17.8c0.4-1.4,0.5-3,0.8-4.5c-0.4-0.2-0.8-0.4-1.3-0.6c-1.2,1.4-2.6,2.7-3.6,4.3
		c-4.2,6.8-8.4,13.6-12.3,20.5C481,479,479.3,480.4,476,479.1z"/>
	<path class="st0" d="M609.3,447.2c-3.3,9.9-6.3,18.7-9.3,27.6c0.5,0.3,1,0.6,1.6,0.9c2.3-2.5,4.5-4.9,6.8-7.4
		c0.4,0.3,0.7,0.7,1.1,1c-2.1,2.9-3.9,6-6.3,8.5c-1.2,1.3-3.9,2.3-5.4,1.9c-1.4-0.4-2.2-2.9-3.4-4.6c-0.5,0.5-1.4,1.7-2.6,2.7
		c-2.7,2.3-5.7,3.2-9.1,1.9c-3.2-1.3-4.3-4.1-4.5-7.3c-0.7-8.5,6-20.2,13.7-23.8c4.6-2.2,7.6-1.8,10.1,0.7
		C604.4,448.5,606.5,448,609.3,447.2z M600.8,455.2c0-4.6-1.9-6.1-5.2-4.8c-1.3,0.5-2.5,1.3-3.5,2.3c-5.1,5.6-7.5,12.3-8.2,19.7
		c-0.1,1.3,0.9,3.5,1.9,4c1.1,0.5,3.4-0.1,4.4-1C596.5,469.7,599.2,462.2,600.8,455.2z"/>
	<path class="st0" d="M590.5,656.8c2.2-2.4,4.4-4.9,6.6-7.3c0.4,0.3,0.7,0.6,1.1,0.9c-1.8,2.6-3.3,5.6-5.5,7.8
		c-1.5,1.5-4.1,2.8-6.2,2.7c-1.2-0.1-2.2-3.1-3.1-4.5c-0.8,0.7-2,1.9-3.4,2.9c-2.6,2-5.4,2.7-8.6,1.5c-3.1-1.2-4.2-3.8-4.5-6.9
		c-0.9-8.7,6-20.7,13.9-24.3c4.5-2.1,7.3-1.7,9.8,0.8c2.5-0.7,4.6-1.2,7.5-2c-3.3,9.8-6.3,18.7-9.3,27.6
		C589.3,656.2,589.9,656.5,590.5,656.8z M572.4,654.2c0.5,0.9,1,3,2.1,3.4c1.3,0.4,3.7-0.1,4.7-1.1c5.9-5.8,9.1-13,10.3-21
		c0.5-3.7-1.9-5.2-5.3-3.7c-1.3,0.5-2.5,1.4-3.4,2.4C575.8,639.5,573.7,646.3,572.4,654.2z"/>
	<path class="st0" d="M383.1,409.7c-2.7,0-5,0-7.6,0c0-18.7,0-37.4,0-56.3c2.5,0,4.9,0,7.6,0C383.1,372.2,383.1,390.8,383.1,409.7z"
		/>
	<path class="st0" d="M206.7,409.7c-2.6,0-5,0-7.6,0c0-18.7,0-37.3,0-56.2c2.4,0,4.9,0,7.6,0C206.7,372.1,206.7,390.7,206.7,409.7z"
		/>
	<path class="st0" d="M765.8,409.5c0-18.8,0-37.3,0-56.1c2.5,0,4.9,0,7.6,0c0,18.6,0,37.2,0,56.1C771,409.5,768.4,409.5,765.8,409.5
		z"/>
	<path class="st0" d="M933.2,650.3c0.9-7.5,4.1-14.4,10.5-19.5c3.2-2.5,6.9-3.7,10.8-1.6c3.8,2.1,5.3,5.6,5,9.8
		c-0.6,8.5-4.2,15.5-11.5,20.4c-3.2,2.2-6.7,2.7-10.3,0.6C934.2,658,933.2,654.7,933.2,650.3z M938.2,654.8c0.6,0.9,1.4,3.5,2.9,3.9
		c1.5,0.5,3.7-0.9,5.5-1.7c0.7-0.4,1.4-1.3,1.7-2.2c2.1-6,4.1-12.1,6-18.2c0.3-0.8,0-1.9-0.2-2.8c-0.8-3.4-3.5-4.5-6.3-2.4
		c-1,0.7-1.9,1.7-2.6,2.8C941.2,640.1,939.4,646.8,938.2,654.8z"/>
	<path class="st0" d="M944.5,469.4c0.7-7.3,3.9-14.4,10.5-19.6c3.2-2.5,6.9-3.7,10.8-1.5c3.8,2.1,5.3,5.7,5,9.8
		c-0.6,8.7-4.3,15.9-11.8,20.5C952,482.9,944.6,478.5,944.5,469.4z M949.5,473.6c0.6,0.9,1.3,3.5,2.8,3.9c1.5,0.5,4.3-0.4,5.4-1.7
		c5.3-6.3,7.5-14,7.8-22.1c0-1.4-1.3-3.8-2.5-4.1c-1.4-0.4-3.4,0.7-4.9,1.5c-0.8,0.4-1.3,1.3-1.8,2.1
		C952.5,459.2,950.7,465.6,949.5,473.6z"/>
	<path class="st0" d="M878.6,452.3c-1.8,2.1-3.7,4.3-6,6.9c-0.2-1.1-0.6-2-0.3-2.4c2.2-2.9,4.4-5.8,6.9-8.3c0.9-0.9,3.6-1.5,4.3-0.9
		c1.1,1.1,1.9,3.2,1.8,4.8c-0.3,2.8-1.3,5.4-2.2,8.1c-1.2,3.9-2.6,7.8-3.6,11.8c-0.3,1.2-0.1,3.4,0.6,3.8c1.1,0.5,3.1,0.4,4.1-0.3
		c5.8-4.2,9.3-9.9,9.7-17.1c0.1-1.5-0.8-3.1-1.3-4.6c-0.3-1.2-1.1-2.5-0.9-3.7c0.2-1.2,1.3-2.8,2.3-3c0.9-0.2,2.7,0.9,3.1,1.9
		c0.7,1.6,1,3.7,0.8,5.5c-0.8,7.8-3.7,14.8-9,20.6c-1.8,1.9-4.2,3.4-6.7,4.3c-5.4,2-9.4-1.4-8.2-7c1.1-5.4,3-10.6,4.5-15.9
		c0.4-1.3,0.7-2.6,1-3.9C879.4,452.8,879,452.6,878.6,452.3z"/>
	<path class="st0" d="M867.3,633.5c-1.8,2.1-3.7,4.3-5.9,6.9c-0.2-1-0.7-1.9-0.4-2.2c2.3-2.9,4.5-5.9,7.2-8.5
		c0.9-0.9,3.5-1.2,4.3-0.5c1.1,0.9,1.8,3.2,1.5,4.6c-0.9,4.5-2.4,8.8-3.7,13.2c-0.7,2.5-1.7,4.9-2.2,7.4c-0.2,1,0.1,2.7,0.7,3.2
		c0.9,0.5,2.5,0.5,3.5,0c7.5-3.4,12.1-15.4,8.9-22.7c-0.5-1.1-0.9-2.6-0.5-3.7c0.3-1,1.5-2.2,2.5-2.5c0.7-0.2,2.4,0.8,2.7,1.6
		c0.6,2.1,1.2,4.4,0.9,6.5c-0.8,7.3-3.5,14-8.4,19.4c-2,2.2-4.9,4.1-7.8,5.1c-4.8,1.7-8.7-1.8-7.7-6.7c1.1-5.5,3-10.8,4.6-16.2
		c0.4-1.3,0.7-2.6,1.1-3.9C868.2,633.9,867.8,633.7,867.3,633.5z"/>
	<path class="st0" d="M854.8,650.8c0,1,0.3,1.9,0,2.2c-2.9,2.6-5.5,5.9-8.9,7.6c-5.4,2.7-10.6-0.6-11.7-6.6
		c-1.6-8.3,5.3-21.3,13.1-24.6c3.6-1.5,7.3-1.1,9.1,1.2c2.2,3,1.3,6.1-0.5,8.8c-3.2,4.8-8,7.4-13.1,9.6c-2.9,1.3-3.9,4.3-2.3,7.4
		c1.5,3.1,4.1,2.6,6.3,1.2C849.3,655.8,851.7,653.4,854.8,650.8z M840.3,647.6c5.4-2.4,9.6-5.4,11.8-10.2c0.7-1.6,0-3.9-0.1-5.8
		c-1.7,0.7-3.8,0.9-5.1,2C843.2,637.1,841.5,641.8,840.3,647.6z"/>
	<path class="st0" d="M866.7,469.6c0,1,0.3,1.9,0,2.2c-2.9,2.6-5.5,5.9-8.9,7.6c-5.4,2.6-10.6-0.7-11.7-6.7
		c-1.6-8.3,5.4-21.3,13.2-24.6c3.6-1.5,7.3-1.1,9.1,1.3c2.2,3,1.3,6.1-0.6,8.8c-3.2,4.8-8.1,7.4-13.1,9.6c-2.8,1.3-3.8,4.4-2.3,7.5
		c1.5,3.1,4.2,2.6,6.3,1.2C861.3,474.7,863.7,472.2,866.7,469.6z M852.3,466.5c5.6-2.6,10.1-5.7,12.2-11.1c0.5-1.4-0.2-3.2-0.3-4.9
		c-1.6,0.4-3.5,0.4-4.6,1.4C855.4,455.5,853.4,460.5,852.3,466.5z"/>
	<path class="st0" d="M289.5,469.6c0,1,0.3,1.9,0,2.1c-2.9,2.6-5.5,5.9-8.9,7.6c-5.4,2.7-10.6-0.6-11.7-6.6
		c-1.6-8.3,5.3-21.3,13.1-24.6c3.6-1.5,7.3-1.1,9.1,1.2c2.2,3,1.3,6.1-0.5,8.8c-3.2,4.8-8,7.4-13.1,9.6c-2.9,1.3-3.9,4.3-2.3,7.4
		c1.5,3.1,4.1,2.6,6.3,1.2C284.1,474.7,286.4,472.2,289.5,469.6z M275.1,466.5c5.4-2.4,9.6-5.4,11.8-10.2c0.7-1.6,0-3.9,0-5.8
		c-1.7,0.7-3.8,0.9-5.1,2C278,456,276.2,460.7,275.1,466.5z"/>
	<path class="st0" d="M1006.4,469.4c0.9-8,4.4-15.3,11.7-20.3c1.2-0.8,2.8-1.7,4.2-1.6c2.2,0.2,5,0.5,6.3,1.9
		c1.2,1.4,1.7,4.7,0.8,6.3c-1.7,3.1-4.3,5.8-6.9,8.1c-1.9,1.7-4.3,3-6.7,3.7c-3.3,1-3.6,3.1-3.3,5.9c0.4,3.6,2.7,5.1,5.9,3.4
		c2.5-1.3,4.5-3.6,6.8-5.4c0.6-0.5,1.4-0.8,2.1-1.2c-0.2,0.9-0.1,2-0.6,2.6c-1.6,1.9-3.2,3.7-5.2,5.2c-3.1,2.3-6.6,3.2-10.2,1.3
		C1007.6,477.4,1006.7,473.9,1006.4,469.4z M1012.9,466.7c6-3.1,10.8-6.3,12.6-12.2c0.4-1.2-0.5-2.7-0.9-4.1c-1.3,0.3-2.9,0.3-3.8,1
		C1016.3,455.1,1014.3,460.2,1012.9,466.7z"/>
	<path class="st0" d="M911.6,652.1c-2.2,3.8-5,7-9.3,8.6c-5.7,2.1-10.7-0.7-11.9-6.7c-1.7-8.4,5.5-21.7,13.4-24.8
		c3.1-1.2,6.4-1.5,8.7,1.3c2.4,2.9,1.4,6-0.4,8.8c-3.1,4.8-8,7.4-13.1,9.7c-2.9,1.3-3.9,4.2-2.4,7.4c1.1,2.4,3.6,3.1,6.6,1.2
		c2.1-1.4,3.8-3.4,5.8-5.1c0.6-0.5,1.4-0.9,2-1.4C911.2,651.4,911.4,651.7,911.6,652.1z M896.7,647.6c5.4-2.4,9.6-5.4,11.8-10.3
		c0.7-1.6,0-3.9-0.1-5.8c-1.7,0.7-3.8,0.9-5.1,2C899.6,637.1,897.9,641.8,896.7,647.6z"/>
	<path class="st0" d="M995.2,650.3c0.9-7.7,4.4-14.6,11.2-19.7c0.8-0.6,1.8-1.1,2.8-1.5c3-1.1,6.1-1.3,8.4,1.3
		c2.4,2.7,1.5,5.8-0.2,8.5c-3.1,5-8.1,7.7-13.2,10c-3,1.3-4,4.1-2.5,7.4c1.1,2.5,3.6,3.2,6.5,1.3c2.2-1.4,4-3.6,6-5.3
		c0.5-0.4,1.3-0.6,1.9-0.9c-0.1,0.7,0.1,1.6-0.2,2c-1.9,2.1-3.7,4.3-5.9,5.9c-3.1,2.3-6.7,3-10.2,0.9
		C996.1,658.2,995.3,654.6,995.2,650.3z M1001.7,647.7c5.9-2.9,10.6-6.1,12.5-11.9c0.4-1.2-0.4-2.8-0.6-4.2c-1.4,0.3-3.1,0.2-4.1,1
		C1004.9,636.3,1003,641.4,1001.7,647.7z"/>
	<path class="st0" d="M741.5,469c0.8-7.6,4.4-14.8,11.7-19.9c1.2-0.8,2.8-1.7,4.2-1.6c2.2,0.2,5,0.5,6.3,1.9
		c1.2,1.4,1.7,4.7,0.8,6.3c-1.7,3.1-4.3,5.8-6.9,8.1c-1.9,1.7-4.3,3-6.7,3.7c-3.6,1-3.7,3.4-3.3,6.2c0.5,3.2,2.7,4.7,5.5,3.2
		c2.6-1.4,4.7-3.6,7.1-5.5c0.6-0.5,1.4-0.8,2.1-1.3c-0.2,0.9-0.1,2-0.6,2.6c-1.6,1.9-3.2,3.7-5.2,5.2c-3.1,2.3-6.6,3.1-10.2,1.4
		C743.3,477.9,741.5,474.3,741.5,469z M748,466.5c5.4-2.4,9.6-5.4,11.8-10.2c0.7-1.6,0-3.9-0.1-5.8c-1.7,0.7-3.8,0.9-5.1,2
		C750.9,456,749.1,460.7,748,466.5z"/>
	<path class="st0" d="M922.9,470.9c-2.2,3.8-5,7-9.2,8.6c-5.7,2.2-10.7-0.7-11.9-6.6c-1.7-8.3,5.4-21.7,13.3-24.8
		c3.1-1.2,6.4-1.5,8.8,1.3c2.5,2.9,1.4,6-0.4,8.8c-3.1,4.8-8,7.4-13.1,9.7c-3,1.3-3.9,4.1-2.5,7.4c1.1,2.5,3.6,3.1,6.5,1.3
		c2.1-1.4,3.8-3.4,5.8-5c0.6-0.5,1.3-1,2-1.5C922.5,470.2,922.7,470.6,922.9,470.9z M908,466.5c5.7-2.7,10.2-5.8,12.2-11.3
		c0.5-1.4-0.2-3.2-0.4-4.8c-1.5,0.4-3.3,0.4-4.3,1.3C911.1,455.4,909.1,460.4,908,466.5z"/>
	<path class="st0" d="M730.2,650.5c0.9-8,4.5-15.2,11.8-20.3c0.9-0.7,2.1-1,3.2-1.4c2.8-0.9,5.4-0.6,7.4,1.6
		c2.1,2.3,1.7,5.1,0.4,7.6c-2.9,5.5-7.9,8.6-13.5,10.7c-3.2,1.2-3.6,3.2-3.3,5.9c0.4,3.5,2.7,5.1,5.9,3.4c2.4-1.3,4.4-3.4,6.6-5.1
		c0.7-0.6,1.5-1,2.3-1.5c-0.3,1-0.2,2.2-0.8,2.9c-1.5,1.8-3.1,3.5-5,4.9c-3.1,2.2-6.6,3.2-10.2,1.3
		C731.3,658.5,730.4,655,730.2,650.5z M736.7,647.7c5.7-2.7,10.2-5.8,12.2-11.3c0.5-1.4-0.2-3.2-0.4-4.8c-1.5,0.4-3.3,0.4-4.3,1.3
		C739.8,636.6,737.9,641.6,736.7,647.7z"/>
	<path class="st0" d="M520.7,650.8c0,1,0.3,1.9,0,2.2c-2.9,2.6-5.5,5.9-8.9,7.6c-5.4,2.7-10.6-0.7-11.7-6.7
		c-1.6-8.3,5.3-21.3,13.1-24.6c3.6-1.5,7.3-1.1,9.1,1.3c2.2,3,1.3,6.1-0.5,8.8c-3.2,4.8-8,7.4-13.1,9.6c-2.9,1.3-3.9,4.3-2.3,7.5
		c1.5,3.1,4.1,2.6,6.3,1.2C515.3,655.8,517.6,653.4,520.7,650.8z M506.3,647.7c5.6-2.7,10.1-5.7,12.2-11.2c0.5-1.4-0.1-3.2-0.3-4.9
		c-1.6,0.4-3.5,0.4-4.6,1.3C509.3,636.6,507.4,641.6,506.3,647.7z"/>
	<path class="st0" d="M389.4,652c-2.3,3.8-5.1,7.1-9.5,8.7c-5.6,2-10.4-0.8-11.7-6.6c-1.8-8.4,5.5-22,13.5-25
		c3.2-1.2,6.4-1.3,8.7,1.5c2.2,2.8,1.3,5.8-0.5,8.5c-3.1,4.9-8,7.5-13,9.7c-3.1,1.4-4.1,4.5-2.5,7.7c1.2,2.3,3.7,2.9,6.7,0.9
		c2-1.3,3.7-3.2,5.5-4.8c0.6-0.6,1.3-1.1,2-1.6C388.8,651.3,389.1,651.7,389.4,652z M374.4,647.6c5.6-2.6,10-5.6,12.1-11
		c0.6-1.5-0.2-3.4-0.4-5.2c-1.6,0.5-3.5,0.6-4.6,1.6C377.5,636.7,375.6,641.6,374.4,647.6z"/>
	<path class="st0" d="M533.2,470.9c-2.3,3.8-5.1,7.1-9.5,8.7c-5.6,2-10.4-0.8-11.7-6.6c-1.8-8.4,5.5-22,13.5-25
		c3.2-1.2,6.4-1.4,8.7,1.5c2.2,2.8,1.3,5.8-0.4,8.5c-3.1,4.9-7.9,7.5-13,9.7c-3.1,1.4-4.1,4.5-2.5,7.7c1.2,2.3,3.7,2.9,6.6,0.9
		c2-1.3,3.7-3.2,5.5-4.8c0.7-0.6,1.5-1,2.2-1.5C532.8,470.3,533,470.6,533.2,470.9z M518.2,466.6c6-3,10.7-6.2,12.6-12.1
		c0.4-1.2-0.5-2.7-0.8-4.1c-1.3,0.3-2.9,0.3-3.8,1C521.5,455,519.5,460.2,518.2,466.6z"/>
	<path class="st0" d="M400.1,469.6c0,1,0.3,1.9,0,2.2c-2.9,2.6-5.5,5.9-8.9,7.6c-5.3,2.6-10.4-0.6-11.6-6.4c-1.8-8.4,5.5-22,13.4-25
		c3.2-1.2,6.4-1.4,8.7,1.5c2.3,2.8,1.3,5.8-0.4,8.5c-3.2,5-8.1,7.6-13.3,9.9c-2.8,1.2-3.8,4.4-2.3,7.5c1.6,3.1,4.2,2.6,6.3,1.2
		C394.8,474.7,397.1,472.2,400.1,469.6z M385.7,466.5c5.5-2.6,9.8-5.5,12-10.7c0.6-1.5-0.1-3.6-0.2-5.5c-1.6,0.6-3.7,0.7-4.8,1.8
		C388.7,455.8,386.9,460.6,385.7,466.5z"/>
	<path class="st0" d="M268,662.1c-2.7-1.3-5.5-2.3-7.9-4c-1-0.7-1.3-2.9-1.1-4.3c0.1-0.8,2-2.2,2.7-2c1.2,0.4,2.4,1.6,3.1,2.8
		c1.1,2,2,4.4,4.7,3.9c1.7-0.4,4.3-1.8,4.4-3.1c0.3-2-0.7-4.5-1.9-6.2c-1.6-2.1-4-3.5-5.9-5.5c-4-4.1-3.8-9.2,0.2-12.7
		c4.1-3.6,11.3-3.5,14.4,0.2c1.5,1.7,2.4,3.8,0.1,5.5c-2.4,1.7-3.6-0.3-4.7-2c-2.3-3.6-4.2-4.4-6.3-2.7c-2.3,1.9-2.2,5.1,0.4,7.7
		c1.6,1.6,3.4,2.9,5,4.4c3.9,3.6,5.1,7.2,3.6,10.9C277.3,658.9,273.2,661.4,268,662.1z"/>
	<path class="st0" d="M400.6,662c-2.5-1.1-5.3-1.8-7.5-3.4c-1.2-0.9-1.5-3.1-1.7-4.8c-0.1-0.6,2-2.2,2.4-2c1.4,0.7,2.9,1.8,3.6,3.1
		c1.2,2.3,2.4,4,5.3,3.6c3.8-0.5,5.6-4.5,3.2-7.7c-1.8-2.3-4.2-4.1-6.3-6.1c-4.3-4.1-5.1-8.6-2.1-12.4c3.2-4.1,10-5.3,14.3-2.3
		c1.1,0.8,2.2,2,2.4,3.2c0.2,1.1-0.4,2.9-1.3,3.4c-0.8,0.4-2.5-0.3-3.5-0.9c-0.7-0.4-1-1.5-1.5-2.3c-1.2-1.8-2.7-3.2-4.9-1.9
		c-2.3,1.4-3,3.6-1.7,6.1c0.7,1.3,1.9,2.4,3,3.4c1.1,1.1,2.4,1.9,3.5,3c3.9,3.6,5.1,7.2,3.6,10.9C409.8,658.8,405.7,661.3,400.6,662
		z"/>
	<path class="st0" d="M411.8,480.9c-2.7-1.3-5.5-2.3-7.9-4c-1-0.7-1.3-2.9-1.1-4.3c0.1-0.8,2-2.2,2.7-2c1.2,0.4,2.4,1.6,3.1,2.8
		c1.1,2,2,4.4,4.7,3.9c1.7-0.4,4.3-1.8,4.4-3.1c0.3-2-0.7-4.5-1.9-6.2c-1.6-2.1-4-3.5-5.9-5.5c-4-4.1-3.8-9.2,0.2-12.7
		c4.1-3.6,11.3-3.5,14.4,0.2c1.5,1.7,2.4,3.8,0.1,5.5c-2.4,1.7-3.6-0.3-4.7-2c-2.3-3.6-4.2-4.4-6.3-2.7c-2.3,1.9-2.2,5.1,0.4,7.7
		c1.6,1.6,3.4,2.9,5,4.4c3.9,3.6,5.1,7.2,3.6,10.9C421,477.7,417,480.2,411.8,480.9z"/>
	<path class="st0" d="M267.9,300.5c-2.6-1.2-5.4-2.1-7.7-3.8c-1-0.8-1.3-3.1-1.2-4.6c0-0.7,2-2.1,2.5-1.9c1.3,0.6,2.7,1.7,3.4,3
		c1.1,2,2.1,4.3,4.8,3.7c1.6-0.3,4.1-1.7,4.2-2.8c0.3-2-0.5-4.5-1.7-6.2c-1.4-2.1-3.8-3.4-5.7-5.2c-4.2-4.1-4.4-9.1-0.7-12.7
		c3.9-3.9,11.4-4.2,14.7-0.4c0.9,1,1.3,2.7,1.3,4.1c0,0.7-1.7,2.1-2.4,2c-1.2-0.3-2.2-1.4-3.2-2.3c-0.4-0.4-0.6-1-1-1.5
		c-1.3-1.8-3.1-3.3-4.9-1.6c-1.2,1.2-1.9,3.6-1.8,5.4c0.1,1.3,1.8,2.6,2.9,3.8c1.2,1.2,2.5,2.1,3.7,3.2c3.9,3.6,5,7.2,3.4,10.9
		C277.2,297.4,273,299.8,267.9,300.5z"/>
	<path class="st0" d="M934.1,476.4c1.8-2.6,3.6-5.2,5.7-8.3c0.3,0.9,0.9,1.7,0.7,2c-1.6,2.7-3,5.6-5.1,7.9c-1.2,1.2-4.1,2.2-5.4,1.6
		c-1.3-0.6-2.4-3.5-2.2-5.2c0.7-4.7,2-9.4,3.2-14c1.7-6.6,3.5-13.1,5.2-19.7c1.2-4.5,1.1-4.5-4.4-5.7c4-2.9,8.1-2.3,12.2-3.5
		c-4,15.1-7.8,29.6-11.6,44.1C933,475.9,933.6,476.2,934.1,476.4z"/>
	<path class="st0" d="M920.7,616.4c3.7-3.4,7.9-2.3,12.1-3.8c-4,15.2-7.8,29.7-11.6,44.3c0.5,0.3,1,0.5,1.5,0.8
		c1.8-2.5,3.6-5.1,5.7-8.1c0.3,0.6,1,1.3,0.9,1.5c-2,3.1-3.9,6.3-6.4,9.1c-0.8,0.9-3.3,1.2-4.4,0.6c-1.1-0.6-2.1-2.6-2.1-4
		c-0.1-2.3,0.6-4.6,1.1-6.9c2.4-9.4,4.9-18.8,7.4-28.2C926.1,617.3,926,617.3,920.7,616.4z"/>
	<path class="st0" d="M237.2,267.4c2.1,0,3.9,0,5.7,0c0.3,2.8-0.8,3.9-3.4,3.5c-2.6-0.4-3.7,0.6-4.2,3.2c-1.4,6.2-3.1,12.3-4.7,18.4
		c-0.2,0.9-0.3,1.9-0.4,2.9c0.4,0.2,0.7,0.4,1.1,0.6c1.9-2.2,3.7-4.4,6-7.1c0.3,1,1,2.1,0.7,2.4c-2.1,2.6-4,5.6-6.7,7.5
		c-3.4,2.5-6.9,0.3-6.3-3.9c0.7-5.1,2.2-10.1,3.4-15.1c0.7-2.8,1.4-5.7,2.3-8.8c-1.7-0.1-3.3-0.2-5.2-0.3c0.2-1.1,0.4-2,0.6-2.9
		c0.3-0.2,0.5-0.4,0.7-0.4c6.4,1.3,6.4-3.9,7.4-7.6c0.9-3.4,2.6-4,5.7-2.9C239,260.4,238.2,263.6,237.2,267.4z"/>
	<path class="st0" d="M231.2,657.7c1.9-2.2,3.8-4.4,6-7.1c0.3,0.9,1,2,0.7,2.3c-2,2.6-3.9,5.3-6.4,7.3c-1,0.9-3.6,1.1-4.8,0.4
		c-1.1-0.7-2-3-1.8-4.4c0.8-5,2.1-9.8,3.3-14.7c0.7-2.8,1.5-5.7,2.3-8.8c-1.7-0.1-3.3-0.2-5.2-0.4c0.2-1,0.4-2,0.7-2.9
		c0.4-0.1,0.7-0.4,1-0.4c3.9,0.7,5.9-1,6.3-4.8c0.1-0.9,0.7-1.8,0.8-2.7c0.5-3.5,2.5-4.1,5.7-2.9c-0.9,3.3-1.7,6.6-2.7,10.2
		c2,0,3.8,0,5.6,0c0.3,2.9-0.7,4.1-3.3,3.7c-2.5-0.4-3.7,0.5-4.3,3.2c-1.3,6.2-3.1,12.3-4.7,18.4c-0.2,0.9-0.3,1.9-0.4,2.9
		C230.5,657.2,230.9,657.4,231.2,657.7z"/>
	<path class="st0" d="M256,451.5c-1.8-0.1-3.4-0.2-5.2-0.3c0.3-1.1,0.5-2.1,0.8-3.5c6.8,2.2,6.8-3.3,7.9-7.2
		c0.9-3.1,2.3-4.4,5.8-3.1c-0.9,3.3-1.7,6.7-2.6,10.3c2,0.1,3.8,0.2,5.6,0.3c0.3,2.8-1.1,3.8-3.5,3.4c-2.4-0.4-3.5,0.5-4,3
		c-1.4,6.3-3.2,12.5-4.8,18.7c-0.2,0.9-0.3,1.8-0.4,2.7c0.3,0.3,0.7,0.5,1,0.8c1.9-2.1,3.7-4.3,6.2-7.1c0.3,0.9,0.9,2.1,0.6,2.5
		c-1.9,2.5-3.8,5.1-6.1,7.1c-1.1,0.9-3.8,1.1-5.1,0.4c-1.1-0.6-1.9-3.1-1.6-4.5c1.3-6.7,3.1-13.2,4.7-19.8
		C255.4,454,255.7,452.9,256,451.5z"/>
	<path class="st0" d="M290.6,270.9c-2,0-3.5,0-5,0c-0.3-3,1.1-3.9,3.6-3.5c2.1,0.4,3-0.6,3.4-2.5c0.4-1.7,1.2-3.3,1.5-5
		c0.6-3.2,2.4-4,5.6-2.9c-0.8,3.3-1.7,6.7-2.6,10.3c2,0.1,3.8,0.2,5.6,0.3c0.3,2.8-0.9,3.8-3.4,3.4c-2.7-0.5-3.6,0.8-4.2,3.3
		c-1.4,6.2-3.1,12.3-4.7,18.4c-0.2,0.9-0.3,1.8-0.5,3.2c4-0.8,4.6-4.5,7.3-6.9c0.3,1.1,0.9,2.2,0.6,2.6c-1.8,2.4-3.5,5.1-5.8,6.9
		c-1.2,1-4,1.4-5.3,0.7c-1.1-0.6-1.9-3.3-1.7-4.8c1.3-6.5,3-13,4.6-19.5C289.9,273.6,290.2,272.5,290.6,270.9z"/>
	<path class="st0" d="M299.8,618.6c-0.9,3.5-1.8,6.8-2.7,10.2c2,0.1,3.9,0.2,5.7,0.3c0.3,2.9-1.1,3.8-3.6,3.4c-2.5-0.4-3.5,0.6-4,3
		c-1.4,6.3-3.2,12.5-4.8,18.7c-0.2,0.9-0.2,1.8-0.4,2.7c0.4,0.2,0.7,0.5,1.1,0.7c1.9-2.1,3.7-4.3,6.1-7.1c0.2,1,0.9,2.1,0.6,2.5
		c-1.9,2.5-3.8,5.1-6.2,7.1c-1.1,0.9-3.8,1.1-5.1,0.4c-1.1-0.6-1.9-3.1-1.6-4.5c1.3-6.7,3.1-13.2,4.7-19.8c0.3-1.1,0.5-2.3,0.9-3.6
		c-1.8-0.1-3.4-0.2-5.2-0.3c0.3-1.1,0.5-2.1,0.8-3.5c6.8,2.1,6.8-3.4,7.9-7.2C294.9,618.5,296.3,617.3,299.8,618.6z"/>
	<path class="st0" d="M526.7,660.3c2.5-9.2,6.6-17.6,8.3-26.8c-0.5-0.2-1-0.5-1.5-0.7c-2,2.6-4,5.1-6,7.7c-0.5-0.4-0.9-0.8-0.9-0.9
		c2.8-3.6,5.2-7.7,8.5-10.7c2.3-2.1,5.5,0.7,4.9,4.2c-0.6,3.4-1.7,6.7-2.8,10.9c2.5-4.1,4.5-7.5,6.7-10.8c1.1-1.6,2.5-3.2,4.2-4.1
		c1.1-0.6,2.8,0.3,4.3,0.5c-0.3,1.6-0.6,3.1-1.1,4.6c-0.1,0.4-1,0.8-1.5,0.8c-4.9,0.2-7,3.8-9.1,7.4c-2.7,4.9-5.5,9.8-7.9,14.9
		C531.6,660.2,530,661.5,526.7,660.3z"/>
	<path class="st0" d="M538.7,479.2c2.5-9.1,6.6-17.7,8.4-26.8c-0.5-0.2-1-0.5-1.6-0.7c-2,2.6-4,5.1-6.3,8.2c-0.2-1.2-0.7-2-0.4-2.3
		c2.1-3,4-6.1,6.5-8.7c1-1,3.8-1.7,4.9-1c1.2,0.7,1.9,3.2,1.7,4.7c-0.4,3.2-1.6,6.3-2.2,9.5c2.1-3.3,4-6.8,6.2-10
		c1.1-1.6,2.5-3.3,4.2-4.1c1.1-0.6,2.9,0.2,4.3,0.4c-0.3,1.6-0.6,3.1-1,4.7c-0.1,0.3-0.8,0.7-1.2,0.7c-6.1,0.5-8.2,5.3-10.7,9.6
		c-2.4,4.2-4.7,8.4-6.7,12.8C543.7,479,542.1,480.4,538.7,479.2z"/>
	<path class="st0" d="M212.8,451.8c-2,2.6-4.1,5.1-6.1,7.7c-0.2-4,5.1-11.1,8.1-12c2.8-0.9,5.1,1.4,4.5,4.8
		c-0.6,3.3-1.7,6.5-2.3,9.9c1.9-3.1,3.6-6.3,5.7-9.3c1.2-1.8,2.8-3.4,4.5-4.8c1.6-1.3,3.7-1.2,4.4,0.7c0.4,1.2-0.6,3-1.2,4.5
		c-0.1,0.3-0.8,0.6-1.2,0.7c-5.2,0.2-7.3,4.2-9.5,7.9c-2.7,4.8-5.2,9.7-7.8,14.6c-1.7,3.2-1.7,3.2-6,2.9c2.2-9.1,6.7-17.7,8.2-26.9
		C213.8,452.2,213.3,452,212.8,451.8z"/>
	<path class="st0" d="M1040.4,451.7c-2.1,2.6-4.1,5.1-6.5,8.2c-0.1-4.4,5.8-12.1,9-12.6c2.6-0.4,4.6,1.9,4,5.1
		c-0.6,3.3-1.7,6.5-2.8,10.6c2.6-4.2,4.5-7.7,6.8-10.9c1.1-1.6,2.5-3.2,4.2-4.1c1.1-0.5,2.8,0.3,4.3,0.6c-0.3,1.5-0.4,3-0.9,4.4
		c-0.2,0.5-1.1,1-1.8,1c-4.7,0.3-6.9,3.6-8.9,7.2c-2.8,5-5.6,10-8.1,15.2c-1.3,2.9-3,4-6.1,2.9c2.2-9.1,6.7-17.5,8.2-26.8
		C1041.3,452.2,1040.8,452,1040.4,451.7z"/>
	<path class="st0" d="M295.6,479.2c2.4-9,6.6-17.5,8.3-26.7c-0.5-0.3-0.9-0.5-1.4-0.8c-2,2.6-4.1,5.1-6.4,8
		c-0.4-0.9-0.8-1.5-0.6-1.7c2.3-3.2,4.5-6.6,7.1-9.5c0.8-0.9,3.4-1.4,4.3-0.8c1.1,0.8,2.1,2.9,1.9,4.4c-0.4,3.3-1.6,6.5-2.2,10
		c1.8-3,3.4-6.1,5.4-9c1.4-2,3.1-3.9,5.1-5.2c0.8-0.6,3.5-0.2,3.8,0.5c0.5,1.2,0,2.9-0.3,4.4c-0.1,0.5-1.1,1.1-1.7,1.1
		c-5.4,0.3-7.5,4.4-9.7,8.2c-2.7,4.7-5.3,9.4-7.5,14.3C300.4,479.4,298.6,480.2,295.6,479.2z"/>
	<path class="st0" d="M206,282.5c2.5-4.1,4.5-7.5,6.7-10.8c1.1-1.6,2.5-3.2,4.2-4.1c1.1-0.6,2.8,0.3,4.3,0.5
		c-0.3,1.6-0.6,3.1-1.1,4.6c-0.1,0.4-1,0.8-1.5,0.8c-4.7,0.2-6.9,3.6-8.9,7.1c-2.8,5-5.6,10-8.1,15.2c-1.3,2.8-2.9,4.1-6.2,2.9
		c2.3-9,6.7-17.6,8.2-26.8c-0.5-0.2-1-0.5-1.5-0.7c-2,2.6-4,5.1-6,7.7c-0.5-0.4-0.9-0.8-0.9-0.9c2.8-3.6,5.2-7.7,8.5-10.7
		c2.3-2.1,5.5,0.7,4.9,4.2C208.3,275,207.1,278.3,206,282.5z"/>
	<path class="st0" d="M195.8,641.1c-0.1-4.4,5.9-12.1,9-12.6c2.4-0.4,4.4,1.6,4.1,4.4c-0.3,2.3-1.1,4.6-1.7,6.8
		c-0.3,1.2-0.8,2.3-0.7,3.7c2.1-3.4,4-6.8,6.3-10.1c1.1-1.6,2.5-3.2,4.2-4.1c1.1-0.5,2.8,0.3,4.3,0.6c-0.3,1.5-0.5,3-0.9,4.4
		c-0.1,0.4-0.9,0.9-1.4,0.9c-5.8,0.4-7.9,5-10.3,9.1c-2.5,4.4-4.9,8.8-7,13.4c-1.3,2.9-3,3.9-6.2,2.9c2.6-8.9,6.4-17.6,8.6-26.7
		c-0.5-0.3-1-0.6-1.6-0.8C200.3,635.4,198.3,638,195.8,641.1z"/>
	<path class="st0" d="M1029.2,632.9c-2.1,2.6-4.2,5.1-6.3,7.7c-0.4-0.3-0.7-0.6-1.1-0.9c2.4-4.1,4.4-8.5,9-10.9
		c2.8-1.4,5.4,1,4.8,4.6c-0.6,3.3-1.7,6.5-2.3,9.9c1.9-3.1,3.6-6.3,5.7-9.3c1.2-1.8,2.8-3.4,4.5-4.8c1.6-1.3,3.7-1.2,4.4,0.8
		c0.4,1.2-0.7,3-1.2,4.5c-0.1,0.2-0.6,0.5-0.9,0.5c-6.3,0.5-8.4,5.7-11,10.2c-2.3,4.1-4.4,8.3-6.6,12.4c-1.7,3.2-1.7,3.2-5.9,2.9
		c2.1-9.2,6.7-17.6,8.2-26.9C1030.1,633.3,1029.6,633.1,1029.2,632.9z"/>
	<path class="st0" d="M434.6,451.8c-1.3,1.7-2.5,3.4-3.8,5c-0.5,0.6-1.3,0.9-2,1.4c0-0.8-0.3-1.8,0.1-2.3c1.7-2.4,3.3-5,5.5-6.8
		c1.4-1.1,4.1-1.8,5.5-1.1c1,0.5,1.7,3.6,1.3,5.2c-1.3,5.2-3.2,10.3-4.9,15.4c-0.8,2.4-1.6,4.7-2.3,7.1c0.4,0.3,0.9,0.5,1.3,0.8
		c2.2-2.5,4.5-4.9,6.7-7.4c0.4,0.4,0.9,0.8,1.3,1.3c-2.4,2.9-4.6,6-7.4,8.6c-1.1,1-4,1.3-5,0.6c-1.2-0.9-2.1-3.6-1.7-5.1
		c1.7-6.2,3.9-12.3,5.9-18.4c0.4-1.2,0.5-2.5,0.7-3.7C435.4,452.1,435,452,434.6,451.8z"/>
	<path class="st0" d="M423.3,632.9c-1.7,2.2-3.4,4.4-5.7,7.4c-0.2-1.4-0.6-2.4-0.3-2.8c2-2.7,4-5.5,6.5-7.8c1-1,3.7-1.5,4.7-0.9
		c1.2,0.8,2,3.3,1.7,4.8c-1.3,5.2-3.1,10.3-4.8,15.4c-0.8,2.6-1.7,5.2-2.6,7.8c0.5,0.3,1,0.6,1.4,0.9c2-2.4,4-4.8,6.3-7.7
		c0.3,0.7,0.9,1.6,0.7,1.9c-1.9,2.7-3.6,5.6-6,7.7c-1.2,1.1-4.3,1.7-5.5,0.9c-1.2-0.8-2-3.7-1.6-5.4c1.6-6.1,3.8-12,5.8-18.1
		c0.4-1.2,0.4-2.4,0.7-3.7C424.1,633.3,423.7,633.1,423.3,632.9z"/>
	<path class="st0" d="M249.8,271.3c-1.7,2.3-3.4,4.5-5.7,7.4c-0.2-1.4-0.7-2.3-0.4-2.6c2.2-2.8,4.4-5.8,7-8.3
		c0.9-0.9,3.4-1.1,4.4-0.5c1,0.6,1.8,2.9,1.6,4.2c-0.7,3.7-1.9,7.2-3.1,10.8c-1.4,4.3-2.9,8.5-4.4,13.2c4.9,0,4.8-6,8.3-6.7
		c0.3,0.4,0.6,0.7,1,1.1c-2.2,2.7-4.1,5.6-6.5,8.1c-1.6,1.7-4.1,2.9-5.9,1c-1.2-1.2-1.8-3.9-1.4-5.6c1.6-6,3.8-11.8,5.7-17.7
		c0.4-1.2,0.5-2.5,0.8-3.7C250.7,271.8,250.3,271.5,249.8,271.3z"/>
	<path class="st0" d="M249.9,632.9c-1.3,1.8-2.6,3.6-4,5.4c-0.4,0.5-1.2,0.7-1.8,1c0-0.7-0.3-1.6,0-2.1c2-2.6,3.9-5.3,6.3-7.5
		c1.1-1,3.7-1.6,4.7-0.9c1.2,0.8,2.1,3.3,1.7,4.7c-1.3,5.2-3.1,10.3-4.8,15.4c-0.8,2.6-1.7,5.2-2.6,7.8c0.4,0.3,0.9,0.5,1.3,0.8
		c2.3-2.5,4.5-5,6.8-7.4c0.4,0.4,0.8,0.8,1.2,1.2c-2.2,2.8-4.1,5.9-6.8,8.2c-1.2,1.1-4.3,1.7-5.5,0.9c-1.2-0.7-2-3.7-1.6-5.4
		c1.6-6.1,3.8-12,5.8-18.1c0.4-1.2,0.4-2.4,0.7-3.7C250.7,633.3,250.3,633.1,249.9,632.9z"/>
	<path class="st0" d="M237.9,451.8c-1.7,2.2-3.4,4.5-5.8,7.6c-0.1-1.6-0.5-2.6-0.2-3c1.9-2.6,3.8-5.4,6.2-7.6c1.1-1,4-1.7,4.9-1
		c1.2,0.9,2,3.6,1.6,5.1c-1.7,6.3-4,12.5-6,18.7c-0.4,1.3-0.8,2.6-1.2,4.1c2.6-0.2,2.6-0.2,7.6-7.1c0.3,1.1,0.9,2,0.7,2.3
		c-2,2.7-3.8,5.7-6.3,7.9c-1.1,1-4.1,1.4-5.3,0.6c-1.2-0.8-2-3.6-1.6-5.1c1.7-6.2,3.9-12.3,5.9-18.4c0.4-1.1,0.5-2.3,0.7-3.5
		C238.8,452.2,238.3,452,237.9,451.8z"/>
	<path class="st0" d="M301.2,670.5c2-1.8,3.6-3.1,5-4.5c1.8-1.8,2.8-3.6,0.5-6c-0.8-0.8-0.8-3.1-0.2-4.4c0.4-0.9,2.6-1.8,3.5-1.5
		c1.3,0.5,2.7,1.9,3.1,3.2C314.6,661.7,307.6,670.3,301.2,670.5z"/>
	<path class="st0" d="M313.1,489.4c1.9-2,3.5-3.6,5-5.3c1.4-1.6,1.6-3,0.1-5c-0.8-1.1-1.1-3.3-0.5-4.6c0.4-0.9,2.8-1.9,3.7-1.5
		c1.3,0.6,2.7,2.3,2.9,3.8C325.2,481.6,318.6,489,313.1,489.4z"/>
	<path class="st0" d="M250.7,435.7c-2.5,1.7-3.9,3.3-5.5,3.5c-2.2,0.4-3.7-1.3-3.8-3.6c0-2.5,1.7-4.2,4-3.8
		C247,432.1,248.3,433.8,250.7,435.7z"/>
	<path class="st0" d="M257.3,622.1c-1.8-2.5-3.5-3.8-3.7-5.3c-0.4-2.4,1.6-4.2,3.8-3.8c1.4,0.3,3.3,2.4,3.5,3.8
		C261,618.1,259,619.6,257.3,622.1z"/>
	<path class="st0" d="M257.3,260.5c-1.8-2.5-3.5-3.8-3.8-5.3c-0.4-2.4,1.6-4.2,3.8-3.8c1.4,0.3,3.4,2.3,3.5,3.8
		C261,256.5,259,258.1,257.3,260.5z"/>
	<path class="st0" d="M430.5,622.1c-1.7-2.5-3.4-3.9-3.6-5.5c-0.3-2.4,1.7-4.2,3.9-3.6c1.4,0.3,3.3,2.5,3.4,3.9
		C434.3,618.2,432.3,619.7,430.5,622.1z"/>
	<path class="st0" d="M436.4,435.6c2.5-1.8,3.9-3.5,5.4-3.7c2.4-0.3,3.9,1.5,3.8,3.9c-0.1,2.3-1.7,3.9-3.9,3.5
		C440.2,438.9,438.9,437.3,436.4,435.6z"/>
	<path class="st0" d="M748.5,631.5"/>
	<path class="st0" d="M736.7,647.7"/>
</g>
<path class="st0" d="M195.3,184.4c0,15.8,0,30.7,0,45.7c-2.6,0-4.9,0-7.5,0c0-18.7,0-37.4,0-56.2c4.9-0.7,8.8-0.5,12.4,4.3
	c10,13,20.7,25.5,31.1,38.3c0.6,0.7,1.2,1.4,2.5,2.8c0-15.6,0-30.4,0-45.4c2.8,0,5.1,0,7.8,0c0.1,1,0.2,2,0.2,3
	c0,16.7-0.1,33.4,0.1,50c0,2.9-0.9,3.5-3.6,3.6c-3.4,0-5.8-0.7-8.1-3.6c-10.9-13.7-22.1-27.1-33.1-40.7
	C196.7,185.8,196.3,185.5,195.3,184.4z"/>
<path class="st0" d="M356.6,205.4c9.8,5.4,8.2,16.8,14.6,24.6c-3.3,0-5.8,0.2-8.3-0.1c-0.9-0.1-2-1.2-2.4-2.1
	c-1.5-3.6-2.8-7.2-3.9-10.9c-1.4-4.8-4.4-7.9-9.4-8.1c-7.8-0.3-15.6-0.1-23.9-0.1c0,5.6,0,11.2,0,16.8c0,4.5,0,4.5-4.7,4.5
	c-1,0-2.1,0-3.4,0c0-18.7,0-37.2,0-55.8c0.1-0.1,0.2-0.3,0.4-0.3c12,0,24-0.4,35.9,0.1c11,0.5,17.9,10.3,15.7,21
	C366.3,199.9,363.7,202.5,356.6,205.4z M323.5,202c5.8,0,11.1,0.1,16.5,0c3.4-0.1,6.8-0.3,10.1-0.8c7-1,10.7-6.9,8.5-13.4
	c-1.4-4.2-5.4-6.7-11.3-6.8c-7-0.1-14.1,0-21.1,0c-0.9,0-1.8,0.2-2.8,0.3C323.5,188.2,323.5,194.9,323.5,202z"/>
</svg>
