<?xml version="1.0" encoding="utf-8"?>
<!-- Generator: Adobe Illustrator 24.0.0, SVG Export Plug-In . SVG Version: 6.00 Build 0)  -->
<svg version="1.1" id="Layer_1" xmlns="http://www.w3.org/2000/svg" xmlns:xlink="http://www.w3.org/1999/xlink" x="0px" y="0px"
	 viewBox="0 0 719.9 1190.6" style="enable-background:new 0 0 719.9 1190.6;" xml:space="preserve">
<style type="text/css">
	.st0{fill:#FFFFFF;}
</style>
<g>
	<path class="st0" d="M395.2,1059.3c0.6,1.2,2.9,3.8,4.2,3.8c1.2,0,1.2-1.5,3-1.5c1.3,0,2.2,1.1,2.2,2.3c0,1.5-1.3,2.3-2.6,2.3
		c-3.5,0-6.2-3.5-7.7-6.4L395.2,1059.3z"/>
	<path class="st0" d="M395.2,1051.3c0.6,1.2,2.9,3.8,4.2,3.8c1.2,0,1.2-1.5,3-1.5c1.3,0,2.2,1.1,2.2,2.3c0,1.5-1.3,2.3-2.6,2.3
		c-3.5,0-6.2-3.5-7.7-6.4L395.2,1051.3z"/>
	<path class="st0" d="M394.7,1026.8l7.5-0.6l0.3,1.3c-3.7,1-6.5,2.8-6.5,7c0,1.1,0.6,1.3,1.6,1.5l19.4,5.1c0.7,0.2,2,0.6,2.8,0.6
		c1.7,0,1.8-1.9,1.8-3.2l1.3,0.3v11.2l-1.3-0.3c0-1.1,0-2.3-0.8-3.2c-1-1-2.3-1.3-3.6-1.7l-19.5-5.2c-0.6-0.2-1.8-0.5-1.8,0.5
		c0,3.8,3.3,8.1,6.2,10.4l-0.7,1.2l-6.7-4L394.7,1026.8L394.7,1026.8z"/>
	<path class="st0" d="M399.5,1023.5c-0.5-0.1-1.3-0.3-1.7-0.3c-0.8,0-1.1,0.4-1,2.5l-1.3-0.3l-1.1-6.3l21.2,5.7l0.1-0.1
		c-2.8-1.5-12.1-6.4-12.1-9.7c0-1.5,1.5-2.5,2.9-2.5c1.1,0,3,0.6,4.1,1l8.6,2.9c0.3,0.1,0.8,0.3,1.1,0.3c0.3,0,0.6-0.2,0.6-0.5
		c0-1.2-3.4-3-4.4-3.7l0.7-1.1c2,1.3,6.1,3.5,6.1,6.3c0,1.5-1.3,2.2-2.7,2.2c-1,0-2.2-0.4-3-0.7l-7.9-2.7c-0.7-0.2-1.6-0.6-2.3-0.6
		c-0.4,0-0.9,0.2-0.9,0.7c0,1.3,4.6,4.2,5.3,4.6c5,2.5,7.8,4.4,11,5.6v3.2L399.5,1023.5z"/>
	<path class="st0" d="M417.6,995.4c2.7,1.6,5.7,4.5,5.7,7.9c0,3.4-2.9,5.2-6.1,5.2c-5.1,0-13.5-5-13.5-10.6c0-2,1.2-3.7,3.4-3.7
		c4.8,0,8.2,6.7,9.5,10.6c0.6,0.1,1.2,0.1,1.7,0.1c2.9,0,3.4-1,3.4-2.3c0-2.4-2.7-5-4.6-6.2L417.6,995.4z M406.9,996.8
		c-0.8,0-1.6,0.4-1.6,1.3c0,1.9,3.7,5.4,9.7,6.5C414.1,1001.5,410.4,996.8,406.9,996.8z"/>
	<path class="st0" d="M407.8,965.1c2.9,0.7,7.3,1.8,10.3,1.8c0.8,0,2.8-0.1,2.8-1.3c0-2-7-5.8-10.8-5.8c-1.9,0-2.6,1.4-4.3,1.4
		c-1.1,0-2.2-0.7-2.2-1.8c0-1.6,2-2.2,3.2-2.2c4.3,0,16.5,4.3,16.5,9.5c0,2.5-2.8,3.3-4.8,3.3c-1.3,0-4.1-0.6-7.1-1.5l-0.1,0.1
		c3.6,1.2,12,4.4,12,8.9c0,1.8-1.7,2.9-3.3,2.9c-1.4,0-2.7-0.4-4-0.8l-6.7-2.2c-0.3-0.1-1.5-0.5-1.8-0.5s-0.7,0.1-0.7,0.4
		c0,1,3.1,2.9,3.9,3.5l-0.7,1c-1.7-1-6.4-4.2-6.4-6.3c0-1.5,1.1-2.1,2.5-2.1c1.3,0,3.2,0.7,4.3,1.1l6.7,2.2c0.7,0.2,1.5,0.5,2.1,0.5
		s1.2-0.3,1.2-1c0-3.6-13.2-8.1-16.3-9.1v-3L407.8,965.1z"/>
	<path class="st0" d="M409.7,939.7c6.5,0,13.5,5.5,13.5,10.3c0,3.4-2.7,5.5-6,5.5c-5.1,0-13.7-4.7-13.7-10.5
		C403.6,942.5,405.8,939.7,409.7,939.7z M419.1,952.4c1.6,0,2.9-0.7,2.9-2.4c0-4-10.7-7-14-7c-1.5,0-3.2,0.5-3.2,2.3
		C404.9,949.4,415.9,952.4,419.1,952.4z"/>
	<path class="st0" d="M422.9,934.1v2.8l-13.2-4.5c-0.7-0.2-1.5-0.5-2.2-0.5c-0.3,0-1,0.2-1,0.5c0,1.2,3.6,3,4.5,3.7l-0.7,1
		c-1.8-1.2-6.8-3.8-6.8-6.3c0-1.4,1.1-2.1,2.4-2.1c1.5,0,4.2,0.9,5.6,1.5l3.3,1.2l0.1-0.1c-2.4-1.4-11.4-5.3-11.4-8.5
		c0-1,0.8-1.8,1.8-1.8c1.6,0,2.3,1.4,2.5,2.8c0.2,1.3,0.5,1.8,1.5,2.7c2,1.7,6.5,4,9,5.3L422.9,934.1z"/>
	<path class="st0" d="M418.6,918.6c0.4,0.1,1.2,0.3,1.6,0.3c0.3,0,0.7-0.1,0.7-0.5c0-1-3.8-2.9-4.7-3.4l0.5-1.1
		c2.1,1.1,6.6,3,6.6,5.8c0,1.6-1.3,2.3-2.8,2.3c-1,0-2.4-0.4-3.4-0.6l-17.6-4.7c-0.5-0.1-1.3-0.3-1.7-0.3c-1.2,0-1,1.1-1,2.6
		l-1.3-0.3l-1.1-6.6L418.6,918.6z"/>
	<path class="st0" d="M399.5,896.7c-0.5-0.1-1.3-0.3-1.7-0.3c-1.2,0-1,1.1-1,2.6l-1.3-0.3l-1.1-6.6l23.8,6.5
		c0.4,0.1,1.2,0.3,1.6,0.3s1-0.2,1-0.6c0-1.2-3.6-2.7-4.6-3.2l0.5-1.1c2.2,1,6.5,3.1,6.5,6c0,1.2-1.1,2.3-2.3,2.3
		c-0.8,0-1.5-0.2-2.2-0.4l-0.1,0.1c2.2,1.3,4.5,3.4,4.5,6.2c0,2.7-2.9,3.8-5.2,3.8c-6,0-14.5-5.9-14.5-10.7c0-1.2,0.4-2,1-3
		L399.5,896.7z M410.7,906.1c2,1,5.8,2.2,8,2.2c0.9,0,2.6-0.2,2.6-1.5c0-3.8-10-7.7-13.2-7.7c-1.3,0-2.7,0.5-2.7,2
		C405.4,903.3,409,905.2,410.7,906.1z"/>
	<path class="st0" d="M417.1,872.2c2,1.3,6.2,3.4,6.2,6.2c0,1.4-1.2,2.3-2.5,2.3c-1,0-2.6-0.5-3.6-0.9l-7.9-2.7
		c-0.4-0.2-1.4-0.5-1.8-0.5c-0.3,0-1,0.2-1,0.5c0,0.8,3.3,2.7,4,3.2l-0.7,1.1c-2-1.2-6.2-3.7-6.2-6.3c0-1.3,1.1-1.9,2.3-1.9
		c1.4,0,3,0.5,4.3,1l8.7,2.9c0.3,0.1,1.1,0.4,1.5,0.4c0.3,0,0.5-0.2,0.5-0.5c0-1.2-3.5-3.1-4.4-3.7L417.1,872.2z M394.3,872.9
		c0-1.3,1-2.3,2.3-2.3s2.3,1,2.3,2.3s-1,2.3-2.3,2.3C395.3,875.3,394.3,874.2,394.3,872.9z"/>
	<path class="st0" d="M419.4,871.4c-1,0-2-0.8-2-1.8c0-2.8,4.1-1.3,4.1-4.6c0-1.7-1.2-2.8-2.8-2.8c-3.8,0-4.8,6.5-9.8,6.5
		c-2.9,0-5.4-2.7-5.4-6.2c0-2,1.3-4.9,3.7-4.9c1,0,1.7,0.7,1.7,1.8c0,1.9-3.7,1.8-3.7,4.2c0,1.3,1.5,2.1,2.7,2.1
		c3.5,0,4.6-6.5,9.7-6.5c2.8,0,5.6,2.5,5.6,6.5C423.3,868.6,421.5,871.4,419.4,871.4z"/>
	<path class="st0" d="M419.4,847.4c-1,0-2-0.8-2-1.8c0-2.8,4.1-1.3,4.1-4.6c0-1.7-1.2-2.8-2.8-2.8c-3.8,0-4.8,6.5-9.8,6.5
		c-2.9,0-5.4-2.7-5.4-6.2c0-2,1.3-4.9,3.7-4.9c1,0,1.7,0.7,1.7,1.8c0,1.9-3.7,1.8-3.7,4.2c0,1.3,1.5,2.1,2.7,2.1
		c3.5,0,4.6-6.5,9.7-6.5c2.8,0,5.6,2.5,5.6,6.5C423.3,844.6,421.5,847.4,419.4,847.4z"/>
	<path class="st0" d="M415.9,817.3c0.8,0.3,3.1,1.1,3.9,1.1c0.3,0,1.1-0.2,1.1-0.5c0-1-3.7-3.1-4.6-3.7l0.7-1.1
		c2,1.2,6.3,3.9,6.3,6.4c0,1.4-1.2,2.1-2.3,2.1c-1.8,0-4.8-1.2-6.5-1.8l-3.8-1.6l-0.1,0.1l8.9,5.4c1.4,1,3.8,2.8,3.8,4.7
		c0,1.8-1.5,2.5-3.1,2.5c-1.3,0-3.6-0.9-4.9-1.4l-6.7-2.4c-0.4-0.2-1.3-0.5-1.8-0.5c-0.3,0-0.3,0.2-0.3,0.5c0,1,3.2,3.1,4,3.7
		l-0.8,1.1c-1.8-1.3-6.1-3.7-6.1-6.2c0-1.4,1.3-2.3,2.7-2.3c1.2,0,3.5,0.9,4.7,1.3l6.2,2.3c0.7,0.2,2,0.8,2.7,0.8c0.4,0,1-0.3,1-0.7
		c0-0.9-1.8-1.9-2.5-2.4L404,816v-2.8L415.9,817.3z"/>
	<path class="st0" d="M404.4,798.8l2.1,0.5v4.3l5.3,1.3c12.7,3.1,17.3,7.3,17.3,10.1c0,1.1-0.6,2.1-1.8,2.1c-1.2,0-1.8-1-1.8-2.1
		l0.1-1.5c0-0.9-0.3-1.5-1.2-1.9c-1.2-0.5-3.3-0.9-4.6-1.2l-13.2-3.6v3.3l-2.1-0.5v-3.3c-3.7-1.1-10.2-4.7-10.2-9.1
		c0-1.2,0.8-2.8,2.3-2.8c1.1,0,1.7,1.1,1.7,2c0,1.1-1.1,1.8-1.1,2.7c0,2.3,5.5,3.3,7.3,3.9L404.4,798.8L404.4,798.8z"/>
	<path class="st0" d="M404.4,786.1l2.1,0.5v4.3l5.3,1.3c12.7,3.1,17.3,7.3,17.3,10.1c0,1.1-0.6,2.1-1.8,2.1c-1.2,0-1.8-1-1.8-2.1
		l0.1-1.5c0-0.9-0.3-1.5-1.2-1.9c-1.2-0.5-3.3-0.9-4.6-1.2l-13.2-3.6v3.3l-2.1-0.5v-3.3c-3.7-1.1-10.2-4.7-10.2-9.1
		c0-1.2,0.8-2.8,2.3-2.8c1.1,0,1.7,1.1,1.7,2c0,1.1-1.1,1.8-1.1,2.7c0,2.3,5.5,3.3,7.3,3.9L404.4,786.1L404.4,786.1z"/>
	<path class="st0" d="M417.6,774.9c2.7,1.6,5.7,4.5,5.7,7.9c0,3.4-2.9,5.2-6.1,5.2c-5.1,0-13.5-5-13.5-10.6c0-2,1.2-3.7,3.4-3.7
		c4.8,0,8.2,6.7,9.5,10.6c0.6,0.1,1.2,0.1,1.7,0.1c2.9,0,3.4-1,3.4-2.3c0-2.4-2.7-5-4.6-6.2L417.6,774.9z M406.9,776.3
		c-0.8,0-1.6,0.4-1.6,1.3c0,1.9,3.7,5.4,9.7,6.5C414.1,781,410.4,776.3,406.9,776.3z"/>
	<path class="st0" d="M422.9,768.7v2.8l-13.2-4.5c-0.7-0.2-1.5-0.5-2.2-0.5c-0.3,0-1,0.2-1,0.5c0,1.2,3.6,3,4.5,3.7l-0.7,1
		c-1.8-1.2-6.8-3.8-6.8-6.3c0-1.4,1.1-2.1,2.4-2.1c1.5,0,4.2,0.9,5.6,1.5l3.3,1.2l0.1-0.1c-2.4-1.4-11.4-5.3-11.4-8.5
		c0-1,0.8-1.8,1.8-1.8c1.6,0,2.3,1.4,2.5,2.8c0.2,1.3,0.5,1.8,1.5,2.7c2,1.7,6.5,4,9,5.3L422.9,768.7z"/>
	<path class="st0" d="M417.1,747.2c2,1.3,6.2,3.4,6.2,6.2c0,1.4-1.2,2.3-2.5,2.3c-1,0-2.6-0.5-3.6-0.9l-7.9-2.7
		c-0.4-0.2-1.4-0.5-1.8-0.5c-0.3,0-1,0.2-1,0.5c0,0.8,3.3,2.7,4,3.2l-0.7,1.1c-2-1.2-6.2-3.7-6.2-6.3c0-1.3,1.1-1.9,2.3-1.9
		c1.4,0,3,0.5,4.3,1l8.7,2.9c0.3,0.1,1.1,0.4,1.5,0.4c0.3,0,0.5-0.2,0.5-0.5c0-1.2-3.5-3.1-4.4-3.7L417.1,747.2z M394.3,747.9
		c0-1.3,1-2.3,2.3-2.3s2.3,1,2.3,2.3s-1,2.3-2.3,2.3S394.3,749.2,394.3,747.9z"/>
	<path class="st0" d="M412.4,740.6c-1-0.3-3.9-1.4-4.8-1.4c-0.4,0-1.1,0.1-1.1,0.5c0,0.7,1.6,1.7,4.5,3.7l-0.6,1.1
		c-1.9-1.2-6.8-3.9-6.8-6.4c0-1.5,1.5-2.1,2.8-2.1c2.8,0,6.4,1.7,9.1,2.8l1.1,0.5l0.1-0.1l-10.1-6.2c-1.2-0.9-2.9-2.2-2.9-3.8
		c0-1.7,1.7-2.3,3.1-2.3c1.7,0,4,0.9,5.7,1.5l6.3,2.1c0.3,0.1,1.3,0.5,1.7,0.5c0.3,0,0.5-0.2,0.5-0.5c0-1.2-3.3-3.1-4.2-3.7l0.6-1
		c3.5,2.2,6,3.8,6,6.2c0,1.3-1.1,2.2-2.3,2.2c-1,0-2.5-0.5-3.6-0.8l-7.1-2.5c-0.6-0.2-2.1-0.7-2.7-0.7c-0.4,0-1,0.2-1,0.7
		c0,0.8,1.4,1.6,2,2l14.3,8.7v2.8L412.4,740.6z"/>
	<path class="st0" d="M416.1,720.3c-0.9,1.1-2.3,1.7-3.7,1.7c-4.2,0-8.8-3.5-8.8-7.9c0-1.4,0.5-2.4,1.4-3.5
		c-0.8-0.9-1.9-2.3-1.9-3.5c0-1,0.6-2,1.7-2s1.7,0.8,1.7,1.8c0,0.8-0.4,1-0.4,1.6c0,0.4,0.2,0.7,0.4,1c1-0.5,1.7-0.6,2.8-0.6
		c4,0,8.3,3.3,8.3,7.5c0,0.8-0.2,1.5-0.5,2.3c0.3,0.3,0.9,1.3,1.3,1.3c1.6,0,1-9.9,6.5-9.9c4.4,0,5.4,5.4,5.4,8.8c0,5.4-2.3,8-4,8
		c-2.5,0-3.7-3-4.5-4.9c-0.3,1-0.6,2.4-1.8,2.4c-1.1,0-1.9-1.4-2.4-2.1L416.1,720.3z M426.3,723.8c2,0,2.4-3.7,2.4-5.1
		c0-1.6-0.4-5.3-2.7-5.3c-2.4,0-2.8,4.4-3.3,6C423.2,720.8,424.5,723.8,426.3,723.8z M408.8,712.1c-1.3,0-3.4,0.3-3.4,2.1
		c0,3,4.9,4.6,7.3,4.6c1.5,0,3.3-0.5,3.3-2.2C416.1,715.1,414.2,712.1,408.8,712.1z"/>
	<path class="st0" d="M404.4,683.6l2.1,0.5v4.3l5.3,1.3c12.7,3.1,17.3,7.3,17.3,10.1c0,1.1-0.6,2.1-1.8,2.1c-1.2,0-1.8-1-1.8-2.1
		l0.1-1.5c0-0.9-0.3-1.5-1.2-1.9c-1.2-0.5-3.3-0.9-4.6-1.2l-13.2-3.6v3.3l-2.1-0.5v-3.3c-3.7-1.1-10.2-4.7-10.2-9.1
		c0-1.2,0.8-2.8,2.3-2.8c1.1,0,1.7,1.1,1.7,2c0,1.1-1.1,1.8-1.1,2.7c0,2.3,5.5,3.3,7.3,3.9L404.4,683.6L404.4,683.6z"/>
	<path class="st0" d="M422.9,682.5v2.8l-13.2-4.5c-0.7-0.2-1.5-0.5-2.2-0.5c-0.3,0-1,0.2-1,0.5c0,1.2,3.6,3,4.5,3.7l-0.7,1
		c-1.8-1.2-6.8-3.8-6.8-6.3c0-1.4,1.1-2.1,2.4-2.1c1.5,0,4.2,0.9,5.6,1.5l3.3,1.2l0.1-0.1c-2.4-1.4-11.4-5.3-11.4-8.5
		c0-1,0.8-1.8,1.8-1.8c1.6,0,2.3,1.4,2.5,2.8c0.2,1.3,0.5,1.8,1.5,2.7c2,1.7,6.5,4,9,5.3L422.9,682.5z"/>
	<path class="st0" d="M409.7,654.4c6.5,0,13.5,5.5,13.5,10.3c0,3.4-2.7,5.5-6,5.5c-5.1,0-13.7-4.7-13.7-10.5
		C403.6,657.1,405.8,654.4,409.7,654.4z M419.1,667c1.6,0,2.9-0.7,2.9-2.4c0-4-10.7-7-14-7c-1.5,0-3.2,0.5-3.2,2.3
		C404.9,664,415.9,667,419.1,667z"/>
	<path class="st0" d="M409.4,647c-0.5-0.2-1.5-0.5-2-0.5c-0.3,0-0.9,0.1-0.9,0.5c0,0.8,2.3,2.2,3,2.7l1.4,0.9l-0.6,1.1
		c-4.1-2.5-6.7-4.3-6.7-6.3c0-1.5,1.5-2.1,2.9-2.1c1.6,0,4.6,1.2,6.1,1.7l4.5,1.8l0.1-0.1l-7.8-4.4c-1.9-1.2-5.8-3.7-5.8-6.2
		c0-1.7,1.3-2.5,2.9-2.5c1.7,0,4.5,1.1,6.1,1.7l4.5,1.8l0.1-0.1l-0.7-0.3c-3.1-1.7-12.9-6.6-12.9-10.5c0-1.7,1.2-2.3,2.8-2.3
		c2,0,4.3,1,6.2,1.6l6.1,2.2c0.5,0.2,1.2,0.4,1.7,0.4c0.3,0,0.5-0.2,0.5-0.5c0-0.7-1.3-1.9-4.3-3.7l0.6-1.1c2,1.3,6.1,3.5,6.1,6.1
		c0,1.5-1.1,2.4-2.5,2.4c-1.1,0-2.5-0.5-3.5-0.9l-7.8-2.8c-0.5-0.2-1.4-0.6-1.9-0.6s-1,0.3-1,0.8c0,0.6,0.8,2.3,9,7l7.4,4.2v2.8
		l-13.4-4.7c-0.5-0.2-1.5-0.5-2.1-0.5c-0.5,0-0.8,0.3-0.8,0.8c0,1.1,0,1.5,8.1,6.3l8.2,4.8v2.9L409.4,647z"/>
	<path class="st0" d="M404.1,595.1v-3.4l8.1,2.9c1.2,0.4,6.6,2.3,7.6,2.3c0.3,0,0.6-0.2,0.6-0.5c0-0.7-1.3-2.1-4.3-3.8l0.6-1
		c4.2,2.5,6.6,4.2,6.6,6.3c0,1.3-1,2.2-2.3,2.2c-1,0-1.8-0.2-2.6-0.5l-0.1,0.1c2.6,1.1,5,3.1,5,6.2c0,3-2.6,4.4-5.3,4.4
		c-5.5,0-14.3-5.2-14.3-11.3c0-1.7,0.6-2.7,2.2-3.4L404.1,595.1z M407.5,596.7c-1.2,0-2.1,0.6-2.1,1.8c0,2.8,2.9,4.7,5.1,5.8
		s6.1,2.5,8.5,2.5c1.2,0,2.3-0.6,2.3-1.9C421.3,601.2,410.7,596.7,407.5,596.7z"/>
	<path class="st0" d="M399.5,564c-0.5-0.1-1.3-0.3-1.7-0.3c-1.2,0-1,1.1-1,2.6l-1.3-0.3l-1.1-6.6l23.8,6.5c0.4,0.1,1.2,0.3,1.6,0.3
		s1-0.2,1-0.6c0-1.2-3.6-2.7-4.6-3.2l0.5-1.1c2.2,1,6.5,3.1,6.5,6c0,1.2-1.1,2.3-2.3,2.3c-0.8,0-1.5-0.2-2.2-0.4l-0.1,0.1
		c2.2,1.3,4.5,3.4,4.5,6.2c0,2.7-2.9,3.8-5.2,3.8c-6,0-14.5-5.9-14.5-10.7c0-1.2,0.4-2,1-3L399.5,564z M410.7,573.4
		c2,1,5.8,2.2,8,2.2c0.9,0,2.6-0.2,2.6-1.5c0-3.8-10-7.7-13.2-7.7c-1.3,0-2.7,0.5-2.7,2C405.4,570.6,409,572.5,410.7,573.4z"/>
	<path class="st0" d="M404.1,544.6v-3.4l8.1,2.9c1.2,0.4,6.6,2.3,7.6,2.3c0.3,0,0.6-0.2,0.6-0.5c0-0.7-1.3-2.1-4.3-3.8l0.6-1
		c4.2,2.5,6.6,4.2,6.6,6.3c0,1.3-1,2.2-2.3,2.2c-1,0-1.8-0.2-2.6-0.5l-0.1,0.1c2.6,1.1,5,3.1,5,6.2c0,3-2.6,4.4-5.3,4.4
		c-5.5,0-14.3-5.2-14.3-11.3c0-1.7,0.6-2.7,2.2-3.4L404.1,544.6z M407.5,546.1c-1.2,0-2.1,0.6-2.1,1.8c0,2.8,2.9,4.7,5.1,5.8
		s6.1,2.5,8.5,2.5c1.2,0,2.3-0.6,2.3-1.9C421.3,550.6,410.7,546.1,407.5,546.1z"/>
	<path class="st0" d="M422.9,535.4v2.8l-13.2-4.5c-0.7-0.2-1.5-0.5-2.2-0.5c-0.3,0-1,0.2-1,0.5c0,1.2,3.6,3,4.5,3.7l-0.7,1
		c-1.8-1.2-6.8-3.8-6.8-6.3c0-1.4,1.1-2.1,2.4-2.1c1.5,0,4.2,0.9,5.6,1.5l3.3,1.2l0.1-0.1c-2.4-1.4-11.4-5.3-11.4-8.5
		c0-1,0.8-1.8,1.8-1.8c1.6,0,2.3,1.4,2.5,2.8c0.2,1.3,0.5,1.8,1.5,2.7c2,1.7,6.5,4,9,5.3L422.9,535.4z"/>
	<path class="st0" d="M399.5,518.1c-0.5-0.1-1.3-0.3-1.7-0.3c-1.2,0-1,1-1,2.7l-1.3-0.3l-1.1-6.7l14.3,3.8l0.1-0.1
		c-2.3-1.3-5.2-3.4-5.2-6.3c0-2,1.6-3.5,3.7-3.5c3,0,5.4,3.3,6.4,5.8l4-0.7c0.5-0.1,2.7-0.3,2.7-1.2c0-1-2.8-2.4-3.7-2.7l0.5-1.2
		c2,1,6,2.8,6,5.4c0,1-0.1,2-8.5,3.3l0.7,2.8l7.4,2v3.3L399.5,518.1z M408,510.4c-1,0-2,0.7-2,1.7c0,1.5,1.4,4.2,8.1,6.6
		C413.6,515.9,411.3,510.4,408,510.4z"/>
	<path class="st0" d="M404.1,479.7v-3.4l8.1,2.9c1.2,0.4,6.6,2.3,7.6,2.3c0.3,0,0.6-0.2,0.6-0.5c0-0.7-1.3-2.1-4.3-3.8l0.6-1
		c4.2,2.5,6.6,4.2,6.6,6.3c0,1.3-1,2.2-2.3,2.2c-1,0-1.8-0.2-2.6-0.5l-0.1,0.1c2.6,1.1,5,3.1,5,6.2c0,3-2.6,4.4-5.3,4.4
		c-5.5,0-14.3-5.2-14.3-11.3c0-1.7,0.6-2.7,2.2-3.4L404.1,479.7z M407.5,481.3c-1.2,0-2.1,0.6-2.1,1.8c0,2.8,2.9,4.7,5.1,5.8
		s6.1,2.5,8.5,2.5c1.2,0,2.3-0.6,2.3-1.9C421.3,485.7,410.7,481.3,407.5,481.3z"/>
	<path class="st0" d="M412.4,469.8c-1-0.3-3.9-1.4-4.8-1.4c-0.4,0-1.1,0.1-1.1,0.5c0,0.7,1.6,1.7,4.5,3.7l-0.6,1.1
		c-1.9-1.2-6.8-3.9-6.8-6.4c0-1.5,1.5-2.1,2.8-2.1c2.8,0,6.4,1.7,9.1,2.8l1.1,0.5l0.1-0.1l-10.1-6.2c-1.2-0.9-2.9-2.2-2.9-3.8
		c0-1.7,1.7-2.3,3.1-2.3c1.7,0,4,0.9,5.7,1.5l6.3,2.1c0.3,0.1,1.3,0.5,1.7,0.5c0.3,0,0.5-0.2,0.5-0.5c0-1.2-3.3-3.1-4.2-3.7l0.6-1
		c3.5,2.2,6,3.8,6,6.2c0,1.3-1.1,2.2-2.3,2.2c-1,0-2.5-0.5-3.6-0.8l-7.1-2.5c-0.6-0.2-2.1-0.7-2.7-0.7c-0.4,0-1,0.2-1,0.7
		c0,0.8,1.4,1.6,2,2l14.3,8.7v2.8L412.4,469.8z"/>
	<path class="st0" d="M399.5,437.4c-0.5-0.1-1.3-0.3-1.7-0.3c-1.2,0-1,1.1-1,2.6l-1.3-0.3l-1.1-6.6l23.8,6.5
		c0.4,0.1,1.2,0.3,1.6,0.3s1-0.2,1-0.6c0-1.2-3.6-2.7-4.6-3.2l0.5-1.1c2.2,1,6.5,3.1,6.5,6c0,1.2-1.1,2.3-2.3,2.3
		c-0.8,0-1.5-0.2-2.2-0.4l-0.1,0.1c2.2,1.3,4.5,3.4,4.5,6.2c0,2.7-2.9,3.8-5.2,3.8c-6,0-14.5-5.9-14.5-10.7c0-1.2,0.4-2,1-3
		L399.5,437.4z M410.7,446.8c2,1,5.8,2.2,8,2.2c0.9,0,2.6-0.2,2.6-1.5c0-3.8-10-7.7-13.2-7.7c-1.3,0-2.7,0.5-2.7,2
		C405.4,444,409,445.9,410.7,446.8z"/>
	<path class="st0" d="M419.4,424.2c-1,0-2-0.8-2-1.8c0-2.8,4.1-1.3,4.1-4.6c0-1.7-1.2-2.8-2.8-2.8c-3.8,0-4.8,6.5-9.8,6.5
		c-2.9,0-5.4-2.7-5.4-6.2c0-2,1.3-4.9,3.7-4.9c1,0,1.7,0.7,1.7,1.8c0,1.9-3.7,1.8-3.7,4.2c0,1.3,1.5,2.1,2.7,2.1
		c3.5,0,4.6-6.5,9.7-6.5c2.8,0,5.6,2.5,5.6,6.5C423.3,421.3,421.5,424.2,419.4,424.2z"/>
	<path class="st0" d="M417.1,399.3c2,1.3,6.2,3.4,6.2,6.2c0,1.4-1.2,2.3-2.5,2.3c-1,0-2.6-0.5-3.6-0.9l-7.9-2.7
		c-0.4-0.2-1.4-0.5-1.8-0.5c-0.3,0-1,0.2-1,0.5c0,0.8,3.3,2.7,4,3.2l-0.7,1.1c-2-1.2-6.2-3.7-6.2-6.3c0-1.3,1.1-1.9,2.3-1.9
		c1.4,0,3,0.5,4.3,1l8.7,2.9c0.3,0.1,1.1,0.4,1.5,0.4c0.3,0,0.5-0.2,0.5-0.5c0-1.2-3.5-3.1-4.4-3.7L417.1,399.3z M394.3,400
		c0-1.3,1-2.3,2.3-2.3s2.3,1,2.3,2.3s-1,2.3-2.3,2.3C395.3,402.4,394.3,401.3,394.3,400z"/>
	<path class="st0" d="M418.6,393.3c0.4,0.1,1.2,0.3,1.6,0.3c0.3,0,0.7-0.1,0.7-0.5c0-1-3.8-2.9-4.7-3.4l0.5-1.1
		c2.1,1.1,6.6,3,6.6,5.8c0,1.6-1.3,2.3-2.8,2.3c-1,0-2.4-0.4-3.4-0.6l-17.6-4.7c-0.5-0.1-1.3-0.3-1.7-0.3c-1.2,0-1,1.1-1,2.6
		l-1.3-0.3l-1.1-6.6L418.6,393.3z"/>
	<path class="st0" d="M417.6,372.9c2.7,1.6,5.7,4.5,5.7,7.9s-2.9,5.2-6.1,5.2c-5.1,0-13.5-5-13.5-10.6c0-2,1.2-3.7,3.4-3.7
		c4.8,0,8.2,6.7,9.5,10.6c0.6,0.1,1.2,0.1,1.7,0.1c2.9,0,3.4-1,3.4-2.3c0-2.4-2.7-5-4.6-6.2L417.6,372.9z M406.9,374.3
		c-0.8,0-1.6,0.4-1.6,1.3c0,1.9,3.7,5.4,9.7,6.5C414.1,379,410.4,374.3,406.9,374.3z"/>
	<path class="st0" d="M412.4,365.9c-1-0.3-3.9-1.4-4.8-1.4c-0.4,0-1.1,0.1-1.1,0.5c0,0.7,1.6,1.7,4.5,3.7l-0.6,1.1
		c-1.9-1.2-6.8-3.9-6.8-6.4c0-1.5,1.5-2.1,2.8-2.1c2.8,0,6.4,1.7,9.1,2.8l1.1,0.5l0.1-0.1l-10.1-6.2c-1.2-0.9-2.9-2.2-2.9-3.8
		c0-1.7,1.7-2.3,3.1-2.3c1.7,0,4,0.9,5.7,1.5l6.3,2.1c0.3,0.1,1.3,0.5,1.7,0.5c0.3,0,0.5-0.2,0.5-0.5c0-1.2-3.3-3.1-4.2-3.7l0.6-1
		c3.5,2.2,6,3.8,6,6.2c0,1.3-1.1,2.2-2.3,2.2c-1,0-2.5-0.5-3.6-0.8l-7.1-2.5c-0.6-0.2-2.1-0.7-2.7-0.7c-0.4,0-1,0.2-1,0.7
		c0,0.8,1.4,1.6,2,2l14.3,8.7v2.8L412.4,365.9z"/>
	<path class="st0" d="M397.5,338.9l6.5,1.8V337l2.1,0.6v3.7l12.5,3.3c0.4,0.1,1.2,0.3,1.7,0.3c0.2,0,0.6-0.2,0.6-0.5
		c0-1.2-3.1-3-4.1-3.5l0.8-1.2c2,1.2,5.6,3.4,5.6,6c0,1.5-1,2.3-2.5,2.3c-1.3,0-3.1-0.5-4.4-0.8l-10.2-2.7v3.2l-2.1-0.6v-3.3
		l-6.5-2.1V338.9z"/>
	<path class="st0" d="M398.3,316.1l5.9,1.5c-0.2-0.7-0.5-1.5-0.5-2.3c0-3.7,3-5.4,6.4-5.4s7.2,1.7,9.6,4c2.4,2.4,3.5,5.3,3.4,8.7
		l1,0.3c0.6,0.2,2.3,0.7,3,0.7c1.4,0,1.2-1.3,1.3-2.3l1.3,0.3v8.4l-1.3-0.3c-0.1-2-0.2-2.5-2.5-3.1l-18.5-4.9
		c0.8,1.1,1.7,2.5,2.7,3.8l-1,0.8c-1.5-1.5-2.8-3.2-3.8-5.2l-7-2.3V316.1z M421.4,322.3c0-2.2-0.6-4.1-2.3-5.7
		c-2.2-1.9-6.1-3.5-9-3.5c-2.1,0-4.5,1-4.5,3.4c0,0.5,0.1,1.1,0.3,1.6L421.4,322.3z"/>
	<path class="st0" d="M399.5,302.2c-0.5-0.1-1.3-0.3-1.7-0.3c-0.8,0-1.1,0.4-1,2.5l-1.3-0.3l-1.1-6.3l21.2,5.7l0.1-0.1
		c-2.8-1.5-12.1-6.4-12.1-9.7c0-1.5,1.5-2.5,2.9-2.5c1.1,0,3,0.6,4.1,1l8.6,2.9c0.3,0.1,0.8,0.3,1.1,0.3c0.3,0,0.6-0.2,0.6-0.5
		c0-1.2-3.4-3-4.4-3.7l0.7-1.1c2,1.3,6.1,3.5,6.1,6.3c0,1.5-1.3,2.2-2.7,2.2c-1,0-2.2-0.4-3-0.7l-7.9-2.7c-0.7-0.2-1.6-0.6-2.3-0.6
		c-0.4,0-0.9,0.2-0.9,0.7c0,1.3,4.6,4.2,5.3,4.6c5,2.5,7.8,4.4,11,5.6v3.2L399.5,302.2z"/>
	<path class="st0" d="M417.6,274c2.7,1.6,5.7,4.5,5.7,7.9s-2.9,5.2-6.1,5.2c-5.1,0-13.5-5-13.5-10.6c0-2,1.2-3.7,3.4-3.7
		c4.8,0,8.2,6.7,9.5,10.6c0.6,0.1,1.2,0.1,1.7,0.1c2.9,0,3.4-1,3.4-2.3c0-2.4-2.7-5-4.6-6.2L417.6,274z M406.9,275.4
		c-0.8,0-1.6,0.4-1.6,1.3c0,1.9,3.7,5.4,9.7,6.5C414.1,280.1,410.4,275.4,406.9,275.4z"/>
	<path class="st0" d="M412.4,267c-1-0.3-3.9-1.4-4.8-1.4c-0.4,0-1.1,0.1-1.1,0.5c0,0.7,1.6,1.7,4.5,3.7l-0.6,1.1
		c-1.9-1.2-6.8-3.9-6.8-6.4c0-1.5,1.5-2.1,2.8-2.1c2.8,0,6.4,1.7,9.1,2.8l1.1,0.5l0.1-0.1l-10.1-6.2c-1.2-0.9-2.9-2.2-2.9-3.8
		c0-1.7,1.7-2.3,3.1-2.3c1.7,0,4,0.9,5.7,1.5l6.3,2.1c0.3,0.1,1.3,0.5,1.7,0.5c0.3,0,0.5-0.2,0.5-0.5c0-1.2-3.3-3.1-4.2-3.7l0.6-1
		c3.5,2.2,6,3.8,6,6.2c0,1.3-1.1,2.2-2.3,2.2c-1,0-2.5-0.5-3.6-0.8l-7.1-2.5c-0.6-0.2-2.1-0.7-2.7-0.7c-0.4,0-1,0.2-1,0.7
		c0,0.8,1.4,1.6,2,2L423,268v2.7L412.4,267z"/>
	<path class="st0" d="M409.7,233.7c6.5,0,13.5,5.5,13.5,10.3c0,3.4-2.7,5.5-6,5.5c-5.1,0-13.7-4.7-13.7-10.5
		C403.6,236.5,405.8,233.7,409.7,233.7z M419.1,246.4c1.6,0,2.9-0.7,2.9-2.4c0-4-10.7-7-14-7c-1.5,0-3.2,0.5-3.2,2.3
		C404.9,243.4,415.9,246.4,419.1,246.4z"/>
	<path class="st0" d="M409.4,226.4c-0.5-0.2-1.5-0.5-2-0.5c-0.3,0-0.9,0.1-0.9,0.5c0,0.8,2.3,2.2,3,2.7l1.4,0.9l-0.6,1.1
		c-4.1-2.5-6.7-4.3-6.7-6.3c0-1.5,1.5-2.1,2.9-2.1c1.6,0,4.6,1.2,6.1,1.7l4.5,1.8l0.1-0.1l-7.8-4.4c-1.9-1.2-5.8-3.7-5.8-6.2
		c0-1.7,1.3-2.5,2.9-2.5c1.7,0,4.5,1.1,6.1,1.7l4.5,1.8l0.1-0.1l-0.7-0.3c-3.1-1.7-12.9-6.6-12.9-10.5c0-1.7,1.2-2.3,2.8-2.3
		c2,0,4.3,1,6.2,1.6l6.1,2.2c0.5,0.2,1.2,0.4,1.7,0.4c0.3,0,0.5-0.2,0.5-0.5c0-0.7-1.3-1.9-4.3-3.7l0.6-1.1c2,1.3,6.1,3.5,6.1,6.1
		c0,1.5-1.1,2.4-2.5,2.4c-1.1,0-2.5-0.5-3.5-0.9l-7.8-2.8c-0.5-0.2-1.4-0.6-1.9-0.6s-1,0.3-1,0.8c0,0.6,0.8,2.3,9,7l7.4,4.2v2.8
		l-13.4-4.7c-0.5-0.2-1.5-0.5-2.1-0.5c-0.5,0-0.8,0.3-0.8,0.8c0,1.1,0,1.5,8.1,6.3l8.2,4.8v2.9L409.4,226.4z"/>
	<path class="st0" d="M417.6,186.4c2.7,1.6,5.7,4.5,5.7,7.9s-2.9,5.2-6.1,5.2c-5.1,0-13.5-5-13.5-10.6c0-2,1.2-3.7,3.4-3.7
		c4.8,0,8.2,6.7,9.5,10.6c0.6,0.1,1.2,0.1,1.7,0.1c2.9,0,3.4-1,3.4-2.3c0-2.4-2.7-5-4.6-6.2L417.6,186.4z M406.9,187.8
		c-0.8,0-1.6,0.4-1.6,1.3c0,1.9,3.7,5.4,9.7,6.5C414.1,192.5,410.4,187.8,406.9,187.8z"/>
	<path class="st0" d="M412.4,179.4c-1-0.3-3.9-1.4-4.8-1.4c-0.4,0-1.1,0.1-1.1,0.5c0,0.7,1.6,1.7,4.5,3.7l-0.6,1.1
		c-1.9-1.2-6.8-3.9-6.8-6.4c0-1.5,1.5-2.1,2.8-2.1c2.8,0,6.4,1.7,9.1,2.8l1.1,0.5l0.1-0.1l-10.1-6.2c-1.2-0.9-2.9-2.2-2.9-3.8
		c0-1.7,1.7-2.3,3.1-2.3c1.7,0,4,0.9,5.7,1.5l6.3,2.1c0.3,0.1,1.3,0.5,1.7,0.5c0.3,0,0.5-0.2,0.5-0.5c0-1.2-3.3-3.1-4.2-3.7l0.6-1
		c3.5,2.2,6,3.8,6,6.2c0,1.3-1.1,2.2-2.3,2.2c-1,0-2.5-0.5-3.6-0.8l-7.1-2.5c-0.6-0.2-2.1-0.7-2.7-0.7c-0.4,0-1,0.2-1,0.7
		c0,0.8,1.4,1.6,2,2l14.3,8.7v2.8L412.4,179.4z"/>
	<path class="st0" d="M409.7,146.1c6.5,0,13.5,5.5,13.5,10.3c0,3.4-2.7,5.5-6,5.5c-5.1,0-13.7-4.7-13.7-10.5
		C403.6,148.9,405.8,146.1,409.7,146.1z M419.1,158.8c1.6,0,2.9-0.7,2.9-2.4c0-4-10.7-7-14-7c-1.5,0-3.2,0.5-3.2,2.3
		C404.9,155.7,415.9,158.8,419.1,158.8z"/>
	<path class="st0" d="M412.4,139.7c-1-0.3-3.9-1.4-4.8-1.4c-0.4,0-1.1,0.1-1.1,0.5c0,0.7,1.6,1.7,4.5,3.7l-0.6,1.1
		c-1.9-1.2-6.8-3.9-6.8-6.4c0-1.5,1.5-2.1,2.8-2.1c2.8,0,6.4,1.7,9.1,2.8l1.1,0.5l0.1-0.1l-10.1-6.2c-1.2-0.9-2.9-2.2-2.9-3.8
		c0-1.7,1.7-2.3,3.1-2.3c1.7,0,4,0.9,5.7,1.5l6.3,2.1c0.3,0.1,1.3,0.5,1.7,0.5c0.3,0,0.5-0.2,0.5-0.5c0-1.2-3.3-3.1-4.2-3.7l0.6-1
		c3.5,2.2,6,3.8,6,6.2c0,1.3-1.1,2.2-2.3,2.2c-1,0-2.5-0.5-3.6-0.8l-7.1-2.5c-0.6-0.2-2.1-0.7-2.7-0.7c-0.4,0-1,0.2-1,0.7
		c0,0.8,1.4,1.6,2,2l14.3,8.7v2.8L412.4,139.7z"/>
	<path class="st0" d="M454.4,1141.7c-0.5-0.1-1.3-0.3-1.7-0.3c-1.2,0-1,1-1,2.7l-1.3-0.3l-1.1-6.7l14.3,3.8l0.1-0.1
		c-2.3-1.3-5.2-3.4-5.2-6.3c0-2,1.6-3.5,3.7-3.5c3,0,5.4,3.3,6.4,5.8l4-0.7c0.5-0.1,2.7-0.3,2.7-1.2c0-1-2.8-2.4-3.7-2.7l0.5-1.2
		c2,1,6,2.8,6,5.4c0,1-0.1,2-8.5,3.3l0.8,3l7.4,2v3.3L454.4,1141.7z M462.9,1134c-1,0-2,0.7-2,1.7c0,1.5,1.4,4.2,8.1,6.6
		C468.5,1139.6,466.2,1134,462.9,1134z"/>
	<path class="st0" d="M467.3,1124.5c-1-0.3-3.9-1.4-4.8-1.4c-0.4,0-1.1,0.1-1.1,0.5c0,0.7,1.6,1.7,4.5,3.7l-0.6,1.1
		c-1.9-1.2-6.8-3.9-6.8-6.4c0-1.5,1.5-2.1,2.8-2.1c2.8,0,6.4,1.7,9.1,2.8l1.1,0.5l0.1-0.1l-10.1-6.2c-1.2-0.9-2.9-2.2-2.9-3.8
		c0-1.7,1.7-2.3,3.1-2.3c1.7,0,4,0.9,5.7,1.5l6.3,2.1c0.3,0.1,1.3,0.5,1.7,0.5c0.3,0,0.5-0.2,0.5-0.5c0-1.2-3.3-3.1-4.2-3.7l0.6-1
		c3.5,2.2,6,3.8,6,6.2c0,1.3-1.1,2.2-2.3,2.2c-1,0-2.5-0.5-3.6-0.8l-7.1-2.5c-0.6-0.2-2.1-0.7-2.7-0.7c-0.4,0-1,0.2-1,0.7
		c0,0.8,1.4,1.6,2,2l14.3,8.7v2.8L467.3,1124.5z"/>
	<path class="st0" d="M464.6,1091.3c6.5,0,13.5,5.5,13.5,10.3c0,3.4-2.7,5.5-6,5.5c-5.1,0-13.7-4.7-13.7-10.5
		C458.5,1094,460.7,1091.3,464.6,1091.3z M474,1103.9c1.6,0,2.9-0.7,2.9-2.4c0-4-10.7-7-14-7c-1.5,0-3.2,0.5-3.2,2.3
		C459.8,1100.9,470.8,1103.9,474,1103.9z"/>
	<path class="st0" d="M462.7,1071.9c2.9,0.7,7.3,1.8,10.3,1.8c0.8,0,2.8-0.1,2.8-1.3c0-2-7-5.8-10.8-5.8c-1.9,0-2.6,1.4-4.3,1.4
		c-1.1,0-2.2-0.7-2.2-1.8c0-1.6,2-2.2,3.2-2.2c4.3,0,16.5,4.3,16.5,9.5c0,2.5-2.8,3.3-4.8,3.3c-1.3,0-4.1-0.6-7.1-1.5l-0.1,0.1
		c3.6,1.2,12,4.4,12,8.9c0,1.8-1.7,2.9-3.3,2.9c-1.4,0-2.7-0.4-4-0.8l-6.7-2.2c-0.3-0.1-1.5-0.5-1.8-0.5s-0.7,0.1-0.7,0.4
		c0,1,3.1,2.9,3.9,3.5l-0.7,1c-1.7-1-6.4-4.2-6.4-6.3c0-1.5,1.1-2.1,2.5-2.1c1.3,0,3.2,0.7,4.3,1.1l6.7,2.2c0.7,0.2,1.5,0.5,2.1,0.5
		s1.2-0.3,1.2-1c0-3.6-13.2-8.1-16.3-9.1v-3L462.7,1071.9z"/>
	<path class="st0" d="M467.3,1058.2c-1-0.3-3.9-1.4-4.8-1.4c-0.4,0-1.1,0.1-1.1,0.5c0,0.7,1.6,1.7,4.5,3.7l-0.6,1.1
		c-1.9-1.2-6.8-3.9-6.8-6.4c0-1.5,1.5-2.1,2.8-2.1c2.8,0,6.4,1.7,9.1,2.8l1.1,0.5l0.1-0.1l-10.1-6.2c-1.2-0.9-2.9-2.2-2.9-3.8
		c0-1.7,1.7-2.3,3.1-2.3c1.7,0,4,0.9,5.7,1.5l6.3,2.1c0.3,0.1,1.3,0.5,1.7,0.5c0.3,0,0.5-0.2,0.5-0.5c0-1.2-3.3-3.1-4.2-3.7l0.6-1
		c3.5,2.2,6,3.8,6,6.2c0,1.3-1.1,2.2-2.3,2.2c-1,0-2.5-0.5-3.6-0.8l-7.1-2.5c-0.6-0.2-2.1-0.7-2.7-0.7c-0.4,0-1,0.2-1,0.7
		c0,0.8,1.4,1.6,2,2l14.3,8.7v2.8L467.3,1058.2z"/>
	<path class="st0" d="M459,1015.5v-3.4l8.1,2.9c1.2,0.4,6.6,2.3,7.6,2.3c0.3,0,0.6-0.2,0.6-0.5c0-0.7-1.3-2.1-4.3-3.8l0.6-1
		c4.2,2.5,6.6,4.2,6.6,6.3c0,1.3-1,2.2-2.3,2.2c-1,0-1.8-0.2-2.6-0.5l-0.1,0.1c2.6,1.1,5,3.1,5,6.2c0,3-2.6,4.4-5.3,4.4
		c-5.5,0-14.3-5.2-14.3-11.3c0-1.7,0.6-2.7,2.2-3.4L459,1015.5z M462.4,1017c-1.2,0-2.1,0.6-2.1,1.8c0,2.8,2.9,4.7,5.1,5.8
		s6.1,2.5,8.5,2.5c1.2,0,2.3-0.6,2.3-1.9C476.2,1021.5,465.6,1017,462.4,1017z"/>
	<path class="st0" d="M474.3,1011.3c-1,0-2-0.8-2-1.8c0-2.8,4.1-1.3,4.1-4.6c0-1.7-1.2-2.8-2.8-2.8c-3.8,0-4.8,6.5-9.8,6.5
		c-2.9,0-5.4-2.7-5.4-6.2c0-2,1.3-4.9,3.7-4.9c1,0,1.7,0.7,1.7,1.8c0,1.9-3.7,1.8-3.7,4.2c0,1.3,1.5,2.1,2.7,2.1
		c3.5,0,4.6-6.5,9.7-6.5c2.8,0,5.6,2.5,5.6,6.5C478.2,1008.5,476.4,1011.3,474.3,1011.3z"/>
	<path class="st0" d="M450.1,974.9c0.6,1.2,2.9,3.8,4.2,3.8c1.2,0,1.2-1.5,3-1.5c1.3,0,2.2,1.1,2.2,2.3c0,1.5-1.3,2.3-2.6,2.3
		c-3.5,0-6.2-3.5-7.7-6.4L450.1,974.9z"/>
	<path class="st0" d="M454.4,962.7c-0.5-0.1-1.3-0.3-1.7-0.3c-1.2,0-1,1.1-1,2.6l-1.3-0.3l-1.1-6.6l23.8,6.5
		c0.4,0.1,1.2,0.3,1.6,0.3s1-0.2,1-0.6c0-1.2-3.6-2.7-4.6-3.2l0.5-1.1c2.2,1,6.5,3.1,6.5,6c0,1.2-1.1,2.3-2.3,2.3
		c-0.8,0-1.5-0.2-2.2-0.4l-0.1,0.1c2.2,1.3,4.5,3.4,4.5,6.2c0,2.7-2.9,3.8-5.2,3.8c-6,0-14.5-5.9-14.5-10.7c0-1.2,0.4-2,1-3
		L454.4,962.7z M465.6,972.1c2,1,5.8,2.2,8,2.2c0.9,0,2.6-0.2,2.6-1.5c0-3.8-10-7.7-13.2-7.7c-1.3,0-2.7,0.5-2.7,2
		C460.3,969.4,463.9,971.3,465.6,972.1z"/>
	<path class="st0" d="M472,948.7c2,1.3,6.2,3.4,6.2,6.2c0,1.4-1.2,2.3-2.5,2.3c-1,0-2.6-0.5-3.6-0.9l-7.9-2.7
		c-0.4-0.2-1.4-0.5-1.8-0.5c-0.3,0-1,0.2-1,0.5c0,0.8,3.3,2.7,4,3.2l-0.7,1.1c-2-1.2-6.2-3.7-6.2-6.3c0-1.3,1.1-1.9,2.3-1.9
		c1.4,0,3,0.5,4.3,1l8.7,2.9c0.3,0.1,1.1,0.4,1.5,0.4c0.3,0,0.5-0.2,0.5-0.5c0-1.2-3.5-3.1-4.4-3.7L472,948.7z M449.2,949.4
		c0-1.3,1-2.3,2.3-2.3s2.3,1,2.3,2.3c0,1.3-1,2.3-2.3,2.3S449.2,950.7,449.2,949.4z"/>
	<path class="st0" d="M471,943.4c-0.9,1.1-2.3,1.7-3.7,1.7c-4.2,0-8.8-3.5-8.8-7.9c0-1.4,0.5-2.4,1.4-3.5c-0.8-0.9-1.9-2.3-1.9-3.5
		c0-1,0.6-2,1.7-2s1.7,0.8,1.7,1.8c0,0.8-0.4,1-0.4,1.6c0,0.4,0.2,0.7,0.4,1c1-0.5,1.7-0.6,2.8-0.6c4,0,8.3,3.3,8.3,7.5
		c0,0.8-0.2,1.5-0.5,2.3c0.3,0.3,0.9,1.3,1.3,1.3c1.6,0,1-9.9,6.5-9.9c4.4,0,5.4,5.4,5.4,8.8c0,5.4-2.3,8-4,8c-2.5,0-3.7-3-4.5-4.9
		c-0.3,1-0.6,2.4-1.8,2.4c-1.1,0-1.9-1.4-2.4-2.1L471,943.4z M481.2,946.9c2,0,2.4-3.7,2.4-5.1c0-1.6-0.4-5.3-2.7-5.3
		c-2.4,0-2.8,4.4-3.3,6C478.1,943.9,479.4,946.9,481.2,946.9z M463.7,935.2c-1.3,0-3.4,0.3-3.4,2.1c0,3,4.9,4.6,7.3,4.6
		c1.5,0,3.3-0.5,3.3-2.2C470.9,938.2,469.1,935.2,463.7,935.2z"/>
	<path class="st0" d="M472,919.2c2,1.3,6.2,3.4,6.2,6.2c0,1.4-1.2,2.3-2.5,2.3c-1,0-2.6-0.5-3.6-0.9l-7.9-2.7
		c-0.4-0.2-1.4-0.5-1.8-0.5c-0.3,0-1,0.2-1,0.5c0,0.8,3.3,2.7,4,3.2l-0.7,1.1c-2-1.2-6.2-3.7-6.2-6.3c0-1.3,1.1-1.9,2.3-1.9
		c1.4,0,3,0.5,4.3,1l8.7,2.9c0.3,0.1,1.1,0.4,1.5,0.4c0.3,0,0.5-0.2,0.5-0.5c0-1.2-3.5-3.1-4.4-3.7L472,919.2z M449.2,919.9
		c0-1.3,1-2.3,2.3-2.3s2.3,1,2.3,2.3s-1,2.3-2.3,2.3C450.2,922.3,449.2,921.2,449.2,919.9z"/>
	<path class="st0" d="M452.4,907.2l6.5,1.8v-3.7l2.1,0.6v3.7l12.5,3.3c0.4,0.1,1.2,0.3,1.7,0.3c0.2,0,0.6-0.2,0.6-0.5
		c0-1.2-3.1-3-4.1-3.5l0.8-1.2c2,1.2,5.6,3.4,5.6,6c0,1.5-1,2.3-2.5,2.3c-1.3,0-3.1-0.5-4.4-0.8l-10.2-2.7v3.3l-2.1-0.6v-3.3
		l-6.5-2.1V907.2L452.4,907.2z"/>
	<path class="st0" d="M459,890.4V887l8.1,2.9c1.2,0.4,6.6,2.3,7.6,2.3c0.3,0,0.6-0.2,0.6-0.5c0-0.7-1.3-2.1-4.3-3.8l0.6-1
		c4.2,2.5,6.6,4.2,6.6,6.3c0,1.3-1,2.2-2.3,2.2c-1,0-1.8-0.2-2.6-0.5l-0.1,0.1c2.6,1.1,5,3.1,5,6.2c0,3-2.6,4.4-5.3,4.4
		c-5.5,0-14.3-5.2-14.3-11.3c0-1.7,0.6-2.7,2.2-3.4L459,890.4z M462.4,892c-1.2,0-2.1,0.6-2.1,1.8c0,2.8,2.9,4.7,5.1,5.8
		s6.1,2.5,8.5,2.5c1.2,0,2.3-0.6,2.3-1.9C476.2,896.5,465.6,892,462.4,892z"/>
	<path class="st0" d="M473.5,881.1c0.4,0.1,1.2,0.3,1.6,0.3c0.3,0,0.7-0.1,0.7-0.5c0-1-3.8-2.9-4.7-3.4l0.5-1.1
		c2.1,1.1,6.6,3,6.6,5.8c0,1.6-1.3,2.3-2.8,2.3c-1,0-2.4-0.4-3.4-0.6l-17.6-4.7c-0.5-0.1-1.3-0.3-1.7-0.3c-1.2,0-1,1.1-1,2.6
		l-1.3-0.3l-1.1-6.6L473.5,881.1z"/>
	<path class="st0" d="M454.4,848.8c-0.5-0.1-1.3-0.3-1.7-0.3c-1.2,0-1,1.1-1,2.6l-1.3-0.3l-1.1-6.6l23.8,6.5
		c0.4,0.1,1.2,0.3,1.6,0.3s1-0.2,1-0.6c0-1.2-3.6-2.7-4.6-3.2l0.5-1.1c2.2,1,6.5,3.1,6.5,6c0,1.2-1.1,2.3-2.3,2.3
		c-0.8,0-1.5-0.2-2.2-0.4l-0.1,0.1c2.2,1.3,4.5,3.4,4.5,6.2c0,2.7-2.9,3.8-5.2,3.8c-6,0-14.5-5.9-14.5-10.7c0-1.2,0.4-2,1-3
		L454.4,848.8z M465.6,858.1c2,1,5.8,2.2,8,2.2c0.9,0,2.6-0.2,2.6-1.5c0-3.8-10-7.7-13.2-7.7c-1.3,0-2.7,0.5-2.7,2
		C460.3,855.4,463.9,857.3,465.6,858.1z"/>
	<path class="st0" d="M472.5,830.8c2.7,1.6,5.7,4.5,5.7,7.9c0,3.4-2.9,5.2-6.1,5.2c-5.1,0-13.5-5-13.5-10.6c0-2,1.2-3.7,3.4-3.7
		c4.8,0,8.2,6.7,9.5,10.6c0.6,0.1,1.2,0.1,1.7,0.1c2.9,0,3.4-1,3.4-2.3c0-2.4-2.7-5-4.6-6.2L472.5,830.8z M461.8,832.2
		c-0.8,0-1.6,0.4-1.6,1.3c0,1.9,3.7,5.4,9.7,6.5C469,837,465.3,832.2,461.8,832.2z"/>
	<path class="st0" d="M473.3,815.1c2.1,1.6,4.9,4.7,4.9,7.4c0,3.3-3,5.3-6,5.3c-5.8,0-13.6-5.8-13.6-10.7c0-2.1,1.6-3.7,3.7-3.7
		c1.2,0,2.4,0.7,2.4,2c0,1-1.1,1.6-2,1.6c-0.4,0-0.8-0.1-1.3-0.1c-0.6,0-1.1,0.4-1.1,1c0,2,7.3,6.4,13.2,6.4c1.4,0,3-0.4,3-2.1
		c0-2.3-2.4-4.7-4-6.1L473.3,815.1z"/>
	<path class="st0" d="M459,797.1v-3.4l8.1,2.9c1.2,0.4,6.6,2.3,7.6,2.3c0.3,0,0.6-0.2,0.6-0.5c0-0.7-1.3-2.1-4.3-3.8l0.6-1
		c4.2,2.5,6.6,4.2,6.6,6.3c0,1.3-1,2.2-2.3,2.2c-1,0-1.8-0.2-2.6-0.5l-0.1,0.1c2.6,1.1,5,3.1,5,6.2c0,3-2.6,4.4-5.3,4.4
		c-5.5,0-14.3-5.2-14.3-11.3c0-1.7,0.6-2.7,2.2-3.4L459,797.1z M462.4,798.7c-1.2,0-2.1,0.6-2.1,1.8c0,2.8,2.9,4.7,5.1,5.8
		s6.1,2.5,8.5,2.5c1.2,0,2.3-0.6,2.3-1.9C476.2,803.2,465.6,798.7,462.4,798.7z"/>
	<path class="st0" d="M473.2,783c-1.9-1.1-6.5-3.5-8.5-3.5s-2.7,1-4,1c-1.1,0-2.1-0.8-2.1-1.9c0-1.6,1.7-2.1,3-2.1
		c3.7,0,10.5,3.7,13.8,5.7c3.5,2.1,9.7,6.3,9.7,10.9c0,1.2-0.6,2.4-1.9,2.4c-1.2,0-1.9-1.3-1.9-2.3s0.4-1.8,0.4-2.7c0-2-3-3.9-4.5-5
		l-13.9,2.5c-0.4,0.1-1.5,0.1-1.5,0.7c0,0.8,3,1.6,3.6,1.9l-0.3,1.2c-1.8-0.8-6.5-2.3-6.5-4.7c0-1.7,2.5-1.8,3.7-2.1L473.2,783z"/>
	<path class="st0" d="M458.6,773.8c-0.6-1.2-2.9-3.8-4.2-3.8c-1.2,0-1.2,1.5-3,1.5c-1.3,0-2.2-1.1-2.2-2.3c0-1.5,1.3-2.3,2.6-2.3
		c3.5,0,6.2,3.5,7.7,6.4L458.6,773.8z"/>
	<path class="st0" d="M466.3,719.4l2.9,0.8v38.5l-2.9-0.8V719.4z"/>
	<path class="st0" d="M459,693.8v-3.4l8.1,2.9c1.2,0.4,6.6,2.3,7.6,2.3c0.3,0,0.6-0.2,0.6-0.5c0-0.7-1.3-2.1-4.3-3.8l0.6-1
		c4.2,2.5,6.6,4.2,6.6,6.3c0,1.3-1,2.2-2.3,2.2c-1,0-1.8-0.2-2.6-0.5l-0.1,0.1c2.6,1.1,5,3.1,5,6.2c0,3-2.6,4.4-5.3,4.4
		c-5.5,0-14.3-5.2-14.3-11.3c0-1.7,0.6-2.7,2.2-3.4L459,693.8z M462.4,695.4c-1.2,0-2.1,0.6-2.1,1.8c0,2.8,2.9,4.7,5.1,5.8
		c2.2,1.1,6.1,2.5,8.5,2.5c1.2,0,2.3-0.6,2.3-1.9C476.2,699.9,465.6,695.4,462.4,695.4z"/>
	<path class="st0" d="M467.3,683.9c-1-0.3-3.9-1.4-4.8-1.4c-0.4,0-1.1,0.1-1.1,0.5c0,0.7,1.6,1.7,4.5,3.7l-0.6,1.1
		c-1.9-1.2-6.8-3.9-6.8-6.4c0-1.5,1.5-2.1,2.8-2.1c2.8,0,6.4,1.7,9.1,2.8l1.1,0.5l0.1-0.1l-10.1-6.2c-1.2-0.9-2.9-2.2-2.9-3.8
		c0-1.7,1.7-2.3,3.1-2.3c1.7,0,4,0.9,5.7,1.5l6.3,2.1c0.3,0.1,1.3,0.5,1.7,0.5c0.3,0,0.5-0.2,0.5-0.5c0-1.2-3.3-3.1-4.2-3.7l0.6-1
		c3.5,2.2,6,3.8,6,6.2c0,1.3-1.1,2.2-2.3,2.2c-1,0-2.5-0.5-3.6-0.8l-7.1-2.5c-0.6-0.2-2.1-0.7-2.7-0.7c-0.4,0-1,0.2-1,0.7
		c0,0.8,1.4,1.6,2,2l14.3,8.7v2.8L467.3,683.9z"/>
	<path class="st0" d="M473.2,658.1c-1.9-1.1-6.5-3.5-8.5-3.5s-2.7,1-4,1c-1.1,0-2.1-0.8-2.1-1.9c0-1.6,1.7-2.1,3-2.1
		c3.7,0,10.5,3.7,13.8,5.7c3.5,2.1,9.7,6.3,9.7,10.9c0,1.2-0.6,2.4-1.9,2.4c-1.2,0-1.9-1.3-1.9-2.3s0.4-1.8,0.4-2.7c0-2-3-3.9-4.5-5
		l-13.9,2.5c-0.4,0.1-1.5,0.1-1.5,0.7c0,0.8,3,1.6,3.6,1.9l-0.3,1.2c-1.8-0.8-6.5-2.3-6.5-4.7c0-1.7,2.5-1.8,3.7-2.1L473.2,658.1z"
		/>
	<path class="st0" d="M452.4,641.5l6.5,1.8v-3.7l2.1,0.6v3.7l12.5,3.3c0.4,0.1,1.2,0.3,1.7,0.3c0.2,0,0.6-0.2,0.6-0.5
		c0-1.2-3.1-3-4.1-3.5l0.8-1.2c2,1.2,5.6,3.4,5.6,6c0,1.5-1,2.3-2.5,2.3c-1.3,0-3.1-0.5-4.4-0.8l-10.2-2.7v3.3l-2.1-0.6v-3.3
		l-6.5-2.1V641.5L452.4,641.5z"/>
	<path class="st0" d="M454.4,634.5c-0.5-0.1-1.3-0.3-1.7-0.3c-0.8,0-1.1,0.4-1,2.5l-1.3-0.3l-1.1-6.3l21.2,5.7l0.1-0.1
		c-2.8-1.5-12.1-6.4-12.1-9.7c0-1.5,1.5-2.5,2.9-2.5c1.1,0,3,0.6,4.1,1l8.6,2.9c0.3,0.1,0.8,0.3,1.1,0.3s0.6-0.2,0.6-0.5
		c0-1.2-3.4-3-4.4-3.7l0.7-1.1c2,1.3,6.1,3.5,6.1,6.3c0,1.5-1.3,2.2-2.7,2.2c-1,0-2.2-0.4-3-0.7l-7.9-2.7c-0.7-0.2-1.6-0.6-2.3-0.6
		c-0.4,0-0.9,0.2-0.9,0.7c0,1.3,4.6,4.2,5.3,4.6c5,2.5,7.8,4.4,11,5.6v2.9L454.4,634.5z"/>
	<path class="st0" d="M472,610.2c2,1.3,6.2,3.4,6.2,6.2c0,1.4-1.2,2.3-2.5,2.3c-1,0-2.6-0.5-3.6-0.9l-7.9-2.7
		c-0.4-0.2-1.4-0.5-1.8-0.5c-0.3,0-1,0.2-1,0.5c0,0.8,3.3,2.7,4,3.2l-0.7,1.1c-2-1.2-6.2-3.7-6.2-6.3c0-1.3,1.1-1.9,2.3-1.9
		c1.4,0,3,0.5,4.3,1l8.7,2.9c0.3,0.1,1.1,0.4,1.5,0.4c0.3,0,0.5-0.2,0.5-0.5c0-1.2-3.5-3.1-4.4-3.7L472,610.2z M449.2,610.9
		c0-1.3,1-2.3,2.3-2.3s2.3,1,2.3,2.3s-1,2.3-2.3,2.3S449.2,612.2,449.2,610.9z"/>
	<path class="st0" d="M467.3,603.6c-1-0.3-3.9-1.4-4.8-1.4c-0.4,0-1.1,0.1-1.1,0.5c0,0.7,1.6,1.7,4.5,3.7l-0.6,1.1
		c-1.9-1.2-6.8-3.9-6.8-6.4c0-1.5,1.5-2.1,2.8-2.1c2.8,0,6.4,1.7,9.1,2.8l1.1,0.5l0.1-0.1l-10.1-6.2c-1.2-0.9-2.9-2.2-2.9-3.8
		c0-1.7,1.7-2.3,3.1-2.3c1.7,0,4,0.9,5.7,1.5l6.3,2.1c0.3,0.1,1.3,0.5,1.7,0.5c0.3,0,0.5-0.2,0.5-0.5c0-1.2-3.3-3.1-4.2-3.7l0.6-1
		c3.5,2.2,6,3.8,6,6.2c0,1.3-1.1,2.2-2.3,2.2c-1,0-2.5-0.5-3.6-0.8l-7.1-2.5c-0.6-0.2-2.1-0.7-2.7-0.7c-0.4,0-1,0.2-1,0.7
		c0,0.8,1.4,1.6,2,2l14.3,8.7v2.8L467.3,603.6z"/>
	<path class="st0" d="M471,583.3c-0.9,1.1-2.3,1.7-3.7,1.7c-4.2,0-8.8-3.5-8.8-7.9c0-1.4,0.5-2.4,1.4-3.5c-0.8-0.9-1.9-2.3-1.9-3.5
		c0-1,0.6-2,1.7-2s1.7,0.8,1.7,1.8c0,0.8-0.4,1-0.4,1.6c0,0.4,0.2,0.7,0.4,1c1-0.5,1.7-0.6,2.8-0.6c4,0,8.3,3.3,8.3,7.5
		c0,0.8-0.2,1.5-0.5,2.3c0.3,0.3,0.9,1.3,1.3,1.3c1.6,0,1-9.9,6.5-9.9c4.4,0,5.4,5.4,5.4,8.8c0,5.4-2.3,8-4,8c-2.5,0-3.7-3-4.5-4.9
		c-0.3,1-0.6,2.4-1.8,2.4c-1.1,0-1.9-1.4-2.4-2.1L471,583.3z M481.2,586.8c2,0,2.4-3.7,2.4-5.1c0-1.6-0.4-5.3-2.7-5.3
		c-2.4,0-2.8,4.4-3.3,6C478.1,583.8,479.4,586.8,481.2,586.8z M463.7,575.1c-1.3,0-3.4,0.3-3.4,2.1c0,3,4.9,4.6,7.3,4.6
		c1.5,0,3.3-0.5,3.3-2.2C470.9,578.1,469.1,575.1,463.7,575.1z"/>
	<path class="st0" d="M474.3,560c-1,0-2-0.8-2-1.8c0-2.8,4.1-1.3,4.1-4.6c0-1.7-1.2-2.8-2.8-2.8c-3.8,0-4.8,6.5-9.8,6.5
		c-2.9,0-5.4-2.7-5.4-6.2c0-2,1.3-4.9,3.7-4.9c1,0,1.7,0.7,1.7,1.8c0,1.9-3.7,1.8-3.7,4.2c0,1.3,1.5,2.1,2.7,2.1
		c3.5,0,4.6-6.5,9.7-6.5c2.8,0,5.6,2.5,5.6,6.5C478.2,557.2,476.4,560,474.3,560z"/>
	<path class="st0" d="M452.4,535.2l6.5,1.8v-3.7l2.1,0.6v3.7l12.5,3.3c0.4,0.1,1.2,0.3,1.7,0.3c0.2,0,0.6-0.2,0.6-0.5
		c0-1.2-3.1-3-4.1-3.5l0.8-1.2c2,1.2,5.6,3.4,5.6,6c0,1.5-1,2.3-2.5,2.3c-1.3,0-3.1-0.5-4.4-0.8l-10.2-2.7v3.3l-2.1-0.6v-3.3
		l-6.5-2.1V535.2L452.4,535.2z"/>
	<path class="st0" d="M464.6,517.5c6.5,0,13.5,5.5,13.5,10.3c0,3.4-2.7,5.5-6,5.5c-5.1,0-13.7-4.7-13.7-10.5
		C458.5,520.3,460.7,517.5,464.6,517.5z M474,530.2c1.6,0,2.9-0.7,2.9-2.4c0-4-10.7-7-14-7c-1.5,0-3.2,0.5-3.2,2.3
		C459.8,527.1,470.8,530.2,474,530.2z"/>
	<path class="st0" d="M477.8,511.9v2.8l-13.2-4.5c-0.7-0.2-1.5-0.5-2.2-0.5c-0.3,0-1,0.2-1,0.5c0,1.2,3.6,3,4.5,3.7l-0.7,1
		c-1.8-1.2-6.8-3.8-6.8-6.3c0-1.4,1.1-2.1,2.4-2.1c1.5,0,4.2,0.9,5.6,1.5l3.3,1.2l0.1-0.1c-2.4-1.4-11.4-5.3-11.4-8.5
		c0-1,0.8-1.8,1.8-1.8c1.6,0,2.3,1.4,2.5,2.8c0.2,1.3,0.5,1.8,1.5,2.7c2,1.7,6.5,4,9,5.3L477.8,511.9z"/>
	<path class="st0" d="M472.5,486.5c2.7,1.6,5.7,4.5,5.7,7.9s-2.9,5.2-6.1,5.2c-5.1,0-13.5-5-13.5-10.6c0-2,1.2-3.7,3.4-3.7
		c4.8,0,8.2,6.7,9.5,10.6c0.6,0.1,1.2,0.1,1.7,0.1c2.9,0,3.4-1,3.4-2.3c0-2.4-2.7-5-4.6-6.2L472.5,486.5z M461.8,487.9
		c-0.8,0-1.6,0.4-1.6,1.3c0,1.9,3.7,5.4,9.7,6.5C469,492.6,465.3,487.9,461.8,487.9z"/>
	<path class="st0" d="M454.4,468.7c-0.5-0.1-1.3-0.3-1.7-0.3c-1.2,0-1,1.1-1,2.6l-1.3-0.3l-1.1-6.6l23.8,6.5
		c0.4,0.1,1.2,0.3,1.6,0.3s1-0.2,1-0.6c0-1.2-3.6-2.7-4.6-3.2l0.5-1.1c2.2,1,6.5,3.1,6.5,6c0,1.2-1.1,2.3-2.3,2.3
		c-0.8,0-1.5-0.2-2.2-0.4l-0.1,0.1c2.2,1.3,4.5,3.4,4.5,6.2c0,2.7-2.9,3.8-5.2,3.8c-6,0-14.5-5.9-14.5-10.7c0-1.2,0.4-2,1-3
		L454.4,468.7z M465.6,478.1c2,1,5.8,2.2,8,2.2c0.9,0,2.6-0.2,2.6-1.5c0-3.8-10-7.7-13.2-7.7c-1.3,0-2.7,0.5-2.7,2
		C460.3,475.3,463.9,477.3,465.6,478.1z"/>
	<path class="st0" d="M472,444.3c2,1.3,6.2,3.4,6.2,6.2c0,1.4-1.2,2.3-2.5,2.3c-1,0-2.6-0.5-3.6-0.9l-7.9-2.7
		c-0.4-0.2-1.4-0.5-1.8-0.5c-0.3,0-1,0.2-1,0.5c0,0.8,3.3,2.7,4,3.2l-0.7,1.1c-2-1.2-6.2-3.7-6.2-6.3c0-1.3,1.1-1.9,2.3-1.9
		c1.4,0,3,0.5,4.3,1l8.7,2.9c0.3,0.1,1.1,0.4,1.5,0.4c0.3,0,0.5-0.2,0.5-0.5c0-1.2-3.5-3.1-4.4-3.7L472,444.3z M449.2,444.9
		c0-1.3,1-2.3,2.3-2.3s2.3,1,2.3,2.3s-1,2.3-2.3,2.3C450.2,447.3,449.2,446.3,449.2,444.9z"/>
	<path class="st0" d="M467.3,437.6c-1-0.3-3.9-1.4-4.8-1.4c-0.4,0-1.1,0.1-1.1,0.5c0,0.7,1.6,1.7,4.5,3.7l-0.6,1.1
		c-1.9-1.2-6.8-3.9-6.8-6.4c0-1.5,1.5-2.1,2.8-2.1c2.8,0,6.4,1.7,9.1,2.8l1.1,0.5l0.1-0.1l-10.1-6.2c-1.2-0.9-2.9-2.2-2.9-3.8
		c0-1.7,1.7-2.3,3.1-2.3c1.7,0,4,0.9,5.7,1.5l6.3,2.1c0.3,0.1,1.3,0.5,1.7,0.5c0.3,0,0.5-0.2,0.5-0.5c0-1.2-3.3-3.1-4.2-3.7l0.6-1
		c3.5,2.2,6,3.8,6,6.2c0,1.3-1.1,2.2-2.3,2.2c-1,0-2.5-0.5-3.6-0.8l-7.1-2.5c-0.6-0.2-2.1-0.7-2.7-0.7c-0.4,0-1,0.2-1,0.7
		c0,0.8,1.4,1.6,2,2l14.3,8.7v2.8L467.3,437.6z"/>
	<path class="st0" d="M473.3,397c2.1,1.6,4.9,4.7,4.9,7.4c0,3.3-3,5.3-6,5.3c-5.8,0-13.6-5.8-13.6-10.7c0-2.1,1.6-3.7,3.7-3.7
		c1.2,0,2.4,0.7,2.4,2c0,1-1.1,1.6-2,1.6c-0.4,0-0.8-0.1-1.3-0.1c-0.6,0-1.1,0.4-1.1,1c0,2,7.3,6.4,13.2,6.4c1.4,0,3-0.4,3-2.1
		c0-2.3-2.4-4.7-4-6.1L473.3,397z"/>
	<path class="st0" d="M464.6,378.1c6.5,0,13.5,5.5,13.5,10.3c0,3.4-2.7,5.5-6,5.5c-5.1,0-13.7-4.7-13.7-10.5
		C458.5,380.9,460.7,378.1,464.6,378.1z M474,390.8c1.6,0,2.9-0.7,2.9-2.4c0-4-10.7-7-14-7c-1.5,0-3.2,0.5-3.2,2.3
		C459.8,387.7,470.8,390.8,474,390.8z"/>
	<path class="st0" d="M464.3,370.8c-0.5-0.2-1.5-0.5-2-0.5c-0.3,0-0.9,0.1-0.9,0.5c0,0.8,2.3,2.2,3,2.7l1.4,0.9l-0.6,1.1
		c-4.1-2.5-6.7-4.3-6.7-6.3c0-1.5,1.5-2.1,2.9-2.1c1.6,0,4.6,1.2,6.1,1.7l4.5,1.8l0.1-0.1l-7.8-4.4c-1.9-1.2-5.8-3.7-5.8-6.2
		c0-1.7,1.3-2.5,2.9-2.5c1.7,0,4.5,1.1,6.1,1.7l4.5,1.8l0.1-0.1l-0.7-0.3c-3.1-1.7-12.9-6.6-12.9-10.5c0-1.7,1.2-2.3,2.8-2.3
		c2,0,4.3,1,6.2,1.6l6.1,2.2c0.5,0.2,1.2,0.4,1.7,0.4c0.3,0,0.5-0.2,0.5-0.5c0-0.7-1.3-1.9-4.3-3.7l0.6-1.1c2,1.3,6.1,3.5,6.1,6.1
		c0,1.5-1.1,2.4-2.5,2.4c-1.1,0-2.5-0.5-3.5-0.9l-7.8-2.8c-0.5-0.2-1.4-0.6-1.9-0.6s-1,0.3-1,0.8c0,0.6,0.8,2.3,9,7l7.4,4.2v2.8
		l-13.4-4.7c-0.5-0.2-1.5-0.5-2.1-0.5c-0.5,0-0.8,0.3-0.8,0.8c0,1.1,0,1.5,8.1,6.3l8.2,4.8v2.9L464.3,370.8z"/>
	<path class="st0" d="M453.1,333.6l5.9,1.5c-0.2-0.7-0.5-1.5-0.5-2.3c0-3.7,3-5.4,6.4-5.4s7.2,1.7,9.6,4c2.4,2.4,3.5,5.3,3.4,8.7
		l1,0.3c0.6,0.2,2.3,0.7,3,0.7c1.4,0,1.2-1.3,1.3-2.3l1.3,0.3v8.4l-1.3-0.3c-0.1-2-0.2-2.5-2.5-3.1l-18.5-4.9
		c0.8,1.1,1.7,2.5,2.7,3.8l-1,0.8c-1.5-1.5-2.8-3.2-3.8-5.2l-7-2.3V333.6L453.1,333.6z M476.3,339.8c0-2.2-0.6-4.1-2.3-5.7
		c-2.2-1.9-6.1-3.5-9-3.5c-2.1,0-4.5,1-4.5,3.4c0,0.5,0.1,1.1,0.3,1.6L476.3,339.8z"/>
	<path class="st0" d="M470.8,310.1c0.8,0.3,3.1,1.1,3.9,1.1c0.3,0,1.1-0.2,1.1-0.5c0-1-3.7-3.1-4.6-3.7l0.7-1.1
		c2,1.2,6.3,3.9,6.3,6.4c0,1.4-1.2,2.1-2.3,2.1c-1.8,0-4.8-1.2-6.5-1.8l-3.8-1.6l-0.1,0.1l8.9,5.4c1.4,1,3.8,2.8,3.8,4.7
		c0,1.8-1.5,2.5-3.1,2.5c-1.3,0-3.6-0.9-4.9-1.4l-6.7-2.4c-0.4-0.2-1.3-0.5-1.8-0.5c-0.3,0-0.3,0.2-0.3,0.5c0,1,3.2,3.1,4,3.7
		l-0.8,1.1c-1.8-1.3-6.1-3.7-6.1-6.2c0-1.4,1.3-2.3,2.7-2.3c1.2,0,3.5,0.9,4.7,1.3l6.2,2.3c0.7,0.2,2,0.8,2.7,0.8c0.4,0,1-0.3,1-0.7
		c0-0.9-1.8-1.9-2.5-2.4l-14.4-8.7V306L470.8,310.1z"/>
	<path class="st0" d="M452.4,293.8l6.5,1.8v-3.7l2.1,0.6v3.7l12.5,3.3c0.4,0.1,1.2,0.3,1.7,0.3c0.2,0,0.6-0.2,0.6-0.5
		c0-1.2-3.1-3-4.1-3.5l0.8-1.2c2,1.2,5.6,3.4,5.6,6c0,1.5-1,2.3-2.5,2.3c-1.3,0-3.1-0.5-4.4-0.8l-10.2-2.7v3.3l-2.1-0.6v-3.3
		l-6.5-2.1V293.8L452.4,293.8z"/>
	<path class="st0" d="M472.5,278.5c2.7,1.6,5.7,4.5,5.7,7.9s-2.9,5.2-6.1,5.2c-5.1,0-13.5-5-13.5-10.6c0-2,1.2-3.7,3.4-3.7
		c4.8,0,8.2,6.7,9.5,10.6c0.6,0.1,1.2,0.1,1.7,0.1c2.9,0,3.4-1,3.4-2.3c0-2.4-2.7-5-4.6-6.2L472.5,278.5z M461.8,279.9
		c-0.8,0-1.6,0.4-1.6,1.3c0,1.9,3.7,5.4,9.7,6.5C469,284.6,465.3,279.9,461.8,279.9z"/>
	<path class="st0" d="M477.8,272.3v2.8l-13.2-4.5c-0.7-0.2-1.5-0.5-2.2-0.5c-0.3,0-1,0.2-1,0.5c0,1.2,3.6,3,4.5,3.7l-0.7,1
		c-1.8-1.2-6.8-3.8-6.8-6.3c0-1.4,1.1-2.1,2.4-2.1c1.5,0,4.2,0.9,5.6,1.5l3.3,1.2l0.1-0.1c-2.4-1.4-11.4-5.3-11.4-8.5
		c0-1,0.8-1.8,1.8-1.8c1.6,0,2.3,1.4,2.5,2.8c0.2,1.3,0.5,1.8,1.5,2.7c2,1.7,6.5,4,9,5.3L477.8,272.3z"/>
	<path class="st0" d="M472,250.8c2,1.3,6.2,3.4,6.2,6.2c0,1.4-1.2,2.3-2.5,2.3c-1,0-2.6-0.5-3.6-0.9l-7.9-2.7
		c-0.4-0.2-1.4-0.5-1.8-0.5c-0.3,0-1,0.2-1,0.5c0,0.8,3.3,2.7,4,3.2l-0.7,1.1c-2-1.2-6.2-3.7-6.2-6.3c0-1.3,1.1-1.9,2.3-1.9
		c1.4,0,3,0.5,4.3,1l8.7,2.9c0.3,0.1,1.1,0.4,1.5,0.4c0.3,0,0.5-0.2,0.5-0.5c0-1.2-3.5-3.1-4.4-3.7L472,250.8z M449.2,251.5
		c0-1.3,1-2.3,2.3-2.3s2.3,1,2.3,2.3s-1,2.3-2.3,2.3S449.2,252.8,449.2,251.5z"/>
	<path class="st0" d="M464.7,247.5c-2.2-1.1-6.2-2.8-6.2-5.6c0-2.1,1.9-3.6,1.9-5.3c0-0.9-0.5-1.6-1.5-1.9v-1.4
		c5.3,2.2,9.2,5.5,13.7,11.7c0.5,0.7,1,1.3,1.7,1.7l0.1-0.1c-0.6-0.6-1.1-1.4-1.1-2.3c0-1.3,0.7-2.2,1.4-3s1.5-1.4,1.5-2.1
		c0-0.3-0.2-0.5-0.5-0.5c-0.5,0-1.2,0.7-1.9,0.7c-0.9,0-1.5-0.7-1.5-1.6c0-1.2,1.1-1.9,2.3-1.9c2.2,0,3.7,1.8,3.7,4c0,2.7-2,5.2-2,7
		c0,1.2,0.8,2,2,2.3v1.3c-7-1.7-11-8.1-15.4-13.2l-0.1,0.1c0.2,0.4,0.3,0.8,0.3,1.4c0,0.9-0.3,1.6-0.7,2.2c-0.3,0.6-0.6,1.2-0.6,2
		c0,1.7,2,2.7,3.4,3.4L464.7,247.5z"/>
	<path class="st0" d="M472.5,220c2.7,1.6,5.7,4.5,5.7,7.9s-2.9,5.2-6.1,5.2c-5.1,0-13.5-5-13.5-10.6c0-2,1.2-3.7,3.4-3.7
		c4.8,0,8.2,6.7,9.5,10.6c0.6,0.1,1.2,0.1,1.7,0.1c2.9,0,3.4-1,3.4-2.3c0-2.4-2.7-5-4.6-6.2L472.5,220z M461.8,221.4
		c-0.8,0-1.6,0.4-1.6,1.3c0,1.9,3.7,5.4,9.7,6.5C469,226.1,465.3,221.4,461.8,221.4z"/>
	<path class="st0" d="M454.4,202.2c-0.5-0.1-1.3-0.3-1.7-0.3c-1.2,0-1,1.1-1,2.6l-1.3-0.3l-1.1-6.6l23.8,6.5
		c0.4,0.1,1.2,0.3,1.6,0.3s1-0.2,1-0.6c0-1.2-3.6-2.7-4.6-3.2l0.5-1.1c2.2,1,6.5,3.1,6.5,6c0,1.2-1.1,2.3-2.3,2.3
		c-0.8,0-1.5-0.2-2.2-0.4l-0.1,0.1c2.2,1.3,4.5,3.4,4.5,6.2c0,2.7-2.9,3.8-5.2,3.8c-6,0-14.5-5.9-14.5-10.7c0-1.2,0.4-2,1-3
		L454.4,202.2z M465.6,211.5c2,1,5.8,2.2,8,2.2c0.9,0,2.6-0.2,2.6-1.5c0-3.8-10-7.7-13.2-7.7c-1.3,0-2.7,0.5-2.7,2
		C460.3,208.8,463.9,210.7,465.6,211.5z"/>
	<path class="st0" d="M514.2,1062.7l2.1,0.5v4.3l5.3,1.3c12.7,3.1,17.3,7.3,17.3,10.1c0,1.1-0.6,2.1-1.8,2.1s-1.8-1-1.8-2.1l0.1-1.5
		c0-0.9-0.3-1.5-1.2-1.9c-1.2-0.5-3.3-0.9-4.6-1.2l-13.2-3.6v3.3l-2.1-0.5v-3.3c-3.7-1.1-10.2-4.7-10.2-9.1c0-1.2,0.8-2.8,2.3-2.8
		c1.1,0,1.7,1.1,1.7,2c0,1.1-1.1,1.8-1.1,2.7c0,2.3,5.5,3.3,7.3,3.9L514.2,1062.7L514.2,1062.7z"/>
	<path class="st0" d="M519.5,1049c6.5,0,13.5,5.5,13.5,10.3c0,3.4-2.7,5.5-6,5.5c-5.1,0-13.7-4.7-13.7-10.5
		C513.4,1051.8,515.6,1049,519.5,1049z M528.9,1061.7c1.6,0,2.9-0.7,2.9-2.4c0-4-10.7-7-14-7c-1.5,0-3.2,0.5-3.2,2.3
		C514.7,1058.7,525.7,1061.7,528.9,1061.7z"/>
	<path class="st0" d="M532.7,1043.4v2.8l-13.2-4.5c-0.7-0.2-1.5-0.5-2.2-0.5c-0.3,0-1,0.2-1,0.5c0,1.2,3.6,3,4.5,3.7l-0.7,1
		c-1.8-1.2-6.8-3.8-6.8-6.3c0-1.4,1.1-2.1,2.4-2.1c1.5,0,4.2,0.9,5.6,1.5l3.3,1.2l0.1-0.1c-2.4-1.4-11.4-5.3-11.4-8.5
		c0-1,0.8-1.8,1.8-1.8c1.6,0,2.3,1.4,2.5,2.8c0.2,1.3,0.5,1.8,1.5,2.7c2,1.7,6.5,4,9,5.3L532.7,1043.4z"/>
	<path class="st0" d="M519.2,1025.6c-0.5-0.2-1.5-0.5-2-0.5c-0.3,0-0.9,0.1-0.9,0.5c0,0.8,2.3,2.2,3,2.7l1.4,0.9l-0.6,1.1
		c-4.1-2.5-6.7-4.3-6.7-6.3c0-1.5,1.5-2.1,2.9-2.1c1.6,0,4.6,1.2,6.1,1.7l4.5,1.8l0.1-0.1l-7.8-4.4c-1.9-1.2-5.8-3.7-5.8-6.2
		c0-1.7,1.3-2.5,2.9-2.5c1.7,0,4.5,1.1,6.1,1.7l4.5,1.8l0.1-0.1l-0.7-0.3c-3.1-1.7-12.9-6.6-12.9-10.5c0-1.7,1.2-2.3,2.8-2.3
		c2,0,4.3,1,6.2,1.6l6.1,2.2c0.5,0.2,1.2,0.4,1.7,0.4c0.3,0,0.5-0.2,0.5-0.5c0-0.7-1.3-1.9-4.3-3.7l0.6-1.1c2,1.3,6.1,3.5,6.1,6.1
		c0,1.5-1.1,2.4-2.5,2.4c-1.1,0-2.5-0.5-3.5-0.9l-7.8-2.8c-0.5-0.2-1.4-0.6-1.9-0.6s-1,0.3-1,0.8c0,0.6,0.8,2.3,9,7l7.4,4.2v3.1
		l-13.4-4.7c-0.5-0.2-1.5-0.5-2.1-0.5c-0.5,0-0.8,0.3-0.8,0.8c0,1.1,0,1.5,8.1,6.3l8.2,4.8v2.9L519.2,1025.6z"/>
	<path class="st0" d="M526.9,979.1c2,1.3,6.2,3.4,6.2,6.2c0,1.4-1.2,2.3-2.5,2.3c-1,0-2.6-0.5-3.6-0.9l-7.9-2.7
		c-0.4-0.2-1.4-0.5-1.8-0.5c-0.3,0-1,0.2-1,0.5c0,0.8,3.3,2.7,4,3.2l-0.7,1.1c-2-1.2-6.2-3.7-6.2-6.3c0-1.3,1.1-1.9,2.3-1.9
		c1.4,0,3,0.5,4.3,1l8.7,2.9c0.3,0.1,1.1,0.4,1.5,0.4c0.3,0,0.5-0.2,0.5-0.5c0-1.2-3.5-3.1-4.4-3.7L526.9,979.1z M504.1,979.7
		c0-1.3,1-2.3,2.3-2.3s2.3,1,2.3,2.3c0,1.3-1,2.3-2.3,2.3C505.1,982.1,504.1,981.1,504.1,979.7z"/>
	<path class="st0" d="M529.2,978.2c-1,0-2-0.8-2-1.8c0-2.8,4.1-1.3,4.1-4.6c0-1.7-1.2-2.8-2.8-2.8c-3.8,0-4.8,6.5-9.8,6.5
		c-2.9,0-5.4-2.7-5.4-6.2c0-2,1.3-4.9,3.7-4.9c1,0,1.7,0.7,1.7,1.8c0,1.9-3.7,1.8-3.7,4.2c0,1.3,1.5,2.1,2.7,2.1
		c3.5,0,4.6-6.5,9.7-6.5c2.8,0,5.6,2.5,5.6,6.5C533.1,975.4,531.3,978.2,529.2,978.2z"/>
	<path class="st0" d="M519.8,952.2c-2-1.1-6.4-4-6.4-6.4c0-1.4,1.2-1.9,2.4-1.9c1.1,0,3.3,0.7,4.4,1.1l6.4,2c0.7,0.2,2,0.7,2.8,0.7
		s1.7-0.5,1.7-1.3c0-2.8-6.3-7.6-11.1-7.6c-1.9,0-3,1.5-4.4,1.5c-1.2,0-2.2-0.7-2.2-1.8c0-1.7,2.5-2.1,3.8-2.1
		c5.4,0,15.9,4.7,15.9,11c0,1.7-1.1,3.5-3.4,3.5c-1.4,0-3.7-0.8-5-1.2l-5.9-1.9c-0.3-0.1-1.1-0.4-1.5-0.4c-0.3,0-0.6,0.2-0.6,0.5
		c0,0.9,3.1,3,3.9,3.4L519.8,952.2z"/>
	<path class="st0" d="M525.7,919.6c0.8,0.3,3.1,1.1,3.9,1.1c0.3,0,1.1-0.2,1.1-0.5c0-1-3.7-3.1-4.6-3.7l0.7-1.1
		c2,1.2,6.3,3.9,6.3,6.4c0,1.4-1.2,2.1-2.3,2.1c-1.8,0-4.8-1.2-6.5-1.8l-3.8-1.6l-0.1,0.1l8.9,5.4c1.4,1,3.8,2.8,3.8,4.7
		c0,1.8-1.5,2.5-3.1,2.5c-1.3,0-3.6-0.9-4.9-1.4l-6.7-2.4c-0.4-0.2-1.3-0.5-1.8-0.5c-0.3,0-0.3,0.2-0.3,0.5c0,1,3.2,3.1,4,3.7
		l-0.8,1.1c-1.8-1.3-6.1-3.7-6.1-6.2c0-1.4,1.3-2.3,2.7-2.3c1.2,0,3.5,0.9,4.7,1.3l6.2,2.3c0.7,0.2,2,0.8,2.7,0.8c0.4,0,1-0.3,1-0.7
		c0-0.9-1.8-1.9-2.5-2.4l-14.4-8.7v-2.8L525.7,919.6z"/>
	<path class="st0" d="M528.4,909.3c0.4,0.1,1.2,0.3,1.6,0.3c0.3,0,0.7-0.1,0.7-0.5c0-1-3.8-2.9-4.7-3.4l0.5-1.1
		c2.1,1.1,6.6,3,6.6,5.8c0,1.6-1.3,2.3-2.8,2.3c-1,0-2.4-0.4-3.4-0.6l-17.6-4.7c-0.5-0.1-1.3-0.3-1.7-0.3c-1.2,0-1,1.1-1,2.6
		l-1.3-0.3l-1.1-6.6L528.4,909.3z"/>
	<path class="st0" d="M522.2,898.1c-1-0.3-3.9-1.4-4.8-1.4c-0.4,0-1.1,0.1-1.1,0.5c0,0.7,1.6,1.7,4.5,3.7l-0.6,1.1
		c-1.9-1.2-6.8-3.9-6.8-6.4c0-1.5,1.5-2.1,2.8-2.1c2.8,0,6.4,1.7,9.1,2.8l1.1,0.5l0.1-0.1l-10.1-6.2c-1.2-0.9-2.9-2.2-2.9-3.8
		c0-1.7,1.7-2.3,3.1-2.3c1.7,0,4,0.9,5.7,1.5l6.3,2.1c0.3,0.1,1.3,0.5,1.7,0.5c0.3,0,0.5-0.2,0.5-0.5c0-1.2-3.3-3.1-4.2-3.7l0.6-1
		c3.5,2.2,6,3.8,6,6.2c0,1.3-1.1,2.2-2.3,2.2c-1,0-2.5-0.5-3.6-0.8l-7.1-2.5c-0.6-0.2-2.1-0.7-2.7-0.7c-0.4,0-1,0.2-1,0.7
		c0,0.8,1.4,1.6,2,2l14.3,8.7v2.8L522.2,898.1z"/>
	<path class="st0" d="M527.4,867.3c2.7,1.6,5.7,4.5,5.7,7.9c0,3.4-2.9,5.2-6.1,5.2c-5.1,0-13.5-5-13.5-10.6c0-2,1.2-3.7,3.4-3.7
		c4.8,0,8.2,6.7,9.5,10.6c0.6,0.1,1.2,0.1,1.7,0.1c2.9,0,3.4-1,3.4-2.3c0-2.4-2.7-5-4.6-6.2L527.4,867.3z M516.7,868.6
		c-0.8,0-1.6,0.4-1.6,1.3c0,1.9,3.7,5.4,9.7,6.5C523.8,873.4,520.2,868.6,516.7,868.6z"/>
	<path class="st0" d="M532.7,861.1v2.8l-13.2-4.5c-0.7-0.2-1.5-0.5-2.2-0.5c-0.3,0-1,0.2-1,0.5c0,1.2,3.6,3,4.5,3.7l-0.7,1
		c-1.8-1.2-6.8-3.8-6.8-6.3c0-1.4,1.1-2.1,2.4-2.1c1.5,0,4.2,0.9,5.6,1.5l3.3,1.2l0.1-0.1c-2.4-1.4-11.4-5.3-11.4-8.5
		c0-1,0.8-1.8,1.8-1.8c1.6,0,2.3,1.4,2.5,2.8c0.2,1.3,0.5,1.8,1.5,2.7c2,1.7,6.5,4,9,5.3L532.7,861.1z"/>
	<path class="st0" d="M513.8,834.2v-3.4l8.1,2.9c1.2,0.4,6.6,2.3,7.6,2.3c0.3,0,0.6-0.2,0.6-0.5c0-0.7-1.3-2.1-4.3-3.8l0.6-1
		c4.2,2.5,6.6,4.2,6.6,6.3c0,1.3-1,2.2-2.3,2.2c-1,0-1.8-0.2-2.6-0.5l-0.1,0.1c2.6,1.1,5,3.1,5,6.2c0,3-2.6,4.4-5.3,4.4
		c-5.5,0-14.3-5.2-14.3-11.3c0-1.7,0.6-2.7,2.2-3.4L513.8,834.2z M517.3,835.8c-1.2,0-2.1,0.6-2.1,1.8c0,2.8,2.9,4.7,5.1,5.8
		c2.2,1.1,6.1,2.5,8.5,2.5c1.2,0,2.3-0.6,2.3-1.9C531.1,840.2,520.5,835.8,517.3,835.8z"/>
	<path class="st0" d="M516.1,822L516.1,822c-1.3-1.2-2.7-2.6-2.7-4.5c0-3.2,3.5-4.3,6.2-4.3c5,0,13.5,4.6,13.5,10.3
		c0,2.7-2,4.4-4.7,4.4c-1.6,0-3.2-0.4-4.7-0.8l-13.7-3.7c-0.5-0.2-2-0.5-2.5-0.5c-0.9,0-1,0.5-0.9,2.6l-1.3-0.3l-1.1-6.4L516.1,822z
		 M518.9,816.8c-1.1,0-3.5,0.3-3.5,1.8c0,2.3,3.7,3.8,5.5,4.5c1.5,0.6,6.6,2,8.1,2c1.2,0,2.5-0.5,2.5-2
		C531.4,818.8,522.2,816.8,518.9,816.8z"/>
	<path class="st0" d="M528.4,807.3c0.4,0.1,1.2,0.3,1.6,0.3c0.3,0,0.7-0.1,0.7-0.5c0-1-3.8-2.9-4.7-3.4l0.5-1.1
		c2.1,1.1,6.6,3,6.6,5.8c0,1.6-1.3,2.3-2.8,2.3c-1,0-2.4-0.4-3.4-0.6l-17.6-4.7c-0.5-0.1-1.3-0.3-1.7-0.3c-1.2,0-1,1.1-1,2.6
		l-1.3-0.3l-1.1-6.6L528.4,807.3z"/>
	<path class="st0" d="M527.4,786.8c2.7,1.6,5.7,4.5,5.7,7.9c0,3.4-2.9,5.2-6.1,5.2c-5.1,0-13.5-5-13.5-10.6c0-2,1.2-3.7,3.4-3.7
		c4.8,0,8.2,6.7,9.5,10.6c0.6,0.1,1.2,0.1,1.7,0.1c2.9,0,3.4-1,3.4-2.3c0-2.4-2.7-5-4.6-6.2L527.4,786.8z M516.7,788.2
		c-0.8,0-1.6,0.4-1.6,1.3c0,1.9,3.7,5.4,9.7,6.5C523.8,793,520.2,788.2,516.7,788.2z"/>
	<path class="st0" d="M507.3,764l6.5,1.8v-3.7l2.1,0.6v3.7l12.5,3.3c0.4,0.1,1.2,0.3,1.7,0.3c0.2,0,0.6-0.2,0.6-0.5
		c0-1.2-3.1-3-4.1-3.5l0.8-1.2c2,1.2,5.6,3.4,5.6,6c0,1.5-1,2.3-2.5,2.3c-1.3,0-3.1-0.5-4.4-0.8l-10.2-2.7v3.3l-2.1-0.6V769
		l-6.5-2.1L507.3,764L507.3,764z"/>
	<path class="st0" d="M519.5,746.4c6.5,0,13.5,5.5,13.5,10.3c0,3.4-2.7,5.5-6,5.5c-5.1,0-13.7-4.7-13.7-10.5
		C513.4,749.2,515.6,746.4,519.5,746.4z M528.9,759c1.6,0,2.9-0.7,2.9-2.4c0-4-10.7-7-14-7c-1.5,0-3.2,0.5-3.2,2.3
		C514.7,756,525.7,759,528.9,759z"/>
	<path class="st0" d="M516.1,727.3L516.1,727.3c-1.3-1.2-2.7-2.6-2.7-4.5c0-3.2,3.5-4.3,6.2-4.3c5,0,13.5,4.6,13.5,10.3
		c0,2.7-2,4.4-4.7,4.4c-1.6,0-3.2-0.4-4.7-0.8l-13.7-3.7c-0.5-0.2-2-0.5-2.5-0.5c-0.9,0-1,0.5-0.9,2.6l-1.3-0.3l-1.1-6.4
		L516.1,727.3z M518.9,722.1c-1.1,0-3.5,0.3-3.5,1.8c0,2.3,3.7,3.8,5.5,4.5c1.5,0.6,6.6,2,8.1,2c1.2,0,2.5-0.5,2.5-2
		C531.4,724.1,522.2,722.1,518.9,722.1z"/>
	<path class="st0" d="M532.7,712.8v2.9l-13.2-4.5c-0.7-0.2-1.5-0.5-2.2-0.5c-0.3,0-1,0.2-1,0.5c0,1.2,3.6,3,4.5,3.7l-0.7,1
		c-1.8-1.2-6.8-3.8-6.8-6.3c0-1.4,1.1-2.1,2.4-2.1c1.5,0,4.2,0.9,5.6,1.5l3.3,1.2l0.1-0.1c-2.4-1.4-11.4-5.3-11.4-8.5
		c0-1,0.8-1.8,1.8-1.8c1.6,0,2.3,1.4,2.5,2.8c0.2,1.3,0.5,1.8,1.5,2.7c2,1.7,6.5,4,9,5.3L532.7,712.8z"/>
	<path class="st0" d="M527.4,687.4c2.7,1.6,5.7,4.5,5.7,7.9c0,3.4-2.9,5.2-6.1,5.2c-5.1,0-13.5-5-13.5-10.6c0-2,1.2-3.7,3.4-3.7
		c4.8,0,8.2,6.7,9.5,10.6c0.6,0.1,1.2,0.1,1.7,0.1c2.9,0,3.4-1,3.4-2.3c0-2.4-2.7-5-4.6-6.2L527.4,687.4z M516.7,688.8
		c-0.8,0-1.6,0.4-1.6,1.3c0,1.9,3.7,5.4,9.7,6.5C523.8,693.5,520.2,688.8,516.7,688.8z"/>
	<path class="st0" d="M513.8,669.6v-3.4l8.1,2.9c1.2,0.4,6.6,2.3,7.6,2.3c0.3,0,0.6-0.2,0.6-0.5c0-0.7-1.3-2.1-4.3-3.8l0.6-1
		c4.2,2.5,6.6,4.2,6.6,6.3c0,1.3-1,2.2-2.3,2.2c-1,0-1.8-0.2-2.6-0.5l-0.1,0.1c2.6,1.1,5,3.1,5,6.2c0,3-2.6,4.4-5.3,4.4
		c-5.5,0-14.3-5.2-14.3-11.3c0-1.7,0.6-2.7,2.2-3.4L513.8,669.6z M517.3,671.2c-1.2,0-2.1,0.6-2.1,1.8c0,2.8,2.9,4.7,5.1,5.8
		c2.2,1.1,6.1,2.5,8.5,2.5c1.2,0,2.3-0.6,2.3-1.9C531.1,675.7,520.5,671.2,517.3,671.2z"/>
	<path class="st0" d="M509.3,658.4c-0.5-0.1-1.3-0.3-1.7-0.3c-1.2,0-1,1-1,2.7l-1.3-0.3l-1.1-6.7l14.3,3.8l0.1-0.1
		c-2.3-1.3-5.2-3.4-5.2-6.3c0-2,1.6-3.5,3.7-3.5c3,0,5.4,3.3,6.4,5.8l4-0.7c0.5-0.1,2.7-0.3,2.7-1.2c0-1-2.8-2.4-3.7-2.7l0.5-1.2
		c2,1,6,2.8,6,5.4c0,1-0.1,2-8.5,3.3l0.7,2.8l7.4,2v3.3L509.3,658.4z M517.8,650.7c-1,0-2,0.7-2,1.7c0,1.5,1.4,4.2,8.1,6.6
		C523.3,656.3,521.1,650.7,517.8,650.7z"/>
	<path class="st0" d="M509.3,630.4c-0.5-0.1-1.3-0.3-1.7-0.3c-1.2,0-1,1.1-1,2.6l-1.3-0.3l-1.1-6.6l23.8,6.5
		c0.4,0.1,1.2,0.3,1.6,0.3c0.4,0,1-0.2,1-0.6c0-1.2-3.6-2.7-4.6-3.2l0.5-1.1c2.2,1,6.5,3.1,6.5,6c0,1.2-1.1,2.3-2.3,2.3
		c-0.8,0-1.5-0.2-2.2-0.4l-0.1,0.1c2.2,1.3,4.5,3.4,4.5,6.2c0,2.7-2.9,3.8-5.2,3.8c-6,0-14.5-5.9-14.5-10.7c0-1.2,0.4-2,1-3
		L509.3,630.4z M520.5,639.8c2,1,5.8,2.2,8,2.2c0.9,0,2.6-0.2,2.6-1.5c0-3.8-10-7.7-13.2-7.7c-1.3,0-2.7,0.5-2.7,2
		C515.2,637.1,518.8,639,520.5,639.8z"/>
	<path class="st0" d="M519.5,610.1c6.5,0,13.5,5.5,13.5,10.3c0,3.4-2.7,5.5-6,5.5c-5.1,0-13.7-4.7-13.7-10.5
		C513.4,612.9,515.6,610.1,519.5,610.1z M528.9,622.8c1.6,0,2.9-0.7,2.9-2.4c0-4-10.7-7-14-7c-1.5,0-3.2,0.5-3.2,2.3
		C514.7,619.7,525.7,622.8,528.9,622.8z"/>
	<path class="st0" d="M517.6,590.8c2.9,0.7,7.3,1.8,10.3,1.8c0.8,0,2.8-0.1,2.8-1.3c0-2-7-5.8-10.8-5.8c-1.9,0-2.6,1.4-4.3,1.4
		c-1.1,0-2.2-0.7-2.2-1.8c0-1.6,2-2.2,3.2-2.2c4.3,0,16.5,4.3,16.5,9.5c0,2.5-2.8,3.3-4.8,3.3c-1.3,0-4.1-0.6-7.1-1.5l-0.1,0.1
		c3.6,1.2,12,4.4,12,8.9c0,1.8-1.7,2.9-3.3,2.9c-1.4,0-2.7-0.4-4-0.8l-6.7-2.2c-0.3-0.1-1.5-0.5-1.8-0.5s-0.7,0.1-0.7,0.4
		c0,1,3.1,2.9,3.9,3.5l-0.7,1c-1.7-1-6.4-4.2-6.4-6.3c0-1.5,1.1-2.1,2.5-2.1c1.3,0,3.2,0.7,4.3,1.1l6.7,2.2c0.7,0.2,1.5,0.5,2.1,0.5
		s1.2-0.3,1.2-1c0-3.6-13.2-8.1-16.3-9.1v-3L517.6,590.8z"/>
	<path class="st0" d="M522.2,577.1c-1-0.3-3.9-1.4-4.8-1.4c-0.4,0-1.1,0.1-1.1,0.5c0,0.7,1.6,1.7,4.5,3.7l-0.6,1.1
		c-1.9-1.2-6.8-3.9-6.8-6.4c0-1.5,1.5-2.1,2.8-2.1c2.8,0,6.4,1.7,9.1,2.8l1.1,0.5l0.1-0.1l-10.1-6.2c-1.2-0.9-2.9-2.2-2.9-3.8
		c0-1.7,1.7-2.3,3.1-2.3c1.7,0,4,0.9,5.7,1.5l6.3,2.1c0.3,0.1,1.3,0.5,1.7,0.5c0.3,0,0.5-0.2,0.5-0.5c0-1.2-3.3-3.1-4.2-3.7l0.6-1
		c3.5,2.2,6,3.8,6,6.2c0,1.3-1.1,2.2-2.3,2.2c-1,0-2.5-0.5-3.6-0.8l-7.1-2.5c-0.6-0.2-2.1-0.7-2.7-0.7c-0.4,0-1,0.2-1,0.7
		c0,0.8,1.4,1.6,2,2l14.3,8.7v2.6L522.2,577.1z"/>
	<path class="st0" d="M513.8,534.3v-3.4l8.1,2.9c1.2,0.4,6.6,2.3,7.6,2.3c0.3,0,0.6-0.2,0.6-0.5c0-0.7-1.3-2.1-4.3-3.8l0.6-1
		c4.2,2.5,6.6,4.2,6.6,6.3c0,1.3-1,2.2-2.3,2.2c-1,0-1.8-0.2-2.6-0.5l-0.1,0.1c2.6,1.1,5,3.1,5,6.2c0,3-2.6,4.4-5.3,4.4
		c-5.5,0-14.3-5.2-14.3-11.3c0-1.7,0.6-2.7,2.2-3.4L513.8,534.3z M517.3,535.9c-1.2,0-2.1,0.6-2.1,1.8c0,2.8,2.9,4.7,5.1,5.8
		c2.2,1.1,6.1,2.5,8.5,2.5c1.2,0,2.3-0.6,2.3-1.9C531.1,540.4,520.5,535.9,517.3,535.9z"/>
	<path class="st0" d="M522.2,524.4c-1-0.3-3.9-1.4-4.8-1.4c-0.4,0-1.1,0.1-1.1,0.5c0,0.7,1.6,1.7,4.5,3.7l-0.6,1.1
		c-1.9-1.2-6.8-3.9-6.8-6.4c0-1.5,1.5-2.1,2.8-2.1c2.8,0,6.4,1.7,9.1,2.8l1.1,0.5l0.1-0.1l-10.1-6.2c-1.2-0.9-2.9-2.2-2.9-3.8
		c0-1.7,1.7-2.3,3.1-2.3c1.7,0,4,0.9,5.7,1.5l6.3,2.1c0.3,0.1,1.3,0.5,1.7,0.5c0.3,0,0.5-0.2,0.5-0.5c0-1.2-3.3-3.1-4.2-3.7l0.6-1
		c3.5,2.2,6,3.8,6,6.2c0,1.3-1.1,2.2-2.3,2.2c-1,0-2.5-0.5-3.6-0.8l-7.1-2.5c-0.6-0.2-2.1-0.7-2.7-0.7c-0.4,0-1,0.2-1,0.7
		c0,0.8,1.4,1.6,2,2l14.3,8.7v2.8L522.2,524.4z"/>
	<path class="st0" d="M509.3,492c-0.5-0.1-1.3-0.3-1.7-0.3c-1.2,0-1,1.1-1,2.6l-1.3-0.3l-1.1-6.6l23.8,6.5c0.4,0.1,1.2,0.3,1.6,0.3
		c0.4,0,1-0.2,1-0.6c0-1.2-3.6-2.7-4.6-3.2l0.5-1.1c2.2,1,6.5,3.1,6.5,6c0,1.2-1.1,2.3-2.3,2.3c-0.8,0-1.5-0.2-2.2-0.4l-0.1,0.1
		c2.2,1.3,4.5,3.4,4.5,6.2c0,2.7-2.9,3.8-5.2,3.8c-6,0-14.5-5.9-14.5-10.7c0-1.2,0.4-2,1-3L509.3,492z M520.5,501.4
		c2,1,5.8,2.2,8,2.2c0.9,0,2.6-0.2,2.6-1.5c0-3.8-10-7.7-13.2-7.7c-1.3,0-2.7,0.5-2.7,2C515.2,498.6,518.8,500.6,520.5,501.4z"/>
	<path class="st0" d="M519.5,461.3c6.5,0,13.5,5.5,13.5,10.3c0,3.4-2.7,5.5-6,5.5c-5.1,0-13.7-4.7-13.7-10.5
		C513.4,464.1,515.6,461.3,519.5,461.3z M528.9,473.9c1.6,0,2.9-0.7,2.9-2.4c0-4-10.7-7-14-7c-1.5,0-3.2,0.5-3.2,2.3
		C514.7,470.9,525.7,473.9,528.9,473.9z"/>
	<path class="st0" d="M516.1,452.6L516.1,452.6c-1.3-1.2-2.7-2.6-2.7-4.5c0-3.2,3.5-4.3,6.2-4.3c5,0,13.5,4.6,13.5,10.3
		c0,2.7-2,4.4-4.7,4.4c-1.6,0-3.2-0.4-4.7-0.8L510,454c-0.5-0.2-2-0.5-2.5-0.5c-0.9,0-1,0.5-0.9,2.6l-1.3-0.3l-1.1-6.4L516.1,452.6z
		 M518.9,447.4c-1.1,0-3.5,0.3-3.5,1.8c0,2.3,3.7,3.8,5.5,4.5c1.5,0.6,6.6,2,8.1,2c1.2,0,2.5-0.5,2.5-2
		C531.4,449.4,522.2,447.4,518.9,447.4z"/>
	<path class="st0" d="M529.2,443.1c-1,0-2-0.8-2-1.8c0-2.8,4.1-1.3,4.1-4.6c0-1.7-1.2-2.8-2.8-2.8c-3.8,0-4.8,6.5-9.8,6.5
		c-2.9,0-5.4-2.7-5.4-6.2c0-2,1.3-4.9,3.7-4.9c1,0,1.7,0.7,1.7,1.8c0,1.9-3.7,1.8-3.7,4.2c0,1.3,1.5,2.1,2.7,2.1
		c3.5,0,4.6-6.5,9.7-6.5c2.8,0,5.6,2.5,5.6,6.5C533.1,440.3,531.3,443.1,529.2,443.1z"/>
	<path class="st0" d="M519.5,412c6.5,0,13.5,5.5,13.5,10.3c0,3.4-2.7,5.5-6,5.5c-5.1,0-13.7-4.7-13.7-10.5
		C513.4,414.8,515.6,412,519.5,412z M528.9,424.6c1.6,0,2.9-0.7,2.9-2.4c0-4-10.7-7-14-7c-1.5,0-3.2,0.5-3.2,2.3
		C514.7,421.6,525.7,424.6,528.9,424.6z"/>
	<path class="st0" d="M528.4,406.1c0.4,0.1,1.2,0.3,1.6,0.3c0.3,0,0.7-0.1,0.7-0.5c0-1-3.8-2.9-4.7-3.4l0.5-1.1
		c2.1,1.1,6.6,3,6.6,5.8c0,1.6-1.3,2.3-2.8,2.3c-1,0-2.4-0.4-3.4-0.6l-17.6-4.7c-0.5-0.1-1.3-0.3-1.7-0.3c-1.2,0-1,1.1-1,2.6
		l-1.3-0.3l-1.1-6.6L528.4,406.1z"/>
	<path class="st0" d="M527.4,385.7c2.7,1.6,5.7,4.5,5.7,7.9s-2.9,5.2-6.1,5.2c-5.1,0-13.5-5-13.5-10.6c0-2,1.2-3.7,3.4-3.7
		c4.8,0,8.2,6.7,9.5,10.6c0.6,0.1,1.2,0.1,1.7,0.1c2.9,0,3.4-1,3.4-2.3c0-2.4-2.7-5-4.6-6.2L527.4,385.7z M516.7,387.1
		c-0.8,0-1.6,0.4-1.6,1.3c0,1.9,3.7,5.4,9.7,6.5C523.8,391.8,520.2,387.1,516.7,387.1z"/>
	<path class="st0" d="M529.2,384.5c-1,0-2-0.8-2-1.8c0-2.8,4.1-1.3,4.1-4.6c0-1.7-1.2-2.8-2.8-2.8c-3.8,0-4.8,6.5-9.8,6.5
		c-2.9,0-5.4-2.7-5.4-6.2c0-2,1.3-4.9,3.7-4.9c1,0,1.7,0.7,1.7,1.8c0,1.9-3.7,1.8-3.7,4.2c0,1.3,1.5,2.1,2.7,2.1
		c3.5,0,4.6-6.5,9.7-6.5c2.8,0,5.6,2.5,5.6,6.5C533.1,381.6,531.3,384.5,529.2,384.5z"/>
	<path class="st0" d="M528.2,356.4c2.1,1.6,4.9,4.7,4.9,7.4c0,3.3-3,5.3-6,5.3c-5.8,0-13.6-5.8-13.6-10.7c0-2.1,1.6-3.7,3.7-3.7
		c1.2,0,2.4,0.7,2.4,2c0,1-1.1,1.6-2,1.6c-0.4,0-0.8-0.1-1.3-0.1c-0.6,0-1.1,0.4-1.1,1c0,2,7.3,6.4,13.2,6.4c1.4,0,3-0.4,3-2.1
		c0-2.3-2.4-4.7-4-6.1L528.2,356.4z"/>
	<path class="st0" d="M527.4,339.9c2.7,1.6,5.7,4.5,5.7,7.9s-2.9,5.2-6.1,5.2c-5.1,0-13.5-5-13.5-10.6c0-2,1.2-3.7,3.4-3.7
		c4.8,0,8.2,6.7,9.5,10.6c0.6,0.1,1.2,0.1,1.7,0.1c2.9,0,3.4-1,3.4-2.3c0-2.4-2.7-5-4.6-6.2L527.4,339.9z M516.7,341.3
		c-0.8,0-1.6,0.4-1.6,1.3c0,1.9,3.7,5.4,9.7,6.5C523.8,346,520.2,341.3,516.7,341.3z"/>
	<path class="st0" d="M522.2,332.9c-1-0.3-3.9-1.4-4.8-1.4c-0.4,0-1.1,0.1-1.1,0.5c0,0.7,1.6,1.7,4.5,3.7l-0.6,1.1
		c-1.9-1.2-6.8-3.9-6.8-6.4c0-1.5,1.5-2.1,2.8-2.1c2.8,0,6.4,1.7,9.1,2.8l1.1,0.5l0.1-0.1l-10.1-6.2c-1.2-0.9-2.9-2.2-2.9-3.8
		c0-1.7,1.7-2.3,3.1-2.3c1.7,0,4,0.9,5.7,1.5l6.3,2.1c0.3,0.1,1.3,0.5,1.7,0.5c0.3,0,0.5-0.2,0.5-0.5c0-1.2-3.3-3.1-4.2-3.7l0.6-1
		c3.5,2.2,6,3.8,6,6.2c0,1.3-1.1,2.2-2.3,2.2c-1,0-2.5-0.5-3.6-0.8l-7.1-2.5c-0.6-0.2-2.1-0.7-2.7-0.7c-0.4,0-1,0.2-1,0.7
		c0,0.8,1.4,1.6,2,2l14.3,8.7v2.8L522.2,332.9z"/>
	<path class="st0" d="M528.2,302.6c2.1,1.6,4.9,4.7,4.9,7.4c0,3.3-3,5.3-6,5.3c-5.8,0-13.6-5.8-13.6-10.7c0-2.1,1.6-3.7,3.7-3.7
		c1.2,0,2.4,0.7,2.4,2c0,1-1.1,1.6-2,1.6c-0.4,0-0.8-0.1-1.3-0.1c-0.6,0-1.1,0.4-1.1,1c0,2,7.3,6.4,13.2,6.4c1.4,0,3-0.4,3-2.1
		c0-2.3-2.4-4.7-4-6.1L528.2,302.6z"/>
	<path class="st0" d="M527.4,286.1c2.7,1.6,5.7,4.5,5.7,7.9s-2.9,5.2-6.1,5.2c-5.1,0-13.5-5-13.5-10.6c0-2,1.2-3.7,3.4-3.7
		c4.8,0,8.2,6.7,9.5,10.6c0.6,0.1,1.2,0.1,1.7,0.1c2.9,0,3.4-1,3.4-2.3c0-2.4-2.7-5-4.6-6.2L527.4,286.1z M516.7,287.5
		c-0.8,0-1.6,0.4-1.6,1.3c0,1.9,3.7,5.4,9.7,6.5C523.8,292.2,520.2,287.5,516.7,287.5z"/>
	<path class="st0" d="M528.4,281c0-1.3,1-2.3,2.3-2.3s2.3,1,2.3,2.3s-1,2.3-2.3,2.3C529.5,283.4,528.4,282.3,528.4,281z"/>
	<path class="st0" d="M513.5,274.9c-0.6-1.2-2.9-3.8-4.2-3.8c-1.2,0-1.2,1.5-3,1.5c-1.3,0-2.2-1.1-2.2-2.3c0-1.5,1.3-2.3,2.6-2.3
		c3.5,0,6.2,3.5,7.7,6.4L513.5,274.9z"/>
	<path class="st0" d="M513.5,266.9c-0.6-1.2-2.9-3.8-4.2-3.8c-1.2,0-1.2,1.5-3,1.5c-1.3,0-2.2-1.1-2.2-2.3c0-1.5,1.3-2.3,2.6-2.3
		c3.5,0,6.2,3.5,7.7,6.4L513.5,266.9z"/>
	<path class="st0" d="M656.5,1035.4v-29.1h2.9v29.1H656.5z"/>
	<path class="st0" d="M643.7,992.2v-7.4c0-6,1.7-9.2,6.1-9.2c3.3,0,5,1.8,5.6,3.6c0.7-2.4,2.3-4.7,6-4.7c5.8,0,7.1,5.1,7.1,9.8v7.9
		H643.7L643.7,992.2z M654.3,988.6v-4c0-3.3-1-5.1-3.8-5.1c-3.3,0-3.7,2.5-3.7,6.2v2.8L654.3,988.6L654.3,988.6z M665.4,988.6v-5.1
		c0-2.8-1-5.1-4.1-5.1c-3,0-4,2.3-4,5.8v4.4H665.4L665.4,988.6z"/>
	<path class="st0" d="M650.3,967.2h2.3c-1.7-0.6-2.8-2.3-2.8-4.4c0-0.5,0-0.7,0.1-0.9h3.2c-0.1,0.3-0.1,0.8-0.1,1.2
		c0,3.3,2.4,3.9,6.1,3.9h9.4v3.5H652c-0.5,0-1.1,0-1.6,0v-3.3H650.3z"/>
	<path class="st0" d="M665.8,947c1.6,0.9,3,2.7,3,5.8c0,4.3-2.6,6.3-7.3,6.3h-11.3v-3.5h10c3.6,0,5.7-1.1,5.7-4
		c0-3.7-3.4-4.4-7.4-4.4h-8.3v-3.5H667c0.4,0,0.9,0,1.3,0v3.4L665.8,947L665.8,947z"/>
	<path class="st0" d="M662.6,922.1c3.6,0.9,6.3,3.8,6.3,8.4c0,5.7-4.1,9.2-9.6,9.2c-5.4,0-9.5-3.6-9.5-9.3c0-4.7,2.6-7.5,6.5-8.4
		v3.7c-2.2,0.8-3.6,2.5-3.6,4.9c0,3.4,2.8,5.4,6.6,5.4c4,0,6.6-2,6.6-5.4c0-2.4-1.2-4-3.4-4.8v-3.7H662.6z"/>
	<path class="st0" d="M660.3,916c3.2-0.1,5.7-2.2,5.7-5.7c0-2.5-1.2-3.7-2.7-4.6v-3.5c3.3,1,5.6,3.9,5.6,8.3c0,5.6-3.8,9.1-9.4,9.1
		c-5.7,0-9.7-3.7-9.7-9.1c0-5.9,4.5-8.6,9.4-8.6h1.1L660.3,916L660.3,916z M657.5,905.4c-2.9,0.3-4.9,2.1-4.9,5.1
		c0,2.9,1.9,5,4.9,5.4V905.4z"/>
	<path class="st0" d="M661.4,886.9c2.6-0.5,4.6-2.1,4.6-5.7c0-3.3-1.7-5.2-4.2-5.2c-2.7,0-3.3,2.1-4.3,5l-0.5,1.6
		c-1.4,4.5-3.1,7.2-7.1,7.2s-6.8-3.5-6.8-8.6c0-5.3,2.7-8.2,6.9-8.6v3.7c-2.5,0.4-3.9,2-3.9,5c0,2.9,1.4,4.6,3.5,4.6
		c2.6,0,3.4-2.2,4.2-4.9l0.5-1.7c1.3-4.4,2.9-7.2,7-7.2c4.5,0,7.5,3.7,7.5,9.1c0,5.6-2.8,9.1-7.5,9.4L661.4,886.9L661.4,886.9z"/>
	<path class="st0" d="M650.3,863.8v-3.4h2.7v3.4h10.9c1.8,0,2.2-0.9,2.2-2.2c0-0.2,0-0.6-0.1-0.9h2.6c0.1,0.5,0.1,0.9,0.1,1.4
		c0,3.2-1.1,5.3-4.7,5.3h-11.1v2.7h-2.7v-2.7h-4.9v-3.5L650.3,863.8L650.3,863.8z"/>
	<path class="st0" d="M660.3,854.8c3.2-0.1,5.7-2.2,5.7-5.7c0-2.5-1.2-3.7-2.7-4.6V841c3.3,1,5.6,3.9,5.6,8.3c0,5.6-3.8,9.1-9.4,9.1
		c-5.7,0-9.7-3.7-9.7-9.1c0-5.9,4.5-8.6,9.4-8.6h1.1L660.3,854.8L660.3,854.8z M657.5,844.3c-2.9,0.3-4.9,2.1-4.9,5.1
		c0,2.9,1.9,5,4.9,5.4V844.3z"/>
	<path class="st0" d="M650.3,833.6h2.3c-1.7-0.6-2.8-2.3-2.8-4.4c0-0.5,0-0.7,0.1-0.9h3.2c-0.1,0.3-0.1,0.8-0.1,1.2
		c0,3.3,2.4,3.9,6.1,3.9h9.4v3.5H652c-0.5,0-1.1,0-1.6,0v-3.3L650.3,833.6L650.3,833.6z"/>
	<path class="st0" d="M643.7,825v-3.5h24.7v3.5H643.7z"/>
	<path class="st0" d="M643.7,816.4v-3.6h3.9v3.6H643.7z M650.3,812.8h18.1v3.5h-18.2v-3.5H650.3z"/>
	<path class="st0" d="M652.7,804.4c-1.6-0.9-3-2.7-3-5.8c0-4.2,2.8-6.4,7.5-6.4h11.2v3.5h-9.9c-3.6,0-5.8,1.2-5.8,4
		c0,2.9,2.4,4.5,5.2,4.5h10.5v3.5h-16.8c-0.4,0-0.9,0-1.4,0v-3.5h2.5V804.4z"/>
	<path class="st0" d="M664.9,770.6c6.6,0,10.1,3,10.1,9.1c0,4.6-2.4,7.3-6,8.2v-3.7c1.7-0.7,3.1-1.9,3.1-4.6c0-4.2-2.6-5.6-7.5-5.6
		v0.1c1.6,0.9,2.9,2.9,2.9,6.1c0,5.1-3.7,8.4-8.9,8.4c-5.4,0-9-3.5-9-8.4c0-3.2,1.3-5,2.8-6.1c-0.2,0-0.4,0-0.6,0h-1.7v-3.5H664.9z
		 M658.7,784.7c3.5,0,6.1-2,6.1-5.4c0-3-2.1-5.4-6.2-5.4c-3.6,0-5.9,2.1-5.9,5.4C652.6,782.6,655,784.7,658.7,784.7z"/>
	<path class="st0" d="M672,752.4c-2.3,2.9-6.7,5.4-13,5.4c-7.5,0-14.7-4.7-17.4-10.8l3.2,0.6c3.2,4.4,8.7,7.1,14.5,7.1
		c3.8,0,6.8-0.9,9.5-2.9L672,752.4z"/>
	<path class="st0" d="M668.4,734.3v14.8c-3.4-1.3-6.5-4.7-8.7-7.6l-2.1-2.7c-1.8-2.3-4.7-5.9-7.8-5.9c-2.1,0-3.6,1.5-3.6,3.6
		c0,1.8,1,3.3,3,3.4c2.4,0.1,3.3,0.8,3.3,2.2c0,1-1,1.6-1.9,1.6c-1.7,0-5.7-2.2-5.7-7.3c0-4.1,2.5-6.9,5.8-6.9s5.5,3.4,7.1,5.9
		l1.8,2.8c1.8,2.7,3.8,5.4,6.3,7.5v-5.5c0-3.6-0.1-5.1-3.6-6.9l0.5-1.1L668.4,734.3z"/>
	<path class="st0" d="M661,729.6c-5.5,0-16.2-5.5-16.2-11.8c0-4,4.4-5.7,7.8-5.7c5.8,0,16.1,5.8,16.1,11.8
		C668.8,727.8,664.4,729.6,661,729.6z M660.1,717.6c-2.6-1-7.3-2.5-10-2.5c-1.9,0-3.9,0.8-3.9,2.9c0,3.3,4.7,5.2,7.3,6.2
		c2.8,1.1,7.2,2.5,10.2,2.5c1.9,0,3.8-0.7,3.8-2.9C667.4,720.6,662.6,718.6,660.1,717.6z"/>
	<path class="st0" d="M661,711.7c-5.5,0-16.2-5.5-16.2-11.8c0-4,4.4-5.7,7.8-5.7c5.8,0,16.1,5.8,16.1,11.8
		C668.8,709.9,664.4,711.7,661,711.7z M660.1,699.7c-2.6-1-7.3-2.5-10-2.5c-1.9,0-3.9,0.8-3.9,2.9c0,3.3,4.7,5.2,7.3,6.2
		c2.8,1.1,7.2,2.5,10.2,2.5c1.9,0,3.8-0.7,3.8-2.9C667.4,702.6,662.6,700.7,660.1,699.7z"/>
	<path class="st0" d="M661.2,678l1.7,0.5v3.3l1.4,0.4c0.4,0.1,1.1,0.3,1.5,0.3c1.3,0,1.5-1.2,1.5-2.2l1.1,0.3v8.3l-1.1-0.3
		c0-2.2-1-2.8-2.9-3.3l-1.5-0.4v9.4l-1.7-0.4l-16-14.3v-2.4l16,4.2V678z M649.5,681.3L649.5,681.3l11.7,10.6v-7.4L649.5,681.3z"/>
	<path class="st0" d="M641.6,672.5c2.3-2.9,6.7-5.4,13-5.4c7.5,0,14.7,4.7,17.4,10.8l-3.2-0.6c-3.2-4.4-8.7-7.1-14.5-7.1
		c-3.8,0-6.8,0.9-9.5,2.9L641.6,672.5z"/>
</g>
</svg>
