<?xml version="1.0" encoding="utf-8"?>
<!-- Generator: Adobe Illustrator 24.0.0, SVG Export Plug-In . SVG Version: 6.00 Build 0)  -->
<svg version="1.1" id="Layer_1" xmlns="http://www.w3.org/2000/svg" xmlns:xlink="http://www.w3.org/1999/xlink" x="0px" y="0px"
	 viewBox="0 0 720.1 1190.6" style="enable-background:new 0 0 720.1 1190.6;" xml:space="preserve">
<style type="text/css">
	.st0{fill:none;}
	.st1{fill:#FFFFFF;}
</style>
<rect x="0.3" y="-1.1" class="st0" width="719.6" height="1191.6"/>
<g>
	<path class="st1" d="M360,1033.6c82.6,0,165.1,0,247.7,0c8,0,15.9,0.3,23.5,2.9c23,7.8,38.5,28.8,38.8,53.1
		c0.1,6.6,0.4,13.3-0.6,19.8c-4.3,28-26.7,47.4-55.4,48.3c-2,0.1-4,0-6,0c-165.3,0-330.7,0-496-0.1c-7.4,0-15.1-0.6-22.2-2.6
		c-23.4-6.8-39.5-28.5-39.7-52.9c-0.1-7.9-0.1-16,1.3-23.7c4.8-25.1,26.9-43.5,52.3-44.6c3.5-0.2,7.1-0.2,10.6-0.2
		C196.2,1033.6,278.1,1033.6,360,1033.6z M360,1039.9c-82.3,0-164.7,0-247,0c-3.3,0-6.6,0-9.9,0.2c-21.8,1.4-40.2,16.3-45,37.6
		c-1.9,8.5-2,17.5-1.6,26.3c1.2,26.8,23.1,47.5,49.9,47.5c169.1,0,338.2,0,507.3,0c22.8,0,42.9-15.1,48.1-37.2
		c2-8.4,2-17.5,1.7-26.3c-0.6-18.1-9.3-31.8-24.7-41.3c-9-5.5-18.9-6.9-29.2-6.9C526.4,1040,443.2,1040,360,1039.9z"/>
	<path class="st1" d="M622.6,1136.7c-171.9,0-343.1,0-514.2-0.1c-0.4,0-0.7-0.9-1.4-1.9c1.4-0.5,2.5-1.3,3.6-1.3
		c170.3,0.1,340.6,0.3,510.9,0.6C621.7,1134,621.9,1135,622.6,1136.7z"/>
	<path class="st1" d="M156.8,1052.2c2.4,6.7,4.6,13,6.9,19.3c-0.3,0.4-0.7,0.7-1,1.1c-1.2-0.5-2.6-0.6-3.4-1.4
		c-2.7-2.8-5-6.2-7.9-8.9c-11.5-10.3-25.7-7.8-32.2,6.1c-7.1,15.2-8.6,30.9-0.7,46.5c3.2,6.4,8.2,10.9,15.4,12.4
		c10.2,2.1,17.5-3.3,18.3-13.7c0.1-1.8,0.1-3.5,0.1-5.3c-0.2-6.3-1.1-7.4-7.5-8.5c-1.8-0.3-3.6-0.2-3.2-3.6c4.6-0.9,9.3-0.3,14-0.4
		c4.8-0.1,9.7,0,15.9,0c-1.2,2-1.7,3.7-2.5,3.8c-5.7,1-6.7,5-6.8,9.7c-0.1,5.9,0,11.8,0,17.3c-7.2,1.4-13.6,2.5-20,3.9
		c-16.1,3.6-34.6-4.4-39.6-25.1c-3.6-15-1-29,8.5-41.3c7.4-9.5,17.3-13.5,29.2-11.4C145.7,1053.9,151,1054.6,156.8,1052.2z"/>
	<path class="st1" d="M462.7,1098.1c5.8,8.4,11.1,16.2,16.7,23.8c1.5,2,4.1,3.1,6.2,4.6c0.9,0.7,1.9,1.3,3.2,2.1
		c-4.4,2-15.2,2.4-24.9,1.2c0.5-2.6,0.5-2.6,5.2-5.4c-2.9-7.3-8.5-13-12.8-19.7c-3.2,2.3-6.6,3.9-6.9,7.9c-0.3,3.3,0.4,6.6,0.3,9.9
		c-0.1,4.6,6.2,2.7,6.9,7.6c-8.1,0.4-15.7,0.3-24.9,0.1c1.7-1.9,2.3-3.3,3.1-3.5c3.9-0.7,4.9-3.2,4.8-6.7c0-17.9,0.1-35.7,0-53.6
		c0-5.8-0.3-5.9-8.4-8.1c0.6-4.8,5-3.9,7.8-5.2c2.9-1.3,6.1-2,10.2-3.3c0,18.4,0,35.9,0,53.4c0.5,0.2,0.9,0.5,1.4,0.7
		c5-5,10.4-9.7,14.7-15.4c1.8-2.4,1.7-5-2-6.2c-0.8-0.3-1.4-1.4-3-3.1c9.2-0.7,17.1-0.4,25.7-0.3c-1.6,4.9-6,3.4-8.2,5.4
		c-2.4,2.2-5.1,4.2-7.5,6.4C467.9,1093.1,465.6,1095.4,462.7,1098.1z"/>
	<path class="st1" d="M333.3,1127.5c-2.3,3.2-5.4,3.5-27.7,2.8c-1.9-0.1-4.7,1-4.9-2.6c0.4-0.3,0.6-0.8,1-0.9
		c8.9-2.5,9.4-2.8,9.6-12c0.2-16.7,0.2-33.5,0.2-50.2c0-6.2-1.9-7.7-8.3-7c-8,0.9-13.5,5.9-18.2,12c-1.2,1.6-1.6,4.3-5.6,3.8
		c1.5-6.8,4.7-12.7,7-19.4c20.2,0,40.3,0,60.9,0c2.3,6.1,4.6,12.2,7.3,19.4c-1.9-0.3-3.2-0.2-3.8-0.8c-2.4-2.6-4.2-5.7-6.7-8.1
		c-4.4-4.2-9.6-7-15.9-7c-4.2,0-5.5,1.2-6,5.3c-0.2,1.1-0.1,2.2-0.1,3.3c0,15,0,30,0.1,45c0,0.9,0,1.8,0,2.6
		C322.6,1124,323.1,1124.7,333.3,1127.5z"/>
	<path class="st1" d="M537.5,1101.5c-12.1,0-23.3,0-34.4,0c-1.7,9.3,1.9,20.1,8.1,23.2c9.9,4.9,17.2-0.4,24.9-8
		c-0.3,2.4-0.1,3.6-0.7,4.4c-7.1,10.7-21.8,13.4-32.7,6.1c-16-10.7-15.2-36.9,1.5-46.5c7.3-4.2,14.8-4.3,22,0
		C533.7,1085.3,537,1092.1,537.5,1101.5z M526.2,1096.8c0.6-9.4-3.7-15.2-10.9-15.2c-7.2-0.1-12.1,6.2-11.9,15.2
		C511.1,1096.8,518.7,1096.8,526.2,1096.8z"/>
	<path class="st1" d="M221.7,1101.4c-11.3,0-22.6,0-34.6,0c0.3,9.5,0.7,18.5,9.2,23.3c9.5,5.3,17.1-0.4,24.9-8.2
		c-0.5,2.7-0.4,3.9-0.9,4.8c-6.9,9.9-19.8,13.1-30.5,7.3c-9.4-5.1-13.9-13.5-13.7-23.9c0.2-10.6,4.4-19.5,14.2-24.4
		C207.8,1071.4,223.6,1087.4,221.7,1101.4z M211.1,1096.9c0.5-9.5-3.8-15.3-10.9-15.4c-7.2,0-12.1,6.3-11.8,15.4
		C195.7,1096.9,203.2,1096.9,211.1,1096.9z"/>
	<path class="st1" d="M582.9,1129.4c-3.6-7.2-5-11.6-5-17.1c1.4,1.3,2.6,2,3.4,3c4.1,4.7,8.5,8.9,14.4,11.3c3,1.2,5.9,1.6,9,0.1
		c6.1-2.9,6.7-10.1,1.1-13.7c-2.6-1.6-5.6-2.5-8.5-3.6c-4.1-1.6-8.4-2.7-12.3-4.8c-10.1-5.3-10.4-18-0.6-24.1
		c4.1-2.5,8.5-3.3,13.3-2.4c3.5,0.7,7.2,0.6,11.5,1c2.9,4.9,4.7,10.4,4.8,16.3c-1.5-1-2.8-1.5-3.8-2.4c-3.1-2.8-5.8-6-9.1-8.6
		c-3-2.4-6.7-3.5-10.6-2.5c-2.9,0.7-5.2,2.4-5.7,5.7c-0.5,3,0.8,5.3,3.3,6.6c3.1,1.6,6.4,2.9,9.6,4.2c4.1,1.7,8.4,2.9,12.1,5.1
		c9,5.3,9.9,16.5,2,23.3c-5,4.3-10.7,5.5-17.3,3.8C591.3,1129.6,587.5,1129.8,582.9,1129.4z"/>
	<path class="st1" d="M428.9,1118.2c-5.5,8.2-12.7,13.7-23.2,13.2c-9.9-0.5-17.7-7.5-20.9-17.6c-5-16.1,4.8-32.8,21-35.7
		c5.7-1,11,0.1,15.9,2.9c1.8,1,3.5,2.7,4.7,4.4c1.9,2.8,1.2,6-1.1,7.7c-2.6,2-6,1.5-8.1-1.4c-0.9-1.2-1.5-2.7-2.2-4
		c-1.6-3.3-3.7-6-7.9-6c-4.5,0-7.6,2.3-9.4,6.1c-3.4,7-4.2,14.3-2.6,21.9c0.5,2.3,1.3,4.7,2.4,6.8c5.2,10,15.6,12.1,24.4,5
		c1.9-1.6,3.8-3.2,5.7-4.8C428.1,1117.1,428.5,1117.7,428.9,1118.2z"/>
	<path class="st1" d="M558.3,1079.2c5.7,0,10.1,0,14.2,0c0.8,2.6-0.2,3.5-2.1,3.5c-3.7,0-7.4,0-11.9,0c0,4.3,0,8,0,11.7
		c0,7.9-0.1,15.9,0.1,23.8c0.2,7.1,4.6,9.4,10.5,5.7c1.4-0.9,2.8-1.9,4.8-3.3c0.1,1.5,0.5,2.5,0.2,2.9c-3.3,4.4-7.7,7.1-13.2,7.9
		c-5.6,0.8-10.1-2.1-11.3-7.7c-0.6-3-0.8-6.1-0.8-9.2c-0.1-8.1,0-16.3-0.1-24.4c0-2.2-0.2-4.3-0.3-6.9c-2.4-0.3-4.5-0.5-7.8-0.9
		c3.8-4,6.9-7.4,10-10.6c3-3.1,1.8-8.8,7.6-12.2C558.3,1066.6,558.3,1072.4,558.3,1079.2z"/>
	<path class="st1" d="M233.5,1083.2c-2.7-0.3-4.8-0.5-7.2-0.8c-0.1-4.2,4.2-4.2,5.7-6.6c1.8-2.8,3.6-5.5,5.4-8.2
		c1.5-2.2,0.4-6.2,5.5-7.3c0,6.5,0,12.2,0,18.4c5.4,0.3,9.9,0.5,14.6,0.7c-0.8,2-2.8,2.5-14.3,4.2c0,4,0,8.1,0,12.2
		c0,7.5-0.1,15,0.1,22.5c0.2,7,4.6,9.3,10.6,5.6c1.4-0.9,2.8-1.9,5.1-3.5c-0.3,2-0.1,3.2-0.6,3.7c-3.1,3.6-6.8,6.2-11.6,7.1
		c-6.6,1.3-11.4-1.7-12.6-8.2c-0.5-2.8-0.6-5.7-0.6-8.5c-0.1-8.1,0-16.3,0-24.4C233.5,1087.8,233.5,1085.6,233.5,1083.2z"/>
	<path class="st1" d="M372.2,1077.1c0,12.8,0,24.4,0,36.1c0,2,0.1,4,0,6c-0.2,3.9,0.6,7.1,5.3,7.6c0.8,0.1,1.6,0.6,2.8,1.1
		c-4.7,2.9-16,3.3-24.7,1.6c0.8-1.1,1.3-2.6,2.1-2.7c3.8-0.8,5-3.2,5-6.7c0-9-0.3-18.1,0.1-27.1c0.2-5.1-3.2-6.5-7.6-8.2
		C360.4,1080.6,365.9,1079.5,372.2,1077.1z"/>
	<path class="st1" d="M366,1066.6c-3.8,0-7.1-3.4-7-7.3c0.1-3.6,3.1-6.7,6.7-6.9c3.9-0.2,7.3,3,7.4,6.9
		C373.1,1063.1,369.8,1066.6,366,1066.6z"/>
	<path class="st1" d="M526.2,1096.8c-7.6,0-15.1,0-22.7,0"/>
</g>
</svg>
