<?xml version="1.0" encoding="utf-8"?>
<!-- Generator: Adobe Illustrator 24.0.0, SVG Export Plug-In . SVG Version: 6.00 Build 0)  -->
<svg version="1.1" id="Layer_1" xmlns="http://www.w3.org/2000/svg" xmlns:xlink="http://www.w3.org/1999/xlink" x="0px" y="0px"
	 viewBox="0 0 1190.6 841.9" style="enable-background:new 0 0 1190.6 841.9;" xml:space="preserve">
<style type="text/css">
	.st0{fill:#FFFFFF;}
	.st1{fill:none;}
</style>
<g>
	<path class="st0" d="M448.9,225.2c0-2.1,0-3.9,0-5.8c0.9-0.1,1.7-0.3,2.5-0.3c19.1,0,38.2-0.1,57.3,0.2
		c18.7,0.3,35.3,6.2,48.9,19.5c14,13.8,18.5,31.1,17.9,50.1c-0.4,14.8-4,28.6-12.9,40.7c-10.5,14.2-25,22-42.1,25.1
		c-7,1.3-14.1,1.8-21.2,2c-15.7,0.3-31.4,0.1-47.1,0.1c-1.7,0-3.6,0.5-3.5-2.4c0.1-2.4,0-3.9,3.3-4.1c9.2-0.4,12.5-3.6,13.8-12.7
		c0.4-2.4,0.6-4.9,0.6-7.4c0-28,0.1-56,0-84c0-3.1-0.4-6.2-0.9-9.2c-1.2-7.3-4.5-10.4-11.8-11.3
		C452.1,225.5,450.6,225.4,448.9,225.2z M553.9,284.6c-0.3-3.2-0.6-8.6-1.2-13.9c-0.4-3.3-1.1-6.5-1.9-9.7
		c-7.4-29.7-31.3-38.1-55.9-34.7c-4.7,0.6-7.7,3.4-8.6,8.1c-0.6,3.2-1,6.5-1,9.8c-0.1,28.5-0.1,57,0,85.6c0,3.8,0.5,7.6,1.3,11.3
		c1,4.9,4.4,8,9.3,8.8c16.9,2.5,38.3-1.7,49.4-22.9C552,314.4,553.6,300.7,553.9,284.6z"/>
	<path class="st0" d="M524.9,386.4c1-5.9,1-5.9,6.5-5.9c17.4,0.1,34.7,0,52.1,0.3c8.7,0.2,17,2.4,24.6,6.6
		c14.2,7.8,22.2,20.1,24.4,35.8c4.5,32.9-6,60.2-32.8,80.2c-13,9.7-28.4,13.6-44.3,14.1c-20.2,0.7-40.5,0.5-60.7,0.6
		c-0.3,0-0.6-0.2-0.8-0.2c-0.3-4.5,0.6-5.8,4.7-6.3c6.2-0.8,11.2-3.7,13.3-9.7c2.7-7.4,4.8-14.9,6.8-22.5
		c6.7-24.7,13.2-49.5,19.7-74.2c0.8-2.9,1.3-5.9,1.6-8.8c0.3-4.4-1.5-7.1-5.8-8.4C531.3,387.2,528.2,387,524.9,386.4z M614.3,426.9
		c-0.3-3.2-0.5-7.5-1.3-11.8c-2.3-13.1-8.8-22.9-22.3-26.6c-4.3-1.2-9-1.6-13.5-1.7c-10.1-0.2-14.9,3.4-18.3,12.9
		c-0.4,1.2-0.8,2.4-1.1,3.5c-5.7,21.3-11.4,42.7-17,64.1c-2.8,10.6-5.7,21.1-8.1,31.8c-1.7,7.4,1.8,11.9,9.5,12.3
		c22.7,1.2,41.9-5.7,54.8-25.4C608.5,468.7,613.3,449,614.3,426.9z"/>
	<path class="st0" d="M659.1,275.2c-1.8-1.9-3.9-2.1-6-0.9c-1.6,0.9-3,2.1-4.4,3.4c-4.2,3.9-8.2,4.5-11.6,1.7
		c-3.6-3-4.4-9.2-1.5-13.3c2.4-3.5,5.9-4.7,10-4.1c5.5,0.7,10.1,3.5,14.3,7c0.9,0.8,1.8,1.6,2.2,2c5.5-2.4,10.3-5.4,15.6-6.7
		c14.4-3.5,27.9-0.9,38.9,9.5c14,13.2,12.2,36.9-3.2,48.5c-0.7,0.5-1.4,1.1-2.6,2c1.2,0.5,2.1,0.7,2.8,1.1c3.4,1.9,7.2,3.4,10,5.9
		c4.9,4.3,4.4,10.3-1.1,13.8c-3.4,2.1-7.2,3.4-10.9,5.1c-1,0.4-2,0.8-3.8,1.5c4.3,1.4,7.8,2.2,11.1,3.6c3.7,1.5,7.5,3,10.8,5.3
		c8.4,5.9,8.1,15.9-0.4,21.6c-6.3,4.3-13.7,5.8-21.1,6.8c-14.7,2-29.5,2.4-44-1.5c-4.8-1.3-9.6-3.5-13.5-6.5
		c-9.4-7.4-8.6-20.9,1.2-27.8c6.2-4.4,13.5-6,20.8-7.8c9.5-2.3,19.1-4.6,28.6-7.1c1.9-0.5,3.7-1.3,5.4-2.2c2-1.1,4-2.6,2.8-5.4
		c-0.9-2.1-4.2-3.3-6.6-2.6c-7.4,2.3-15,3.1-22.6,1.2c-13.3-3.3-23.5-10.5-27.2-24.3c-2.7-9.8-0.9-19.3,5-27.7
		C658.5,276.3,658.8,275.8,659.1,275.2z M708.9,297.2c-0.3-0.1-0.5-0.1-0.8-0.2c-0.1-6.8-1.4-13.4-5-19.3c-3.4-5.6-8.3-8.9-15.1-8.6
		c-6.7,0.2-10.8,4.2-13.7,9.7c-5.1,10-5.8,20.6-2.6,31.3c2.5,8.4,8,12.9,15.6,13.3c7.4,0.5,14.3-3.7,17.4-11.5
		C706.8,307.3,707.6,302.2,708.9,297.2z M687.2,384.3c0-0.2,0.1-0.4,0.1-0.5c4.1-0.3,8.3-0.2,12.3-0.9c4.4-0.8,9-1.8,13-3.7
		c7.7-3.7,8.5-11.7,2.1-17.4c-4.7-4.1-10.5-6-16.4-7.8c-0.8-0.2-1.9,0-2.7,0.2c-8.1,2.2-16.1,4.4-24.1,6.9c-3.4,1.1-6.8,2.5-9.7,4.6
		c-4.7,3.3-4.4,9.2,0.2,12.6c1.7,1.3,3.7,2.4,5.8,2.9C674.2,382.4,680.7,383.2,687.2,384.3z"/>
	<path class="st0" d="M921.5,272.9c0.4-1.1,0.7-1.9,0.9-2.7c1.7-6.1,0.7-5,7.1-5.1c3.7,0,7.4,0,11.7,0c-1.1,3.1-2,5.6-2.9,8.2
		c-7.3,20.5-14.7,41-21.9,61.6c-0.7,1.8-1.2,3.8-1.4,5.7c-0.1,1.3,0.3,3,1.2,3.8c0.6,0.5,2.7,0.3,3.6-0.4c2.7-2.1,5.3-4.3,7.4-6.9
		c3.3-4.1,6.2-8.5,9.4-12.9c0.5,0.2,1.1,0.5,1.8,0.8c2.6,1.1,3.3,2.5,1.4,5.1c-5.7,7.6-11,15.4-17,22.8c-2.2,2.6-5.7,4.6-9,5.8
		c-8,3-15.2-2.4-15.1-10.9c0.1-3,0.7-6.1,0.7-9.3c-0.6,1-1.2,2-1.8,3c-4.4,7.4-10.1,13.3-18.4,16.3c-16.2,5.9-30.4-3.3-31.8-20.5
		c-0.9-11.5,2.2-22.1,6.9-32.4c6.7-14.4,15.7-27,29.6-35.4c3.8-2.3,8.2-4.1,12.5-5.3C907.7,260.8,914.2,263.2,921.5,272.9z
		 M865.1,336.5c0,0.7,0,1.4,0,2.2c0.4,9.1,7.6,13.3,15.6,8.9c2.5-1.4,4.8-3.2,6.9-5.2c8.2-8.1,13.7-18.1,18.5-28.4
		c4.5-9.8,8.7-19.7,9.7-30.6c0.9-9-4.7-13.6-13.5-11.4c-6.2,1.5-11.1,5.1-15.1,9.9C874.1,297.7,867.9,316.4,865.1,336.5z"/>
	<path class="st0" d="M844,434.3c0.6-2.2,0.9-4,1.6-5.7c0.4-0.9,1.3-2.2,2-2.2c4.9-0.2,9.9-0.1,15.3-0.1c-0.4,1.4-0.7,2.3-1,3.3
		c-7.4,21.1-14.8,42.1-22.1,63.2c-0.9,2.5-1.7,5.1-2.1,7.8c-0.2,1.6,0.5,3.4,0.8,5.1c1.7-0.5,3.9-0.4,4.9-1.5
		c3.9-4.1,7.4-8.5,10.9-13c1.5-1.8,2.6-3.9,4-6.2c1.7,1,3.1,1.9,4.9,3c-6.4,10.4-11.9,21.1-21.5,28.8c-1.4,1.1-3.1,2-4.8,2.7
		c-8.1,3.1-15.4-1.9-15.4-10.5c0-3.2,0.7-6.3,1.3-10.3c-0.9,1.5-1.5,2.5-2.1,3.4c-5.5,9.3-12.6,16.5-23.8,17.9
		c-11.9,1.6-20.9-4.5-24-16.1c-2.6-9.9-1-19.5,2.1-29c6-17.8,15.5-33.3,31.4-44.1c6.5-4.4,13.6-6.8,21.6-6.7
		c6.5,0.1,11.6,2.4,14.7,8.5C843,433,843.4,433.4,844,434.3z M789.1,497.6c0.1,5.3,1,9.6,5.3,12c4.3,2.4,8.4,0.8,11.8-2
		c3.4-2.8,6.7-5.9,9.4-9.4c9.1-11.9,15.2-25.3,19.7-39.5c1.6-5,2.8-10.2,3.2-15.4c0.6-7.7-4.4-11.7-12-10.3c-5.7,1-10.1,4.1-14,8.1
		c-5.5,5.7-9.5,12.5-12.8,19.7C794.2,472.7,790.1,485.1,789.1,497.6z"/>
	<path class="st0" d="M863.9,455.8c3.8-9.5,7.1-18.9,13.8-26.7c0.7-0.8,1.4-1.5,2.2-2.1c6.1-5.1,12.6-3.6,14.7,4
		c2.2,8,3.4,16.3,4.9,24.6c2.2,12.1,4.2,24.2,6.4,36.3c0.2,0.9,0.5,1.7,1.5,2.7c3.4-6.7,6.9-13.3,10-20.1c1.9-4,3.4-8.2,4.8-12.4
		c2.2-6.3,1.9-12.6-1-18.7c-0.9-2-1.8-4-2.3-6.1c-1.7-7,3.1-13.4,9.6-13.1c4.1,0.2,6.7,2.5,8.2,6.1c2.4,5.8,1.8,11.8,0.5,17.7
		c-3.3,14.4-9.7,27.6-16.5,40.6c-9.1,17.3-18.9,34.2-32.5,48.5c-7,7.3-14.6,14-24.8,16.2c-3.8,0.8-8,0.5-11.8-0.3
		c-3.7-0.7-5.9-3.7-6.2-7.6c-0.3-4,2-6.6,5.2-8.5c3.8-2.1,7.9-2.1,11.8-0.9c8.6,2.8,15.2-0.1,20.7-6.6c3.5-4.2,6.9-8.5,10.1-12.9
		c0.6-0.8,0.7-2.1,0.5-3.2c-4-23-8.1-46-12.1-69c-0.1-0.8-0.3-1.6-0.7-2.4c-1-2.2-2.4-2.4-4-0.6c-0.9,1.1-1.7,2.3-2.3,3.6
		c-1.2,2.6-2.2,5.3-3.2,8.1C869.6,458.4,869.7,458.4,863.9,455.8z"/>
	<path class="st0" d="M635.2,491.2c0.7-14.9,5.7-27.3,12.9-39c5.8-9.4,13-17.6,22.7-23.3c4.9-2.9,10.1-4.7,15.8-4.7
		c14-0.1,21.7,10.2,17.7,23.6c-2.2,7.4-6.8,13.1-12.5,18.2c-10,8.9-21.7,15.1-34.2,19.6c-3.4,1.2-4.9,2.9-4.6,6.4
		c0.4,4.4,0.4,8.9,1.3,13.2c0.9,4.2,4.1,6.3,8.4,6.5c5.7,0.3,10.8-1.6,14.9-5.1c5.4-4.7,10.4-9.9,15.2-15.3c1.9-2.1,2.8-1.3,4.5-0.3
		c2,1.2,1.8,2.2,0.6,3.9c-5.9,8.7-12.7,16.7-22.4,21.4c-4.2,2-8.9,3.5-13.5,3.9c-12.6,1.1-22.7-7.2-25.6-20.4
		C635.8,496.6,635.5,493.4,635.2,491.2z M654.6,479.3c0.2,0.2,0.5,0.5,0.7,0.7c3-1.5,6.1-2.8,9-4.4c10.6-6.2,20.1-13.6,25.6-24.9
		c1.6-3.3,2.4-7.3,2.6-11c0.2-5.4-3.9-8.2-8.9-6.3c-2.7,1.1-5.4,2.7-7.6,4.6c-9.3,8.3-14.7,19.1-18.5,30.7
		C656.3,472.1,655.5,475.7,654.6,479.3z"/>
	<path class="st0" d="M973.6,212.3c0.1,1.5,0.2,2.6,0.2,3.7c0,40.3,0.1,80.6,0.1,120.9c0,0.5,0,1,0,1.5c0.1,9.5,1.4,11.1,10.7,12.5
		c2.8,0.4,2.1,2.2,2.3,3.8c0.2,2-1.1,2.1-2.6,2.1c-12.4,0-24.8,0-37.2,0c-1.6,0-2.6-0.4-2.5-2.2c0.1-1.6-0.5-3.4,2.1-3.7
		c7.6-0.9,10.4-1.9,10.4-12.5c0-32.1,0-64.3,0-96.4c0-0.2,0-0.4,0-0.6c-0.3-9.7-2.1-11.6-11.8-12.3c-2.7-0.2-5-0.5-4-3.9
		c0.3-1.1,1.5-2.4,2.6-2.8c8.2-2.9,16.5-5.5,24.7-8.2C969.9,213.8,971.4,213.1,973.6,212.3z"/>
	<path class="st0" d="M811.2,276.3c-5.6,0-10.7,0-16.1,0c0.7-3,1.2-6,2.1-8.8c0.2-0.7,1.7-1.4,2.6-1.5c3.7-0.3,7.4-0.5,11.1-0.6
		c2.1,0,3.1-0.7,3.6-2.8c2.1-8.4,4.5-16.8,6.8-25.1c1.3-4.8,1.3-4.8,6.1-5c3.2-0.1,6.3,0,9.9,0c-2.3,10.5-4.7,20.9-7.1,31.8
		c6.2-0.3,12.1-0.6,18.5-0.9c-0.9,3.5-1.5,6.6-2.5,9.6c-0.2,0.6-1.7,1.1-2.6,1.1c-4.4,0.3-8.9,0.5-13.3,0.6c-1.8,0-2.7,0.7-3.1,2.6
		c-4.5,21.2-9.1,42.4-13.6,63.6c-0.4,2.1-1.5,5.2,1.2,6c1.5,0.5,4.5-1.1,5.7-2.6c3.6-4.5,6.7-9.4,9.9-14.2c0.7-1,1.2-2.1,1.8-3
		c0.5,0,0.7-0.1,0.9,0c5.7,3.1,6,3.3,2.4,8.7c-4.1,6.1-8.5,12.2-13.4,17.7c-3.3,3.8-7.9,6-13.2,6.1c-5.9,0.1-10.5-3.1-10.8-8.9
		c-0.4-6.3,0.2-12.8,1.4-19c3.5-17.7,7.5-35.4,11.3-53C811,278.1,811,277.3,811.2,276.3z"/>
	<path class="st0" d="M767.3,496.3c-7.8,9.5-16.1,17.9-27.6,22.2c-14,5.3-27.8-1.9-33-16.7c-3.2-9.3-2-18.6,0.9-27.7
		c5.8-17.7,15.7-32.5,31-43.3c5.9-4.2,12.4-6.9,19.9-6.6c11.1,0.5,19.4,11.3,16.6,21.8c-0.3,1.1-0.7,2.2-1.3,3.1
		c-2.1,3.6-5.8,5.5-9.3,4.9c-3.4-0.6-6.2-3.9-6.6-8.1c-0.2-2,0.1-4.1,0.3-6.2c0.3-2.6-0.1-5-2.6-6.5c-2.4-1.4-4.6-0.5-6.3,1.1
		c-3.2,3.1-6.5,6.1-9,9.7c-10.9,16-17.8,33.5-18.2,53.2c-0.1,2.3,0.3,4.8,0.9,7c1.6,5.7,5.8,8.5,11.6,7c4.2-1.1,8.5-2.8,12.1-5.3
		c4.6-3.2,8.8-7.2,12.7-11.3c2.2-2.3,3.7-2.9,5.8-0.3C765.8,495,766.4,495.5,767.3,496.3z"/>
	<path class="st0" d="M771.8,261.6c0,1.6,0,2.8,0,4c0,23.2,0,46.5,0,69.7c0,1.7,0,3.3,0.1,5c0.4,7.7,2,9.5,9.6,10.7
		c1.4,0.2,2.9,0,3.1,2.2c0.3,3.2-0.1,3.8-3.4,3.8c-12,0-24,0-35.9,0c-1.6,0-3.2,0.2-3.1-2.2c0.1-1.9-0.3-3.8,2.6-3.9
		c1.3,0,2.6-0.5,3.9-0.8c3.3-0.7,5.3-2.8,5.8-6.1c0.3-2,0.5-4.1,0.5-6.2c0-15.7,0-31.4,0-47.1c0-1.8-0.1-3.5-0.3-5.3
		c-0.7-5.6-2.7-7.5-8.3-8.1c-1.3-0.1-3.3,0.8-3.6-1.8c-0.2-2.2,0.7-3.3,2.8-4.1c7.7-2.8,15.2-5.8,22.8-8.7
		C769.4,262.3,770.3,262.1,771.8,261.6z"/>
	<path class="st0" d="M595.3,261.5c3.2,1.2,5.9,2.2,8.6,3.2c5.9,2.3,11.7,4.6,17.6,6.7c2.1,0.8,3,1.9,2.7,4.1
		c-0.3,2.3-2.1,1.6-3.3,1.7c-6.1,0.6-8.5,2.6-8.6,8.8c-0.3,13.3-0.3,26.6-0.4,39.9c0,4.5,0,9.1,0.2,13.6c0.3,8.1,1.8,9.7,9.9,11.1
		c1.5,0.3,2.8,0.3,2.9,2.4c0.1,2.6-0.4,3.9-3.5,3.8c-11.8-0.2-23.5-0.1-35.3-0.1c-1.5,0-3.5,0.6-3.5-2.1c-0.1-2.2,0.2-3.5,3-3.9
		c8-1,9.7-3.2,9.7-12.1c0.1-24.4,0.1-48.7,0.1-73.1C595.3,264.4,595.3,263.2,595.3,261.5z"/>
	<path class="st0" d="M273.3,218.1c-1.9,0-3.8,0-5.8,0c-9,0-18-0.1-27,0.1c-2.5,0-3.2-0.9-3.2-3.3c0-2.3,0.4-3.5,3.2-3.5
		c13.8,0.1,27.7,0.1,41.5,0c2.5,0,3,0.9,3.2,3.2c0.4,3.9-1.1,6.1-4.6,7.9c-11.2,5.7-22.3,11.8-33.4,17.7c-0.8,0.4-1.5,1-2.7,1.8
		c4.5,2.4,8.5,4.6,12.6,6.8c8.4,4.5,16.7,9,25.1,13.4c2.5,1.3,4.1,6.7,2.6,9c-0.3,0.5-1.4,0.9-2.1,0.9c-14.4,0-28.7,0-43.1,0.1
		c-2.9,0-2.3-2-2.4-3.7c-0.1-1.9,0.2-3.2,2.6-3.1c10.1,0.1,20.3,0.1,30.4,0.1c1,0,2-0.1,3.1-0.8c-0.5-0.4-1-0.8-1.6-1.1
		c-10.7-5.7-21.4-11.5-32.2-17.2c-2.1-1.1-2.3-2.6-2.3-4.6c0-1.9,0.1-3.5,2.3-4.6c10.7-5.6,21.3-11.3,32-17c0.7-0.4,1.3-0.8,2-1.2
		C273.5,218.7,273.4,218.4,273.3,218.1z"/>
	<path class="st0" d="M117.4,376.8c-0.2,9.1-3.6,20.4-13.8,28.6c-21.4,17.1-53.3,5.7-59-21c-2.1-9.7-1.8-19.3,1.9-28.6
		c6.1-15.3,20.2-23.8,36.7-22.3C104.4,335.4,117.5,350.5,117.4,376.8z M112.7,371.7c-0.3-2-0.6-5.7-1.5-9.3
		c-2.8-10.9-9.3-18.7-20.2-22c-11.7-3.5-23-2.2-32.4,6.5c-9.3,8.6-11.6,19.8-10.1,31.8c3.7,29.4,33,34.5,49.4,24.1
		C108.6,396,112.3,385.5,112.7,371.7z"/>
	<path class="st0" d="M43,460.1c0.3-11.5,3.3-21.8,11.6-29.9c10.7-10.4,23.7-12,37.5-8.2c13.1,3.6,20.7,13.1,23.9,26
		c2.5,10,2.1,19.9-1.7,29.5c-6.3,15.8-20.5,23.9-38.2,22.1c-16.1-1.6-28.1-12.2-31.4-28C43.9,467.9,43.6,464,43,460.1z M48.1,461.9
		c0.4,2.2,0.6,6.1,1.7,9.8c3.6,12.4,11.8,20.3,24.7,22.3c13.1,2,24.4-1.6,32.2-13c5.7-8.4,6.9-17.9,5.4-27.6
		c-4.4-29.2-34.9-33.6-51-21.8C51.7,438.8,48.4,448.8,48.1,461.9z"/>
	<path class="st0" d="M274.6,679.4c-1.4-1-2-1.7-2.7-2c-10.5-5.6-20.9-11.2-31.4-16.7c-2.2-1.1-3.1-2.5-3.1-5c0-2.6,1-3.8,3.2-5
		c10.5-5.5,20.9-11.1,31.4-16.8c0.6-0.3,1.2-0.7,1.7-1.7c-1-0.1-2-0.2-3-0.2c-10,0-20-0.1-30.1,0.1c-2.6,0-3.1-0.9-3.2-3.3
		c0-2.3,0.5-3.3,3.1-3.3c13.9,0.1,27.9,0.1,41.8,0c2.3,0,2.9,0.8,3.1,3c0.4,4-1.1,6-4.7,7.8c-11.2,5.7-22.2,11.8-33.3,17.7
		c-0.7,0.4-1.4,0.8-2.5,1.5c1,0.7,1.6,1.3,2.4,1.7c11.7,6.3,23.5,12.6,35.2,18.8c2.5,1.3,4.1,6.7,2.6,9c-0.3,0.5-1.4,0.8-2.1,0.8
		c-14.4,0-28.7,0-43.1,0.1c-2.6,0-2.3-1.7-2.4-3.3c-0.1-1.9,0.2-3.1,2.6-3.1c10.4,0.1,20.9,0.1,31.3,0.1
		C272.1,679.6,272.9,679.5,274.6,679.4z"/>
	<path class="st0" d="M258,487.3c-4.6,7.8-13.7,6.8-19.6,11.5c-2.3-4.4-1.2-7.7,2.9-9.3c2.6-1,5.3-1.8,7.9-2.7
		c3.7-1.3,6-3.8,6.1-7.7c0.2-7.2,0.2-14.5,0-21.7c0-0.7-1.5-1.9-2.3-1.9c-4.3-0.2-8.7-0.2-13,0c-2.8,0.1-2.6-1.6-2.6-3.4
		c0-1.9-0.1-3.5,2.6-3.5c14,0.1,28.1,0,42.1,0c1.9,0,2.8,0.7,2.8,2.7c-0.1,10.1,0.2,20.3-0.1,30.4c-0.3,10.5-8.9,17-18.6,14.3
		C262.6,495,260.9,493.3,258,487.3z M278.7,469.2C278.7,469.2,278.7,469.2,278.7,469.2c0-3.8,0.1-7.6-0.1-11.5c0-0.8-1.3-2.2-2-2.3
		c-4.4-0.2-8.9-0.2-13.3,0c-0.7,0-1.9,1.1-1.9,1.7c0,8.3-0.2,16.5,0.3,24.7c0.3,4.6,3.8,7.4,8,7.5c5.1,0.1,8.7-3.4,8.9-9
		C278.8,476.7,278.7,472.9,278.7,469.2z"/>
	<path class="st0" d="M261.7,393.2c6.9,0,13.8,0.1,20.8,0c2.2,0,2.9,0.8,2.9,2.9c-0.1,13.2-0.1,26.4,0,39.7c0,2.3-1,2.8-3,2.8
		c-2.1,0-3.2-0.3-3.2-2.9c0.1-10.6-0.1-21.3,0.1-31.9c0.1-3-1-3.8-3.7-3.6c-2.4,0.2-4.8,0.2-7.1,0c-2.7-0.2-3.6,0.7-3.6,3.5
		c0.2,8.1,0,16.1,0.1,24.2c0,2.3-0.6,3.3-3.1,3.4c-2.6,0-3.1-1.1-3.1-3.4c0.1-8.1-0.1-16.1,0.1-24.2c0.1-2.8-0.9-3.6-3.6-3.5
		c-2.6,0.2-5.2,0.2-7.7,0c-3.1-0.3-4.1,0.7-4.1,3.9c0.2,10.6,0,21.3,0.1,31.9c0,2.4-0.5,3.6-3.2,3.6c-2.7,0-3-1.3-3-3.4
		c0.1-13.1,0.1-26.2,0-39.4c0-2.7,0.7-3.6,3.5-3.5C247.8,393.3,254.7,393.2,261.7,393.2z"/>
	<path class="st0" d="M278.3,326.4c-0.8-0.9-1.6-1.9-2.6-2.8c-1.6-1.4-1.5-2.7-0.3-4.5c4.7-7.1,6.1-14.8,3.7-23.1
		c-0.4-1.3-1-2.5-1.8-3.6c-3-3.9-8-3.4-9.4,1.3c-1.4,4.6-1.7,9.5-2.5,14.3c-0.5,3.2-0.6,6.4-1.2,9.5c-1.3,6.4-4.6,9.8-9.8,10.6
		c-6.3,0.9-11.4-1.5-14.7-7c-6.1-10.3-4-29.2,4.3-37.9c0.8-0.9,1.9-3.1,3.3-1.1c1.1,1.7,4.5,3.1,1.9,6.2c-6.3,7.4-7.7,16-5.3,25.3
		c0.5,1.7,1.3,3.8,2.6,4.8c1.8,1.3,4.3,2.4,6.6,2.4c2.7,0,4.2-2.5,4.6-5.1c0.6-3.8,0.8-7.6,1.4-11.4c0.6-4.2,1.2-8.4,2.3-12.4
		c1.4-4.8,4.2-8.6,9.7-9.1c5.9-0.6,10.1,2.4,12.3,7.5c5.1,12.1,4.1,23.7-3.2,34.7c-0.3,0.4-0.7,0.8-1,1.1
		C279.1,326.2,278.8,326.2,278.3,326.4z"/>
	<path class="st0" d="M261.4,507.9c6.9,0,13.8,0.1,20.7,0c2.4,0,3.2,0.7,3.2,3.2c-0.2,7.1,0.1,14.2-0.1,21.4
		c-0.2,9-2.9,17-10.8,22.1c-15,9.7-34.6,0.4-36.5-17.6c-0.9-8.9-0.4-17.9-0.5-26.9c0-2.2,1.4-2.1,2.9-2.1
		C247.4,507.9,254.4,507.9,261.4,507.9z M261.4,514.3c-5.3,0-10.5-0.1-15.8,0.1c-0.9,0-2.6,1.1-2.6,1.7c0.1,7.1-0.2,14.3,0.8,21.3
		c1.3,9.1,8.8,14.4,18.3,14.1c8.9-0.3,15.9-6.1,16.9-15.1c0.7-6.3,0.4-12.8,0.7-19.2c0.1-2.4-0.9-3-3.1-3
		C271.6,514.3,266.5,514.3,261.4,514.3z"/>
	<path class="st0" d="M186,535.6c4.6,1.3,8.7,2.4,12.9,3.5c1.8,0.5,2.7-0.5,3.1-2.2c0.2-0.8,0.2-1.6,0.3-3.6
		c1.3,1.2,2.4,1.8,2.6,2.6c0.8,3.8,1.4,7.7,2.1,12.3c-4-1-7.5-1.9-11-2.9c-12.9-3.6-25.9-7.2-38.8-10.7c-1.5-0.4-3.2,0.2-4.9,0.3
		c1.1,1.2,2.1,2.6,3.3,3.6c1.2,0.9,2.8,1.4,4,2.3c0.6,0.4,0.9,1.4,1.3,2.1c-0.8,0.2-1.8,0.8-2.3,0.5c-3.4-2.2-7.1-4.3-9.9-7.2
		c-1.3-1.3-1.6-4.4-1.3-6.5c0.4-2.3,2.8-3,5.2-2.7c0.3,0,0.5-0.2,2-0.8c-1.3-0.7-2.2-1-2.8-1.6c-1.4-1.6-3-3.2-4-5.1
		c-2.7-5.1-0.8-9.7,4.7-11.6c5.3-1.9,10.4-0.6,15.4,1.3c5.9,2.3,11,5.7,15.2,10.4C187.4,524,189.5,529,186,535.6z M155.9,514.2
		c-1.1,0.6-3.6,1.2-4.2,2.6c-0.5,1.2,1,3.4,1.7,5.1c0.2,0.4,0.6,0.8,1,1.1c6.8,5.5,14.6,8.7,23.2,10.1c2.4,0.4,5,0.1,6.2-2.4
		c1.3-2.8-0.5-4.8-2.4-6.4C174.2,518.5,165.8,515.8,155.9,514.2z"/>
	<path class="st0" d="M166,691.6c14,1.9,26.5,7.3,35.3,19.1c7,9.3,3.4,18.4-7.6,22.3c-5.9,2.1-11.2,1.5-16.8-0.3
		c-9.6-3.1-18.3-7.6-24.9-15.4c-1.9-2.2-3.5-5-4.3-7.7c-2.3-8,2.4-14.6,11.6-16.9C161.3,692.1,163.5,691.9,166,691.6z M159.8,698.9
		c-3.8,0.2-7.5,0.7-9.1,4.7c-1.6,4,0.6,7,3.5,9.5c1.9,1.7,4.1,3.3,6.4,4.2c7.3,2.8,14.6,5.7,22.1,7.8c4.1,1.2,8.8,1.4,13.1,0.9
		c5-0.6,6.9-5.6,4.4-9.9c-1.1-1.9-2.7-3.8-4.5-5c-3.4-2.2-6.9-4.1-10.6-5.6C176.9,702.3,168.6,699.7,159.8,698.9z"/>
	<path class="st0" d="M165.6,608.5c14.1,1.5,26.2,7,35.3,18.1c2.7,3.2,4.3,7.2,3.7,11.5c-0.7,5.2-4.1,8.4-8.7,10.4
		c-8.7,3.8-17,1.9-25.2-1.6c-7-3-13.4-6.9-18.4-12.7c-4.1-4.7-7-10.1-4.5-16.4c2.6-6.3,8.5-8.3,14.7-9.3
		C163.6,608.4,164.6,608.5,165.6,608.5z M160.2,615.8c-0.6,0-1.2,0-1.9,0c-3.3,0.1-6.1,1-7.6,4.4c-1.4,3.2-0.1,6,2.1,8.2
		c2,2,4.4,3.8,6.9,5.2c8.9,4.7,18.4,7.8,28.3,9.5c2.7,0.5,5.8,0.3,8.5-0.5c4.5-1.3,6.1-5.5,3.8-9.6c-1.1-2-2.8-4-4.7-5.2
		C184.9,620.7,172.8,617.3,160.2,615.8z"/>
	<path class="st0" d="M154.4,572.3c0,6.9-0.2,13.4,0.1,19.8c0.2,3.7,2.9,6,5.8,8c0.9,0.6,1.2,1.9,1.8,3c-1.2,0-2.5,0.4-3.6,0.1
		c-2.9-1-5.8-2.1-8.6-3.5c-1-0.5-2.2-1.9-2.2-2.9c-0.1-10.7-0.1-21.5-0.1-32.2c0-0.3,0.2-0.6,0.5-1.2c0.9,0.4,1.9,0.6,2.7,1.1
		c6.9,3.7,12,9.4,16.8,15.4c4.4,5.4,8.7,11.1,13.5,16.2c2.3,2.4,5.6,4.3,8.8,5.5c5.1,2,10.2-1.1,11.2-6.1c1.1-5.2-1.9-9.2-7.4-10
		c-1.2-0.2-2.5-0.2-3.7-0.5c-2.9-0.7-4.3-2.9-3.8-5.4c0.5-2.4,2.9-3.9,5.8-3.2c5.7,1.3,9.4,5.1,11.4,10.4c2.1,5.6,1.8,11.2-0.9,16.5
		c-3.9,7.6-13,9.9-19.7,4.5c-3.1-2.5-5.5-5.8-7.9-9c-6-7.9-11.8-15.9-17.7-23.8C156.6,573.7,155.5,573.1,154.4,572.3z"/>
	<path class="st0" d="M154.1,399.4c0,6.2-0.2,12,0.1,17.9c0.2,4.3,2.6,7.4,6.3,9.7c0.8,0.5,1.1,1.8,1.6,2.8
		c-1.1,0.1-2.3,0.5-3.3,0.2c-2.9-1-5.8-2.1-8.6-3.5c-1.1-0.5-2.4-2-2.4-3c-0.2-10.5-0.1-21.1-0.1-31.6c0-0.5,0.2-1,0.5-2.1
		c1.8,1,3.7,1.5,4.9,2.6c5.2,4.9,10.5,9.9,15.4,15.1c4.5,4.8,8.2,10.4,12.8,15.1c2.6,2.6,6.2,4.5,9.7,5.7c4.9,1.6,9.5-1.9,10.2-6.8
		c0.8-5.3-2.4-9.1-7.9-9.6c-1.5-0.1-3.1-0.4-4.5-1c-2.2-0.9-3.1-2.8-2.5-5.1c0.5-2.2,2.2-3.2,4.4-3.2c4.1,0,7,2.2,9.6,5
		c5.5,6.1,6.1,16.6,1.5,23.4c-4.2,6.2-12.2,8.1-18.1,3.5c-3.4-2.6-6.1-6.1-8.7-9.5c-6-7.8-11.8-15.9-17.7-23.8
		c-0.5-0.6-1.2-1.1-1.8-1.7C155.1,399.5,154.8,399.5,154.1,399.4z"/>
	<path class="st0" d="M153.6,656.2c0.4,6.7,0.5,13.5,1.2,20.2c0.3,3.4,3.2,5.3,5.8,7.3c0.8,0.6,1,1.9,1.5,2.8c-1,0.1-2.1,0.4-3,0.1
		c-3.1-1.1-6.2-2.3-9.2-3.8c-0.9-0.5-2.1-1.7-2.1-2.5c-0.1-10.9,0-21.9,0-32.9c0-0.2,0.2-0.4,0.6-1.1c1.8,1,3.9,1.7,5.4,3
		c4.7,4.3,9.4,8.7,13.7,13.4c4.9,5.4,9.1,11.5,14.2,16.7c2.4,2.5,5.9,4.3,9.2,5.3c5.3,1.5,9.8-1.9,10.4-6.9c0.7-5.3-2.5-8.8-8.2-9.4
		c-1.2-0.1-2.5-0.3-3.6-0.7c-2.7-1-4-3.1-3.1-5.5c0.9-2.6,3-3.4,5.5-2.9c5.6,1.1,9.4,4.7,11.5,9.9c2.3,5.7,2.1,11.5-0.7,17.1
		c-3.7,7.4-12.5,9.7-19.2,4.8c-2.7-2-5-4.6-7-7.3c-4.8-6.6-9.2-13.5-14-20.1c-2.1-2.9-4.9-5.4-7.4-8.1
		C154.5,655.8,154.1,656,153.6,656.2z"/>
	<path class="st0" d="M238,560.5c3.7,1.9,7.3,3.7,10.9,5.6c11.1,5.8,22.2,11.8,33.4,17.5c2.3,1.2,3,2.6,2.9,5.1
		c-0.1,2.3-0.4,3.9-2.8,5.1c-14.4,7.4-28.7,15-43,22.5c-0.4,0.2-0.9,0.4-1.4,0.6c-1.7-4.8-1.2-7,3.2-8.6c7.5-2.7,10.5-7.3,9.3-15.3
		c-0.7-5.2-0.3-10.5-0.1-15.8c0.1-2.5-0.8-3.8-2.9-4.8c-2.3-1-4.4-2.2-6.6-3.3C237,567,236.6,565.8,238,560.5z M256.8,600.1
		c7.4-3.8,14.2-7.4,21.8-11.3c-7.6-4-14.5-7.6-21.8-11.5C256.8,585.2,256.8,592.3,256.8,600.1z"/>
	<path class="st0" d="M238,202.9c-1.4-5.4-1.3-6.9,3.4-8.5c7.8-2.7,10.4-7.6,9.3-15.6c-0.7-5.3-0.2-10.7-0.1-16.1
		c0-2-0.7-3.1-2.4-3.9c-2.2-1.1-4.4-2.2-6.6-3.3c-4.6-2.3-5-3.3-3.6-8.7c0.8,0.3,1.5,0.5,2.2,0.8c14.3,7.5,28.5,15,42.8,22.4
		c2,1.1,2.4,2.5,2.3,4.5c-0.1,2.1,0.1,3.9-2.3,5.2c-14.4,7.4-28.7,15-43.1,22.5C239.4,202.5,238.8,202.6,238,202.9z M256.9,186.2
		c7.3-3.8,14.1-7.3,21.8-11.3c-7.7-4.1-14.6-7.7-21.8-11.5C256.9,171.3,256.9,178.4,256.9,186.2z"/>
	<path class="st0" d="M176.9,462.4c-3.1,7.4-8.5,9.4-15.1,8c-7.6-1.6-12.2-6.7-14-14.1c-1.3-5.4-1.4-10.9,1-16.1
		c2.1-4.6,6.2-7,10.6-6.4c2.9,0.4,4.6,2.4,4.3,5c-0.3,2.7-2.8,4.3-5.6,3.9c-6.1-1-9.2,2.5-7.7,8.5c1.8,7.1,11.6,13.1,18.8,11.5
		c3.9-0.9,5.9-3.9,5.5-8.4c-0.1-1.4-0.5-2.9-0.2-4.3c0.2-0.8,1.5-1.9,2.2-1.9c0.7,0,1.9,1.2,2.1,2.1c0.3,1.4,0,2.9-0.1,4.3
		c-1,9.9,11.4,15.5,18.5,12.8c2.5-1,4.1-2.7,4.3-5.5c0.2-3.1-0.9-5.8-3.7-7.3c-1.7-0.9-3.7-1.3-5.5-2c-3-1.2-4.1-3.1-3.2-5.4
		c0.9-2.4,3.5-3.4,6.2-2.3c6.4,2.7,8.9,8.1,9.3,14.5c0.4,6.1-0.9,11.7-6.6,15c-6.7,4-15.9,0.6-19.4-7.1
		C178.2,465.9,177.7,464.5,176.9,462.4z"/>
	<path class="st0" d="M186.6,262.1c-7.5-2.6-14.8-5.2-22.1-7.7c-3-1-6.1-2.1-9.1-2.9c-0.8-0.2-1.9,0.3-2.8,0.5
		c0.4,0.8,0.6,2,1.3,2.5c2,1.6,4.3,2.9,6.3,4.5c0.5,0.4,0.5,1.5,0.7,2.3c-0.7,0.1-1.8,0.5-2.2,0.2c-3.5-2.8-7.2-5.5-10.2-8.8
		c-1.1-1.2-1.4-4.4-0.6-5.8c0.7-1.3,3.6-2.3,5.2-2c4.9,1,9.7,2.8,14.5,4.3c0.4,0.1,0.7,0.2,1.4-0.2c-2.1-1.3-4.2-2.6-6.3-4
		c-4-2.6-8.1-5-11.8-7.9c-3.8-3-4.8-6.8-3.2-9.4c1.5-2.6,5.1-3.4,9.6-1.9c7,2.4,14,4.9,21,7.4c1,0.3,2,0.5,3,0.7
		c0.2-0.2,0.3-0.5,0.5-0.7c-0.7-0.9-1.2-2-2.1-2.7c-1.5-1.4-3.3-2.4-4.8-3.8c-0.5-0.5-0.5-1.5-0.7-2.3c0.7-0.1,1.8-0.6,2.2-0.3
		c3.4,2.6,6.7,5.1,9.8,8c1.8,1.7,2.5,4.2,1.1,6.5c-1.5,2.5-4.2,3.2-6.8,2.4c-5-1.5-9.9-3.4-14.9-5.2c-3.2-1.1-6.4-2.4-9.6-3.4
		c-1-0.3-2.4,0.4-3.5,0.6c0.5,1,0.8,2.4,1.7,3c5.3,3.5,10.8,6.9,16.2,10.2c4.6,2.8,9.2,5.5,13.8,8.3
		C187.7,256.5,188,257.4,186.6,262.1z"/>
	<path class="st0" d="M148.4,180.4c4.8,1.7,9.7,3.4,14.5,5c5,1.7,10,3.4,15,4.9c1,0.3,2.2-0.3,3.3-0.5c-0.6-0.9-0.9-2-1.7-2.6
		c-1.9-1.6-4.1-2.8-6-4.4c-0.5-0.4-0.4-1.4-0.6-2.1c0.7-0.1,1.7-0.6,2.1-0.3c3.7,2.6,7.5,5.2,10.7,8.3c1.3,1.2,2.2,4.4,1.5,5.7
		c-0.8,1.5-3.8,3.1-5.5,2.8c-5-0.8-9.9-2.6-14.8-4c-0.5-0.1-0.9-0.3-1.7,0c1.5,1,2.9,2,4.4,3c4.5,2.9,9.2,5.5,13.6,8.6
		c4.1,2.9,5.3,5.9,4.3,8.5c-1.1,2.7-4.4,4.1-9.3,2.8c-7.3-2-14.3-4.6-21.5-6.8c-1.4-0.4-2.9-0.3-4.3-0.5c0.9,1.3,1.5,2.8,2.6,3.8
		c1.3,1.3,3.1,2.1,4.5,3.3c0.4,0.4,0.4,1.3,0.5,2c-0.6,0.1-1.5,0.4-1.9,0.2c-3.1-2.3-6.4-4.5-9.2-7.2c-2-1.9-2.9-4.7-1.3-7.4
		c1.7-2.7,4.5-2.7,7.2-1.8c7.4,2.4,14.7,4.9,22,7.3c0.8,0.3,1.6,0.6,2.4,0.6c0.7,0,1.6-0.4,2-1c0.2-0.3-0.1-1.5-0.6-1.8
		c-1.3-1.2-2.7-2.2-4.2-3.1c-8.6-5.3-17.3-10.5-25.9-15.8C147.3,186,147,184.9,148.4,180.4z"/>
	<path class="st0" d="M184.5,167.5c4.2,2,2.5,5,2.5,8.3c-5.2-1.8-9.9-3.5-14.7-5.2c-5.3-1.8-10.5-3.6-15.9-5.3
		c-0.9-0.3-2,0.2-3.1,0.3c0.4,0.9,0.6,2,1.2,2.6c1.8,1.6,3.8,2.8,5.6,4.4c0.6,0.5,0.8,1.4,1.2,2.2c-0.9,0-2,0.4-2.6,0
		c-2.9-1.8-5.6-3.9-8.4-5.8c-0.4-0.3-0.8-0.7-1.1-1.1c-1.8-2-3.4-4.5-1.9-6.9c1-1.7,3.5-2.5,5.6-3.8c-0.1-0.1-0.8-0.8-1.5-1.4
		c-2.6-2.2-4.3-5-4.6-8.5c-0.5-5.2,2.6-9.3,7.9-10.1c11-1.7,26.9,6.7,31.5,16.9C188.4,158.6,189.2,163.2,184.5,167.5z M155.8,144.2
		c-1,0.6-3.4,1.3-4.1,2.7c-0.6,1.3,0.3,3.7,1.2,5.2c0.8,1.5,2.3,2.6,3.7,3.6c2.6,1.8,5.3,3.6,8.2,4.8c4.6,1.8,9.2,3.5,14,4.5
		c4.2,0.9,6.3-2,4.7-6c-0.8-2-2.3-4-3.9-5.4C173.2,148.1,165.2,145.6,155.8,144.2z"/>
	<path class="st0" d="M184.8,296c3.7,1.8,2.3,4.9,2.2,8.3c-2.4-0.8-4.4-1.5-6.4-2.1c-7.5-2.6-15-5.3-22.5-7.8
		c-1.4-0.5-3.1-0.2-4.6-0.2c0.9,1.4,1.6,2.9,2.7,4.1c1.2,1.2,2.9,2,4.2,3.1c0.5,0.5,0.6,1.4,0.8,2.2c-0.7,0-1.7,0.4-2.2,0
		c-3-2-6-4-8.9-6.2c-2.3-1.9-4.4-4.5-2.9-7.5c0.9-1.8,3.5-2.8,6.1-4.7c-0.1,0-1.1-0.1-1.5-0.6c-1.5-1.8-3.4-3.5-4.2-5.6
		c-2.7-6.8,1.2-12.8,8.6-13.5c10.6-1,25.8,7.7,30.1,17.3C188.8,287.9,188.3,291.6,184.8,296z M155.7,272.7c-1,0.6-3.2,1.2-3.9,2.7
		c-0.6,1.2,0,3.7,0.9,5c1.3,1.9,3.2,3.5,5.1,4.8c6,4.1,12.6,6.9,19.7,8.5c2.2,0.5,4.8,0.7,5.8-1.5c0.7-1.7,0.2-4.2-0.4-6.1
		c-0.5-1.5-2-2.9-3.3-4C172.9,276.6,165,274.2,155.7,272.7z"/>
	<path class="st0" d="M206.6,132.9c0,3,0.1,6,0,9c0,0.7-0.6,1.3-1,2c-0.6-0.5-1.7-0.9-1.7-1.4c-0.6-5.3-4.7-6.6-8.9-7.7
		c-15.6-4.1-31.1-8.2-46.6-12.5c-6.9-1.9-12.7-5.6-15.1-12.9c-0.4-1.2-0.6-2.4-0.6-3.6c-0.2-5.2,3.6-7.6,8.3-5.6
		c1.8,0.8,2.3,3.4,0.8,5c-0.8,0.9-2,1.5-2.9,2.3c-0.7,0.7-1.7,1.8-1.5,2.4c0.3,0.9,1.4,1.9,2.3,2.1c4.9,1.4,9.8,2.6,14.7,3.9
		c13.5,3.5,26.9,7.1,40.4,10.7c1.1,0.3,2.2,0.6,3.3,0.8c3.6,0.6,4.8-0.3,5.7-3.9c0.2-0.8,0.8-1.4,1.3-2.1c0.5,0.8,1.5,1.5,1.6,2.3
		C206.7,126.7,206.6,129.8,206.6,132.9z"/>
	<path class="st0" d="M180.9,347.7c-1.8-0.8-3.7-1.5-5.4-2.5c-0.7-0.4-1.1-1.4-1.7-2.1c0.9-0.2,1.9-0.7,2.6-0.4c3.1,1.5,6.4,3,9.2,5
		c1.2,0.9,2.2,3.2,2,4.7c-0.2,1.2-2.3,2.6-3.8,2.9c-7,1.5-14,2.6-21,3.9c-1.2,0.2-2.5,0.6-3.7,1.4c7,3,13.1,9.4,21.9,5.3
		c1.5-0.7,4,0,5.6,0.8c0.8,0.4,1.4,3,0.9,3.7c-1,1.4-3,3.2-4.4,3.1c-3.7-0.2-7.6-0.7-11.1-2.1c-11-4.2-21.6-9.6-30.4-17.5
		c-3.4-3-5.9-7.1-8.4-10.9c-0.9-1.4-1-3.8-0.5-5.4c0.5-1.5,2.3-3.3,3.6-3.4c1.3,0,3,1.8,3.8,3.2c0.6,1.1,0.3,2.9,0,4.2
		c-0.9,3.5,0.3,6.1,2.8,8.3c1.5,1.3,3,2.6,4.6,3.6c0.8,0.5,1.9,1,2.8,0.8c9.5-1.6,18.9-3.3,28.4-5c0.7-0.1,1.3-0.5,2-0.7
		C180.7,348.4,180.8,348.1,180.9,347.7z"/>
	<path class="st0" d="M285.3,359.4c0,7.5-0.1,15.1,0,22.6c0,2.4-0.8,3.2-3.2,3.2c-2.3,0-3-0.9-3-3.1c0.1-5.5-0.1-10.9,0.1-16.4
		c0.1-2.3-0.7-3-3-3c-11.8,0.1-23.5,0-35.3,0.1c-2.8,0-3.5-0.9-3.5-3.5c0-2.6,0.8-3.4,3.4-3.4c11.5,0.1,22.9,0.1,34.4,0.1
		c4,0,4,0,4-4.1c0-5.1,0.1-10.1,0-15.2c-0.1-2.3,0.7-3,3-3c2.4,0,3.3,0.6,3.2,3.2C285.2,344.3,285.3,351.8,285.3,359.4z"/>
	<path class="st0" d="M716.8,623.4c-10.8-0.2-19.7-3.8-24.3-14.3c-7.8-17.9,5.3-35.7,25.4-34.7c11.9,0.5,20.9,6.4,23.9,16
		C747.5,608.8,735.4,624,716.8,623.4z M718.4,620.3c7.3-0.3,14.8-3.1,19-11.4c5.5-10.7,1.2-23.9-9.2-28.9c-12-5.8-27.2-1.2-32.1,9.6
		c-0.2,0.4-0.3,0.8-0.5,1.1C689.9,606.1,700.1,620.3,718.4,620.3z"/>
	<path class="st0" d="M661.3,623.4c-10.5-0.1-19.4-3.7-23.9-13.9c-6.5-14.6,0.2-35.7,25.3-35.1c12.2,0.3,21.1,6.7,24,16.6
		C691.6,608.8,680.1,624,661.3,623.4z M660.1,620.3c11.4,0,19.4-4.9,22.6-12.9c4.2-10.4,0.2-22-9.2-27c-10.6-5.6-25.2-2.7-31.2,6.5
		c-4.7,7.2-4.9,14.9-1.1,22.4C645.4,617.4,652.9,620,660.1,620.3z"/>
	<path class="st0" d="M772.4,623.4c-13.8,0.6-23.4-8.2-25.6-17.6c-4.2-18.1,8.2-32.5,27.1-31.3c13.3,0.8,22.5,8.4,24.4,19.7
		C801.1,611.8,788.5,624,772.4,623.4z M773.1,620.3c0.5,0,1.7-0.1,2.9-0.2c10.9-1.4,18.3-8.9,19-19.1c0.8-11.2-5-19.6-15.7-22.4
		c-6.3-1.7-12.5-1.2-18.4,1.7c-4.9,2.3-8.3,6.1-10.1,11.2C745.6,606.6,755.7,620.2,773.1,620.3z"/>
	<path class="st0" d="M760.9,217.2c7,0,12.6,5.6,12.6,12.6c0,6.8-5.7,12.4-12.4,12.5c-7,0-12.7-5.6-12.7-12.5
		C748.3,222.6,753.8,217.2,760.9,217.2z"/>
	<path class="st0" d="M618.6,229.9c-0.1,7-5.8,12.5-12.8,12.4c-6.8-0.1-12.4-5.8-12.3-12.6c0.1-7,5.6-12.5,12.7-12.4
		C613.3,217.2,618.7,222.7,618.6,229.9z"/>
	<path class="st0" d="M148.2,308.9c4.3,1.4,8.5,2.8,12.8,4.3c5.3,1.8,10.5,3.6,15.8,5.4c0.7,0.2,1.4,0.5,2.1,0.4
		c0.9-0.1,1.7-0.4,2.5-0.7c-0.4-0.8-0.5-1.8-1.1-2.3c-1.9-1.5-4.1-2.8-6-4.3c-0.6-0.5-0.9-1.5-1.3-2.3c0.9,0,2-0.4,2.6,0
		c3.4,2.3,6.8,4.7,9.9,7.3c2,1.6,3.2,4,1.9,6.6c-1.3,2.7-4,2.8-6.5,2.2c-3.5-0.7-6.9-1.8-10.5-2.2c1.9,1.1,3.9,2,5.6,3.2
		c3.4,2.4,7,4.7,10,7.6c1.2,1.1,1.3,3.7,1.2,5.5c-0.1,0.7-2.2,1.7-3.4,1.9c-2.4,0.3-4.2-1.4-4.4-3.5c-0.7-7.1-6.2-9.8-11.4-12.8
		c-5.5-3.1-11.1-5.9-16.7-8.8C147.3,314.5,147.1,314.1,148.2,308.9z"/>
	<path class="st0" d="M148.3,477.8c3.5,1.2,7,2.3,10.4,3.5c6.1,2,12.1,4.1,18.2,6.2c0.7,0.2,1.4,0.6,2.1,0.5
		c0.8-0.1,1.6-0.5,2.4-0.8c-0.3-0.7-0.4-1.7-1-2.1c-1.9-1.5-4.1-2.8-6-4.4c-0.7-0.6-1-1.7-1.4-2.5c1,0.1,2.2-0.2,2.9,0.3
		c3,2,6,4,8.8,6.3c3.1,2.6,4,5.4,2.7,7.5c-1.8,3-4.8,2.5-7.5,2c-2.2-0.4-4.3-1.3-6.5-1.9c-0.7-0.2-1.4-0.2-2.3,0.2
		c3.2,1.9,6.6,3.7,9.7,5.8c2.3,1.6,4.4,3.5,6.1,5.6c1.8,2.2,1.3,4.9-0.8,6.2c-2.1,1.2-4.7,0.4-6.1-1.9c-0.4-0.6-0.8-1.3-0.9-2
		c-0.2-4.9-3.5-7.5-7.3-9.7c-6.8-3.8-13.7-7.5-20.7-11.2C147.5,483.4,147.1,482.6,148.3,477.8z"/>
	<path class="st0" d="M81.5,386.3c-1.9,3.8-4.1,6.4-8.1,7.2c-6.4,1.2-12.2-2.2-13.7-8.5c-0.5-2-0.9-4.1-0.9-6.1
		c-0.1-6.5,0-13-0.1-19.5c0-2,0.7-2.8,2.7-2.8c12.8,0.1,25.6,0.1,38.4,0c2.1,0,2.6,0.9,2.6,2.8c-0.1,6.6,0,13.2,0,19.8
		c0,0.8-0.1,1.7-0.2,2.5c-0.8,5.6-3.8,9.3-8.7,10.5C88.3,393.4,84.5,391.4,81.5,386.3z M78.4,372.9c0-2.7,0.2-5.4-0.1-8
		c-0.1-0.8-1.3-2-2.1-2.1c-3.3-0.2-6.6-0.2-9.9,0c-0.8,0-2.2,1.1-2.2,1.7c-0.1,5.5-0.2,11.1,0.3,16.6c0.4,4.3,3.6,6.7,7.3,6.4
		c3.9-0.3,6.5-3.1,6.7-7.5C78.5,377.7,78.4,375.3,78.4,372.9z M97.2,372.3C97.2,372.3,97.2,372.3,97.2,372.3c0-2.4,0-4.8,0-7.1
		c0-1.6-0.4-2.5-2.3-2.5c-3.1,0.1-6.2-0.1-9.3,0.1c-0.7,0-1.9,1.1-2,1.6c-0.1,5.2-0.3,10.3,0.2,15.5c0.3,4.2,3.4,6.6,7,6.4
		c3.6-0.2,6.1-3,6.3-7.2C97.3,376.9,97.2,374.6,97.2,372.3z"/>
	<path class="st0" d="M81.4,473.3c-1.9,4.5-5,7.1-9.7,7.3c-6.1,0.3-11.2-3.2-12-9.3c-0.8-6.5-0.8-13.2-0.9-19.8
		c-0.1-8.2,0-8.2,8.3-8.2c10.6,0,21.3,0.1,31.9-0.1c2.8,0,3.5,0.9,3.5,3.6c-0.2,6.2,0.2,12.4-0.2,18.6c-0.2,3-0.8,6.2-2.3,8.8
		c-3.9,6.8-12.9,7-17.5,0.6C82.3,474.4,82,474,81.4,473.3z M78.4,459.3C78.4,459.3,78.4,459.3,78.4,459.3c0-2.5,0.2-5-0.1-7.4
		c-0.1-0.9-1.3-2.2-2-2.2c-3.4-0.3-6.8-0.2-10.2,0c-0.7,0-1.9,1.1-1.9,1.8c-0.1,5.6-0.2,11.2,0.3,16.7c0.4,4.5,3.5,6.6,7.7,6.3
		c3.6-0.3,6.1-3.1,6.2-7.3C78.5,464.5,78.4,461.9,78.4,459.3z M97.2,459.1C97.2,459.1,97.2,459.1,97.2,459.1c0-2.5,0.2-5-0.1-7.4
		c-0.1-0.8-1.2-2-1.9-2c-3.2-0.2-6.4-0.2-9.6,0c-0.7,0-1.9,1.3-1.9,2.1c-0.1,4.8-0.2,9.7,0.1,14.5c0.3,4.4,3,6.9,6.9,6.8
		c3.8-0.1,6.3-2.8,6.5-7.2C97.3,463.7,97.2,461.4,97.2,459.1z"/>
	<path class="st0" d="M703.6,598.7c0-3.8,0.1-7.6,0-11.5c-0.1-2,0.4-3,2.7-2.9c4.2,0.2,8.5-0.1,12.7,0.1
		c11.4,0.6,17.8,9.9,13.9,19.9c-2.4,6-7.4,8.4-13.4,8.8c-4.5,0.3-9.1,0-13.6,0.1c-1.8,0-2.3-0.8-2.2-2.5
		C703.7,606.7,703.6,602.7,703.6,598.7z M707.5,598.6c0,2.9-0.1,5.8,0.1,8.7c0.1,0.8,1.2,2.3,1.9,2.3c3.7,0.1,7.5,0.2,11.1-0.2
		c5.9-0.7,9.4-5.1,9.3-10.9c-0.1-5.7-3.8-9.9-9.7-10.5c-3.5-0.3-7-0.1-10.5-0.2c-1.6-0.1-2.2,0.6-2.2,2.2
		C707.6,592.9,707.5,595.8,707.5,598.6z"/>
	<path class="st0" d="M648.2,612.7c0-2.6,0-5.2,0-7.9c0-6-0.1-12,0.1-18c0-0.8,1.1-2.4,1.8-2.4c5.6,0,11.2-0.3,16.7,0.5
		c7.4,1,11.7,6.5,11.7,13.7c0,7.3-4.1,12.9-11.5,13.9C660.9,613.3,654.7,612.7,648.2,612.7z M652,598.9c0,2.9-0.1,5.8,0.1,8.7
		c0.1,0.8,1.2,2.1,1.8,2.1c3.8,0.1,7.7,0.2,11.4-0.3c5.8-0.8,9.3-5.3,9.1-11c-0.2-5.5-3.9-9.7-9.6-10.3c-3.4-0.3-6.8-0.1-10.2-0.3
		c-2.1-0.1-2.7,0.8-2.6,2.7C652.1,593.3,652,596.1,652,598.9z"/>
	<path class="st0" d="M759.1,598.6c0-3.9-0.1-7.8,0.1-11.8c0-0.9,1.2-2.4,1.8-2.4c5.5-0.1,11-0.3,16.3,0.4c7.6,1,11.9,6.4,12,13.8
		c0.1,7.4-4.2,12.9-11.8,14c-5.5,0.8-11.1,0.5-16.7,0.5c-0.6,0-1.7-1.6-1.7-2.4C759,606.6,759.1,602.6,759.1,598.6z M762.9,598.8
		c0,2.9-0.1,5.8,0.1,8.7c0.1,0.8,1.1,2.1,1.7,2.1c3.7,0.1,7.5,0.3,11.1-0.2c6.1-0.7,9.6-5,9.4-11c-0.1-5.7-3.8-9.8-9.8-10.4
		c-3.4-0.3-6.8-0.1-10.2-0.2c-1.7-0.1-2.4,0.6-2.4,2.4C763,593,763,595.9,762.9,598.8z"/>
</g>
<rect x="-2.7" y="60.7" class="st1" width="1191.6" height="719.6"/>
</svg>
