<?xml version="1.0" encoding="utf-8"?>
<!-- Generator: Adobe Illustrator 24.0.0, SVG Export Plug-In . SVG Version: 6.00 Build 0)  -->
<svg version="1.1" id="Layer_1" xmlns="http://www.w3.org/2000/svg" xmlns:xlink="http://www.w3.org/1999/xlink" x="0px" y="0px"
	 viewBox="0 0 1190.6 841.9" style="enable-background:new 0 0 1190.6 841.9;" xml:space="preserve">
<style type="text/css">
	.st0{fill:none;}
</style>
<g>
	<path d="M-767.7,304.8c-2.1,0-3.9,0-5.8,0c-0.1-0.9-0.3-1.7-0.3-2.5c0-19.1-0.1-38.2,0.2-57.3c0.3-18.7,6.2-35.3,19.5-48.9
		c13.8-14,31.1-18.5,50.1-17.9c14.8,0.4,28.6,4,40.7,12.9c14.2,10.5,22,25,25.1,42.1c1.3,7,1.8,14.1,2,21.2
		c0.3,15.7,0.1,31.4,0.1,47.1c0,1.7,0.5,3.6-2.4,3.5c-2.4-0.1-3.9,0-4.1-3.3c-0.4-9.2-3.6-12.5-12.7-13.8c-2.4-0.4-4.9-0.6-7.4-0.6
		c-28,0-56-0.1-84,0c-3.1,0-6.2,0.4-9.2,0.9c-7.3,1.2-10.4,4.5-11.3,11.8C-767.4,301.5-767.5,303-767.7,304.8z M-708.4,199.7
		c-3.2,0.3-8.6,0.6-13.9,1.2c-3.3,0.4-6.5,1.1-9.7,1.9c-29.7,7.4-38.1,31.3-34.7,55.9c0.6,4.7,3.4,7.7,8.1,8.6c3.2,0.6,6.5,1,9.8,1
		c28.5,0.1,57,0.1,85.6,0c3.8,0,7.6-0.5,11.3-1.3c4.9-1,8-4.4,8.8-9.3c2.5-16.9-1.7-38.3-22.9-49.4
		C-678.6,201.7-692.2,200-708.4,199.7z"/>
	<path d="M-606.5,228.7c-5.9-1-5.9-1-5.9-6.5c0.1-17.4,0-34.7,0.3-52.1c0.2-8.7,2.4-17,6.6-24.6c7.8-14.2,20.1-22.2,35.8-24.4
		c32.9-4.5,60.2,6,80.2,32.8c9.7,13,13.6,28.4,14.1,44.3c0.7,20.2,0.5,40.5,0.6,60.7c0,0.3-0.2,0.6-0.2,0.8
		c-4.5,0.3-5.8-0.6-6.3-4.7c-0.8-6.2-3.7-11.2-9.7-13.3c-7.4-2.7-14.9-4.8-22.5-6.8c-24.7-6.7-49.5-13.2-74.2-19.7
		c-2.9-0.8-5.9-1.3-8.8-1.6c-4.4-0.3-7.1,1.5-8.4,5.8C-605.7,222.4-606,225.5-606.5,228.7z M-566,139.4c-3.2,0.3-7.5,0.5-11.8,1.3
		c-13.1,2.3-22.9,8.8-26.6,22.3c-1.2,4.3-1.6,9-1.7,13.5c-0.2,10.1,3.4,14.9,12.9,18.3c1.2,0.4,2.4,0.8,3.5,1.1
		c21.3,5.7,42.7,11.4,64.1,17c10.6,2.8,21.1,5.7,31.8,8.1c7.4,1.7,11.9-1.8,12.3-9.5c1.2-22.7-5.7-41.9-25.4-54.8
		C-524.2,145.2-544,140.3-566,139.4z"/>
	<path d="M-717.7,94.5c-1.9,1.8-2.1,3.9-0.9,6c0.9,1.6,2.1,3,3.4,4.4c3.9,4.2,4.5,8.2,1.7,11.6c-3,3.6-9.2,4.4-13.3,1.5
		c-3.5-2.4-4.7-5.9-4.1-10c0.7-5.5,3.5-10.1,7-14.3c0.8-0.9,1.6-1.8,2-2.2c-2.4-5.5-5.4-10.3-6.7-15.6c-3.5-14.4-0.9-27.9,9.5-38.9
		c13.2-14,36.9-12.2,48.5,3.2c0.5,0.7,1.1,1.4,2,2.6c0.5-1.2,0.7-2.1,1.1-2.8c1.9-3.4,3.4-7.2,5.9-10c4.3-4.9,10.3-4.4,13.8,1.1
		c2.1,3.4,3.4,7.2,5.1,10.9c0.4,1,0.8,2,1.5,3.8c1.4-4.3,2.2-7.8,3.6-11.1c1.5-3.7,3-7.5,5.3-10.8c5.9-8.4,15.9-8.1,21.6,0.4
		c4.3,6.3,5.8,13.7,6.8,21.1c2,14.7,2.4,29.5-1.5,44c-1.3,4.8-3.5,9.6-6.5,13.5c-7.4,9.4-20.9,8.6-27.8-1.2
		c-4.4-6.2-6-13.5-7.8-20.8c-2.3-9.5-4.6-19.1-7.1-28.6c-0.5-1.9-1.3-3.7-2.2-5.4c-1.1-2-2.6-4-5.4-2.8c-2.1,0.9-3.3,4.2-2.6,6.6
		c2.3,7.4,3.1,15,1.2,22.6c-3.3,13.3-10.5,23.5-24.3,27.2c-9.8,2.7-19.3,0.9-27.7-5C-716.6,95.2-717.1,94.9-717.7,94.5z
		 M-695.7,44.8c-0.1,0.3-0.1,0.5-0.2,0.8c-6.8,0.1-13.4,1.4-19.3,5c-5.6,3.4-8.9,8.3-8.6,15.1c0.2,6.7,4.2,10.8,9.7,13.7
		c10,5.1,20.6,5.8,31.3,2.6c8.4-2.5,12.9-8,13.3-15.6c0.5-7.4-3.7-14.3-11.5-17.4C-685.6,46.8-690.7,46.1-695.7,44.8z M-608.6,66.4
		c-0.2,0-0.4-0.1-0.5-0.1c-0.3-4.1-0.2-8.3-0.9-12.3c-0.8-4.4-1.8-9-3.7-13c-3.7-7.7-11.7-8.5-17.4-2.1c-4.1,4.7-6,10.5-7.8,16.4
		c-0.2,0.8,0,1.9,0.2,2.7c2.2,8.1,4.4,16.1,6.9,24.1c1.1,3.4,2.5,6.8,4.6,9.7c3.3,4.7,9.2,4.4,12.6-0.2c1.3-1.7,2.4-3.7,2.9-5.8
		C-610.6,79.4-609.7,72.9-608.6,66.4z"/>
	<path d="M-720-167.9c-1.1-0.4-1.9-0.7-2.7-0.9c-6.1-1.7-5-0.7-5.1-7.1c0-3.7,0-7.4,0-11.7c3.1,1.1,5.6,2,8.2,2.9
		c20.5,7.3,41,14.7,61.6,21.9c1.8,0.7,3.8,1.2,5.7,1.4c1.3,0.1,3-0.3,3.8-1.2c0.5-0.6,0.3-2.7-0.4-3.6c-2.1-2.7-4.3-5.3-6.9-7.4
		c-4.1-3.3-8.5-6.2-12.9-9.4c0.2-0.5,0.5-1.1,0.8-1.8c1.1-2.6,2.5-3.3,5.1-1.4c7.6,5.7,15.4,11,22.8,17c2.6,2.2,4.6,5.7,5.8,9
		c3,8-2.4,15.2-10.9,15.1c-3-0.1-6.1-0.7-9.3-0.7c1,0.6,2,1.2,3,1.8c7.4,4.4,13.3,10.1,16.3,18.4c5.9,16.2-3.3,30.4-20.5,31.8
		c-11.5,0.9-22.1-2.2-32.4-6.9c-14.4-6.7-27-15.7-35.4-29.6c-2.3-3.8-4.1-8.2-5.3-12.5C-732.1-154-729.7-160.6-720-167.9z
		 M-656.4-111.5c0.7,0,1.4,0,2.2,0c9.1-0.4,13.3-7.6,8.9-15.6c-1.4-2.5-3.2-4.8-5.2-6.9c-8.1-8.2-18.1-13.7-28.4-18.5
		c-9.8-4.5-19.7-8.7-30.6-9.7c-9-0.9-13.6,4.7-11.4,13.5c1.5,6.2,5.1,11.1,9.9,15.1C-695.2-120.5-676.5-114.2-656.4-111.5z"/>
	<path d="M-558.7-90.4c-2.2-0.6-4-0.9-5.7-1.6c-0.9-0.4-2.2-1.3-2.2-2c-0.2-4.9-0.1-9.9-0.1-15.3c1.4,0.4,2.3,0.7,3.3,1
		c21.1,7.4,42.1,14.8,63.2,22.1c2.5,0.9,5.1,1.7,7.8,2.1c1.6,0.2,3.4-0.5,5.1-0.8c-0.5-1.7-0.4-3.9-1.5-4.9
		c-4.1-3.9-8.5-7.4-13-10.9c-1.8-1.5-3.9-2.6-6.2-4c1-1.7,1.9-3.1,3-4.9c10.4,6.4,21.1,11.9,28.8,21.5c1.1,1.4,2,3.1,2.7,4.8
		c3.1,8.1-1.9,15.4-10.5,15.4c-3.2,0-6.3-0.7-10.3-1.3c1.5,0.9,2.5,1.5,3.4,2.1c9.3,5.5,16.5,12.6,17.9,23.8
		c1.6,11.9-4.5,20.9-16.1,24c-9.9,2.6-19.5,1-29-2.1c-17.8-6-33.3-15.5-44.1-31.4c-4.4-6.5-6.8-13.6-6.7-21.6
		c0.1-6.5,2.4-11.6,8.5-14.7C-559.9-89.3-559.5-89.7-558.7-90.4z M-495.3-35.4c5.3-0.1,9.6-1,12-5.3c2.4-4.3,0.8-8.4-2-11.8
		c-2.8-3.4-5.9-6.7-9.4-9.4c-11.9-9.1-25.3-15.2-39.5-19.7c-5-1.6-10.2-2.8-15.4-3.2c-7.7-0.6-11.7,4.4-10.3,12
		c1,5.7,4.1,10.1,8.1,14c5.7,5.5,12.5,9.5,19.7,12.8C-520.2-40.5-507.8-36.5-495.3-35.4z"/>
	<path d="M-537.1-110.3c-9.5-3.8-18.9-7.1-26.7-13.8c-0.8-0.7-1.5-1.4-2.1-2.2c-5.1-6.1-3.6-12.6,4-14.7c8-2.2,16.3-3.4,24.6-4.9
		c12.1-2.2,24.2-4.2,36.3-6.4c0.9-0.2,1.7-0.5,2.7-1.5c-6.7-3.4-13.3-6.9-20.1-10c-4-1.9-8.2-3.4-12.4-4.8c-6.3-2.2-12.6-1.9-18.7,1
		c-2,0.9-4,1.8-6.1,2.3c-7,1.7-13.4-3.1-13.1-9.6c0.2-4.1,2.5-6.7,6.1-8.2c5.8-2.4,11.8-1.8,17.7-0.5c14.4,3.3,27.6,9.7,40.6,16.5
		c17.3,9.1,34.2,18.9,48.5,32.5c7.3,7,14,14.6,16.2,24.8c0.8,3.8,0.5,8-0.3,11.8c-0.7,3.7-3.7,5.9-7.6,6.2c-4,0.3-6.6-2-8.5-5.2
		c-2.1-3.8-2.1-7.9-0.9-11.8c2.8-8.6-0.1-15.2-6.6-20.7c-4.2-3.5-8.5-6.9-12.9-10.1c-0.8-0.6-2.1-0.7-3.2-0.5c-23,4-46,8.1-69,12.1
		c-0.8,0.1-1.6,0.3-2.4,0.7c-2.2,1-2.4,2.4-0.6,4c1.1,0.9,2.3,1.7,3.6,2.3c2.6,1.2,5.3,2.2,8.1,3.2
		C-534.5-116-534.5-116-537.1-110.3z"/>
	<path d="M-501.7,118.4c-14.9-0.7-27.3-5.7-39-12.9c-9.4-5.8-17.6-13-23.3-22.7c-2.9-4.9-4.7-10.1-4.7-15.8
		c-0.1-14,10.2-21.7,23.6-17.7c7.4,2.2,13.1,6.8,18.2,12.5c8.9,10,15.1,21.7,19.6,34.2c1.2,3.4,2.9,4.9,6.4,4.6
		c4.4-0.4,8.9-0.4,13.2-1.3c4.2-0.9,6.3-4.1,6.5-8.4c0.3-5.7-1.6-10.8-5.1-14.9c-4.7-5.4-9.9-10.4-15.3-15.2
		c-2.1-1.9-1.3-2.8-0.3-4.5c1.2-2,2.2-1.8,3.9-0.6c8.7,5.9,16.7,12.7,21.4,22.4c2,4.2,3.5,8.9,3.9,13.5c1.1,12.6-7.2,22.7-20.4,25.6
		C-496.3,117.9-499.5,118.1-501.7,118.4z M-513.7,99.1c0.2-0.2,0.5-0.5,0.7-0.7c-1.5-3-2.8-6.1-4.4-9c-6.2-10.6-13.6-20.1-24.9-25.6
		c-3.3-1.6-7.3-2.4-11-2.6c-5.4-0.2-8.2,3.9-6.3,8.9c1.1,2.7,2.7,5.4,4.6,7.6c8.3,9.3,19.1,14.7,30.7,18.5
		C-520.8,97.3-517.2,98.1-513.7,99.1z"/>
	<path d="M-780.6-219.9c1.5-0.1,2.6-0.2,3.7-0.2c40.3,0,80.6-0.1,120.9-0.1c0.5,0,1,0,1.5,0c9.5-0.1,11.1-1.4,12.5-10.7
		c0.4-2.8,2.2-2.1,3.8-2.3c2-0.2,2.1,1.1,2.1,2.6c0,12.4,0,24.8,0,37.2c0,1.6-0.4,2.6-2.2,2.5c-1.6-0.1-3.4,0.5-3.7-2.1
		c-0.9-7.6-1.9-10.4-12.5-10.4c-32.1,0-64.3,0-96.4,0c-0.2,0-0.4,0-0.6,0c-9.7,0.3-11.6,2.1-12.3,11.8c-0.2,2.7-0.5,5-3.9,4
		c-1.1-0.3-2.4-1.5-2.8-2.6c-2.9-8.2-5.5-16.5-8.2-24.7C-779.1-216.3-779.8-217.8-780.6-219.9z"/>
	<path d="M-716.6-57.6c0,5.6,0,10.7,0,16.1c-3-0.7-6-1.2-8.8-2.1c-0.7-0.2-1.4-1.7-1.5-2.6c-0.3-3.7-0.5-7.4-0.6-11.1
		c0-2.1-0.7-3.1-2.8-3.6c-8.4-2.1-16.8-4.5-25.1-6.8c-4.8-1.3-4.8-1.3-5-6.1c-0.1-3.2,0-6.3,0-9.9c10.5,2.3,20.9,4.7,31.8,7.1
		c-0.3-6.2-0.6-12.1-0.9-18.5c3.5,0.9,6.6,1.5,9.6,2.5c0.6,0.2,1.1,1.7,1.1,2.6c0.3,4.4,0.5,8.9,0.6,13.3c0,1.8,0.7,2.7,2.6,3.1
		c21.2,4.5,42.4,9.1,63.6,13.6c2.1,0.4,5.2,1.5,6-1.2c0.5-1.5-1.1-4.5-2.6-5.7c-4.5-3.6-9.4-6.7-14.2-9.9c-1-0.7-2.1-1.2-3-1.8
		c0-0.5-0.1-0.7,0-0.9c3.1-5.7,3.3-6,8.7-2.4c6.1,4.1,12.2,8.5,17.7,13.4c3.8,3.3,6,7.9,6.1,13.2c0.1,5.9-3.1,10.5-8.9,10.8
		c-6.3,0.4-12.8-0.2-19-1.4c-17.7-3.5-35.4-7.5-53-11.3C-714.8-57.3-715.6-57.4-716.6-57.6z"/>
	<path d="M-496.6-13.6c9.5,7.8,17.9,16.1,22.2,27.6c5.3,14-1.9,27.8-16.7,33c-9.3,3.2-18.6,2-27.7-0.9c-17.7-5.8-32.5-15.7-43.3-31
		c-4.2-5.9-6.9-12.4-6.6-19.9c0.5-11.1,11.3-19.4,21.8-16.6c1.1,0.3,2.2,0.7,3.1,1.3c3.6,2.1,5.5,5.8,4.9,9.3
		c-0.6,3.4-3.9,6.2-8.1,6.6c-2,0.2-4.1-0.1-6.2-0.3c-2.6-0.3-5,0.1-6.5,2.6c-1.4,2.4-0.5,4.6,1.1,6.3c3.1,3.2,6.1,6.5,9.7,9
		c16,10.9,33.5,17.8,53.2,18.2c2.3,0.1,4.8-0.3,7-0.9c5.7-1.6,8.5-5.8,7-11.6c-1.1-4.2-2.8-8.5-5.3-12.1C-490,2.1-494-2-498.1-5.9
		c-2.3-2.2-2.9-3.7-0.3-5.8C-497.9-12.2-497.4-12.8-496.6-13.6z"/>
	<path d="M-731.3-18.2c1.6,0,2.8,0,4,0c23.2,0,46.5,0,69.7,0c1.7,0,3.3,0,5-0.1c7.7-0.4,9.5-2,10.7-9.6c0.2-1.4,0-2.9,2.2-3.1
		c3.2-0.3,3.8,0.1,3.8,3.4c0,12,0,24,0,35.9c0,1.6,0.2,3.2-2.2,3.1c-1.9-0.1-3.8,0.3-3.9-2.6c0-1.3-0.5-2.6-0.8-3.9
		c-0.7-3.3-2.8-5.3-6.1-5.8c-2-0.3-4.1-0.5-6.2-0.5c-15.7,0-31.4,0-47.1,0c-1.8,0-3.5,0.1-5.3,0.3c-5.6,0.7-7.5,2.7-8.1,8.3
		c-0.1,1.3,0.8,3.3-1.8,3.6c-2.2,0.2-3.3-0.7-4.1-2.8c-2.8-7.7-5.8-15.2-8.7-22.8C-730.6-15.7-730.8-16.7-731.3-18.2z"/>
	<path d="M-731.4,158.3c1.2-3.2,2.2-5.9,3.2-8.6c2.3-5.9,4.6-11.7,6.7-17.6c0.8-2.1,1.9-3,4.1-2.7c2.3,0.3,1.6,2.1,1.7,3.3
		c0.6,6.1,2.6,8.5,8.8,8.6c13.3,0.3,26.6,0.3,39.9,0.4c4.5,0,9.1,0,13.6-0.2c8.1-0.3,9.7-1.8,11.1-9.9c0.3-1.5,0.3-2.8,2.4-2.9
		c2.6-0.1,3.9,0.4,3.8,3.5c-0.2,11.8-0.1,23.5-0.1,35.3c0,1.5,0.6,3.5-2.1,3.5c-2.2,0.1-3.5-0.2-3.9-3c-1-8-3.2-9.7-12.1-9.7
		c-24.4-0.1-48.7-0.1-73.1-0.1C-728.5,158.3-729.7,158.3-731.4,158.3z"/>
	<path d="M-774.8,480.4c0,1.9,0,3.8,0,5.8c0,9-0.1,18,0.1,27c0,2.5-0.9,3.2-3.3,3.2c-2.3,0-3.5-0.4-3.5-3.2
		c0.1-13.8,0.1-27.7,0-41.5c0-2.5,0.9-3,3.2-3.2c3.9-0.4,6.1,1.1,7.9,4.6c5.7,11.2,11.8,22.3,17.7,33.4c0.4,0.8,1,1.5,1.8,2.7
		c2.4-4.5,4.6-8.5,6.8-12.6c4.5-8.4,9-16.7,13.4-25.1c1.3-2.5,6.7-4.1,9-2.6c0.5,0.3,0.9,1.4,0.9,2.1c0,14.4,0,28.7,0.1,43.1
		c0,2.9-2,2.3-3.7,2.4c-1.9,0.1-3.2-0.2-3.1-2.6c0.1-10.1,0.1-20.3,0.1-30.4c0-1-0.1-2-0.8-3.1c-0.4,0.5-0.8,1-1.1,1.6
		c-5.7,10.7-11.5,21.4-17.2,32.2c-1.1,2.1-2.6,2.3-4.6,2.3c-1.9,0-3.5-0.1-4.6-2.3c-5.6-10.7-11.3-21.3-17-32
		c-0.4-0.7-0.8-1.3-1.2-2C-774.2,480.2-774.5,480.3-774.8,480.4z"/>
	<path d="M-616.1,636.2c9.1,0.2,20.4,3.6,28.6,13.8c17.1,21.4,5.7,53.3-21,59c-9.7,2.1-19.3,1.8-28.6-1.9
		c-15.3-6.1-23.8-20.2-22.3-36.7C-657.5,649.2-642.4,636.2-616.1,636.2z M-621.2,640.9c-2,0.3-5.7,0.6-9.3,1.5
		c-10.9,2.8-18.7,9.3-22,20.2c-3.5,11.7-2.2,23,6.5,32.4c8.6,9.3,19.8,11.6,31.8,10.1c29.4-3.7,34.5-33,24.1-49.4
		C-596.9,645-607.4,641.3-621.2,640.9z"/>
	<path d="M-532.8,710.6c-11.5-0.3-21.8-3.3-29.9-11.6c-10.4-10.7-12-23.7-8.2-37.5c3.6-13.1,13.1-20.7,26-23.9
		c10-2.5,19.9-2.1,29.5,1.7c15.8,6.3,23.9,20.5,22.1,38.2c-1.6,16.1-12.2,28.1-28,31.4C-525,709.7-528.9,710.1-532.8,710.6z
		 M-531,705.5c2.2-0.4,6.1-0.6,9.8-1.7c12.4-3.6,20.3-11.8,22.3-24.7c2-13.1-1.6-24.4-13-32.2c-8.4-5.7-17.9-6.9-27.6-5.4
		c-29.2,4.4-33.6,34.9-21.8,51C-554.2,702-544.1,705.2-531,705.5z"/>
	<path d="M-313.5,479c-1,1.4-1.7,2-2,2.7c-5.6,10.5-11.2,20.9-16.7,31.4c-1.1,2.2-2.5,3.1-5,3.1c-2.6,0-3.8-1-5-3.2
		c-5.5-10.5-11.1-20.9-16.8-31.4c-0.3-0.6-0.7-1.2-1.7-1.7c-0.1,1-0.2,2-0.2,3c0,10-0.1,20,0.1,30.1c0,2.6-0.9,3.1-3.3,3.2
		c-2.3,0-3.3-0.5-3.3-3.1c0.1-13.9,0.1-27.9,0-41.8c0-2.3,0.8-2.9,3-3.1c4-0.4,6,1.1,7.8,4.7c5.7,11.2,11.8,22.2,17.7,33.3
		c0.4,0.7,0.8,1.4,1.5,2.5c0.7-1,1.3-1.6,1.7-2.4c6.3-11.7,12.6-23.5,18.8-35.2c1.3-2.5,6.7-4.1,9-2.6c0.5,0.3,0.8,1.4,0.8,2.1
		c0,14.4,0,28.7,0.1,43.1c0,2.6-1.7,2.3-3.3,2.4c-1.9,0.1-3.1-0.2-3.1-2.6c0.1-10.4,0.1-20.9,0.1-31.3
		C-313.3,481.5-313.4,480.7-313.5,479z"/>
	<path d="M-505.7,495.6c7.8,4.6,6.8,13.7,11.5,19.6c-4.4,2.3-7.7,1.2-9.3-2.9c-1-2.6-1.8-5.3-2.7-7.9c-1.3-3.7-3.8-6-7.7-6.1
		c-7.2-0.2-14.5-0.2-21.7,0c-0.7,0-1.9,1.5-1.9,2.3c-0.2,4.3-0.2,8.7,0,13c0.1,2.8-1.6,2.6-3.4,2.6c-1.9,0-3.5,0.1-3.5-2.6
		c0.1-14,0-28.1,0-42.1c0-1.9,0.7-2.8,2.7-2.8c10.1,0.1,20.3-0.2,30.4,0.1c10.5,0.3,17,8.9,14.3,18.6
		C-497.9,491.1-499.6,492.7-505.7,495.6z M-523.7,475C-523.7,475-523.7,474.9-523.7,475c-3.8,0-7.6-0.1-11.5,0.1
		c-0.8,0-2.2,1.3-2.3,2c-0.2,4.4-0.2,8.9,0,13.3c0,0.7,1.1,1.9,1.7,1.9c8.3,0,16.5,0.2,24.7-0.3c4.6-0.3,7.4-3.8,7.5-8
		c0.1-5.1-3.4-8.7-9-8.9C-516.3,474.8-520,475-523.7,475z"/>
	<path d="M-599.7,492c0-6.9,0.1-13.8,0-20.8c0-2.2,0.8-2.9,2.9-2.9c13.2,0.1,26.4,0.1,39.7,0c2.3,0,2.8,1,2.8,3
		c0,2.1-0.3,3.2-2.9,3.2c-10.6-0.1-21.3,0.1-31.9-0.1c-3-0.1-3.8,1-3.6,3.7c0.2,2.4,0.2,4.8,0,7.1c-0.2,2.7,0.7,3.6,3.5,3.6
		c8.1-0.2,16.1,0,24.2-0.1c2.3,0,3.3,0.6,3.4,3.1c0,2.6-1.1,3.1-3.4,3.1c-8.1-0.1-16.1,0.1-24.2-0.1c-2.8-0.1-3.6,0.9-3.5,3.6
		c0.2,2.6,0.2,5.2,0,7.7c-0.3,3.1,0.7,4.1,3.9,4.1c10.6-0.2,21.3,0,31.9-0.1c2.4,0,3.6,0.5,3.6,3.2c0,2.7-1.3,3-3.4,3
		c-13.1-0.1-26.2-0.1-39.4,0c-2.7,0-3.6-0.7-3.5-3.5C-599.6,505.8-599.7,498.9-599.7,492z"/>
	<path d="M-666.6,475.3c-0.9,0.8-1.9,1.6-2.8,2.6c-1.4,1.6-2.7,1.5-4.5,0.3c-7.1-4.7-14.8-6.1-23.1-3.7c-1.3,0.4-2.5,1-3.6,1.8
		c-3.9,3-3.4,8,1.3,9.4c4.6,1.4,9.5,1.7,14.3,2.5c3.2,0.5,6.4,0.6,9.5,1.2c6.4,1.3,9.8,4.6,10.6,9.8c0.9,6.3-1.5,11.4-7,14.7
		c-10.3,6.1-29.2,4-37.9-4.3c-0.9-0.8-3.1-1.9-1.1-3.3c1.7-1.1,3.1-4.5,6.2-1.9c7.4,6.3,16,7.7,25.3,5.3c1.7-0.5,3.8-1.3,4.8-2.6
		c1.3-1.8,2.4-4.3,2.4-6.6c0-2.7-2.5-4.2-5.1-4.6c-3.8-0.6-7.6-0.8-11.4-1.4c-4.2-0.6-8.4-1.2-12.4-2.3c-4.8-1.4-8.6-4.2-9.1-9.7
		c-0.6-5.9,2.4-10.1,7.5-12.3c12.1-5.1,23.7-4.1,34.7,3.2c0.4,0.3,0.8,0.7,1.1,1C-666.7,474.6-666.7,474.8-666.6,475.3z"/>
	<path d="M-485,492.2c0-6.9,0.1-13.8,0-20.7c0-2.4,0.7-3.2,3.2-3.2c7.1,0.2,14.2-0.1,21.4,0.1c9,0.2,17,2.9,22.1,10.8
		c9.7,15,0.4,34.6-17.6,36.5c-8.9,0.9-17.9,0.4-26.9,0.5c-2.2,0-2.1-1.4-2.1-2.9C-485,506.3-485,499.2-485,492.2z M-478.6,492.2
		c0,5.3-0.1,10.5,0.1,15.8c0,0.9,1.1,2.6,1.7,2.6c7.1-0.1,14.3,0.2,21.3-0.8c9.1-1.3,14.4-8.8,14.1-18.3
		c-0.3-8.9-6.1-15.9-15.1-16.9c-6.3-0.7-12.8-0.4-19.2-0.7c-2.4-0.1-3,0.9-3,3.1C-478.6,482.1-478.6,487.1-478.6,492.2z"/>
	<path d="M-457.4,567.6c1.3-4.6,2.4-8.7,3.5-12.9c0.5-1.8-0.5-2.7-2.2-3.1c-0.8-0.2-1.6-0.2-3.6-0.3c1.3-1.3,1.8-2.4,2.6-2.6
		c3.8-0.8,7.7-1.4,12.3-2.1c-1,4-1.9,7.5-2.9,11c-3.6,12.9-7.2,25.9-10.7,38.8c-0.4,1.5,0.2,3.2,0.3,4.9c1.2-1.1,2.6-2.1,3.6-3.3
		c0.9-1.2,1.4-2.8,2.3-4c0.4-0.6,1.4-0.9,2.1-1.3c0.2,0.8,0.8,1.8,0.5,2.3c-2.2,3.4-4.3,7.1-7.2,9.9c-1.3,1.3-4.4,1.6-6.5,1.3
		c-2.3-0.4-3-2.8-2.7-5.2c0-0.3-0.2-0.5-0.8-2c-0.7,1.3-1,2.2-1.6,2.8c-1.6,1.4-3.2,3-5.1,4c-5.1,2.7-9.7,0.8-11.6-4.7
		c-1.9-5.3-0.6-10.4,1.3-15.4c2.3-5.9,5.7-11,10.4-15.2C-468.9,566.2-463.9,564.2-457.4,567.6z M-478.7,597.8
		c0.6,1.1,1.2,3.6,2.6,4.2c1.2,0.5,3.4-1,5.1-1.7c0.4-0.2,0.8-0.6,1.1-1c5.5-6.8,8.7-14.6,10.1-23.2c0.4-2.4,0.1-5-2.4-6.2
		c-2.8-1.3-4.8,0.5-6.4,2.4C-474.5,579.4-477.1,587.9-478.7,597.8z"/>
	<path d="M-301.3,587.7c1.9-14,7.3-26.5,19.1-35.3c9.3-7,18.4-3.4,22.3,7.6c2.1,5.9,1.5,11.2-0.3,16.8c-3.1,9.6-7.6,18.3-15.4,24.9
		c-2.2,1.9-5,3.5-7.7,4.3c-8,2.3-14.6-2.4-16.9-11.6C-300.8,592.3-301,590.1-301.3,587.7z M-294,593.8c0.2,3.8,0.7,7.5,4.7,9.1
		c4,1.6,7-0.6,9.5-3.5c1.7-1.9,3.3-4.1,4.2-6.4c2.8-7.3,5.7-14.6,7.8-22.1c1.2-4.1,1.4-8.8,0.9-13.1c-0.6-5-5.6-6.9-9.9-4.4
		c-1.9,1.1-3.8,2.7-5,4.5c-2.2,3.4-4.1,6.9-5.6,10.6C-290.6,576.7-293.3,585-294,593.8z"/>
	<path d="M-384.4,588c1.5-14.1,7-26.2,18.1-35.3c3.2-2.7,7.2-4.3,11.5-3.7c5.2,0.7,8.4,4.1,10.4,8.7c3.8,8.7,1.9,17-1.6,25.2
		c-3,7-6.9,13.4-12.7,18.5c-4.7,4.1-10.1,7-16.4,4.5c-6.3-2.6-8.3-8.5-9.3-14.7C-384.5,590.1-384.4,589-384.4,588z M-377.1,593.4
		c0,0.6,0,1.2,0,1.9c0.1,3.3,1,6.1,4.4,7.6c3.2,1.4,6,0.1,8.2-2.1c2-2,3.8-4.4,5.2-6.9c4.7-8.9,7.8-18.4,9.5-28.3
		c0.5-2.7,0.3-5.8-0.5-8.5c-1.3-4.5-5.5-6.1-9.6-3.8c-2,1.1-4,2.8-5.2,4.7C-372.2,568.8-375.6,580.8-377.1,593.4z"/>
	<path d="M-420.6,599.2c6.9,0,13.4,0.2,19.8-0.1c3.7-0.2,6-2.9,8-5.8c0.6-0.9,1.9-1.2,3-1.8c0,1.2,0.4,2.5,0.1,3.6
		c-1,2.9-2.1,5.8-3.5,8.6c-0.5,1-1.9,2.2-2.9,2.2c-10.7,0.1-21.5,0.1-32.2,0.1c-0.3,0-0.6-0.2-1.2-0.5c0.4-0.9,0.6-1.9,1.1-2.7
		c3.7-6.9,9.4-12,15.4-16.8c5.4-4.4,11.1-8.7,16.2-13.5c2.4-2.3,4.3-5.6,5.5-8.8c2-5.1-1.1-10.2-6.1-11.2c-5.2-1.1-9.2,1.9-10,7.4
		c-0.2,1.2-0.2,2.5-0.5,3.7c-0.7,2.9-2.9,4.3-5.4,3.8c-2.4-0.5-3.9-2.9-3.2-5.8c1.3-5.7,5.1-9.4,10.4-11.4
		c5.6-2.1,11.2-1.8,16.5,0.9c7.6,3.9,9.9,13,4.5,19.7c-2.5,3.1-5.8,5.5-9,7.9c-7.9,6-15.9,11.8-23.8,17.7
		C-419.2,597-419.8,598.1-420.6,599.2z"/>
	<path d="M-593.5,599.5c6.2,0,12,0.2,17.9-0.1c4.3-0.2,7.4-2.6,9.7-6.3c0.5-0.8,1.8-1.1,2.8-1.6c0.1,1.1,0.5,2.3,0.2,3.3
		c-1,2.9-2.1,5.8-3.5,8.6c-0.5,1.1-2,2.4-3,2.4c-10.5,0.2-21.1,0.1-31.6,0.1c-0.5,0-1-0.2-2.1-0.5c1-1.8,1.5-3.7,2.6-4.9
		c4.9-5.2,9.9-10.5,15.1-15.4c4.8-4.5,10.4-8.2,15.1-12.8c2.6-2.6,4.5-6.2,5.7-9.7c1.6-4.9-1.9-9.5-6.8-10.2
		c-5.3-0.8-9.1,2.4-9.6,7.9c-0.1,1.5-0.4,3.1-1,4.5c-0.9,2.2-2.8,3.1-5.1,2.5c-2.2-0.5-3.2-2.2-3.2-4.4c0-4.1,2.2-7,5-9.6
		c6.1-5.5,16.6-6.1,23.4-1.5c6.2,4.2,8.1,12.2,3.5,18.1c-2.6,3.4-6.1,6.1-9.5,8.7c-7.8,6-15.9,11.8-23.8,17.7
		c-0.6,0.5-1.1,1.2-1.7,1.8C-593.4,598.5-593.4,598.9-593.5,599.5z"/>
	<path d="M-336.7,600c6.7-0.4,13.5-0.5,20.2-1.2c3.4-0.3,5.3-3.2,7.3-5.8c0.6-0.8,1.9-1,2.8-1.5c0.1,1,0.4,2.1,0.1,3
		c-1.1,3.1-2.3,6.2-3.8,9.2c-0.5,0.9-1.7,2.1-2.5,2.1c-10.9,0.1-21.9,0-32.9,0c-0.2,0-0.4-0.2-1.1-0.6c1-1.8,1.7-3.9,3-5.4
		c4.3-4.7,8.7-9.4,13.4-13.7c5.4-4.9,11.5-9.1,16.7-14.2c2.5-2.4,4.3-5.9,5.3-9.2c1.5-5.3-1.9-9.8-6.9-10.4
		c-5.3-0.7-8.8,2.5-9.4,8.2c-0.1,1.2-0.3,2.5-0.7,3.6c-1,2.7-3.1,4-5.5,3.1c-2.6-0.9-3.4-3-2.9-5.5c1.1-5.6,4.7-9.4,9.9-11.5
		c5.7-2.3,11.5-2.1,17.1,0.7c7.4,3.7,9.7,12.5,4.8,19.2c-2,2.7-4.6,5-7.3,7c-6.6,4.8-13.5,9.2-20.1,14c-2.9,2.1-5.4,4.9-8.1,7.4
		C-337.1,599.1-336.9,599.6-336.7,600z"/>
	<path d="M-432.4,515.6c1.9-3.7,3.7-7.3,5.6-10.9c5.8-11.1,11.8-22.2,17.5-33.4c1.2-2.3,2.6-3,5.1-2.9c2.3,0.1,3.9,0.4,5.1,2.8
		c7.4,14.4,15,28.7,22.5,43c0.2,0.4,0.4,0.9,0.6,1.4c-4.8,1.7-7,1.2-8.6-3.2c-2.7-7.5-7.3-10.5-15.3-9.3c-5.2,0.7-10.5,0.3-15.8,0.1
		c-2.5-0.1-3.8,0.8-4.8,2.9c-1,2.3-2.2,4.4-3.3,6.6C-425.9,516.6-427.1,517-432.4,515.6z M-392.8,496.8c-3.8-7.4-7.4-14.2-11.3-21.8
		c-4,7.6-7.6,14.5-11.5,21.8C-407.7,496.8-400.7,496.8-392.8,496.8z"/>
	<path d="M-790,515.6c-5.4,1.4-6.9,1.3-8.5-3.4c-2.7-7.8-7.6-10.4-15.6-9.3c-5.3,0.7-10.7,0.2-16.1,0.1c-2,0-3.1,0.7-3.9,2.4
		c-1.1,2.2-2.2,4.4-3.3,6.6c-2.3,4.6-3.3,5-8.7,3.6c0.3-0.8,0.5-1.5,0.8-2.2c7.5-14.3,15-28.5,22.4-42.8c1.1-2,2.5-2.4,4.5-2.3
		c2.1,0.1,3.9-0.1,5.2,2.3c7.4,14.4,15,28.7,22.5,43.1C-790.4,514.2-790.3,514.8-790,515.6z M-806.7,496.8
		c-3.8-7.3-7.3-14.1-11.3-21.8c-4.1,7.7-7.7,14.6-11.5,21.8C-821.7,496.8-814.5,496.8-806.7,496.8z"/>
	<path d="M-530.5,576.7c7.4,3.1,9.4,8.5,8,15.1c-1.6,7.6-6.7,12.2-14.1,14c-5.4,1.3-10.9,1.4-16.1-1c-4.6-2.1-7-6.2-6.4-10.6
		c0.4-2.9,2.4-4.6,5-4.3c2.7,0.3,4.3,2.8,3.9,5.6c-1,6.1,2.5,9.2,8.5,7.7c7.1-1.8,13.1-11.6,11.5-18.8c-0.9-3.9-3.9-5.9-8.4-5.5
		c-1.4,0.1-2.9,0.5-4.3,0.2c-0.8-0.2-1.9-1.5-1.9-2.2c0-0.7,1.2-1.9,2.1-2.1c1.4-0.3,2.9,0,4.3,0.1c9.9,1,15.5-11.4,12.8-18.5
		c-1-2.5-2.7-4.1-5.5-4.3c-3.1-0.2-5.8,0.9-7.3,3.7c-0.9,1.7-1.3,3.7-2,5.5c-1.2,3-3.1,4.1-5.4,3.2c-2.4-0.9-3.4-3.5-2.3-6.2
		c2.7-6.4,8.1-8.9,14.5-9.3c6.1-0.4,11.7,0.9,15,6.6c4,6.7,0.6,15.9-7.1,19.4C-527,575.4-528.4,575.9-530.5,576.7z"/>
	<path d="M-730.8,567c-2.6,7.5-5.2,14.8-7.7,22.1c-1,3-2.1,6.1-2.9,9.1c-0.2,0.8,0.3,1.9,0.5,2.8c0.8-0.4,2-0.6,2.5-1.3
		c1.6-2,2.9-4.3,4.5-6.3c0.4-0.5,1.5-0.5,2.3-0.7c0.1,0.7,0.5,1.8,0.2,2.2c-2.8,3.5-5.5,7.2-8.8,10.2c-1.2,1.1-4.4,1.4-5.8,0.6
		c-1.3-0.7-2.3-3.6-2-5.2c1-4.9,2.8-9.7,4.3-14.5c0.1-0.4,0.2-0.7-0.2-1.4c-1.3,2.1-2.6,4.2-4,6.3c-2.6,4-5,8.1-7.9,11.8
		c-3,3.8-6.8,4.8-9.4,3.2c-2.6-1.5-3.4-5.1-1.9-9.6c2.4-7,4.9-14,7.4-21c0.3-1,0.5-2,0.7-3c-0.2-0.2-0.5-0.3-0.7-0.5
		c-0.9,0.7-2,1.2-2.7,2.1c-1.4,1.5-2.4,3.3-3.8,4.8c-0.5,0.5-1.5,0.5-2.3,0.7c-0.1-0.7-0.6-1.8-0.3-2.2c2.6-3.4,5.1-6.7,8-9.8
		c1.7-1.8,4.2-2.5,6.5-1.1c2.5,1.5,3.2,4.2,2.4,6.8c-1.5,5-3.4,9.9-5.2,14.9c-1.1,3.2-2.4,6.4-3.4,9.6c-0.3,1,0.4,2.4,0.6,3.5
		c1-0.5,2.4-0.8,3-1.7c3.5-5.3,6.9-10.8,10.2-16.2c2.8-4.6,5.5-9.2,8.3-13.8C-736.4,566-735.6,565.7-730.8,567z"/>
	<path d="M-812.5,605.2c1.7-4.8,3.4-9.7,5-14.5c1.7-5,3.4-10,4.9-15c0.3-1-0.3-2.2-0.5-3.3c-0.9,0.6-2,0.9-2.6,1.7
		c-1.6,1.9-2.8,4.1-4.4,6c-0.4,0.5-1.4,0.4-2.1,0.6c-0.1-0.7-0.6-1.7-0.3-2.1c2.6-3.7,5.2-7.5,8.3-10.7c1.2-1.3,4.4-2.2,5.7-1.5
		c1.5,0.8,3.1,3.8,2.8,5.5c-0.8,5-2.6,9.9-4,14.8c-0.1,0.5-0.3,0.9,0,1.7c1-1.5,2-2.9,3-4.4c2.9-4.5,5.5-9.2,8.6-13.6
		c2.9-4.1,5.9-5.3,8.5-4.3c2.7,1.1,4.1,4.4,2.8,9.3c-2,7.3-4.6,14.3-6.8,21.5c-0.4,1.4-0.3,2.9-0.5,4.3c1.3-0.9,2.8-1.5,3.8-2.6
		c1.3-1.3,2.1-3.1,3.3-4.5c0.4-0.4,1.3-0.4,2-0.5c0.1,0.6,0.4,1.5,0.2,1.9c-2.3,3.1-4.5,6.4-7.2,9.2c-1.9,2-4.7,2.9-7.4,1.3
		c-2.7-1.7-2.7-4.5-1.8-7.2c2.4-7.4,4.9-14.7,7.3-22c0.3-0.8,0.6-1.6,0.6-2.4c0-0.7-0.4-1.6-1-2c-0.3-0.2-1.5,0.1-1.8,0.6
		c-1.2,1.3-2.2,2.7-3.1,4.2c-5.3,8.6-10.5,17.3-15.8,25.9C-806.9,606.3-808,606.7-812.5,605.2z"/>
	<path d="M-825.4,569.1c2-4.2,5-2.5,8.3-2.5c-1.8,5.2-3.5,9.9-5.2,14.7c-1.8,5.3-3.6,10.5-5.3,15.9c-0.3,0.9,0.2,2,0.3,3.1
		c0.9-0.4,2-0.6,2.6-1.2c1.6-1.8,2.8-3.8,4.4-5.6c0.5-0.6,1.4-0.8,2.2-1.2c0,0.9,0.4,2,0,2.6c-1.8,2.9-3.9,5.6-5.8,8.4
		c-0.3,0.4-0.7,0.8-1.1,1.1c-2,1.8-4.5,3.4-6.9,1.9c-1.7-1-2.5-3.5-3.8-5.6c-0.1,0.1-0.8,0.8-1.4,1.5c-2.2,2.6-5,4.3-8.5,4.6
		c-5.2,0.5-9.3-2.6-10.1-7.9c-1.7-11,6.7-26.9,16.9-31.5C-834.3,565.3-829.7,564.5-825.4,569.1z M-848.7,597.8
		c0.6,1,1.3,3.4,2.7,4.1c1.3,0.6,3.7-0.3,5.2-1.2c1.5-0.8,2.6-2.3,3.6-3.7c1.8-2.6,3.6-5.3,4.8-8.2c1.8-4.6,3.5-9.2,4.5-14
		c0.9-4.2-2-6.3-6-4.7c-2,0.8-4,2.3-5.4,3.9C-844.8,580.5-847.3,588.4-848.7,597.8z"/>
	<path d="M-696.9,568.8c1.8-3.7,4.9-2.3,8.3-2.2c-0.8,2.4-1.5,4.4-2.1,6.4c-2.6,7.5-5.3,15-7.8,22.5c-0.5,1.4-0.2,3.1-0.2,4.6
		c1.4-0.9,2.9-1.6,4.1-2.7c1.2-1.2,2-2.9,3.1-4.2c0.5-0.5,1.4-0.6,2.2-0.8c0,0.7,0.4,1.7,0,2.2c-2,3-4,6-6.2,8.9
		c-1.9,2.3-4.5,4.4-7.5,2.9c-1.8-0.9-2.8-3.5-4.7-6.1c0,0.1-0.1,1.1-0.6,1.5c-1.8,1.5-3.5,3.4-5.6,4.2c-6.8,2.7-12.8-1.2-13.5-8.6
		c-1-10.6,7.7-25.8,17.3-30.1C-705,564.9-701.3,565.3-696.9,568.8z M-720.2,597.9c0.6,1,1.2,3.2,2.7,3.9c1.2,0.6,3.7,0,5-0.9
		c1.9-1.3,3.5-3.2,4.8-5.1c4.1-6,6.9-12.6,8.5-19.7c0.5-2.2,0.7-4.8-1.5-5.8c-1.7-0.7-4.2-0.2-6.1,0.4c-1.5,0.5-2.9,2-4,3.3
		C-716.3,580.7-718.7,588.6-720.2,597.9z"/>
	<path d="M-860.1,547.1c3,0,6-0.1,9,0c0.7,0,1.3,0.6,2,1c-0.5,0.6-0.9,1.7-1.4,1.7c-5.3,0.6-6.6,4.7-7.7,8.9
		c-4.1,15.6-8.2,31.1-12.5,46.6c-1.9,6.9-5.6,12.7-12.9,15.1c-1.2,0.4-2.4,0.6-3.6,0.6c-5.2,0.2-7.6-3.6-5.6-8.3
		c0.8-1.8,3.4-2.3,5-0.8c0.9,0.8,1.5,2,2.3,2.9c0.7,0.7,1.8,1.7,2.4,1.5c0.9-0.3,1.9-1.4,2.1-2.3c1.4-4.9,2.6-9.8,3.9-14.7
		c3.5-13.5,7.1-26.9,10.7-40.4c0.3-1.1,0.6-2.2,0.8-3.3c0.6-3.6-0.3-4.8-3.9-5.7c-0.8-0.2-1.4-0.8-2.1-1.3c0.8-0.5,1.5-1.5,2.3-1.6
		C-866.3,547-863.2,547.1-860.1,547.1z"/>
	<path d="M-645.2,572.8c-0.8,1.8-1.5,3.7-2.5,5.4c-0.4,0.7-1.4,1.1-2.1,1.7c-0.2-0.9-0.7-1.9-0.4-2.6c1.5-3.1,3-6.4,5-9.2
		c0.9-1.2,3.2-2.2,4.7-2c1.2,0.2,2.6,2.3,2.9,3.8c1.5,7,2.6,14,3.9,21c0.2,1.2,0.6,2.5,1.4,3.7c3-7,9.4-13.1,5.3-21.9
		c-0.7-1.5,0-4,0.8-5.6c0.4-0.8,3-1.4,3.7-0.9c1.4,1,3.2,3,3.1,4.4c-0.2,3.7-0.7,7.6-2.1,11.1c-4.2,11-9.6,21.6-17.5,30.4
		c-3,3.4-7.1,5.9-10.9,8.4c-1.4,0.9-3.8,1-5.4,0.5c-1.5-0.5-3.3-2.3-3.4-3.6c0-1.3,1.8-3,3.2-3.8c1.1-0.6,2.9-0.3,4.2,0
		c3.5,0.9,6.1-0.3,8.3-2.8c1.3-1.5,2.6-3,3.6-4.6c0.5-0.8,1-1.9,0.8-2.8c-1.6-9.5-3.3-18.9-5-28.4c-0.1-0.7-0.5-1.3-0.7-2
		C-644.5,573-644.8,572.9-645.2,572.8z"/>
	<path d="M-633.5,468.4c7.5,0,15.1,0.1,22.6,0c2.4,0,3.2,0.8,3.2,3.2c0,2.3-0.9,3-3.1,3c-5.5-0.1-10.9,0.1-16.4-0.1
		c-2.3-0.1-3,0.7-3,3c0.1,11.8,0,23.5,0.1,35.3c0,2.8-0.9,3.5-3.5,3.5c-2.6,0-3.4-0.8-3.4-3.4c0.1-11.5,0.1-22.9,0.1-34.4
		c0-4,0-4-4.1-4c-5.1,0-10.1-0.1-15.2,0c-2.3,0.1-3-0.7-3-3c0-2.4,0.6-3.3,3.2-3.2C-648.6,468.5-641.1,468.4-633.5,468.4z"/>
	<path d="M-369.5,36.8c-0.2,10.8-3.8,19.7-14.3,24.3c-17.9,7.8-35.7-5.3-34.7-25.4c0.5-11.9,6.4-20.9,16-23.9
		C-384.1,6.1-368.9,18.3-369.5,36.8z M-372.6,35.3c-0.3-7.3-3.1-14.8-11.4-19c-10.7-5.5-23.9-1.2-28.9,9.2
		c-5.8,12-1.2,27.2,9.6,32.1c0.4,0.2,0.8,0.3,1.1,0.5C-386.8,63.8-372.6,53.5-372.6,35.3z"/>
	<path d="M-369.5,92.4c-0.1,10.5-3.7,19.4-13.9,23.9c-14.6,6.5-35.7-0.2-35.1-25.3c0.3-12.2,6.7-21.1,16.6-24
		C-384.2,62-368.9,73.5-369.5,92.4z M-372.6,93.6c0-11.4-4.9-19.4-12.9-22.6c-10.4-4.2-22-0.2-27,9.2c-5.6,10.6-2.7,25.2,6.5,31.2
		c7.2,4.7,14.9,4.9,22.4,1.1C-375.5,108.3-372.9,100.7-372.6,93.6z"/>
	<path d="M-369.6-18.8c0.6,13.8-8.2,23.4-17.6,25.6c-18.1,4.2-32.5-8.2-31.3-27.1c0.8-13.3,8.4-22.5,19.7-24.3
		C-381.1-47.5-368.9-34.8-369.6-18.8z M-372.6-19.4c0-0.5-0.1-1.7-0.2-2.9c-1.4-10.9-8.9-18.3-19.1-19c-11.2-0.8-19.6,5-22.4,15.7
		c-1.7,6.3-1.2,12.5,1.7,18.4c2.3,4.9,6.1,8.3,11.2,10.1C-386.3,8-372.7-2.1-372.6-19.4z"/>
	<path d="M-775.7-7.2c0-7,5.6-12.6,12.6-12.6c6.8,0,12.4,5.7,12.5,12.4c0,7-5.6,12.7-12.5,12.7C-770.3,5.3-775.7-0.2-775.7-7.2z"/>
	<path d="M-763,135c7,0.1,12.5,5.8,12.4,12.8c-0.1,6.8-5.8,12.4-12.6,12.3c-7-0.1-12.5-5.6-12.4-12.7
		C-775.7,140.3-770.2,134.9-763,135z"/>
	<path d="M-684,605.4c1.4-4.3,2.8-8.5,4.3-12.8c1.8-5.3,3.6-10.5,5.4-15.8c0.2-0.7,0.5-1.4,0.4-2.1c-0.1-0.9-0.4-1.7-0.7-2.5
		c-0.8,0.4-1.8,0.5-2.3,1.1c-1.5,1.9-2.8,4.1-4.3,6c-0.5,0.6-1.5,0.9-2.3,1.3c0-0.9-0.4-2,0-2.6c2.3-3.4,4.7-6.8,7.3-9.9
		c1.6-2,4-3.2,6.6-1.9c2.7,1.3,2.8,4,2.2,6.5c-0.7,3.5-1.8,6.9-2.2,10.5c1.1-1.9,2-3.9,3.2-5.6c2.4-3.4,4.7-7,7.6-10
		c1.1-1.2,3.7-1.3,5.5-1.2c0.7,0.1,1.7,2.2,1.9,3.4c0.3,2.4-1.4,4.2-3.5,4.4c-7.1,0.7-9.8,6.2-12.8,11.4c-3.1,5.5-5.9,11.1-8.8,16.7
		C-678.4,606.3-678.8,606.6-684,605.4z"/>
	<path d="M-515.2,605.4c1.2-3.5,2.3-7,3.5-10.4c2-6.1,4.1-12.1,6.2-18.2c0.2-0.7,0.6-1.4,0.5-2.1c-0.1-0.8-0.5-1.6-0.8-2.4
		c-0.7,0.3-1.7,0.4-2.1,1c-1.5,1.9-2.8,4.1-4.4,6c-0.6,0.7-1.7,1-2.5,1.4c0.1-1-0.2-2.2,0.3-2.9c2-3,4-6,6.3-8.8
		c2.6-3.1,5.4-4,7.5-2.7c3,1.8,2.5,4.8,2,7.5c-0.4,2.2-1.3,4.3-1.9,6.5c-0.2,0.7-0.2,1.4,0.2,2.3c1.9-3.2,3.7-6.6,5.8-9.7
		c1.6-2.3,3.5-4.4,5.6-6.1c2.2-1.8,4.9-1.3,6.2,0.8c1.2,2.1,0.4,4.7-1.9,6.1c-0.6,0.4-1.3,0.8-2,0.9c-4.9,0.2-7.5,3.5-9.7,7.3
		c-3.8,6.8-7.5,13.7-11.2,20.7C-509.5,606.2-510.3,606.6-515.2,605.4z"/>
	<path d="M-606.6,672.1c3.8,1.9,6.4,4.1,7.2,8.1c1.2,6.4-2.2,12.2-8.5,13.7c-2,0.5-4.1,0.9-6.1,0.9c-6.5,0.1-13,0-19.5,0.1
		c-2,0-2.8-0.7-2.8-2.7c0.1-12.8,0.1-25.6,0-38.4c0-2.1,0.9-2.6,2.8-2.6c6.6,0.1,13.2,0,19.8,0c0.8,0,1.7,0.1,2.5,0.2
		c5.6,0.8,9.3,3.8,10.5,8.7C-599.5,665.3-601.6,669.2-606.6,672.1z M-620,675.2c-2.7,0-5.4-0.2-8,0.1c-0.8,0.1-2,1.3-2.1,2.1
		c-0.2,3.3-0.2,6.6,0,9.9c0,0.8,1.1,2.2,1.7,2.2c5.5,0.1,11.1,0.2,16.6-0.3c4.3-0.4,6.7-3.6,6.4-7.3c-0.3-3.9-3.1-6.5-7.5-6.7
		C-615.2,675.1-617.6,675.2-620,675.2z M-620.6,656.4C-620.6,656.4-620.6,656.4-620.6,656.4c-2.4,0-4.8,0-7.1,0
		c-1.6,0-2.5,0.4-2.5,2.3c0.1,3.1-0.1,6.2,0.1,9.3c0,0.7,1.1,1.9,1.6,2c5.2,0.1,10.3,0.3,15.5-0.2c4.2-0.3,6.6-3.4,6.4-7
		c-0.2-3.6-3-6.1-7.2-6.3C-616,656.3-618.3,656.4-620.6,656.4z"/>
	<path d="M-519.6,672.2c4.5,1.9,7.1,5,7.3,9.7c0.3,6.1-3.2,11.2-9.3,12c-6.5,0.8-13.2,0.8-19.8,0.9c-8.2,0.1-8.2,0-8.2-8.3
		c0-10.6,0.1-21.3-0.1-31.9c0-2.8,0.9-3.5,3.6-3.5c6.2,0.2,12.4-0.2,18.6,0.2c3,0.2,6.2,0.8,8.8,2.3c6.8,3.9,7,12.9,0.6,17.5
		C-518.5,671.4-518.9,671.7-519.6,672.2z M-533.6,675.2C-533.6,675.2-533.6,675.2-533.6,675.2c-2.5,0-5-0.2-7.4,0.1
		c-0.9,0.1-2.2,1.3-2.2,2c-0.3,3.4-0.2,6.8,0,10.2c0,0.7,1.1,1.9,1.8,1.9c5.6,0.1,11.2,0.2,16.7-0.3c4.5-0.4,6.6-3.5,6.3-7.7
		c-0.3-3.6-3.1-6.1-7.3-6.2C-528.4,675.1-531,675.2-533.6,675.2z M-533.8,656.4C-533.8,656.4-533.8,656.4-533.8,656.4
		c-2.5,0-5-0.2-7.4,0.1c-0.8,0.1-2,1.2-2,1.9c-0.2,3.2-0.2,6.4,0,9.6c0,0.7,1.3,1.9,2.1,1.9c4.8,0.1,9.7,0.2,14.5-0.1
		c4.4-0.3,6.9-3,6.8-6.9c-0.1-3.8-2.8-6.3-7.2-6.5C-529.3,656.3-531.5,656.4-533.8,656.4z"/>
	<path d="M-394.2,50c-3.8,0-7.6-0.1-11.5,0c-2,0.1-3-0.4-2.9-2.7c0.2-4.2-0.1-8.5,0.1-12.7c0.6-11.4,9.9-17.8,19.9-13.9
		c6,2.4,8.4,7.4,8.8,13.4c0.3,4.5,0,9.1,0.1,13.6c0,1.8-0.8,2.3-2.5,2.2C-386.2,49.9-390.2,50-394.2,50z M-394.3,46.1
		c2.9,0,5.8,0.1,8.7-0.1c0.8-0.1,2.3-1.2,2.3-1.9c0.1-3.7,0.2-7.5-0.2-11.1c-0.7-5.9-5.1-9.4-10.9-9.3c-5.7,0.1-9.9,3.8-10.5,9.7
		c-0.3,3.5-0.1,7-0.2,10.5c-0.1,1.6,0.6,2.2,2.2,2.2C-400,46-397.2,46.1-394.3,46.1z"/>
	<path d="M-380.2,105.4c-2.6,0-5.2,0-7.9,0c-6,0-12,0.1-18-0.1c-0.8,0-2.4-1.1-2.4-1.8c0-5.6-0.3-11.2,0.5-16.7
		c1-7.4,6.5-11.7,13.7-11.7c7.3,0,12.9,4.1,13.9,11.5C-379.6,92.7-380.2,98.9-380.2,105.4z M-394,101.6c2.9,0,5.8,0.1,8.7-0.1
		c0.8-0.1,2.1-1.2,2.1-1.8c0.1-3.8,0.2-7.7-0.3-11.4c-0.8-5.8-5.3-9.3-11-9.1c-5.5,0.2-9.7,3.9-10.3,9.6c-0.3,3.4-0.1,6.8-0.3,10.2
		c-0.1,2.1,0.8,2.7,2.7,2.6C-399.6,101.5-396.8,101.6-394,101.6z"/>
	<path d="M-394.3-5.5c-3.9,0-7.8,0.1-11.8-0.1c-0.9,0-2.4-1.2-2.4-1.8c-0.1-5.5-0.3-11,0.4-16.3c1-7.6,6.4-11.9,13.8-12
		c7.4-0.1,12.9,4.2,14,11.8c0.8,5.5,0.5,11.1,0.5,16.7c0,0.6-1.6,1.7-2.4,1.7C-386.3-5.4-390.3-5.5-394.3-5.5z M-394.1-9.3
		c2.9,0,5.8,0.1,8.7-0.1c0.8-0.1,2.1-1.1,2.1-1.7c0.1-3.7,0.3-7.5-0.2-11.1c-0.7-6.1-5-9.6-11-9.4c-5.7,0.1-9.8,3.8-10.4,9.8
		c-0.3,3.4-0.1,6.8-0.2,10.2c-0.1,1.7,0.6,2.4,2.4,2.4C-399.9-9.4-397-9.3-394.1-9.3z"/>
</g>
<rect x="-1168.2" y="-199.3" transform="matrix(6.123234e-17 -1 1 6.123234e-17 -732.9309 -411.9371)" class="st0" width="1191.6" height="719.6"/>
</svg>
