<?xml version="1.0" encoding="utf-8"?>
<!-- Generator: Adobe Illustrator 24.0.0, SVG Export Plug-In . SVG Version: 6.00 Build 0)  -->
<svg version="1.1" id="Layer_1" xmlns="http://www.w3.org/2000/svg" xmlns:xlink="http://www.w3.org/1999/xlink" x="0px" y="0px"
	 viewBox="0 0 1190.6 841.9" style="enable-background:new 0 0 1190.6 841.9;" xml:space="preserve">
<style type="text/css">
	.st0{fill:none;}
	.st1{fill:#FFFFFF;}
</style>
<rect x="-2.7" y="60.7" class="st0" width="1191.6" height="719.6"/>
<g>
	<path class="st1" d="M129.4,455.8c-1.2,0.6-3.8,2.9-3.8,4.2c0,1.2,1.5,1.2,1.5,3c0,1.3-1.1,2.2-2.3,2.2c-1.5,0-2.3-1.3-2.3-2.6
		c0-3.5,3.5-6.2,6.4-7.7L129.4,455.8z"/>
	<path class="st1" d="M137.4,455.8c-1.2,0.6-3.8,2.9-3.8,4.2c0,1.2,1.5,1.2,1.5,3c0,1.3-1.1,2.2-2.3,2.2c-1.5,0-2.3-1.3-2.3-2.6
		c0-3.5,3.5-6.2,6.4-7.7L137.4,455.8z"/>
	<path class="st1" d="M161.9,455.3l0.6,7.5l-1.3,0.3c-1-3.7-2.8-6.5-7-6.5c-1.1,0-1.3,0.6-1.5,1.6l-5.1,19.4c-0.2,0.7-0.6,2-0.6,2.8
		c0,1.7,1.9,1.8,3.2,1.8l-0.3,1.3h-11.2l0.3-1.3c1.1,0,2.3,0,3.2-0.8c1-1,1.3-2.3,1.7-3.6l5.2-19.5c0.2-0.6,0.5-1.8-0.5-1.8
		c-3.8,0-8.1,3.3-10.4,6.2L137,462l4-6.7H161.9z"/>
	<path class="st1" d="M165.2,460.1c0.1-0.5,0.3-1.3,0.3-1.7c0-0.8-0.4-1.1-2.5-1l0.3-1.3l6.3-1.1l-5.7,21.2l0.1,0.1
		c1.5-2.8,6.4-12.1,9.7-12.1c1.5,0,2.5,1.5,2.5,2.9c0,1.1-0.6,3-1,4.1l-2.9,8.6c-0.1,0.3-0.3,0.8-0.3,1.1c0,0.3,0.2,0.6,0.5,0.6
		c1.2,0,3-3.4,3.7-4.4l1.1,0.7c-1.3,2-3.5,6.1-6.3,6.1c-1.5,0-2.2-1.3-2.2-2.7c0-1,0.4-2.2,0.7-3l2.7-7.9c0.2-0.7,0.6-1.6,0.6-2.3
		c0-0.4-0.2-0.9-0.7-0.9c-1.3,0-4.2,4.6-4.6,5.3c-2.5,5-4.4,7.8-5.6,11h-3.2L165.2,460.1z"/>
	<path class="st1" d="M193.3,478.2c-1.6,2.7-4.5,5.7-7.9,5.7c-3.4,0-5.2-2.9-5.2-6.1c0-5.1,5-13.5,10.6-13.5c2,0,3.7,1.2,3.7,3.4
		c0,4.8-6.7,8.2-10.6,9.5c-0.1,0.6-0.1,1.2-0.1,1.7c0,2.9,1,3.4,2.3,3.4c2.4,0,5-2.7,6.2-4.6L193.3,478.2z M191.9,467.5
		c0-0.8-0.4-1.6-1.3-1.6c-1.9,0-5.4,3.7-6.5,9.7C187.2,474.7,191.9,471,191.9,467.5z"/>
	<path class="st1" d="M223.6,468.4c-0.7,2.9-1.8,7.3-1.8,10.3c0,0.8,0.1,2.8,1.3,2.8c2,0,5.8-7,5.8-10.8c0-1.9-1.4-2.6-1.4-4.3
		c0-1.1,0.7-2.2,1.8-2.2c1.6,0,2.2,2,2.2,3.2c0,4.3-4.3,16.5-9.5,16.5c-2.5,0-3.3-2.8-3.3-4.8c0-1.3,0.6-4.1,1.5-7.1l-0.1-0.1
		c-1.2,3.6-4.4,12-8.9,12c-1.8,0-2.9-1.7-2.9-3.3c0-1.4,0.4-2.7,0.8-4l2.2-6.7c0.1-0.3,0.5-1.5,0.5-1.8c0-0.3-0.1-0.7-0.4-0.7
		c-1,0-2.9,3.1-3.5,3.9l-1-0.7c1-1.7,4.2-6.4,6.3-6.4c1.5,0,2.1,1.1,2.1,2.5c0,1.3-0.7,3.2-1.1,4.3l-2.2,6.7
		c-0.2,0.7-0.5,1.5-0.5,2.1c0,0.6,0.3,1.2,1,1.2c3.6,0,8.1-13.2,9.1-16.3h3L223.6,468.4z"/>
	<path class="st1" d="M249,470.3c0,6.5-5.5,13.5-10.3,13.5c-3.4,0-5.5-2.7-5.5-6c0-5.1,4.7-13.7,10.5-13.7
		C246.2,464.2,249,466.4,249,470.3z M236.3,479.7c0,1.6,0.7,2.9,2.4,2.9c4,0,7-10.7,7-14c0-1.5-0.5-3.2-2.3-3.2
		C239.3,465.5,236.3,476.5,236.3,479.7z"/>
	<path class="st1" d="M254.6,483.5h-2.8l4.5-13.2c0.2-0.7,0.5-1.5,0.5-2.2c0-0.3-0.2-1-0.5-1c-1.2,0-3,3.6-3.7,4.5l-1-0.7
		c1.2-1.8,3.8-6.8,6.3-6.8c1.4,0,2.1,1.1,2.1,2.4c0,1.5-0.9,4.2-1.5,5.6l-1.2,3.3l0.1,0.1c1.4-2.4,5.3-11.4,8.5-11.4
		c1,0,1.8,0.8,1.8,1.8c0,1.6-1.4,2.3-2.8,2.5c-1.3,0.2-1.8,0.5-2.7,1.5c-1.7,2-4,6.5-5.3,9L254.6,483.5z"/>
	<path class="st1" d="M270.1,479.2c-0.1,0.4-0.3,1.2-0.3,1.6c0,0.3,0.1,0.7,0.5,0.7c1,0,2.9-3.8,3.4-4.7l1.1,0.5
		c-1.1,2.1-3,6.6-5.8,6.6c-1.6,0-2.3-1.3-2.3-2.8c0-1,0.4-2.4,0.6-3.4l4.7-17.6c0.1-0.5,0.3-1.3,0.3-1.7c0-1.2-1.1-1-2.6-1l0.3-1.3
		l6.6-1.1L270.1,479.2z"/>
	<path class="st1" d="M292,460.1c0.1-0.5,0.3-1.3,0.3-1.7c0-1.2-1.1-1-2.6-1l0.3-1.3l6.6-1.1l-6.5,23.8c-0.1,0.4-0.3,1.2-0.3,1.6
		c0,0.4,0.2,1,0.6,1c1.2,0,2.7-3.6,3.2-4.6l1.1,0.5c-1,2.2-3.1,6.5-6,6.5c-1.2,0-2.3-1.1-2.3-2.3c0-0.8,0.2-1.5,0.4-2.2l-0.1-0.1
		c-1.3,2.2-3.4,4.5-6.2,4.5c-2.7,0-3.8-2.9-3.8-5.2c0-6,5.9-14.5,10.7-14.5c1.2,0,2,0.4,3,1L292,460.1z M282.6,471.3
		c-1,2-2.2,5.8-2.2,8c0,0.9,0.2,2.6,1.5,2.6c3.8,0,7.7-10,7.7-13.2c0-1.3-0.5-2.7-2-2.7C285.4,466,283.5,469.6,282.6,471.3z"/>
	<path class="st1" d="M316.5,477.7c-1.3,2-3.4,6.2-6.2,6.2c-1.4,0-2.3-1.2-2.3-2.5c0-1,0.5-2.6,0.9-3.6l2.7-7.9
		c0.2-0.4,0.5-1.4,0.5-1.8c0-0.3-0.2-1-0.5-1c-0.8,0-2.7,3.3-3.2,4l-1.1-0.7c1.2-2,3.7-6.2,6.3-6.2c1.3,0,1.9,1.1,1.9,2.3
		c0,1.4-0.5,3-1,4.3l-2.9,8.7c-0.1,0.3-0.4,1.1-0.4,1.5c0,0.3,0.2,0.5,0.5,0.5c1.2,0,3.1-3.5,3.7-4.4L316.5,477.7z M315.8,454.9
		c1.3,0,2.3,1,2.3,2.3c0,1.3-1,2.3-2.3,2.3c-1.3,0-2.3-1-2.3-2.3C313.4,455.9,314.5,454.9,315.8,454.9z"/>
	<path class="st1" d="M317.3,480c0-1,0.8-2,1.8-2c2.8,0,1.3,4.1,4.6,4.1c1.7,0,2.8-1.2,2.8-2.8c0-3.8-6.5-4.8-6.5-9.8
		c0-2.9,2.7-5.4,6.2-5.4c2,0,4.9,1.3,4.9,3.7c0,1-0.7,1.7-1.8,1.7c-1.9,0-1.8-3.7-4.2-3.7c-1.3,0-2.1,1.5-2.1,2.7
		c0,3.5,6.5,4.6,6.5,9.7c0,2.8-2.5,5.6-6.5,5.6C320.1,483.9,317.3,482.1,317.3,480z"/>
	<path class="st1" d="M341.3,480c0-1,0.8-2,1.8-2c2.8,0,1.3,4.1,4.6,4.1c1.7,0,2.8-1.2,2.8-2.8c0-3.8-6.5-4.8-6.5-9.8
		c0-2.9,2.7-5.4,6.2-5.4c2,0,4.9,1.3,4.9,3.7c0,1-0.7,1.7-1.8,1.7c-1.9,0-1.8-3.7-4.2-3.7c-1.3,0-2.1,1.5-2.1,2.7
		c0,3.5,6.5,4.6,6.5,9.7c0,2.8-2.5,5.6-6.5,5.6C344.1,483.9,341.3,482.1,341.3,480z"/>
	<path class="st1" d="M371.4,476.5c-0.3,0.8-1.1,3.1-1.1,3.9c0,0.3,0.2,1.1,0.5,1.1c1,0,3.1-3.7,3.7-4.6l1.1,0.7
		c-1.2,2-3.9,6.3-6.4,6.3c-1.4,0-2.1-1.2-2.1-2.3c0-1.8,1.2-4.8,1.8-6.5l1.6-3.8l-0.1-0.1l-5.4,8.9c-1,1.4-2.8,3.8-4.7,3.8
		c-1.8,0-2.5-1.5-2.5-3.1c0-1.3,0.9-3.6,1.4-4.9l2.4-6.7c0.2-0.4,0.5-1.3,0.5-1.8c0-0.3-0.2-0.3-0.5-0.3c-1,0-3.1,3.2-3.7,4
		l-1.1-0.8c1.3-1.8,3.7-6.1,6.2-6.1c1.4,0,2.3,1.3,2.3,2.7c0,1.2-0.9,3.5-1.3,4.7l-2.3,6.2c-0.2,0.7-0.8,2-0.8,2.7
		c0,0.4,0.3,1,0.7,1c0.9,0,1.9-1.8,2.4-2.5l8.7-14.4h2.8L371.4,476.5z"/>
	<path class="st1" d="M389.9,465l-0.5,2.1h-4.3l-1.3,5.3c-3.1,12.7-7.3,17.3-10.1,17.3c-1.1,0-2.1-0.6-2.1-1.8c0-1.2,1-1.8,2.1-1.8
		l1.5,0.1c0.9,0,1.5-0.3,1.9-1.2c0.5-1.2,0.9-3.3,1.2-4.6l3.6-13.2h-3.3l0.5-2.1h3.3c1.1-3.7,4.7-10.2,9.1-10.2
		c1.2,0,2.8,0.8,2.8,2.3c0,1.1-1.1,1.7-2,1.7c-1.1,0-1.8-1.1-2.7-1.1c-2.3,0-3.3,5.5-3.9,7.3H389.9z"/>
	<path class="st1" d="M402.6,465l-0.5,2.1h-4.3l-1.3,5.3c-3.1,12.7-7.3,17.3-10.1,17.3c-1.1,0-2.1-0.6-2.1-1.8c0-1.2,1-1.8,2.1-1.8
		l1.5,0.1c0.9,0,1.5-0.3,1.9-1.2c0.5-1.2,0.9-3.3,1.2-4.6l3.6-13.2h-3.3l0.5-2.1h3.3c1.1-3.7,4.7-10.2,9.1-10.2
		c1.2,0,2.8,0.8,2.8,2.3c0,1.1-1.1,1.7-2,1.7c-1.1,0-1.8-1.1-2.7-1.1c-2.3,0-3.3,5.5-3.9,7.3H402.6z"/>
	<path class="st1" d="M413.8,478.2c-1.6,2.7-4.5,5.7-7.9,5.7c-3.4,0-5.2-2.9-5.2-6.1c0-5.1,5-13.5,10.6-13.5c2,0,3.7,1.2,3.7,3.4
		c0,4.8-6.7,8.2-10.6,9.5c-0.1,0.6-0.1,1.2-0.1,1.7c0,2.9,1,3.4,2.3,3.4c2.4,0,5-2.7,6.2-4.6L413.8,478.2z M412.4,467.5
		c0-0.8-0.4-1.6-1.3-1.6c-1.9,0-5.4,3.7-6.5,9.7C407.7,474.7,412.4,471,412.4,467.5z"/>
	<path class="st1" d="M420,483.5h-2.8l4.5-13.2c0.2-0.7,0.5-1.5,0.5-2.2c0-0.3-0.2-1-0.5-1c-1.2,0-3,3.6-3.7,4.5l-1-0.7
		c1.2-1.8,3.8-6.8,6.3-6.8c1.4,0,2.1,1.1,2.1,2.4c0,1.5-0.9,4.2-1.5,5.6l-1.2,3.3l0.1,0.1c1.4-2.4,5.3-11.4,8.5-11.4
		c1,0,1.8,0.8,1.8,1.8c0,1.6-1.4,2.3-2.8,2.5c-1.3,0.2-1.8,0.5-2.7,1.5c-1.7,2-4,6.5-5.3,9L420,483.5z"/>
	<path class="st1" d="M441.5,477.7c-1.3,2-3.4,6.2-6.2,6.2c-1.4,0-2.3-1.2-2.3-2.5c0-1,0.5-2.6,0.9-3.6l2.7-7.9
		c0.2-0.4,0.5-1.4,0.5-1.8c0-0.3-0.2-1-0.5-1c-0.8,0-2.7,3.3-3.2,4l-1.1-0.7c1.2-2,3.7-6.2,6.3-6.2c1.3,0,1.9,1.1,1.9,2.3
		c0,1.4-0.5,3-1,4.3l-2.9,8.7c-0.1,0.3-0.4,1.1-0.4,1.5c0,0.3,0.2,0.5,0.5,0.5c1.2,0,3.1-3.5,3.7-4.4L441.5,477.7z M440.8,454.9
		c1.3,0,2.3,1,2.3,2.3c0,1.3-1,2.3-2.3,2.3c-1.3,0-2.3-1-2.3-2.3C438.5,455.9,439.5,454.9,440.8,454.9z"/>
	<path class="st1" d="M448.1,473c0.3-1,1.4-3.9,1.4-4.8c0-0.4-0.1-1.1-0.5-1.1c-0.7,0-1.7,1.6-3.7,4.5l-1.1-0.6
		c1.2-1.9,3.9-6.8,6.4-6.8c1.5,0,2.1,1.5,2.1,2.8c0,2.8-1.7,6.4-2.8,9.1l-0.5,1.1l0.1,0.1l6.2-10.1c0.9-1.2,2.2-2.9,3.8-2.9
		c1.7,0,2.3,1.7,2.3,3.1c0,1.7-0.9,4-1.5,5.7l-2.1,6.3c-0.1,0.3-0.5,1.3-0.5,1.7c0,0.3,0.2,0.5,0.5,0.5c1.2,0,3.1-3.3,3.7-4.2l1,0.6
		c-2.2,3.5-3.8,6-6.2,6c-1.3,0-2.2-1.1-2.2-2.3c0-1,0.5-2.5,0.8-3.6l2.5-7.1c0.2-0.6,0.7-2.1,0.7-2.7c0-0.4-0.2-1-0.7-1
		c-0.8,0-1.6,1.4-2,2l-8.7,14.3h-2.8L448.1,473z"/>
	<path class="st1" d="M468.4,476.7c-1.1-0.9-1.7-2.3-1.7-3.7c0-4.2,3.5-8.8,7.9-8.8c1.4,0,2.4,0.5,3.5,1.4c0.9-0.8,2.3-1.9,3.5-1.9
		c1,0,2,0.6,2,1.7c0,1.1-0.8,1.7-1.8,1.7c-0.8,0-1-0.4-1.6-0.4c-0.4,0-0.7,0.2-1,0.4c0.5,1,0.6,1.7,0.6,2.8c0,4-3.3,8.3-7.5,8.3
		c-0.8,0-1.5-0.2-2.3-0.5c-0.3,0.3-1.3,0.9-1.3,1.3c0,1.6,9.9,1,9.9,6.5c0,4.4-5.4,5.4-8.8,5.4c-5.4,0-8-2.3-8-4
		c0-2.5,3-3.7,4.9-4.5c-1-0.3-2.4-0.6-2.4-1.8c0-1.1,1.4-1.9,2.1-2.4L468.4,476.7z M464.9,486.9c0,2,3.7,2.4,5.1,2.4
		c1.6,0,5.3-0.4,5.3-2.7c0-2.4-4.4-2.8-6-3.3C467.9,483.8,464.9,485.1,464.9,486.9z M476.6,469.4c0-1.3-0.3-3.4-2.1-3.4
		c-3,0-4.6,4.9-4.6,7.3c0,1.5,0.5,3.3,2.2,3.3C473.6,476.7,476.6,474.8,476.6,469.4z"/>
	<path class="st1" d="M505.1,465l-0.5,2.1h-4.3l-1.3,5.3c-3.1,12.7-7.3,17.3-10.1,17.3c-1.1,0-2.1-0.6-2.1-1.8c0-1.2,1-1.8,2.1-1.8
		l1.5,0.1c0.9,0,1.5-0.3,1.9-1.2c0.5-1.2,0.9-3.3,1.2-4.6l3.6-13.2h-3.3l0.5-2.1h3.3c1.1-3.7,4.7-10.2,9.1-10.2
		c1.2,0,2.8,0.8,2.8,2.3c0,1.1-1.1,1.7-2,1.7c-1.1,0-1.8-1.1-2.7-1.1c-2.3,0-3.3,5.5-3.9,7.3H505.1z"/>
	<path class="st1" d="M506.2,483.5h-2.8l4.5-13.2c0.2-0.7,0.5-1.5,0.5-2.2c0-0.3-0.2-1-0.5-1c-1.2,0-3,3.6-3.7,4.5l-1-0.7
		c1.2-1.8,3.8-6.8,6.3-6.8c1.4,0,2.1,1.1,2.1,2.4c0,1.5-0.9,4.2-1.5,5.6l-1.2,3.3l0.1,0.1c1.4-2.4,5.3-11.4,8.5-11.4
		c1,0,1.8,0.8,1.8,1.8c0,1.6-1.4,2.3-2.8,2.5c-1.3,0.2-1.8,0.5-2.7,1.5c-1.7,2-4,6.5-5.3,9L506.2,483.5z"/>
	<path class="st1" d="M534.3,470.3c0,6.5-5.5,13.5-10.3,13.5c-3.4,0-5.5-2.7-5.5-6c0-5.1,4.7-13.7,10.5-13.7
		C531.6,464.2,534.3,466.4,534.3,470.3z M521.7,479.7c0,1.6,0.7,2.9,2.4,2.9c4,0,7-10.7,7-14c0-1.5-0.5-3.2-2.3-3.2
		C524.7,465.5,521.7,476.5,521.7,479.7z"/>
	<path class="st1" d="M541.7,470c0.2-0.5,0.5-1.5,0.5-2c0-0.3-0.1-0.9-0.5-0.9c-0.8,0-2.2,2.3-2.7,3l-0.9,1.4l-1.1-0.6
		c2.5-4.1,4.3-6.7,6.3-6.7c1.5,0,2.1,1.5,2.1,2.9c0,1.6-1.2,4.6-1.7,6.1l-1.8,4.5l0.1,0.1l4.4-7.8c1.2-1.9,3.7-5.8,6.2-5.8
		c1.7,0,2.5,1.3,2.5,2.9c0,1.7-1.1,4.5-1.7,6.1l-1.8,4.5l0.1,0.1l0.3-0.7c1.7-3.1,6.6-12.9,10.5-12.9c1.7,0,2.3,1.2,2.3,2.8
		c0,2-1,4.3-1.6,6.2l-2.2,6.1c-0.2,0.5-0.4,1.2-0.4,1.7c0,0.3,0.2,0.5,0.5,0.5c0.7,0,1.9-1.3,3.7-4.3l1.1,0.6
		c-1.3,2-3.5,6.1-6.1,6.1c-1.5,0-2.4-1.1-2.4-2.5c0-1.1,0.5-2.5,0.9-3.5l2.8-7.8c0.2-0.5,0.6-1.4,0.6-1.9c0-0.5-0.3-1-0.8-1
		c-0.6,0-2.3,0.8-7,9l-4.2,7.4h-2.8l4.7-13.4c0.2-0.5,0.5-1.5,0.5-2.1c0-0.5-0.3-0.8-0.8-0.8c-1.1,0-1.5,0-6.3,8.1l-4.8,8.2h-2.9
		L541.7,470z"/>
	<path class="st1" d="M593.6,464.7h3.4l-2.9,8.1c-0.4,1.2-2.3,6.6-2.3,7.6c0,0.3,0.2,0.6,0.5,0.6c0.7,0,2.1-1.3,3.8-4.3l1,0.6
		c-2.5,4.2-4.2,6.6-6.3,6.6c-1.3,0-2.2-1-2.2-2.3c0-1,0.2-1.8,0.5-2.6l-0.1-0.1c-1.1,2.6-3.1,5-6.2,5c-3,0-4.4-2.6-4.4-5.3
		c0-5.5,5.2-14.3,11.3-14.3c1.7,0,2.7,0.6,3.4,2.2L593.6,464.7z M592,468.1c0-1.2-0.6-2.1-1.8-2.1c-2.8,0-4.7,2.9-5.8,5.1
		c-1.1,2.2-2.5,6.1-2.5,8.5c0,1.2,0.6,2.3,1.9,2.3C587.5,481.9,592,471.3,592,468.1z"/>
	<path class="st1" d="M624.7,460.1c0.1-0.5,0.3-1.3,0.3-1.7c0-1.2-1.1-1-2.6-1l0.3-1.3l6.6-1.1l-6.5,23.8c-0.1,0.4-0.3,1.2-0.3,1.6
		c0,0.4,0.2,1,0.6,1c1.2,0,2.7-3.6,3.2-4.6l1.1,0.5c-1,2.2-3.1,6.5-6,6.5c-1.2,0-2.3-1.1-2.3-2.3c0-0.8,0.2-1.5,0.4-2.2l-0.1-0.1
		c-1.3,2.2-3.4,4.5-6.2,4.5c-2.7,0-3.8-2.9-3.8-5.2c0-6,5.9-14.5,10.7-14.5c1.2,0,2,0.4,3,1L624.7,460.1z M615.3,471.3
		c-1,2-2.2,5.8-2.2,8c0,0.9,0.2,2.6,1.5,2.6c3.8,0,7.7-10,7.7-13.2c0-1.3-0.5-2.7-2-2.7C618.1,466,616.2,469.6,615.3,471.3z"/>
	<path class="st1" d="M644.1,464.7h3.4l-2.9,8.1c-0.4,1.2-2.3,6.6-2.3,7.6c0,0.3,0.2,0.6,0.5,0.6c0.7,0,2.1-1.3,3.8-4.3l1,0.6
		c-2.5,4.2-4.2,6.6-6.3,6.6c-1.3,0-2.2-1-2.2-2.3c0-1,0.2-1.8,0.5-2.6l-0.1-0.1c-1.1,2.6-3.1,5-6.2,5c-3,0-4.4-2.6-4.4-5.3
		c0-5.5,5.2-14.3,11.3-14.3c1.7,0,2.7,0.6,3.4,2.2L644.1,464.7z M642.6,468.1c0-1.2-0.6-2.1-1.8-2.1c-2.8,0-4.7,2.9-5.8,5.1
		c-1.1,2.2-2.5,6.1-2.5,8.5c0,1.2,0.6,2.3,1.9,2.3C638.1,481.9,642.6,471.3,642.6,468.1z"/>
	<path class="st1" d="M653.3,483.5h-2.8l4.5-13.2c0.2-0.7,0.5-1.5,0.5-2.2c0-0.3-0.2-1-0.5-1c-1.2,0-3,3.6-3.7,4.5l-1-0.7
		c1.2-1.8,3.8-6.8,6.3-6.8c1.4,0,2.1,1.1,2.1,2.4c0,1.5-0.9,4.2-1.5,5.6l-1.2,3.3l0.1,0.1c1.4-2.4,5.3-11.4,8.5-11.4
		c1,0,1.8,0.8,1.8,1.8c0,1.6-1.4,2.3-2.8,2.5c-1.3,0.2-1.8,0.5-2.7,1.5c-1.7,2-4,6.5-5.3,9L653.3,483.5z"/>
	<path class="st1" d="M670.6,460.1c0.1-0.5,0.3-1.3,0.3-1.7c0-1.2-1-1-2.7-1l0.3-1.3l6.7-1.1l-3.8,14.3l0.1,0.1
		c1.3-2.3,3.4-5.2,6.3-5.2c2,0,3.5,1.6,3.5,3.7c0,3-3.3,5.4-5.8,6.4l0.7,4c0.1,0.5,0.3,2.7,1.2,2.7c1,0,2.4-2.8,2.7-3.7l1.2,0.5
		c-1,2-2.8,6-5.4,6c-1,0-2-0.1-3.3-8.5l-2.8,0.7l-2,7.4h-3.3L670.6,460.1z M678.3,468.6c0-1-0.7-2-1.7-2c-1.5,0-4.2,1.4-6.6,8.1
		C672.8,474.2,678.3,471.9,678.3,468.6z"/>
	<path class="st1" d="M709,464.7h3.4l-2.9,8.1c-0.4,1.2-2.3,6.6-2.3,7.6c0,0.3,0.2,0.6,0.5,0.6c0.7,0,2.1-1.3,3.8-4.3l1,0.6
		c-2.5,4.2-4.2,6.6-6.3,6.6c-1.3,0-2.2-1-2.2-2.3c0-1,0.2-1.8,0.5-2.6l-0.1-0.1c-1.1,2.6-3.1,5-6.2,5c-3,0-4.4-2.6-4.4-5.3
		c0-5.5,5.2-14.3,11.3-14.3c1.7,0,2.7,0.6,3.4,2.2L709,464.7z M707.4,468.1c0-1.2-0.6-2.1-1.8-2.1c-2.8,0-4.7,2.9-5.8,5.1
		c-1.1,2.2-2.5,6.1-2.5,8.5c0,1.2,0.6,2.3,1.9,2.3C703,481.9,707.4,471.3,707.4,468.1z"/>
	<path class="st1" d="M718.9,473c0.3-1,1.4-3.9,1.4-4.8c0-0.4-0.1-1.1-0.5-1.1c-0.7,0-1.7,1.6-3.7,4.5L715,471
		c1.2-1.9,3.9-6.8,6.4-6.8c1.5,0,2.1,1.5,2.1,2.8c0,2.8-1.7,6.4-2.8,9.1l-0.5,1.1l0.1,0.1l6.2-10.1c0.9-1.2,2.2-2.9,3.8-2.9
		c1.7,0,2.3,1.7,2.3,3.1c0,1.7-0.9,4-1.5,5.7l-2.1,6.3c-0.1,0.3-0.5,1.3-0.5,1.7c0,0.3,0.2,0.5,0.5,0.5c1.2,0,3.1-3.3,3.7-4.2l1,0.6
		c-2.2,3.5-3.8,6-6.2,6c-1.3,0-2.2-1.1-2.2-2.3c0-1,0.5-2.5,0.8-3.6l2.5-7.1c0.2-0.6,0.7-2.1,0.7-2.7c0-0.4-0.2-1-0.7-1
		c-0.8,0-1.6,1.4-2,2l-8.7,14.3h-2.8L718.9,473z"/>
	<path class="st1" d="M751.3,460.1c0.1-0.5,0.3-1.3,0.3-1.7c0-1.2-1.1-1-2.6-1l0.3-1.3l6.6-1.1l-6.5,23.8c-0.1,0.4-0.3,1.2-0.3,1.6
		c0,0.4,0.2,1,0.6,1c1.2,0,2.7-3.6,3.2-4.6l1.1,0.5c-1,2.2-3.1,6.5-6,6.5c-1.2,0-2.3-1.1-2.3-2.3c0-0.8,0.2-1.5,0.4-2.2l-0.1-0.1
		c-1.3,2.2-3.4,4.5-6.2,4.5c-2.7,0-3.8-2.9-3.8-5.2c0-6,5.9-14.5,10.7-14.5c1.2,0,2,0.4,3,1L751.3,460.1z M741.9,471.3
		c-1,2-2.2,5.8-2.2,8c0,0.9,0.2,2.6,1.5,2.6c3.8,0,7.7-10,7.7-13.2c0-1.3-0.5-2.7-2-2.7C744.7,466,742.8,469.6,741.9,471.3z"/>
	<path class="st1" d="M764.5,480c0-1,0.8-2,1.8-2c2.8,0,1.3,4.1,4.6,4.1c1.7,0,2.8-1.2,2.8-2.8c0-3.8-6.5-4.8-6.5-9.8
		c0-2.9,2.7-5.4,6.2-5.4c2,0,4.9,1.3,4.9,3.7c0,1-0.7,1.7-1.8,1.7c-1.9,0-1.8-3.7-4.2-3.7c-1.3,0-2.1,1.5-2.1,2.7
		c0,3.5,6.5,4.6,6.5,9.7c0,2.8-2.5,5.6-6.5,5.6C767.4,483.9,764.5,482.1,764.5,480z"/>
	<path class="st1" d="M789.4,477.7c-1.3,2-3.4,6.2-6.2,6.2c-1.4,0-2.3-1.2-2.3-2.5c0-1,0.5-2.6,0.9-3.6l2.7-7.9
		c0.2-0.4,0.5-1.4,0.5-1.8c0-0.3-0.2-1-0.5-1c-0.8,0-2.7,3.3-3.2,4l-1.1-0.7c1.2-2,3.7-6.2,6.3-6.2c1.3,0,1.9,1.1,1.9,2.3
		c0,1.4-0.5,3-1,4.3l-2.9,8.7c-0.1,0.3-0.4,1.1-0.4,1.5c0,0.3,0.2,0.5,0.5,0.5c1.2,0,3.1-3.5,3.7-4.4L789.4,477.7z M788.7,454.9
		c1.3,0,2.3,1,2.3,2.3c0,1.3-1,2.3-2.3,2.3c-1.3,0-2.3-1-2.3-2.3C786.3,455.9,787.4,454.9,788.7,454.9z"/>
	<path class="st1" d="M795.4,479.2c-0.1,0.4-0.3,1.2-0.3,1.6c0,0.3,0.1,0.7,0.5,0.7c1,0,2.9-3.8,3.4-4.7l1.1,0.5
		c-1.1,2.1-3,6.6-5.8,6.6c-1.6,0-2.3-1.3-2.3-2.8c0-1,0.4-2.4,0.6-3.4l4.7-17.6c0.1-0.5,0.3-1.3,0.3-1.7c0-1.2-1.1-1-2.6-1l0.3-1.3
		l6.6-1.1L795.4,479.2z"/>
	<path class="st1" d="M815.8,478.2c-1.6,2.7-4.5,5.7-7.9,5.7c-3.4,0-5.2-2.9-5.2-6.1c0-5.1,5-13.5,10.6-13.5c2,0,3.7,1.2,3.7,3.4
		c0,4.8-6.7,8.2-10.6,9.5c-0.1,0.6-0.1,1.2-0.1,1.7c0,2.9,1,3.4,2.3,3.4c2.4,0,5-2.7,6.2-4.6L815.8,478.2z M814.4,467.5
		c0-0.8-0.4-1.6-1.3-1.6c-1.9,0-5.4,3.7-6.5,9.7C809.7,474.7,814.4,471,814.4,467.5z"/>
	<path class="st1" d="M822.8,473c0.3-1,1.4-3.9,1.4-4.8c0-0.4-0.1-1.1-0.5-1.1c-0.7,0-1.7,1.6-3.7,4.5l-1.1-0.6
		c1.2-1.9,3.9-6.8,6.4-6.8c1.5,0,2.1,1.5,2.1,2.8c0,2.8-1.7,6.4-2.8,9.1l-0.5,1.1l0.1,0.1l6.2-10.1c0.9-1.2,2.2-2.9,3.8-2.9
		c1.7,0,2.3,1.7,2.3,3.1c0,1.7-0.9,4-1.5,5.7l-2.1,6.3c-0.1,0.3-0.5,1.3-0.5,1.7c0,0.3,0.2,0.5,0.5,0.5c1.2,0,3.1-3.3,3.7-4.2l1,0.6
		c-2.2,3.5-3.8,6-6.2,6c-1.3,0-2.2-1.1-2.2-2.3c0-1,0.5-2.5,0.8-3.6l2.5-7.1c0.2-0.6,0.7-2.1,0.7-2.7c0-0.4-0.2-1-0.7-1
		c-0.8,0-1.6,1.4-2,2l-8.7,14.3h-2.8L822.8,473z"/>
	<path class="st1" d="M849.8,458.1l-1.8,6.5h3.7l-0.6,2.1h-3.7l-3.3,12.5c-0.1,0.4-0.3,1.2-0.3,1.7c0,0.2,0.2,0.6,0.5,0.6
		c1.2,0,3-3.1,3.5-4.1l1.2,0.8c-1.2,2-3.4,5.6-6,5.6c-1.5,0-2.3-1-2.3-2.5c0-1.3,0.5-3.1,0.8-4.4l2.7-10.2H841l0.6-2.1h3.3l2.1-6.5
		H849.8z"/>
	<path class="st1" d="M872.6,458.9l-1.5,5.9c0.7-0.2,1.5-0.5,2.3-0.5c3.7,0,5.4,3,5.4,6.4c0,3.4-1.7,7.2-4,9.6
		c-2.4,2.4-5.3,3.5-8.7,3.4l-0.3,1c-0.2,0.6-0.7,2.3-0.7,3c0,1.4,1.3,1.2,2.3,1.3l-0.3,1.3h-8.4l0.3-1.3c2-0.1,2.5-0.2,3.1-2.5
		l4.9-18.5c-1.1,0.8-2.5,1.7-3.8,2.7l-0.8-1c1.5-1.5,3.2-2.8,5.2-3.8l2.3-7H872.6z M866.4,482c2.2,0,4.1-0.6,5.7-2.3
		c1.9-2.2,3.5-6.1,3.5-9c0-2.1-1-4.5-3.4-4.5c-0.5,0-1.1,0.1-1.6,0.3L866.4,482z"/>
	<path class="st1" d="M886.5,460.1c0.1-0.5,0.3-1.3,0.3-1.7c0-0.8-0.4-1.1-2.5-1l0.3-1.3l6.3-1.1l-5.7,21.2l0.1,0.1
		c1.5-2.8,6.4-12.1,9.7-12.1c1.5,0,2.5,1.5,2.5,2.9c0,1.1-0.6,3-1,4.1l-2.9,8.6c-0.1,0.3-0.3,0.8-0.3,1.1c0,0.3,0.2,0.6,0.5,0.6
		c1.2,0,3-3.4,3.7-4.4l1.1,0.7c-1.3,2-3.5,6.1-6.3,6.1c-1.5,0-2.2-1.3-2.2-2.7c0-1,0.4-2.2,0.7-3l2.7-7.9c0.2-0.7,0.6-1.6,0.6-2.3
		c0-0.4-0.2-0.9-0.7-0.9c-1.3,0-4.2,4.6-4.6,5.3c-2.5,5-4.4,7.8-5.6,11h-3.2L886.5,460.1z"/>
	<path class="st1" d="M914.7,478.2c-1.6,2.7-4.5,5.7-7.9,5.7c-3.4,0-5.2-2.9-5.2-6.1c0-5.1,5-13.5,10.6-13.5c2,0,3.7,1.2,3.7,3.4
		c0,4.8-6.7,8.2-10.6,9.5c-0.1,0.6-0.1,1.2-0.1,1.7c0,2.9,1,3.4,2.3,3.4c2.4,0,5-2.7,6.2-4.6L914.7,478.2z M913.3,467.5
		c0-0.8-0.4-1.6-1.3-1.6c-1.9,0-5.4,3.7-6.5,9.7C908.6,474.7,913.3,471,913.3,467.5z"/>
	<path class="st1" d="M921.7,473c0.3-1,1.4-3.9,1.4-4.8c0-0.4-0.1-1.1-0.5-1.1c-0.7,0-1.7,1.6-3.7,4.5l-1.1-0.6
		c1.2-1.9,3.9-6.8,6.4-6.8c1.5,0,2.1,1.5,2.1,2.8c0,2.8-1.7,6.4-2.8,9.1l-0.5,1.1l0.1,0.1l6.2-10.1c0.9-1.2,2.2-2.9,3.8-2.9
		c1.7,0,2.3,1.7,2.3,3.1c0,1.7-0.9,4-1.5,5.7l-2.1,6.3c-0.1,0.3-0.5,1.3-0.5,1.7c0,0.3,0.2,0.5,0.5,0.5c1.2,0,3.1-3.3,3.7-4.2l1,0.6
		c-2.2,3.5-3.8,6-6.2,6c-1.3,0-2.2-1.1-2.2-2.3c0-1,0.5-2.5,0.8-3.6l2.5-7.1c0.2-0.6,0.7-2.1,0.7-2.7c0-0.4-0.2-1-0.7-1
		c-0.8,0-1.6,1.4-2,2l-8.7,14.3H918L921.7,473z"/>
	<path class="st1" d="M955,470.3c0,6.5-5.5,13.5-10.3,13.5c-3.4,0-5.5-2.7-5.5-6c0-5.1,4.7-13.7,10.5-13.7
		C952.2,464.2,955,466.4,955,470.3z M942.3,479.7c0,1.6,0.7,2.9,2.4,2.9c4,0,7-10.7,7-14c0-1.5-0.5-3.2-2.3-3.2
		C945.3,465.5,942.3,476.5,942.3,479.7z"/>
	<path class="st1" d="M962.3,470c0.2-0.5,0.5-1.5,0.5-2c0-0.3-0.1-0.9-0.5-0.9c-0.8,0-2.2,2.3-2.7,3l-0.9,1.4l-1.1-0.6
		c2.5-4.1,4.3-6.7,6.3-6.7c1.5,0,2.1,1.5,2.1,2.9c0,1.6-1.2,4.6-1.7,6.1l-1.8,4.5l0.1,0.1l4.4-7.8c1.2-1.9,3.7-5.8,6.2-5.8
		c1.7,0,2.5,1.3,2.5,2.9c0,1.7-1.1,4.5-1.7,6.1l-1.8,4.5l0.1,0.1l0.3-0.7c1.7-3.1,6.6-12.9,10.5-12.9c1.7,0,2.3,1.2,2.3,2.8
		c0,2-1,4.3-1.6,6.2l-2.2,6.1c-0.2,0.5-0.4,1.2-0.4,1.7c0,0.3,0.2,0.5,0.5,0.5c0.7,0,1.9-1.3,3.7-4.3l1.1,0.6
		c-1.3,2-3.5,6.1-6.1,6.1c-1.5,0-2.4-1.1-2.4-2.5c0-1.1,0.5-2.5,0.9-3.5l2.8-7.8c0.2-0.5,0.6-1.4,0.6-1.9c0-0.5-0.3-1-0.8-1
		c-0.6,0-2.3,0.8-7,9l-4.2,7.4h-2.8l4.7-13.4c0.2-0.5,0.5-1.5,0.5-2.1c0-0.5-0.3-0.8-0.8-0.8c-1.1,0-1.5,0-6.3,8.1l-4.8,8.2h-2.9
		L962.3,470z"/>
	<path class="st1" d="M1002.3,478.2c-1.6,2.7-4.5,5.7-7.9,5.7c-3.4,0-5.2-2.9-5.2-6.1c0-5.1,5-13.5,10.6-13.5c2,0,3.7,1.2,3.7,3.4
		c0,4.8-6.7,8.2-10.6,9.5c-0.1,0.6-0.1,1.2-0.1,1.7c0,2.9,1,3.4,2.3,3.4c2.4,0,5-2.7,6.2-4.6L1002.3,478.2z M1000.9,467.5
		c0-0.8-0.4-1.6-1.3-1.6c-1.9,0-5.4,3.7-6.5,9.7C996.2,474.7,1000.9,471,1000.9,467.5z"/>
	<path class="st1" d="M1009.3,473c0.3-1,1.4-3.9,1.4-4.8c0-0.4-0.1-1.1-0.5-1.1c-0.7,0-1.7,1.6-3.7,4.5l-1.1-0.6
		c1.2-1.9,3.9-6.8,6.4-6.8c1.5,0,2.1,1.5,2.1,2.8c0,2.8-1.7,6.4-2.8,9.1l-0.5,1.1l0.1,0.1l6.2-10.1c0.9-1.2,2.2-2.9,3.8-2.9
		c1.7,0,2.3,1.7,2.3,3.1c0,1.7-0.9,4-1.5,5.7l-2.1,6.3c-0.1,0.3-0.5,1.3-0.5,1.7c0,0.3,0.2,0.5,0.5,0.5c1.2,0,3.1-3.3,3.7-4.2l1,0.6
		c-2.2,3.5-3.8,6-6.2,6c-1.3,0-2.2-1.1-2.2-2.3c0-1,0.5-2.5,0.8-3.6l2.5-7.1c0.2-0.6,0.7-2.1,0.7-2.7c0-0.4-0.2-1-0.7-1
		c-0.8,0-1.6,1.4-2,2l-8.7,14.3h-2.8L1009.3,473z"/>
	<path class="st1" d="M1042.6,470.3c0,6.5-5.5,13.5-10.3,13.5c-3.4,0-5.5-2.7-5.5-6c0-5.1,4.7-13.7,10.5-13.7
		C1039.8,464.2,1042.6,466.4,1042.6,470.3z M1029.9,479.7c0,1.6,0.7,2.9,2.4,2.9c4,0,7-10.7,7-14c0-1.5-0.5-3.2-2.3-3.2
		C1033,465.5,1029.9,476.5,1029.9,479.7z"/>
	<path class="st1" d="M1049,473c0.3-1,1.4-3.9,1.4-4.8c0-0.4-0.1-1.1-0.5-1.1c-0.7,0-1.7,1.6-3.7,4.5l-1.1-0.6
		c1.2-1.9,3.9-6.8,6.4-6.8c1.5,0,2.1,1.5,2.1,2.8c0,2.8-1.7,6.4-2.8,9.1l-0.5,1.1l0.1,0.1l6.2-10.1c0.9-1.2,2.2-2.9,3.8-2.9
		c1.7,0,2.3,1.7,2.3,3.1c0,1.7-0.9,4-1.5,5.7l-2.1,6.3c-0.1,0.3-0.5,1.3-0.5,1.7c0,0.3,0.2,0.5,0.5,0.5c1.2,0,3.1-3.3,3.7-4.2l1,0.6
		c-2.2,3.5-3.8,6-6.2,6c-1.3,0-2.2-1.1-2.2-2.3c0-1,0.5-2.5,0.8-3.6l2.5-7.1c0.2-0.6,0.7-2.1,0.7-2.7c0-0.4-0.2-1-0.7-1
		c-0.8,0-1.6,1.4-2,2l-8.7,14.3h-2.8L1049,473z"/>
	<path class="st1" d="M47,515c0.1-0.5,0.3-1.3,0.3-1.7c0-1.2-1-1-2.7-1l0.3-1.3l6.7-1.1l-3.8,14.3l0.1,0.1c1.3-2.3,3.4-5.2,6.3-5.2
		c2,0,3.5,1.6,3.5,3.7c0,3-3.3,5.4-5.8,6.4l0.7,4c0.1,0.5,0.3,2.7,1.2,2.7c1,0,2.4-2.8,2.7-3.7l1.2,0.5c-1,2-2.8,6-5.4,6
		c-1,0-2-0.1-3.3-8.5L46,531l-2,7.4h-3.3L47,515z M54.7,523.5c0-1-0.7-2-1.7-2c-1.5,0-4.2,1.4-6.6,8.1
		C49.1,529.1,54.7,526.8,54.7,523.5z"/>
	<path class="st1" d="M64.2,527.9c0.3-1,1.4-3.9,1.4-4.8c0-0.4-0.1-1.1-0.5-1.1c-0.7,0-1.7,1.6-3.7,4.5l-1.1-0.6
		c1.2-1.9,3.9-6.8,6.4-6.8c1.5,0,2.1,1.5,2.1,2.8c0,2.8-1.7,6.4-2.8,9.1l-0.5,1.1l0.1,0.1l6.2-10.1c0.9-1.2,2.2-2.9,3.8-2.9
		c1.7,0,2.3,1.7,2.3,3.1c0,1.7-0.9,4-1.5,5.7l-2.1,6.3c-0.1,0.3-0.5,1.3-0.5,1.7c0,0.3,0.2,0.5,0.5,0.5c1.2,0,3.1-3.3,3.7-4.2l1,0.6
		c-2.2,3.5-3.8,6-6.2,6c-1.3,0-2.2-1.1-2.2-2.3c0-1,0.5-2.5,0.8-3.6l2.5-7.1c0.2-0.6,0.7-2.1,0.7-2.7c0-0.4-0.2-1-0.7-1
		c-0.8,0-1.6,1.4-2,2l-8.7,14.3h-2.8L64.2,527.9z"/>
	<path class="st1" d="M97.4,525.2c0,6.5-5.5,13.5-10.3,13.5c-3.4,0-5.5-2.7-5.5-6c0-5.1,4.7-13.7,10.5-13.7
		C94.7,519.1,97.4,521.3,97.4,525.2z M84.8,534.6c0,1.6,0.7,2.9,2.4,2.9c4,0,7-10.7,7-14c0-1.5-0.5-3.2-2.3-3.2
		C87.8,520.4,84.8,531.4,84.8,534.6z"/>
	<path class="st1" d="M116.8,523.3c-0.7,2.9-1.8,7.3-1.8,10.3c0,0.8,0.1,2.8,1.3,2.8c2,0,5.8-7,5.8-10.8c0-1.9-1.4-2.6-1.4-4.3
		c0-1.1,0.7-2.2,1.8-2.2c1.6,0,2.2,2,2.2,3.2c0,4.3-4.3,16.5-9.5,16.5c-2.5,0-3.3-2.8-3.3-4.8c0-1.3,0.6-4.1,1.5-7.1l-0.1-0.1
		c-1.2,3.6-4.4,12-8.9,12c-1.8,0-2.9-1.7-2.9-3.3c0-1.4,0.4-2.7,0.8-4l2.2-6.7c0.1-0.3,0.5-1.5,0.5-1.8c0-0.3-0.1-0.7-0.4-0.7
		c-1,0-2.9,3.1-3.5,3.9l-1-0.7c1-1.7,4.2-6.4,6.3-6.4c1.5,0,2.1,1.1,2.1,2.5c0,1.3-0.7,3.2-1.1,4.3l-2.2,6.7
		c-0.2,0.7-0.5,1.5-0.5,2.1c0,0.6,0.3,1.2,1,1.2c3.6,0,8.1-13.2,9.1-16.3h3L116.8,523.3z"/>
	<path class="st1" d="M130.5,527.9c0.3-1,1.4-3.9,1.4-4.8c0-0.4-0.1-1.1-0.5-1.1c-0.7,0-1.7,1.6-3.7,4.5l-1.1-0.6
		c1.2-1.9,3.9-6.8,6.4-6.8c1.5,0,2.1,1.5,2.1,2.8c0,2.8-1.7,6.4-2.8,9.1l-0.5,1.1l0.1,0.1l6.2-10.1c0.9-1.2,2.2-2.9,3.8-2.9
		c1.7,0,2.3,1.7,2.3,3.1c0,1.7-0.9,4-1.5,5.7l-2.1,6.3c-0.1,0.3-0.5,1.3-0.5,1.7c0,0.3,0.2,0.5,0.5,0.5c1.2,0,3.1-3.3,3.7-4.2l1,0.6
		c-2.2,3.5-3.8,6-6.2,6c-1.3,0-2.2-1.1-2.2-2.3c0-1,0.5-2.5,0.8-3.6l2.5-7.1c0.2-0.6,0.7-2.1,0.7-2.7c0-0.4-0.2-1-0.7-1
		c-0.8,0-1.6,1.4-2,2l-8.7,14.3h-2.8L130.5,527.9z"/>
	<path class="st1" d="M173.2,519.6h3.4l-2.9,8.1c-0.4,1.2-2.3,6.6-2.3,7.6c0,0.3,0.2,0.6,0.5,0.6c0.7,0,2.1-1.3,3.8-4.3l1,0.6
		c-2.5,4.2-4.2,6.6-6.3,6.6c-1.3,0-2.2-1-2.2-2.3c0-1,0.2-1.8,0.5-2.6l-0.1-0.1c-1.1,2.6-3.1,5-6.2,5c-3,0-4.4-2.6-4.4-5.3
		c0-5.5,5.2-14.3,11.3-14.3c1.7,0,2.7,0.6,3.4,2.2L173.2,519.6z M171.7,523c0-1.2-0.6-2.1-1.8-2.1c-2.8,0-4.7,2.9-5.8,5.1
		c-1.1,2.2-2.5,6.1-2.5,8.5c0,1.2,0.6,2.3,1.9,2.3C167.2,536.8,171.7,526.2,171.7,523z"/>
	<path class="st1" d="M177.4,534.9c0-1,0.8-2,1.8-2c2.8,0,1.3,4.1,4.6,4.1c1.7,0,2.8-1.2,2.8-2.8c0-3.8-6.5-4.8-6.5-9.8
		c0-2.9,2.7-5.4,6.2-5.4c2,0,4.9,1.3,4.9,3.7c0,1-0.7,1.7-1.8,1.7c-1.9,0-1.8-3.7-4.2-3.7c-1.3,0-2.1,1.5-2.1,2.7
		c0,3.5,6.5,4.6,6.5,9.7c0,2.8-2.5,5.6-6.5,5.6C180.2,538.8,177.4,537,177.4,534.9z"/>
	<path class="st1" d="M213.8,510.7c-1.2,0.6-3.8,2.9-3.8,4.2c0,1.2,1.5,1.2,1.5,3c0,1.3-1.1,2.2-2.3,2.2c-1.5,0-2.3-1.3-2.3-2.6
		c0-3.5,3.5-6.2,6.4-7.7L213.8,510.7z"/>
	<path class="st1" d="M226,515c0.1-0.5,0.3-1.3,0.3-1.7c0-1.2-1.1-1-2.6-1l0.3-1.3l6.6-1.1l-6.5,23.8c-0.1,0.4-0.3,1.2-0.3,1.6
		c0,0.4,0.2,1,0.6,1c1.2,0,2.7-3.6,3.2-4.6l1.1,0.5c-1,2.2-3.1,6.5-6,6.5c-1.2,0-2.3-1.1-2.3-2.3c0-0.8,0.2-1.5,0.4-2.2l-0.1-0.1
		c-1.3,2.2-3.4,4.5-6.2,4.5c-2.7,0-3.8-2.9-3.8-5.2c0-6,5.9-14.5,10.7-14.5c1.2,0,2,0.4,3,1L226,515z M216.6,526.2
		c-1,2-2.2,5.8-2.2,8c0,0.9,0.2,2.6,1.5,2.6c3.8,0,7.7-10,7.7-13.2c0-1.3-0.5-2.7-2-2.7C219.3,520.9,217.4,524.5,216.6,526.2z"/>
	<path class="st1" d="M240,532.6c-1.3,2-3.4,6.2-6.2,6.2c-1.4,0-2.3-1.2-2.3-2.5c0-1,0.5-2.6,0.9-3.6l2.7-7.9
		c0.2-0.4,0.5-1.4,0.5-1.8c0-0.3-0.2-1-0.5-1c-0.8,0-2.7,3.3-3.2,4l-1.1-0.7c1.2-2,3.7-6.2,6.3-6.2c1.3,0,1.9,1.1,1.9,2.3
		c0,1.4-0.5,3-1,4.3l-2.9,8.7c-0.1,0.3-0.4,1.1-0.4,1.5c0,0.3,0.2,0.5,0.5,0.5c1.2,0,3.1-3.5,3.7-4.4L240,532.6z M239.3,509.8
		c1.3,0,2.3,1,2.3,2.3c0,1.3-1,2.3-2.3,2.3c-1.3,0-2.3-1-2.3-2.3C237,510.8,238,509.8,239.3,509.8z"/>
	<path class="st1" d="M245.3,531.6c-1.1-0.9-1.7-2.3-1.7-3.7c0-4.2,3.5-8.8,7.9-8.8c1.4,0,2.4,0.5,3.5,1.4c0.9-0.8,2.3-1.9,3.5-1.9
		c1,0,2,0.6,2,1.7c0,1.1-0.8,1.7-1.8,1.7c-0.8,0-1-0.4-1.6-0.4c-0.4,0-0.7,0.2-1,0.4c0.5,1,0.6,1.7,0.6,2.8c0,4-3.3,8.3-7.5,8.3
		c-0.8,0-1.5-0.2-2.3-0.5c-0.3,0.3-1.3,0.9-1.3,1.3c0,1.6,9.9,1,9.9,6.5c0,4.4-5.4,5.4-8.8,5.4c-5.4,0-8-2.3-8-4
		c0-2.5,3-3.7,4.9-4.5c-1-0.3-2.4-0.6-2.4-1.8c0-1.1,1.4-1.9,2.1-2.4L245.3,531.6z M241.8,541.8c0,2,3.7,2.4,5.1,2.4
		c1.6,0,5.3-0.4,5.3-2.7c0-2.4-4.4-2.8-6-3.3C244.8,538.7,241.8,540,241.8,541.8z M253.5,524.3c0-1.3-0.3-3.4-2.1-3.4
		c-3,0-4.6,4.9-4.6,7.3c0,1.5,0.5,3.3,2.2,3.3C250.5,531.5,253.5,529.7,253.5,524.3z"/>
	<path class="st1" d="M269.5,532.6c-1.3,2-3.4,6.2-6.2,6.2c-1.4,0-2.3-1.2-2.3-2.5c0-1,0.5-2.6,0.9-3.6l2.7-7.9
		c0.2-0.4,0.5-1.4,0.5-1.8c0-0.3-0.2-1-0.5-1c-0.8,0-2.7,3.3-3.2,4l-1.1-0.7c1.2-2,3.7-6.2,6.3-6.2c1.3,0,1.9,1.1,1.9,2.3
		c0,1.4-0.5,3-1,4.3l-2.9,8.7c-0.1,0.3-0.4,1.1-0.4,1.5c0,0.3,0.2,0.5,0.5,0.5c1.2,0,3.1-3.5,3.7-4.4L269.5,532.6z M268.8,509.8
		c1.3,0,2.3,1,2.3,2.3c0,1.3-1,2.3-2.3,2.3c-1.3,0-2.3-1-2.3-2.3C266.4,510.8,267.5,509.8,268.8,509.8z"/>
	<path class="st1" d="M281.5,513l-1.8,6.5h3.7l-0.6,2.1h-3.7l-3.3,12.5c-0.1,0.4-0.3,1.2-0.3,1.7c0,0.2,0.2,0.6,0.5,0.6
		c1.2,0,3-3.1,3.5-4.1l1.2,0.8c-1.2,2-3.4,5.6-6,5.6c-1.5,0-2.3-1-2.3-2.5c0-1.3,0.5-3.1,0.8-4.4l2.7-10.2h-3.3l0.6-2.1h3.3l2.1-6.5
		H281.5z"/>
	<path class="st1" d="M298.3,519.6h3.4l-2.9,8.1c-0.4,1.2-2.3,6.6-2.3,7.6c0,0.3,0.2,0.6,0.5,0.6c0.7,0,2.1-1.3,3.8-4.3l1,0.6
		c-2.5,4.2-4.2,6.6-6.3,6.6c-1.3,0-2.2-1-2.2-2.3c0-1,0.2-1.8,0.5-2.6l-0.1-0.1c-1.1,2.6-3.1,5-6.2,5c-3,0-4.4-2.6-4.4-5.3
		c0-5.5,5.2-14.3,11.3-14.3c1.7,0,2.7,0.6,3.4,2.2L298.3,519.6z M296.7,523c0-1.2-0.6-2.1-1.8-2.1c-2.8,0-4.7,2.9-5.8,5.1
		c-1.1,2.2-2.5,6.1-2.5,8.5c0,1.2,0.6,2.3,1.9,2.3C292.2,536.8,296.7,526.2,296.7,523z"/>
	<path class="st1" d="M307.6,534.1c-0.1,0.4-0.3,1.2-0.3,1.6c0,0.3,0.1,0.7,0.5,0.7c1,0,2.9-3.8,3.4-4.7l1.1,0.5
		c-1.1,2.1-3,6.6-5.8,6.6c-1.6,0-2.3-1.3-2.3-2.8c0-1,0.4-2.4,0.6-3.4l4.7-17.6c0.1-0.5,0.3-1.3,0.3-1.7c0-1.2-1.1-1-2.6-1l0.3-1.3
		l6.6-1.1L307.6,534.1z"/>
	<path class="st1" d="M339.9,515c0.1-0.5,0.3-1.3,0.3-1.7c0-1.2-1.1-1-2.6-1l0.3-1.3l6.6-1.1l-6.5,23.8c-0.1,0.4-0.3,1.2-0.3,1.6
		c0,0.4,0.2,1,0.6,1c1.2,0,2.7-3.6,3.2-4.6l1.1,0.5c-1,2.2-3.1,6.5-6,6.5c-1.2,0-2.3-1.1-2.3-2.3c0-0.8,0.2-1.5,0.4-2.2l-0.1-0.1
		c-1.3,2.2-3.4,4.5-6.2,4.5c-2.7,0-3.8-2.9-3.8-5.2c0-6,5.9-14.5,10.7-14.5c1.2,0,2,0.4,3,1L339.9,515z M330.6,526.2
		c-1,2-2.2,5.8-2.2,8c0,0.9,0.2,2.6,1.5,2.6c3.8,0,7.7-10,7.7-13.2c0-1.3-0.5-2.7-2-2.7C333.3,520.9,331.4,524.5,330.6,526.2z"/>
	<path class="st1" d="M357.9,533.1c-1.6,2.7-4.5,5.7-7.9,5.7c-3.4,0-5.2-2.9-5.2-6.1c0-5.1,5-13.5,10.6-13.5c2,0,3.7,1.2,3.7,3.4
		c0,4.8-6.7,8.2-10.6,9.5c-0.1,0.6-0.1,1.2-0.1,1.7c0,2.9,1,3.4,2.3,3.4c2.4,0,5-2.7,6.2-4.6L357.9,533.1z M356.5,522.4
		c0-0.8-0.4-1.6-1.3-1.6c-1.9,0-5.4,3.7-6.5,9.7C351.7,529.6,356.5,525.9,356.5,522.4z"/>
	<path class="st1" d="M373.6,533.9c-1.6,2.1-4.7,4.9-7.4,4.9c-3.3,0-5.3-3-5.3-6c0-5.8,5.8-13.6,10.7-13.6c2.1,0,3.7,1.6,3.7,3.7
		c0,1.2-0.7,2.4-2,2.4c-1,0-1.6-1.1-1.6-2c0-0.4,0.1-0.8,0.1-1.3c0-0.6-0.4-1.1-1-1.1c-2,0-6.4,7.3-6.4,13.2c0,1.4,0.4,3,2.1,3
		c2.3,0,4.7-2.4,6.1-4L373.6,533.9z"/>
	<path class="st1" d="M391.6,519.6h3.4l-2.9,8.1c-0.4,1.2-2.3,6.6-2.3,7.6c0,0.3,0.2,0.6,0.5,0.6c0.7,0,2.1-1.3,3.8-4.3l1,0.6
		c-2.5,4.2-4.2,6.6-6.3,6.6c-1.3,0-2.2-1-2.2-2.3c0-1,0.2-1.8,0.5-2.6l-0.1-0.1c-1.1,2.6-3.1,5-6.2,5c-3,0-4.4-2.6-4.4-5.3
		c0-5.5,5.2-14.3,11.3-14.3c1.7,0,2.7,0.6,3.4,2.2L391.6,519.6z M390,523c0-1.2-0.6-2.1-1.8-2.1c-2.8,0-4.7,2.9-5.8,5.1
		c-1.1,2.2-2.5,6.1-2.5,8.5c0,1.2,0.6,2.3,1.9,2.3C385.5,536.8,390,526.2,390,523z"/>
	<path class="st1" d="M405.7,533.8c1.1-1.9,3.5-6.5,3.5-8.5c0-2-1-2.7-1-4c0-1.1,0.8-2.1,1.9-2.1c1.6,0,2.1,1.7,2.1,3
		c0,3.7-3.7,10.5-5.7,13.8c-2.1,3.5-6.3,9.7-10.9,9.7c-1.2,0-2.4-0.6-2.4-1.9c0-1.2,1.3-1.9,2.3-1.9c1,0,1.8,0.4,2.7,0.4
		c2,0,3.9-3,5-4.5l-2.5-13.9c-0.1-0.4-0.1-1.5-0.7-1.5c-0.8,0-1.6,3-1.9,3.6l-1.2-0.3c0.8-1.8,2.3-6.5,4.7-6.5
		c1.7,0,1.8,2.5,2.1,3.7L405.7,533.8z"/>
	<path class="st1" d="M414.9,519.2c1.2-0.6,3.8-2.9,3.8-4.2c0-1.2-1.5-1.2-1.5-3c0-1.3,1.1-2.2,2.3-2.2c1.5,0,2.3,1.3,2.3,2.6
		c0,3.5-3.5,6.2-6.4,7.7L414.9,519.2z"/>
	<path class="st1" d="M469.3,526.9l-0.8,2.9h-38.5l0.8-2.9H469.3z"/>
	<path class="st1" d="M494.9,519.6h3.4l-2.9,8.1c-0.4,1.2-2.3,6.6-2.3,7.6c0,0.3,0.2,0.6,0.5,0.6c0.7,0,2.1-1.3,3.8-4.3l1,0.6
		c-2.5,4.2-4.2,6.6-6.3,6.6c-1.3,0-2.2-1-2.2-2.3c0-1,0.2-1.8,0.5-2.6l-0.1-0.1c-1.1,2.6-3.1,5-6.2,5c-3,0-4.4-2.6-4.4-5.3
		c0-5.5,5.2-14.3,11.3-14.3c1.7,0,2.7,0.6,3.4,2.2L494.9,519.6z M493.3,523c0-1.2-0.6-2.1-1.8-2.1c-2.8,0-4.7,2.9-5.8,5.1
		c-1.1,2.2-2.5,6.1-2.5,8.5c0,1.2,0.6,2.3,1.9,2.3C488.8,536.8,493.3,526.2,493.3,523z"/>
	<path class="st1" d="M504.8,527.9c0.3-1,1.4-3.9,1.4-4.8c0-0.4-0.1-1.1-0.5-1.1c-0.7,0-1.7,1.6-3.7,4.5l-1.1-0.6
		c1.2-1.9,3.9-6.8,6.4-6.8c1.5,0,2.1,1.5,2.1,2.8c0,2.8-1.7,6.4-2.8,9.1l-0.5,1.1l0.1,0.1l6.2-10.1c0.9-1.2,2.2-2.9,3.8-2.9
		c1.7,0,2.3,1.7,2.3,3.1c0,1.7-0.9,4-1.5,5.7l-2.1,6.3c-0.1,0.3-0.5,1.3-0.5,1.7c0,0.3,0.2,0.5,0.5,0.5c1.2,0,3.1-3.3,3.7-4.2l1,0.6
		c-2.2,3.5-3.8,6-6.2,6c-1.3,0-2.2-1.1-2.2-2.3c0-1,0.5-2.5,0.8-3.6l2.5-7.1c0.2-0.6,0.7-2.1,0.7-2.7c0-0.4-0.2-1-0.7-1
		c-0.8,0-1.6,1.4-2,2l-8.7,14.3h-2.8L504.8,527.9z"/>
	<path class="st1" d="M530.6,533.8c1.1-1.9,3.5-6.5,3.5-8.5c0-2-1-2.7-1-4c0-1.1,0.8-2.1,1.9-2.1c1.6,0,2.1,1.7,2.1,3
		c0,3.7-3.7,10.5-5.7,13.8c-2.1,3.5-6.3,9.7-10.9,9.7c-1.2,0-2.4-0.6-2.4-1.9c0-1.2,1.3-1.9,2.3-1.9c1,0,1.8,0.4,2.7,0.4
		c2,0,3.9-3,5-4.5l-2.5-13.9c-0.1-0.4-0.1-1.5-0.7-1.5c-0.8,0-1.6,3-1.9,3.6l-1.2-0.3c0.8-1.8,2.3-6.5,4.7-6.5
		c1.7,0,1.8,2.5,2.1,3.7L530.6,533.8z"/>
	<path class="st1" d="M547.2,513l-1.8,6.5h3.7l-0.6,2.1h-3.7l-3.3,12.5c-0.1,0.4-0.3,1.2-0.3,1.7c0,0.2,0.2,0.6,0.5,0.6
		c1.2,0,3-3.1,3.5-4.1l1.2,0.8c-1.2,2-3.4,5.6-6,5.6c-1.5,0-2.3-1-2.3-2.5c0-1.3,0.5-3.1,0.8-4.4l2.7-10.2h-3.3l0.6-2.1h3.3l2.1-6.5
		H547.2z"/>
	<path class="st1" d="M554.2,515c0.1-0.5,0.3-1.3,0.3-1.7c0-0.8-0.4-1.1-2.5-1l0.3-1.3l6.3-1.1l-5.7,21.2l0.1,0.1
		c1.5-2.8,6.4-12.1,9.7-12.1c1.5,0,2.5,1.5,2.5,2.9c0,1.1-0.6,3-1,4.1l-2.9,8.6c-0.1,0.3-0.3,0.8-0.3,1.1c0,0.3,0.2,0.6,0.5,0.6
		c1.2,0,3-3.4,3.7-4.4l1.1,0.7c-1.3,2-3.5,6.1-6.3,6.1c-1.5,0-2.2-1.3-2.2-2.7c0-1,0.4-2.2,0.7-3l2.7-7.9c0.2-0.7,0.6-1.6,0.6-2.3
		c0-0.4-0.2-0.9-0.7-0.9c-1.3,0-4.2,4.6-4.6,5.3c-2.5,5-4.4,7.8-5.6,11H548L554.2,515z"/>
	<path class="st1" d="M578.5,532.6c-1.3,2-3.4,6.2-6.2,6.2c-1.4,0-2.3-1.2-2.3-2.5c0-1,0.5-2.6,0.9-3.6l2.7-7.9
		c0.2-0.4,0.5-1.4,0.5-1.8c0-0.3-0.2-1-0.5-1c-0.8,0-2.7,3.3-3.2,4l-1.1-0.7c1.2-2,3.7-6.2,6.3-6.2c1.3,0,1.9,1.1,1.9,2.3
		c0,1.4-0.5,3-1,4.3l-2.9,8.7c-0.1,0.3-0.4,1.1-0.4,1.5c0,0.3,0.2,0.5,0.5,0.5c1.2,0,3.1-3.5,3.7-4.4L578.5,532.6z M577.8,509.8
		c1.3,0,2.3,1,2.3,2.3c0,1.3-1,2.3-2.3,2.3c-1.3,0-2.3-1-2.3-2.3C575.5,510.8,576.5,509.8,577.8,509.8z"/>
	<path class="st1" d="M585.1,527.9c0.3-1,1.4-3.9,1.4-4.8c0-0.4-0.1-1.1-0.5-1.1c-0.7,0-1.7,1.6-3.7,4.5l-1.1-0.6
		c1.2-1.9,3.9-6.8,6.4-6.8c1.5,0,2.1,1.5,2.1,2.8c0,2.8-1.7,6.4-2.8,9.1l-0.5,1.1l0.1,0.1l6.2-10.1c0.9-1.2,2.2-2.9,3.8-2.9
		c1.7,0,2.3,1.7,2.3,3.1c0,1.7-0.9,4-1.5,5.7l-2.1,6.3c-0.1,0.3-0.5,1.3-0.5,1.7c0,0.3,0.2,0.5,0.5,0.5c1.2,0,3.1-3.3,3.7-4.2l1,0.6
		c-2.2,3.5-3.8,6-6.2,6c-1.3,0-2.2-1.1-2.2-2.3c0-1,0.5-2.5,0.8-3.6l2.5-7.1c0.2-0.6,0.7-2.1,0.7-2.7c0-0.4-0.2-1-0.7-1
		c-0.8,0-1.6,1.4-2,2l-8.7,14.3h-2.8L585.1,527.9z"/>
	<path class="st1" d="M605.4,531.6c-1.1-0.9-1.7-2.3-1.7-3.7c0-4.2,3.5-8.8,7.9-8.8c1.4,0,2.4,0.5,3.5,1.4c0.9-0.8,2.3-1.9,3.5-1.9
		c1,0,2,0.6,2,1.7c0,1.1-0.8,1.7-1.8,1.7c-0.8,0-1-0.4-1.6-0.4c-0.4,0-0.7,0.2-1,0.4c0.5,1,0.6,1.7,0.6,2.8c0,4-3.3,8.3-7.5,8.3
		c-0.8,0-1.5-0.2-2.3-0.5c-0.3,0.3-1.3,0.9-1.3,1.3c0,1.6,9.9,1,9.9,6.5c0,4.4-5.4,5.4-8.8,5.4c-5.4,0-8-2.3-8-4
		c0-2.5,3-3.7,4.9-4.5c-1-0.3-2.4-0.6-2.4-1.8c0-1.1,1.4-1.9,2.1-2.4L605.4,531.6z M601.9,541.8c0,2,3.7,2.4,5.1,2.4
		c1.6,0,5.3-0.4,5.3-2.7c0-2.4-4.4-2.8-6-3.3C604.9,538.7,601.9,540,601.9,541.8z M613.6,524.3c0-1.3-0.3-3.4-2.1-3.4
		c-3,0-4.6,4.9-4.6,7.3c0,1.5,0.5,3.3,2.2,3.3C610.6,531.5,613.6,529.7,613.6,524.3z"/>
	<path class="st1" d="M628.7,534.9c0-1,0.8-2,1.8-2c2.8,0,1.3,4.1,4.6,4.1c1.7,0,2.8-1.2,2.8-2.8c0-3.8-6.5-4.8-6.5-9.8
		c0-2.9,2.7-5.4,6.2-5.4c2,0,4.9,1.3,4.9,3.7c0,1-0.7,1.7-1.8,1.7c-1.9,0-1.8-3.7-4.2-3.7c-1.3,0-2.1,1.5-2.1,2.7
		c0,3.5,6.5,4.6,6.5,9.7c0,2.8-2.5,5.6-6.5,5.6C631.5,538.8,628.7,537,628.7,534.9z"/>
	<path class="st1" d="M653.5,513l-1.8,6.5h3.7l-0.6,2.1h-3.7l-3.3,12.5c-0.1,0.4-0.3,1.2-0.3,1.7c0,0.2,0.2,0.6,0.5,0.6
		c1.2,0,3-3.1,3.5-4.1l1.2,0.8c-1.2,2-3.4,5.6-6,5.6c-1.5,0-2.3-1-2.3-2.5c0-1.3,0.5-3.1,0.8-4.4l2.7-10.2h-3.3l0.6-2.1h3.3l2.1-6.5
		H653.5z"/>
	<path class="st1" d="M671.2,525.2c0,6.5-5.5,13.5-10.3,13.5c-3.4,0-5.5-2.7-5.5-6c0-5.1,4.7-13.7,10.5-13.7
		C668.4,519.1,671.2,521.3,671.2,525.2z M658.5,534.6c0,1.6,0.7,2.9,2.4,2.9c4,0,7-10.7,7-14c0-1.5-0.5-3.2-2.3-3.2
		C661.6,520.4,658.5,531.4,658.5,534.6z"/>
	<path class="st1" d="M676.8,538.4H674l4.5-13.2c0.2-0.7,0.5-1.5,0.5-2.2c0-0.3-0.2-1-0.5-1c-1.2,0-3,3.6-3.7,4.5l-1-0.7
		c1.2-1.8,3.8-6.8,6.3-6.8c1.4,0,2.1,1.1,2.1,2.4c0,1.5-0.9,4.2-1.5,5.6l-1.2,3.3l0.1,0.1c1.4-2.4,5.3-11.4,8.5-11.4
		c1,0,1.8,0.8,1.8,1.8c0,1.6-1.4,2.3-2.8,2.5c-1.3,0.2-1.8,0.5-2.7,1.5c-1.7,2-4,6.5-5.3,9L676.8,538.4z"/>
	<path class="st1" d="M702.2,533.1c-1.6,2.7-4.5,5.7-7.9,5.7c-3.4,0-5.2-2.9-5.2-6.1c0-5.1,5-13.5,10.6-13.5c2,0,3.7,1.2,3.7,3.4
		c0,4.8-6.7,8.2-10.6,9.5c-0.1,0.6-0.1,1.2-0.1,1.7c0,2.9,1,3.4,2.3,3.4c2.4,0,5-2.7,6.2-4.6L702.2,533.1z M700.8,522.4
		c0-0.8-0.4-1.6-1.3-1.6c-1.9,0-5.4,3.7-6.5,9.7C696.1,529.6,700.8,525.9,700.8,522.4z"/>
	<path class="st1" d="M720,515c0.1-0.5,0.3-1.3,0.3-1.7c0-1.2-1.1-1-2.6-1l0.3-1.3l6.6-1.1l-6.5,23.8c-0.1,0.4-0.3,1.2-0.3,1.6
		c0,0.4,0.2,1,0.6,1c1.2,0,2.7-3.6,3.2-4.6l1.1,0.5c-1,2.2-3.1,6.5-6,6.5c-1.2,0-2.3-1.1-2.3-2.3c0-0.8,0.2-1.5,0.4-2.2l-0.1-0.1
		c-1.3,2.2-3.4,4.5-6.2,4.5c-2.7,0-3.8-2.9-3.8-5.2c0-6,5.9-14.5,10.7-14.5c1.2,0,2,0.4,3,1L720,515z M710.6,526.2
		c-1,2-2.2,5.8-2.2,8c0,0.9,0.2,2.6,1.5,2.6c3.8,0,7.7-10,7.7-13.2c0-1.3-0.5-2.7-2-2.7C713.4,520.9,711.4,524.5,710.6,526.2z"/>
	<path class="st1" d="M744.4,532.6c-1.3,2-3.4,6.2-6.2,6.2c-1.4,0-2.3-1.2-2.3-2.5c0-1,0.5-2.6,0.9-3.6l2.7-7.9
		c0.2-0.4,0.5-1.4,0.5-1.8c0-0.3-0.2-1-0.5-1c-0.8,0-2.7,3.3-3.2,4l-1.1-0.7c1.2-2,3.7-6.2,6.3-6.2c1.3,0,1.9,1.1,1.9,2.3
		c0,1.4-0.5,3-1,4.3l-2.9,8.7c-0.1,0.3-0.4,1.1-0.4,1.5c0,0.3,0.2,0.5,0.5,0.5c1.2,0,3.1-3.5,3.7-4.4L744.4,532.6z M743.8,509.8
		c1.3,0,2.3,1,2.3,2.3c0,1.3-1,2.3-2.3,2.3c-1.3,0-2.3-1-2.3-2.3C741.4,510.8,742.4,509.8,743.8,509.8z"/>
	<path class="st1" d="M751.1,527.9c0.3-1,1.4-3.9,1.4-4.8c0-0.4-0.1-1.1-0.5-1.1c-0.7,0-1.7,1.6-3.7,4.5l-1.1-0.6
		c1.2-1.9,3.9-6.8,6.4-6.8c1.5,0,2.1,1.5,2.1,2.8c0,2.8-1.7,6.4-2.8,9.1l-0.5,1.1l0.1,0.1l6.2-10.1c0.9-1.2,2.2-2.9,3.8-2.9
		c1.7,0,2.3,1.7,2.3,3.1c0,1.7-0.9,4-1.5,5.7l-2.1,6.3c-0.1,0.3-0.5,1.3-0.5,1.7c0,0.3,0.2,0.5,0.5,0.5c1.2,0,3.1-3.3,3.7-4.2l1,0.6
		c-2.2,3.5-3.8,6-6.2,6c-1.3,0-2.2-1.1-2.2-2.3c0-1,0.5-2.5,0.8-3.6l2.5-7.1c0.2-0.6,0.7-2.1,0.7-2.7c0-0.4-0.2-1-0.7-1
		c-0.8,0-1.6,1.4-2,2l-8.7,14.3h-2.8L751.1,527.9z"/>
	<path class="st1" d="M791.7,533.9c-1.6,2.1-4.7,4.9-7.4,4.9c-3.3,0-5.3-3-5.3-6c0-5.8,5.8-13.6,10.7-13.6c2.1,0,3.7,1.6,3.7,3.7
		c0,1.2-0.7,2.4-2,2.4c-1,0-1.6-1.1-1.6-2c0-0.4,0.1-0.8,0.1-1.3c0-0.6-0.4-1.1-1-1.1c-2,0-6.4,7.3-6.4,13.2c0,1.4,0.4,3,2.1,3
		c2.3,0,4.7-2.4,6.1-4L791.7,533.9z"/>
	<path class="st1" d="M810.6,525.2c0,6.5-5.5,13.5-10.3,13.5c-3.4,0-5.5-2.7-5.5-6c0-5.1,4.7-13.7,10.5-13.7
		C807.8,519.1,810.6,521.3,810.6,525.2z M797.9,534.6c0,1.6,0.7,2.9,2.4,2.9c4,0,7-10.7,7-14c0-1.5-0.5-3.2-2.3-3.2
		C801,520.4,797.9,531.4,797.9,534.6z"/>
	<path class="st1" d="M817.9,524.9c0.2-0.5,0.5-1.5,0.5-2c0-0.3-0.1-0.9-0.5-0.9c-0.8,0-2.2,2.3-2.7,3l-0.9,1.4l-1.1-0.6
		c2.5-4.1,4.3-6.7,6.3-6.7c1.5,0,2.1,1.5,2.1,2.9c0,1.6-1.2,4.6-1.7,6.1l-1.8,4.5l0.1,0.1l4.4-7.8c1.2-1.9,3.7-5.8,6.2-5.8
		c1.7,0,2.5,1.3,2.5,2.9c0,1.7-1.1,4.5-1.7,6.1l-1.8,4.5l0.1,0.1l0.3-0.7c1.7-3.1,6.6-12.9,10.5-12.9c1.7,0,2.3,1.2,2.3,2.8
		c0,2-1,4.3-1.6,6.2l-2.2,6.1c-0.2,0.5-0.4,1.2-0.4,1.7c0,0.3,0.2,0.5,0.5,0.5c0.7,0,1.9-1.3,3.7-4.3l1.1,0.6
		c-1.3,2-3.5,6.1-6.1,6.1c-1.5,0-2.4-1.1-2.4-2.5c0-1.1,0.5-2.5,0.9-3.5l2.8-7.8c0.2-0.5,0.6-1.4,0.6-1.9c0-0.5-0.3-1-0.8-1
		c-0.6,0-2.3,0.8-7,9l-4.2,7.4h-2.8l4.7-13.4c0.2-0.5,0.5-1.5,0.5-2.1c0-0.5-0.3-0.8-0.8-0.8c-1.1,0-1.5,0-6.3,8.1l-4.8,8.2h-2.9
		L817.9,524.9z"/>
	<path class="st1" d="M855.1,513.7l-1.5,5.9c0.7-0.2,1.5-0.5,2.3-0.5c3.7,0,5.4,3,5.4,6.4s-1.7,7.2-4,9.6c-2.4,2.4-5.3,3.5-8.7,3.4
		l-0.3,1c-0.2,0.6-0.7,2.3-0.7,3c0,1.4,1.3,1.2,2.3,1.3l-0.3,1.3h-8.4l0.3-1.3c2-0.1,2.5-0.2,3.1-2.5l4.9-18.5
		c-1.1,0.8-2.5,1.7-3.8,2.7l-0.8-1c1.5-1.5,3.2-2.8,5.2-3.8l2.3-7H855.1z M848.9,536.9c2.2,0,4.1-0.6,5.7-2.3c1.9-2.2,3.5-6.1,3.5-9
		c0-2.1-1-4.5-3.4-4.5c-0.5,0-1.1,0.1-1.6,0.3L848.9,536.9z"/>
	<path class="st1" d="M878.6,531.4c-0.3,0.8-1.1,3.1-1.1,3.9c0,0.3,0.2,1.1,0.5,1.1c1,0,3.1-3.7,3.7-4.6l1.1,0.7
		c-1.2,2-3.9,6.3-6.4,6.3c-1.4,0-2.1-1.2-2.1-2.3c0-1.8,1.2-4.8,1.8-6.5l1.6-3.8l-0.1-0.1l-5.4,8.9c-1,1.4-2.8,3.8-4.7,3.8
		c-1.8,0-2.5-1.5-2.5-3.1c0-1.3,0.9-3.6,1.4-4.9l2.4-6.7c0.2-0.4,0.5-1.3,0.5-1.8c0-0.3-0.2-0.3-0.5-0.3c-1,0-3.1,3.2-3.7,4
		l-1.1-0.8c1.3-1.8,3.7-6.1,6.2-6.1c1.4,0,2.3,1.3,2.3,2.7c0,1.2-0.9,3.5-1.3,4.7l-2.3,6.2c-0.2,0.7-0.8,2-0.8,2.7
		c0,0.4,0.3,1,0.7,1c0.9,0,1.9-1.8,2.4-2.5l8.7-14.4h2.8L878.6,531.4z"/>
	<path class="st1" d="M894.9,513l-1.8,6.5h3.7l-0.6,2.1h-3.7l-3.3,12.5c-0.1,0.4-0.3,1.2-0.3,1.7c0,0.2,0.2,0.6,0.5,0.6
		c1.2,0,3-3.1,3.5-4.1l1.2,0.8c-1.2,2-3.4,5.6-6,5.6c-1.5,0-2.3-1-2.3-2.5c0-1.3,0.5-3.1,0.8-4.4l2.7-10.2h-3.3l0.6-2.1h3.3l2.1-6.5
		H894.9z"/>
	<path class="st1" d="M910.2,533.1c-1.6,2.7-4.5,5.7-7.9,5.7c-3.4,0-5.2-2.9-5.2-6.1c0-5.1,5-13.5,10.6-13.5c2,0,3.7,1.2,3.7,3.4
		c0,4.8-6.7,8.2-10.6,9.5c-0.1,0.6-0.1,1.2-0.1,1.7c0,2.9,1,3.4,2.3,3.4c2.4,0,5-2.7,6.2-4.6L910.2,533.1z M908.8,522.4
		c0-0.8-0.4-1.6-1.3-1.6c-1.9,0-5.4,3.7-6.5,9.7C904.1,529.6,908.8,525.9,908.8,522.4z"/>
	<path class="st1" d="M916.4,538.4h-2.8l4.5-13.2c0.2-0.7,0.5-1.5,0.5-2.2c0-0.3-0.2-1-0.5-1c-1.2,0-3,3.6-3.7,4.5l-1-0.7
		c1.2-1.8,3.8-6.8,6.3-6.8c1.4,0,2.1,1.1,2.1,2.4c0,1.5-0.9,4.2-1.5,5.6l-1.2,3.3l0.1,0.1c1.4-2.4,5.3-11.4,8.5-11.4
		c1,0,1.8,0.8,1.8,1.8c0,1.6-1.4,2.3-2.8,2.5c-1.3,0.2-1.8,0.5-2.7,1.5c-1.7,2-4,6.5-5.3,9L916.4,538.4z"/>
	<path class="st1" d="M937.9,532.6c-1.3,2-3.4,6.2-6.2,6.2c-1.4,0-2.3-1.2-2.3-2.5c0-1,0.5-2.6,0.9-3.6l2.7-7.9
		c0.2-0.4,0.5-1.4,0.5-1.8c0-0.3-0.2-1-0.5-1c-0.8,0-2.7,3.3-3.2,4l-1.1-0.7c1.2-2,3.7-6.2,6.3-6.2c1.3,0,1.9,1.1,1.9,2.3
		c0,1.4-0.5,3-1,4.3l-2.9,8.7c-0.1,0.3-0.4,1.1-0.4,1.5c0,0.3,0.2,0.5,0.5,0.5c1.2,0,3.1-3.5,3.7-4.4L937.9,532.6z M937.2,509.8
		c1.3,0,2.3,1,2.3,2.3c0,1.3-1,2.3-2.3,2.3c-1.3,0-2.3-1-2.3-2.3C934.9,510.8,935.9,509.8,937.2,509.8z"/>
	<path class="st1" d="M941.2,525.3c1.1-2.2,2.8-6.2,5.6-6.2c2.1,0,3.6,1.9,5.3,1.9c0.9,0,1.6-0.5,1.9-1.5h1.4
		c-2.2,5.3-5.5,9.2-11.7,13.7c-0.7,0.5-1.3,1-1.7,1.7l0.1,0.1c0.6-0.6,1.4-1.1,2.3-1.1c1.3,0,2.2,0.7,3,1.4c0.8,0.7,1.4,1.5,2.1,1.5
		c0.3,0,0.5-0.2,0.5-0.5c0-0.5-0.7-1.2-0.7-1.9c0-0.9,0.7-1.5,1.6-1.5c1.2,0,1.9,1.1,1.9,2.3c0,2.2-1.8,3.7-4,3.7c-2.7,0-5.2-2-7-2
		c-1.2,0-2,0.8-2.3,2h-1.3c1.7-7,8.1-11,13.2-15.4l-0.1-0.1c-0.4,0.2-0.8,0.3-1.4,0.3c-0.9,0-1.6-0.3-2.2-0.7
		c-0.6-0.3-1.2-0.6-2-0.6c-1.7,0-2.7,2-3.4,3.4L941.2,525.3z"/>
	<path class="st1" d="M968.7,533.1c-1.6,2.7-4.5,5.7-7.9,5.7c-3.4,0-5.2-2.9-5.2-6.1c0-5.1,5-13.5,10.6-13.5c2,0,3.7,1.2,3.7,3.4
		c0,4.8-6.7,8.2-10.6,9.5c-0.1,0.6-0.1,1.2-0.1,1.7c0,2.9,1,3.4,2.3,3.4c2.4,0,5-2.7,6.2-4.6L968.7,533.1z M967.3,522.4
		c0-0.8-0.4-1.6-1.3-1.6c-1.9,0-5.4,3.7-6.5,9.7C962.6,529.6,967.3,525.9,967.3,522.4z"/>
	<path class="st1" d="M986.5,515c0.1-0.5,0.3-1.3,0.3-1.7c0-1.2-1.1-1-2.6-1l0.3-1.3l6.6-1.1l-6.5,23.8c-0.1,0.4-0.3,1.2-0.3,1.6
		c0,0.4,0.2,1,0.6,1c1.2,0,2.7-3.6,3.2-4.6l1.1,0.5c-1,2.2-3.1,6.5-6,6.5c-1.2,0-2.3-1.1-2.3-2.3c0-0.8,0.2-1.5,0.4-2.2l-0.1-0.1
		c-1.3,2.2-3.4,4.5-6.2,4.5c-2.7,0-3.8-2.9-3.8-5.2c0-6,5.9-14.5,10.7-14.5c1.2,0,2,0.4,3,1L986.5,515z M977.2,526.2
		c-1,2-2.2,5.8-2.2,8c0,0.9,0.2,2.6,1.5,2.6c3.8,0,7.7-10,7.7-13.2c0-1.3-0.5-2.7-2-2.7C979.9,520.9,978,524.5,977.2,526.2z"/>
	<path class="st1" d="M126,574.8l-0.5,2.1h-4.3l-1.3,5.3c-3.1,12.7-7.3,17.3-10.1,17.3c-1.1,0-2.1-0.6-2.1-1.8c0-1.2,1-1.8,2.1-1.8
		l1.5,0.1c0.9,0,1.5-0.3,1.9-1.2c0.5-1.2,0.9-3.3,1.2-4.6l3.6-13.2h-3.3l0.5-2.1h3.3c1.1-3.7,4.7-10.2,9.1-10.2
		c1.2,0,2.8,0.8,2.8,2.3c0,1.1-1.1,1.7-2,1.7c-1.1,0-1.8-1.1-2.7-1.1c-2.3,0-3.3,5.5-3.9,7.3H126z"/>
	<path class="st1" d="M139.7,580.1c0,6.5-5.5,13.5-10.3,13.5c-3.4,0-5.5-2.7-5.5-6c0-5.1,4.7-13.7,10.5-13.7
		C136.9,574,139.7,576.2,139.7,580.1z M127,589.5c0,1.6,0.7,2.9,2.4,2.9c4,0,7-10.7,7-14c0-1.5-0.5-3.2-2.3-3.2
		C130,575.3,127,586.3,127,589.5z"/>
	<path class="st1" d="M145.3,593.3h-2.8l4.5-13.2c0.2-0.7,0.5-1.5,0.5-2.2c0-0.3-0.2-1-0.5-1c-1.2,0-3,3.6-3.7,4.5l-1-0.7
		c1.2-1.8,3.8-6.8,6.3-6.8c1.4,0,2.1,1.1,2.1,2.4c0,1.5-0.9,4.2-1.5,5.6l-1.2,3.3l0.1,0.1c1.4-2.4,5.3-11.4,8.5-11.4
		c1,0,1.8,0.8,1.8,1.8c0,1.6-1.4,2.3-2.8,2.5c-1.3,0.2-1.8,0.5-2.7,1.5c-1.7,2-4,6.5-5.3,9L145.3,593.3z"/>
	<path class="st1" d="M163.1,579.8c0.2-0.5,0.5-1.5,0.5-2c0-0.3-0.1-0.9-0.5-0.9c-0.8,0-2.2,2.3-2.7,3l-0.9,1.4l-1.1-0.6
		c2.5-4.1,4.3-6.7,6.3-6.7c1.5,0,2.1,1.5,2.1,2.9c0,1.6-1.2,4.6-1.7,6.1l-1.8,4.5l0.1,0.1l4.4-7.8c1.2-1.9,3.7-5.8,6.2-5.8
		c1.7,0,2.5,1.3,2.5,2.9c0,1.7-1.1,4.5-1.7,6.1l-1.8,4.5l0.1,0.1l0.3-0.7c1.7-3.1,6.6-12.9,10.5-12.9c1.7,0,2.3,1.2,2.3,2.8
		c0,2-1,4.3-1.6,6.2l-2.2,6.1c-0.2,0.5-0.4,1.2-0.4,1.7c0,0.3,0.2,0.5,0.5,0.5c0.7,0,1.9-1.3,3.7-4.3l1.1,0.6
		c-1.3,2-3.5,6.1-6.1,6.1c-1.5,0-2.4-1.1-2.4-2.5c0-1.1,0.5-2.5,0.9-3.5l2.8-7.8c0.2-0.5,0.6-1.4,0.6-1.9c0-0.5-0.3-1-0.8-1
		c-0.6,0-2.3,0.8-7,9l-4.2,7.4H168l4.7-13.4c0.2-0.5,0.5-1.5,0.5-2.1c0-0.5-0.3-0.8-0.8-0.8c-1.1,0-1.5,0-6.3,8.1l-4.8,8.2h-2.9
		L163.1,579.8z"/>
	<path class="st1" d="M209.6,587.5c-1.3,2-3.4,6.2-6.2,6.2c-1.4,0-2.3-1.2-2.3-2.5c0-1,0.5-2.6,0.9-3.6l2.7-7.9
		c0.2-0.4,0.5-1.4,0.5-1.8c0-0.3-0.2-1-0.5-1c-0.8,0-2.7,3.3-3.2,4l-1.1-0.7c1.2-2,3.7-6.2,6.3-6.2c1.3,0,1.9,1.1,1.9,2.3
		c0,1.4-0.5,3-1,4.3l-2.9,8.7c-0.1,0.3-0.4,1.1-0.4,1.5c0,0.3,0.2,0.5,0.5,0.5c1.2,0,3.1-3.5,3.7-4.4L209.6,587.5z M209,564.7
		c1.3,0,2.3,1,2.3,2.3c0,1.3-1,2.3-2.3,2.3c-1.3,0-2.3-1-2.3-2.3C206.6,565.7,207.6,564.7,209,564.7z"/>
	<path class="st1" d="M210.5,589.8c0-1,0.8-2,1.8-2c2.8,0,1.3,4.1,4.6,4.1c1.7,0,2.8-1.2,2.8-2.8c0-3.8-6.5-4.8-6.5-9.8
		c0-2.9,2.7-5.4,6.2-5.4c2,0,4.9,1.3,4.9,3.7c0,1-0.7,1.7-1.8,1.7c-1.9,0-1.8-3.7-4.2-3.7c-1.3,0-2.1,1.5-2.1,2.7
		c0,3.5,6.5,4.6,6.5,9.7c0,2.8-2.5,5.6-6.5,5.6C213.3,593.7,210.5,591.9,210.5,589.8z"/>
	<path class="st1" d="M236.5,580.4c1.1-2,4-6.4,6.4-6.4c1.4,0,1.9,1.2,1.9,2.4c0,1.1-0.7,3.3-1.1,4.4l-2,6.4c-0.2,0.7-0.7,2-0.7,2.8
		c0,0.8,0.5,1.7,1.3,1.7c2.8,0,7.6-6.3,7.6-11.1c0-1.9-1.5-3-1.5-4.4c0-1.2,0.7-2.2,1.8-2.2c1.7,0,2.1,2.5,2.1,3.8
		c0,5.4-4.7,15.9-11,15.9c-1.7,0-3.5-1.1-3.5-3.4c0-1.4,0.8-3.7,1.2-5l1.9-5.9c0.1-0.3,0.4-1.1,0.4-1.5c0-0.3-0.2-0.6-0.5-0.6
		c-0.9,0-3,3.1-3.4,3.9L236.5,580.4z"/>
	<path class="st1" d="M269.1,586.3c-0.3,0.8-1.1,3.1-1.1,3.9c0,0.3,0.2,1.1,0.5,1.1c1,0,3.1-3.7,3.7-4.6l1.1,0.7
		c-1.2,2-3.9,6.3-6.4,6.3c-1.4,0-2.1-1.2-2.1-2.3c0-1.8,1.2-4.8,1.8-6.5l1.6-3.8l-0.1-0.1l-5.4,8.9c-1,1.4-2.8,3.8-4.7,3.8
		c-1.8,0-2.5-1.5-2.5-3.1c0-1.3,0.9-3.6,1.4-4.9l2.4-6.7c0.2-0.4,0.5-1.3,0.5-1.8c0-0.3-0.2-0.3-0.5-0.3c-1,0-3.1,3.2-3.7,4
		l-1.1-0.8c1.3-1.8,3.7-6.1,6.2-6.1c1.4,0,2.3,1.3,2.3,2.7c0,1.2-0.9,3.5-1.3,4.7l-2.3,6.2c-0.2,0.7-0.8,2-0.8,2.7
		c0,0.4,0.3,1,0.7,1c0.9,0,1.9-1.8,2.4-2.5l8.7-14.4h2.8L269.1,586.3z"/>
	<path class="st1" d="M279.4,589c-0.1,0.4-0.3,1.2-0.3,1.6c0,0.3,0.1,0.7,0.5,0.7c1,0,2.9-3.8,3.4-4.7l1.1,0.5
		c-1.1,2.1-3,6.6-5.8,6.6c-1.6,0-2.3-1.3-2.3-2.8c0-1,0.4-2.4,0.6-3.4l4.7-17.6c0.1-0.5,0.3-1.3,0.3-1.7c0-1.2-1.1-1-2.6-1l0.3-1.3
		l6.6-1.1L279.4,589z"/>
	<path class="st1" d="M290.6,582.8c0.3-1,1.4-3.9,1.4-4.8c0-0.4-0.1-1.1-0.5-1.1c-0.7,0-1.7,1.6-3.7,4.5l-1.1-0.6
		c1.2-1.9,3.9-6.8,6.4-6.8c1.5,0,2.1,1.5,2.1,2.8c0,2.8-1.7,6.4-2.8,9.1l-0.5,1.1l0.1,0.1l6.2-10.1c0.9-1.2,2.2-2.9,3.8-2.9
		c1.7,0,2.3,1.7,2.3,3.1c0,1.7-0.9,4-1.5,5.7l-2.1,6.3c-0.1,0.3-0.5,1.3-0.5,1.7c0,0.3,0.2,0.5,0.5,0.5c1.2,0,3.1-3.3,3.7-4.2l1,0.6
		c-2.2,3.5-3.8,6-6.2,6c-1.3,0-2.2-1.1-2.2-2.3c0-1,0.5-2.5,0.8-3.6l2.5-7.1c0.2-0.6,0.7-2.1,0.7-2.7c0-0.4-0.2-1-0.7-1
		c-0.8,0-1.6,1.4-2,2l-8.7,14.3h-2.8L290.6,582.8z"/>
	<path class="st1" d="M321.4,588c-1.6,2.7-4.5,5.7-7.9,5.7c-3.4,0-5.2-2.9-5.2-6.1c0-5.1,5-13.5,10.6-13.5c2,0,3.7,1.2,3.7,3.4
		c0,4.8-6.7,8.2-10.6,9.5c-0.1,0.6-0.1,1.2-0.1,1.7c0,2.9,1,3.4,2.3,3.4c2.4,0,5-2.7,6.2-4.6L321.4,588z M320.1,577.3
		c0-0.8-0.4-1.6-1.3-1.6c-1.9,0-5.4,3.7-6.5,9.7C315.3,584.4,320.1,580.8,320.1,577.3z"/>
	<path class="st1" d="M327.6,593.3h-2.8l4.5-13.2c0.2-0.7,0.5-1.5,0.5-2.2c0-0.3-0.2-1-0.5-1c-1.2,0-3,3.6-3.7,4.5l-1-0.7
		c1.2-1.8,3.8-6.8,6.3-6.8c1.4,0,2.1,1.1,2.1,2.4c0,1.5-0.9,4.2-1.5,5.6l-1.2,3.3l0.1,0.1c1.4-2.4,5.3-11.4,8.5-11.4
		c1,0,1.8,0.8,1.8,1.8c0,1.6-1.4,2.3-2.8,2.5c-1.3,0.2-1.8,0.5-2.7,1.5c-1.7,2-4,6.5-5.3,9L327.6,593.3z"/>
	<path class="st1" d="M354.5,574.4h3.4l-2.9,8.1c-0.4,1.2-2.3,6.6-2.3,7.6c0,0.3,0.2,0.6,0.5,0.6c0.7,0,2.1-1.3,3.8-4.3l1,0.6
		c-2.5,4.2-4.2,6.6-6.3,6.6c-1.3,0-2.2-1-2.2-2.3c0-1,0.2-1.8,0.5-2.6l-0.1-0.1c-1.1,2.6-3.1,5-6.2,5c-3,0-4.4-2.6-4.4-5.3
		c0-5.5,5.2-14.3,11.3-14.3c1.7,0,2.7,0.6,3.4,2.2L354.5,574.4z M352.9,577.9c0-1.2-0.6-2.1-1.8-2.1c-2.8,0-4.7,2.9-5.8,5.1
		c-1.1,2.2-2.5,6.1-2.5,8.5c0,1.2,0.6,2.3,1.9,2.3C348.5,591.7,352.9,581.1,352.9,577.9z"/>
	<path class="st1" d="M366.7,576.7L366.7,576.7c1.2-1.3,2.6-2.7,4.5-2.7c3.2,0,4.3,3.5,4.3,6.2c0,5-4.6,13.5-10.3,13.5
		c-2.7,0-4.4-2-4.4-4.7c0-1.6,0.4-3.2,0.8-4.7l3.7-13.7c0.2-0.5,0.5-2,0.5-2.5c0-0.9-0.5-1-2.6-0.9l0.3-1.3l6.4-1.1L366.7,576.7z
		 M371.9,579.5c0-1.1-0.3-3.5-1.8-3.5c-2.3,0-3.8,3.7-4.5,5.5c-0.6,1.5-2,6.6-2,8.1c0,1.2,0.5,2.5,2,2.5
		C369.9,592,371.9,582.8,371.9,579.5z"/>
	<path class="st1" d="M381.4,589c-0.1,0.4-0.3,1.2-0.3,1.6c0,0.3,0.1,0.7,0.5,0.7c1,0,2.9-3.8,3.4-4.7l1.1,0.5
		c-1.1,2.1-3,6.6-5.8,6.6c-1.6,0-2.3-1.3-2.3-2.8c0-1,0.4-2.4,0.6-3.4l4.7-17.6c0.1-0.5,0.3-1.3,0.3-1.7c0-1.2-1.1-1-2.6-1l0.3-1.3
		l6.6-1.1L381.4,589z"/>
	<path class="st1" d="M401.9,588c-1.6,2.7-4.5,5.7-7.9,5.7c-3.4,0-5.2-2.9-5.2-6.1c0-5.1,5-13.5,10.6-13.5c2,0,3.7,1.2,3.7,3.4
		c0,4.8-6.7,8.2-10.6,9.5c-0.1,0.6-0.1,1.2-0.1,1.7c0,2.9,1,3.4,2.3,3.4c2.4,0,5-2.7,6.2-4.6L401.9,588z M400.5,577.3
		c0-0.8-0.4-1.6-1.3-1.6c-1.9,0-5.4,3.7-6.5,9.7C395.7,584.4,400.5,580.8,400.5,577.3z"/>
	<path class="st1" d="M424.7,567.9l-1.8,6.5h3.7l-0.6,2.1h-3.7l-3.3,12.5c-0.1,0.4-0.3,1.2-0.3,1.7c0,0.2,0.2,0.6,0.5,0.6
		c1.2,0,3-3.1,3.5-4.1l1.2,0.8c-1.2,2-3.4,5.6-6,5.6c-1.5,0-2.3-1-2.3-2.5c0-1.3,0.5-3.1,0.8-4.4l2.7-10.2h-3.3l0.6-2.1h3.3l2.1-6.5
		H424.7z"/>
	<path class="st1" d="M442.3,580.1c0,6.5-5.5,13.5-10.3,13.5c-3.4,0-5.5-2.7-5.5-6c0-5.1,4.7-13.7,10.5-13.7
		C439.5,574,442.3,576.2,442.3,580.1z M429.7,589.5c0,1.6,0.7,2.9,2.4,2.9c4,0,7-10.7,7-14c0-1.5-0.5-3.2-2.3-3.2
		C432.7,575.3,429.7,586.3,429.7,589.5z"/>
	<path class="st1" d="M461.4,576.7L461.4,576.7c1.2-1.3,2.6-2.7,4.5-2.7c3.2,0,4.3,3.5,4.3,6.2c0,5-4.6,13.5-10.3,13.5
		c-2.7,0-4.4-2-4.4-4.7c0-1.6,0.4-3.2,0.8-4.7l3.7-13.7c0.2-0.5,0.5-2,0.5-2.5c0-0.9-0.5-1-2.6-0.9l0.3-1.3l6.4-1.1L461.4,576.7z
		 M466.6,579.5c0-1.1-0.3-3.5-1.8-3.5c-2.3,0-3.8,3.7-4.5,5.5c-0.6,1.5-2,6.6-2,8.1c0,1.2,0.5,2.5,2,2.5
		C464.6,592,466.6,582.8,466.6,579.5z"/>
	<path class="st1" d="M475.9,593.3H473l4.5-13.2c0.2-0.7,0.5-1.5,0.5-2.2c0-0.3-0.2-1-0.5-1c-1.2,0-3,3.6-3.7,4.5l-1-0.7
		c1.2-1.8,3.8-6.8,6.3-6.8c1.4,0,2.1,1.1,2.1,2.4c0,1.5-0.9,4.2-1.5,5.6l-1.2,3.3l0.1,0.1c1.4-2.4,5.3-11.4,8.5-11.4
		c1,0,1.8,0.8,1.8,1.8c0,1.6-1.4,2.3-2.8,2.5c-1.3,0.2-1.8,0.5-2.7,1.5c-1.7,2-4,6.5-5.3,9L475.9,593.3z"/>
	<path class="st1" d="M501.3,588c-1.6,2.7-4.5,5.7-7.9,5.7c-3.4,0-5.2-2.9-5.2-6.1c0-5.1,5-13.5,10.6-13.5c2,0,3.7,1.2,3.7,3.4
		c0,4.8-6.7,8.2-10.6,9.5c-0.1,0.6-0.1,1.2-0.1,1.7c0,2.9,1,3.4,2.3,3.4c2.4,0,5-2.7,6.2-4.6L501.3,588z M499.9,577.3
		c0-0.8-0.4-1.6-1.3-1.6c-1.9,0-5.4,3.7-6.5,9.7C495.2,584.4,499.9,580.8,499.9,577.3z"/>
	<path class="st1" d="M519.1,574.4h3.4l-2.9,8.1c-0.4,1.2-2.3,6.6-2.3,7.6c0,0.3,0.2,0.6,0.5,0.6c0.7,0,2.1-1.3,3.8-4.3l1,0.6
		c-2.5,4.2-4.2,6.6-6.3,6.6c-1.3,0-2.2-1-2.2-2.3c0-1,0.2-1.8,0.5-2.6l-0.1-0.1c-1.1,2.6-3.1,5-6.2,5c-3,0-4.4-2.6-4.4-5.3
		c0-5.5,5.2-14.3,11.3-14.3c1.7,0,2.7,0.6,3.4,2.2L519.1,574.4z M517.5,577.9c0-1.2-0.6-2.1-1.8-2.1c-2.8,0-4.7,2.9-5.8,5.1
		c-1.1,2.2-2.5,6.1-2.5,8.5c0,1.2,0.6,2.3,1.9,2.3C513,591.7,517.5,581.1,517.5,577.9z"/>
	<path class="st1" d="M530.3,569.9c0.1-0.5,0.3-1.3,0.3-1.7c0-1.2-1-1-2.7-1l0.3-1.3l6.7-1.1l-3.8,14.3l0.1,0.1
		c1.3-2.3,3.4-5.2,6.3-5.2c2,0,3.5,1.6,3.5,3.7c0,3-3.3,5.4-5.8,6.4l0.7,4c0.1,0.5,0.3,2.7,1.2,2.7c1,0,2.4-2.8,2.7-3.7l1.2,0.5
		c-1,2-2.8,6-5.4,6c-1,0-2-0.1-3.3-8.5l-2.8,0.7l-2,7.4h-3.3L530.3,569.9z M538,578.4c0-1-0.7-2-1.7-2c-1.5,0-4.2,1.4-6.6,8.1
		C532.4,583.9,538,581.7,538,578.4z"/>
	<path class="st1" d="M558.3,569.9c0.1-0.5,0.3-1.3,0.3-1.7c0-1.2-1.1-1-2.6-1l0.3-1.3l6.6-1.1l-6.5,23.8c-0.1,0.4-0.3,1.2-0.3,1.6
		c0,0.4,0.2,1,0.6,1c1.2,0,2.7-3.6,3.2-4.6l1.1,0.5c-1,2.2-3.1,6.5-6,6.5c-1.2,0-2.3-1.1-2.3-2.3c0-0.8,0.2-1.5,0.4-2.2l-0.1-0.1
		c-1.3,2.2-3.4,4.5-6.2,4.5c-2.7,0-3.8-2.9-3.8-5.2c0-6,5.9-14.5,10.7-14.5c1.2,0,2,0.4,3,1L558.3,569.9z M548.9,581.1
		c-1,2-2.2,5.8-2.2,8c0,0.9,0.2,2.6,1.5,2.6c3.8,0,7.7-10,7.7-13.2c0-1.3-0.5-2.7-2-2.7C551.6,575.8,549.7,579.4,548.9,581.1z"/>
	<path class="st1" d="M578.6,580.1c0,6.5-5.5,13.5-10.3,13.5c-3.4,0-5.5-2.7-5.5-6c0-5.1,4.7-13.7,10.5-13.7
		C575.8,574,578.6,576.2,578.6,580.1z M565.9,589.5c0,1.6,0.7,2.9,2.4,2.9c4,0,7-10.7,7-14c0-1.5-0.5-3.2-2.3-3.2
		C569,575.3,565.9,586.3,565.9,589.5z"/>
	<path class="st1" d="M597.9,578.2c-0.7,2.9-1.8,7.3-1.8,10.3c0,0.8,0.1,2.8,1.3,2.8c2,0,5.8-7,5.8-10.8c0-1.9-1.4-2.6-1.4-4.3
		c0-1.1,0.7-2.2,1.8-2.2c1.6,0,2.2,2,2.2,3.2c0,4.3-4.3,16.5-9.5,16.5c-2.5,0-3.3-2.8-3.3-4.8c0-1.3,0.6-4.1,1.5-7.1l-0.1-0.1
		c-1.2,3.6-4.4,12-8.9,12c-1.8,0-2.9-1.7-2.9-3.3c0-1.4,0.4-2.7,0.8-4l2.2-6.7c0.1-0.3,0.5-1.5,0.5-1.8c0-0.3-0.1-0.7-0.4-0.7
		c-1,0-2.9,3.1-3.5,3.9l-1-0.7c1-1.7,4.2-6.4,6.3-6.4c1.5,0,2.1,1.1,2.1,2.5c0,1.3-0.7,3.2-1.1,4.3l-2.2,6.7
		c-0.2,0.7-0.5,1.5-0.5,2.1c0,0.6,0.3,1.2,1,1.2c3.6,0,8.1-13.2,9.1-16.3h3L597.9,578.2z"/>
	<path class="st1" d="M611.6,582.8c0.3-1,1.4-3.9,1.4-4.8c0-0.4-0.1-1.1-0.5-1.1c-0.7,0-1.7,1.6-3.7,4.5l-1.1-0.6
		c1.2-1.9,3.9-6.8,6.4-6.8c1.5,0,2.1,1.5,2.1,2.8c0,2.8-1.7,6.4-2.8,9.1l-0.5,1.1l0.1,0.1l6.2-10.1c0.9-1.2,2.2-2.9,3.8-2.9
		c1.7,0,2.3,1.7,2.3,3.1c0,1.7-0.9,4-1.5,5.7l-2.1,6.3c-0.1,0.3-0.5,1.3-0.5,1.7c0,0.3,0.2,0.5,0.5,0.5c1.2,0,3.1-3.3,3.7-4.2l1,0.6
		c-2.2,3.5-3.8,6-6.2,6c-1.3,0-2.2-1.1-2.2-2.3c0-1,0.5-2.5,0.8-3.6l2.5-7.1c0.2-0.6,0.7-2.1,0.7-2.7c0-0.4-0.2-1-0.7-1
		c-0.8,0-1.6,1.4-2,2l-8.7,14.3H608L611.6,582.8z"/>
	<path class="st1" d="M654.4,574.4h3.4l-2.9,8.1c-0.4,1.2-2.3,6.6-2.3,7.6c0,0.3,0.2,0.6,0.5,0.6c0.7,0,2.1-1.3,3.8-4.3l1,0.6
		c-2.5,4.2-4.2,6.6-6.3,6.6c-1.3,0-2.2-1-2.2-2.3c0-1,0.2-1.8,0.5-2.6l-0.1-0.1c-1.1,2.6-3.1,5-6.2,5c-3,0-4.4-2.6-4.4-5.3
		c0-5.5,5.2-14.3,11.3-14.3c1.7,0,2.7,0.6,3.4,2.2L654.4,574.4z M652.8,577.9c0-1.2-0.6-2.1-1.8-2.1c-2.8,0-4.7,2.9-5.8,5.1
		c-1.1,2.2-2.5,6.1-2.5,8.5c0,1.2,0.6,2.3,1.9,2.3C648.3,591.7,652.8,581.1,652.8,577.9z"/>
	<path class="st1" d="M664.3,582.8c0.3-1,1.4-3.9,1.4-4.8c0-0.4-0.1-1.1-0.5-1.1c-0.7,0-1.7,1.6-3.7,4.5l-1.1-0.6
		c1.2-1.9,3.9-6.8,6.4-6.8c1.5,0,2.1,1.5,2.1,2.8c0,2.8-1.7,6.4-2.8,9.1l-0.5,1.1l0.1,0.1l6.2-10.1c0.9-1.2,2.2-2.9,3.8-2.9
		c1.7,0,2.3,1.7,2.3,3.1c0,1.7-0.9,4-1.5,5.7l-2.1,6.3c-0.1,0.3-0.5,1.3-0.5,1.7c0,0.3,0.2,0.5,0.5,0.5c1.2,0,3.1-3.3,3.7-4.2l1,0.6
		c-2.2,3.5-3.8,6-6.2,6c-1.3,0-2.2-1.1-2.2-2.3c0-1,0.5-2.5,0.8-3.6l2.5-7.1c0.2-0.6,0.7-2.1,0.7-2.7c0-0.4-0.2-1-0.7-1
		c-0.8,0-1.6,1.4-2,2l-8.7,14.3h-2.8L664.3,582.8z"/>
	<path class="st1" d="M696.7,569.9c0.1-0.5,0.3-1.3,0.3-1.7c0-1.2-1.1-1-2.6-1l0.3-1.3l6.6-1.1l-6.5,23.8c-0.1,0.4-0.3,1.2-0.3,1.6
		c0,0.4,0.2,1,0.6,1c1.2,0,2.7-3.6,3.2-4.6l1.1,0.5c-1,2.2-3.1,6.5-6,6.5c-1.2,0-2.3-1.1-2.3-2.3c0-0.8,0.2-1.5,0.4-2.2l-0.1-0.1
		c-1.3,2.2-3.4,4.5-6.2,4.5c-2.7,0-3.8-2.9-3.8-5.2c0-6,5.9-14.5,10.7-14.5c1.2,0,2,0.4,3,1L696.7,569.9z M687.3,581.1
		c-1,2-2.2,5.8-2.2,8c0,0.9,0.2,2.6,1.5,2.6c3.8,0,7.7-10,7.7-13.2c0-1.3-0.5-2.7-2-2.7C690.1,575.8,688.1,579.4,687.3,581.1z"/>
	<path class="st1" d="M727.4,580.1c0,6.5-5.5,13.5-10.3,13.5c-3.4,0-5.5-2.7-5.5-6c0-5.1,4.7-13.7,10.5-13.7
		C724.6,574,727.4,576.2,727.4,580.1z M714.8,589.5c0,1.6,0.7,2.9,2.4,2.9c4,0,7-10.7,7-14c0-1.5-0.5-3.2-2.3-3.2
		C717.8,575.3,714.8,586.3,714.8,589.5z"/>
	<path class="st1" d="M736.1,576.7L736.1,576.7c1.2-1.3,2.6-2.7,4.5-2.7c3.2,0,4.3,3.5,4.3,6.2c0,5-4.6,13.5-10.3,13.5
		c-2.7,0-4.4-2-4.4-4.7c0-1.6,0.4-3.2,0.8-4.7l3.7-13.7c0.2-0.5,0.5-2,0.5-2.5c0-0.9-0.5-1-2.6-0.9l0.3-1.3l6.4-1.1L736.1,576.7z
		 M741.3,579.5c0-1.1-0.3-3.5-1.8-3.5c-2.3,0-3.8,3.7-4.5,5.5c-0.6,1.5-2,6.6-2,8.1c0,1.2,0.5,2.5,2,2.5
		C739.3,592,741.3,582.8,741.3,579.5z"/>
	<path class="st1" d="M745.6,589.8c0-1,0.8-2,1.8-2c2.8,0,1.3,4.1,4.6,4.1c1.7,0,2.8-1.2,2.8-2.8c0-3.8-6.5-4.8-6.5-9.8
		c0-2.9,2.7-5.4,6.2-5.4c2,0,4.9,1.3,4.9,3.7c0,1-0.7,1.7-1.8,1.7c-1.9,0-1.8-3.7-4.2-3.7c-1.3,0-2.1,1.5-2.1,2.7
		c0,3.5,6.5,4.6,6.5,9.7c0,2.8-2.5,5.6-6.5,5.6C748.4,593.7,745.6,591.9,745.6,589.8z"/>
	<path class="st1" d="M776.7,580.1c0,6.5-5.5,13.5-10.3,13.5c-3.4,0-5.5-2.7-5.5-6c0-5.1,4.7-13.7,10.5-13.7
		C773.9,574,776.7,576.2,776.7,580.1z M764.1,589.5c0,1.6,0.7,2.9,2.4,2.9c4,0,7-10.7,7-14c0-1.5-0.5-3.2-2.3-3.2
		C767.1,575.3,764.1,586.3,764.1,589.5z"/>
	<path class="st1" d="M782.6,589c-0.1,0.4-0.3,1.2-0.3,1.6c0,0.3,0.1,0.7,0.5,0.7c1,0,2.9-3.8,3.4-4.7l1.1,0.5
		c-1.1,2.1-3,6.6-5.8,6.6c-1.6,0-2.3-1.3-2.3-2.8c0-1,0.4-2.4,0.6-3.4l4.7-17.6c0.1-0.5,0.3-1.3,0.3-1.7c0-1.2-1.1-1-2.6-1l0.3-1.3
		l6.6-1.1L782.6,589z"/>
	<path class="st1" d="M803,588c-1.6,2.7-4.5,5.7-7.9,5.7c-3.4,0-5.2-2.9-5.2-6.1c0-5.1,5-13.5,10.6-13.5c2,0,3.7,1.2,3.7,3.4
		c0,4.8-6.7,8.2-10.6,9.5c-0.1,0.6-0.1,1.2-0.1,1.7c0,2.9,1,3.4,2.3,3.4c2.4,0,5-2.7,6.2-4.6L803,588z M801.6,577.3
		c0-0.8-0.4-1.6-1.3-1.6c-1.9,0-5.4,3.7-6.5,9.7C796.9,584.4,801.6,580.8,801.6,577.3z"/>
	<path class="st1" d="M804.2,589.8c0-1,0.8-2,1.8-2c2.8,0,1.3,4.1,4.6,4.1c1.7,0,2.8-1.2,2.8-2.8c0-3.8-6.5-4.8-6.5-9.8
		c0-2.9,2.7-5.4,6.2-5.4c2,0,4.9,1.3,4.9,3.7c0,1-0.7,1.7-1.8,1.7c-1.9,0-1.8-3.7-4.2-3.7c-1.3,0-2.1,1.5-2.1,2.7
		c0,3.5,6.5,4.6,6.5,9.7c0,2.8-2.5,5.6-6.5,5.6C807.1,593.7,804.2,591.9,804.2,589.8z"/>
	<path class="st1" d="M832.3,588.8c-1.6,2.1-4.7,4.9-7.4,4.9c-3.3,0-5.3-3-5.3-6c0-5.8,5.8-13.6,10.7-13.6c2.1,0,3.7,1.6,3.7,3.7
		c0,1.2-0.7,2.4-2,2.4c-1,0-1.6-1.1-1.6-2c0-0.4,0.1-0.8,0.1-1.3c0-0.6-0.4-1.1-1-1.1c-2,0-6.4,7.3-6.4,13.2c0,1.4,0.4,3,2.1,3
		c2.3,0,4.7-2.4,6.1-4L832.3,588.8z"/>
	<path class="st1" d="M848.8,588c-1.6,2.7-4.5,5.7-7.9,5.7c-3.4,0-5.2-2.9-5.2-6.1c0-5.1,5-13.5,10.6-13.5c2,0,3.7,1.2,3.7,3.4
		c0,4.8-6.7,8.2-10.6,9.5c-0.1,0.6-0.1,1.2-0.1,1.7c0,2.9,1,3.4,2.3,3.4c2.4,0,5-2.7,6.2-4.6L848.8,588z M847.4,577.3
		c0-0.8-0.4-1.6-1.3-1.6c-1.9,0-5.4,3.7-6.5,9.7C842.7,584.4,847.4,580.8,847.4,577.3z"/>
	<path class="st1" d="M855.8,582.8c0.3-1,1.4-3.9,1.4-4.8c0-0.4-0.1-1.1-0.5-1.1c-0.7,0-1.7,1.6-3.7,4.5l-1.1-0.6
		c1.2-1.9,3.9-6.8,6.4-6.8c1.5,0,2.1,1.5,2.1,2.8c0,2.8-1.7,6.4-2.8,9.1l-0.5,1.1l0.1,0.1l6.2-10.1c0.9-1.2,2.2-2.9,3.8-2.9
		c1.7,0,2.3,1.7,2.3,3.1c0,1.7-0.9,4-1.5,5.7l-2.1,6.3c-0.1,0.3-0.5,1.3-0.5,1.7c0,0.3,0.2,0.5,0.5,0.5c1.2,0,3.1-3.3,3.7-4.2l1,0.6
		c-2.2,3.5-3.8,6-6.2,6c-1.3,0-2.2-1.1-2.2-2.3c0-1,0.5-2.5,0.8-3.6l2.5-7.1c0.2-0.6,0.7-2.1,0.7-2.7c0-0.4-0.2-1-0.7-1
		c-0.8,0-1.6,1.4-2,2l-8.7,14.3h-2.8L855.8,582.8z"/>
	<path class="st1" d="M886.1,588.8c-1.6,2.1-4.7,4.9-7.4,4.9c-3.3,0-5.3-3-5.3-6c0-5.8,5.8-13.6,10.7-13.6c2.1,0,3.7,1.6,3.7,3.7
		c0,1.2-0.7,2.4-2,2.4c-1,0-1.6-1.1-1.6-2c0-0.4,0.1-0.8,0.1-1.3c0-0.6-0.4-1.1-1-1.1c-2,0-6.4,7.3-6.4,13.2c0,1.4,0.4,3,2.1,3
		c2.3,0,4.7-2.4,6.1-4L886.1,588.8z"/>
	<path class="st1" d="M902.6,588c-1.6,2.7-4.5,5.7-7.9,5.7c-3.4,0-5.2-2.9-5.2-6.1c0-5.1,5-13.5,10.6-13.5c2,0,3.7,1.2,3.7,3.4
		c0,4.8-6.7,8.2-10.6,9.5c-0.1,0.6-0.1,1.2-0.1,1.7c0,2.9,1,3.4,2.3,3.4c2.4,0,5-2.7,6.2-4.6L902.6,588z M901.2,577.3
		c0-0.8-0.4-1.6-1.3-1.6c-1.9,0-5.4,3.7-6.5,9.7C896.5,584.4,901.2,580.8,901.2,577.3z"/>
	<path class="st1" d="M907.7,589c1.3,0,2.3,1,2.3,2.3c0,1.3-1,2.3-2.3,2.3c-1.3,0-2.3-1-2.3-2.3C905.3,590.1,906.4,589,907.7,589z"
		/>
	<path class="st1" d="M913.8,574.1c1.2-0.6,3.8-2.9,3.8-4.2c0-1.2-1.5-1.2-1.5-3c0-1.3,1.1-2.2,2.3-2.2c1.5,0,2.3,1.3,2.3,2.6
		c0,3.5-3.5,6.2-6.4,7.7L913.8,574.1z"/>
	<path class="st1" d="M921.8,574.1c1.2-0.6,3.8-2.9,3.8-4.2c0-1.2-1.5-1.2-1.5-3c0-1.3,1.1-2.2,2.3-2.2c1.5,0,2.3,1.3,2.3,2.6
		c0,3.5-3.5,6.2-6.4,7.7L921.8,574.1z"/>
	<path class="st1" d="M153.3,717.1h29.1v2.9h-29.1V717.1z"/>
	<path class="st1" d="M196.5,704.3h7.4c6,0,9.2,1.7,9.2,6.1c0,3.3-1.8,5-3.6,5.6c2.4,0.7,4.7,2.3,4.7,6c0,5.8-5.1,7.1-9.8,7.1h-7.9
		V704.3z M200.1,714.9h4c3.3,0,5.1-1,5.1-3.8c0-3.3-2.5-3.7-6.2-3.7h-2.8V714.9z M200.1,726h5.1c2.8,0,5.1-1,5.1-4.1
		c0-3-2.3-4-5.8-4h-4.4V726z"/>
	<path class="st1" d="M221.5,710.9v2.3c0.6-1.7,2.3-2.8,4.4-2.8c0.5,0,0.7,0,0.9,0.1v3.2c-0.3-0.1-0.8-0.1-1.2-0.1
		c-3.3,0-3.9,2.4-3.9,6.1v9.4h-3.5v-16.5c0-0.5,0-1.1,0-1.6H221.5z"/>
	<path class="st1" d="M241.7,726.4c-0.9,1.6-2.7,3-5.8,3c-4.3,0-6.3-2.6-6.3-7.3v-11.3h3.5v10c0,3.6,1.1,5.7,4,5.7
		c3.7,0,4.4-3.4,4.4-7.4v-8.3h3.5v16.8c0,0.4,0,0.9,0,1.3h-3.4V726.4z"/>
	<path class="st1" d="M266.6,723.2c-0.9,3.6-3.8,6.3-8.4,6.3c-5.7,0-9.2-4.1-9.2-9.6c0-5.4,3.6-9.5,9.3-9.5c4.7,0,7.5,2.6,8.4,6.5
		H263c-0.8-2.2-2.5-3.6-4.9-3.6c-3.4,0-5.4,2.8-5.4,6.6c0,4,2,6.6,5.4,6.6c2.4,0,4-1.2,4.8-3.4H266.6z"/>
	<path class="st1" d="M272.7,720.9c0.1,3.2,2.2,5.7,5.7,5.7c2.5,0,3.7-1.2,4.6-2.7h3.5c-1,3.3-3.9,5.6-8.3,5.6
		c-5.6,0-9.1-3.8-9.1-9.4c0-5.7,3.7-9.7,9.1-9.7c5.9,0,8.6,4.5,8.6,9.4v1.1H272.7z M283.3,718.1c-0.3-2.9-2.1-4.9-5.1-4.9
		c-2.9,0-5,1.9-5.4,4.9H283.3z"/>
	<path class="st1" d="M301.8,722c0.5,2.6,2.1,4.6,5.7,4.6c3.3,0,5.2-1.7,5.2-4.2c0-2.7-2.1-3.3-5-4.3l-1.6-0.5
		c-4.5-1.4-7.2-3.1-7.2-7.1c0-4,3.5-6.8,8.6-6.8c5.3,0,8.2,2.7,8.6,6.9h-3.7c-0.4-2.5-2-3.9-5-3.9c-2.9,0-4.6,1.4-4.6,3.5
		c0,2.6,2.2,3.4,4.9,4.2l1.7,0.5c4.4,1.3,7.2,2.9,7.2,7c0,4.5-3.7,7.5-9.1,7.5c-5.6,0-9.1-2.8-9.4-7.5H301.8z"/>
	<path class="st1" d="M324.9,710.9h3.4v2.7h-3.4v10.9c0,1.8,0.9,2.2,2.2,2.2c0.2,0,0.6,0,0.9-0.1v2.6c-0.5,0.1-0.9,0.1-1.4,0.1
		c-3.2,0-5.3-1.1-5.3-4.7v-11.1h-2.7v-2.7h2.7v-4.9h3.5V710.9z"/>
	<path class="st1" d="M333.9,720.9c0.1,3.2,2.2,5.7,5.7,5.7c2.5,0,3.7-1.2,4.6-2.7h3.5c-1,3.3-3.9,5.6-8.3,5.6
		c-5.6,0-9.1-3.8-9.1-9.4c0-5.7,3.7-9.7,9.1-9.7c5.9,0,8.6,4.5,8.6,9.4v1.1H333.9z M344.4,718.1c-0.3-2.9-2.1-4.9-5.1-4.9
		c-2.9,0-5,1.9-5.4,4.9H344.4z"/>
	<path class="st1" d="M355.1,710.9v2.3c0.6-1.7,2.3-2.8,4.4-2.8c0.5,0,0.7,0,0.9,0.1v3.2c-0.3-0.1-0.8-0.1-1.2-0.1
		c-3.3,0-3.9,2.4-3.9,6.1v9.4h-3.5v-16.5c0-0.5,0-1.1,0-1.6H355.1z"/>
	<path class="st1" d="M363.7,704.3h3.5V729h-3.5V704.3z"/>
	<path class="st1" d="M372.3,704.3h3.6v3.9h-3.6V704.3z M375.9,710.9V729h-3.5v-18.2H375.9z"/>
	<path class="st1" d="M384.3,713.3c0.9-1.6,2.7-3,5.8-3c4.2,0,6.4,2.8,6.4,7.5V729h-3.5v-9.9c0-3.6-1.2-5.8-4-5.8
		c-2.9,0-4.5,2.4-4.5,5.2V729h-3.5v-16.8c0-0.4,0-0.9,0-1.4h3.5V713.3z"/>
	<path class="st1" d="M418.1,725.5c0,6.6-3,10.1-9.1,10.1c-4.6,0-7.3-2.4-8.2-6h3.7c0.7,1.7,1.9,3.1,4.6,3.1c4.2,0,5.6-2.6,5.6-7.5
		l-0.1,0c-0.9,1.6-2.9,2.9-6.1,2.9c-5.1,0-8.4-3.7-8.4-8.9c0-5.4,3.5-9,8.4-9c3.2,0,5,1.3,6.1,2.8c0-0.2,0-0.4,0-0.6v-1.7h3.5V725.5
		z M404,719.3c0,3.5,2,6.1,5.4,6.1c3,0,5.4-2.1,5.4-6.2c0-3.6-2.1-5.9-5.4-5.9C406.1,713.2,404,715.6,404,719.3z"/>
	<path class="st1" d="M436.3,732.6c-2.9-2.3-5.4-6.7-5.4-13c0-7.5,4.7-14.7,10.8-17.4l-0.6,3.2c-4.4,3.2-7.1,8.7-7.1,14.5
		c0,3.8,0.9,6.8,2.9,9.5L436.3,732.6z"/>
	<path class="st1" d="M454.4,729h-14.8c1.3-3.4,4.7-6.5,7.6-8.7l2.7-2.1c2.3-1.8,5.9-4.7,5.9-7.8c0-2.1-1.5-3.6-3.6-3.6
		c-1.8,0-3.3,1-3.4,3c-0.1,2.4-0.8,3.3-2.2,3.3c-1,0-1.6-1-1.6-1.9c0-1.7,2.2-5.7,7.3-5.7c4.1,0,6.9,2.5,6.9,5.8
		c0,3.3-3.4,5.5-5.9,7.1l-2.8,1.8c-2.7,1.8-5.4,3.8-7.5,6.3h5.5c3.6,0,5.1-0.1,6.9-3.6l1.1,0.5L454.4,729z"/>
	<path class="st1" d="M459.1,721.6c0-5.5,5.5-16.2,11.8-16.2c4,0,5.7,4.4,5.7,7.8c0,5.8-5.8,16.1-11.8,16.1
		C460.9,729.4,459.1,725,459.1,721.6z M471.1,720.7c1-2.6,2.5-7.3,2.5-10c0-1.9-0.8-3.9-2.9-3.9c-3.3,0-5.2,4.7-6.2,7.3
		c-1.1,2.8-2.5,7.2-2.5,10.2c0,1.9,0.7,3.8,2.9,3.8C468.1,728,470.1,723.2,471.1,720.7z"/>
	<path class="st1" d="M477,721.6c0-5.5,5.5-16.2,11.8-16.2c4,0,5.7,4.4,5.7,7.8c0,5.8-5.8,16.1-11.8,16.1
		C478.8,729.4,477,725,477,721.6z M489,720.7c1-2.6,2.5-7.3,2.5-10c0-1.9-0.8-3.9-2.9-3.9c-3.3,0-5.2,4.7-6.2,7.3
		c-1.1,2.8-2.5,7.2-2.5,10.2c0,1.9,0.7,3.8,2.9,3.8C486.1,728,488,723.2,489,720.7z"/>
	<path class="st1" d="M510.7,721.8l-0.5,1.7h-3.3l-0.4,1.4c-0.1,0.4-0.3,1.1-0.3,1.5c0,1.3,1.2,1.5,2.2,1.5l-0.3,1.1h-8.3l0.3-1.1
		c2.2,0,2.8-1,3.3-2.9l0.4-1.5h-9.4l0.4-1.7l14.3-16h2.4l-4.2,16H510.7z M507.4,710.1L507.4,710.1l-10.6,11.7h7.4L507.4,710.1z"/>
	<path class="st1" d="M516.2,702.2c2.9,2.3,5.4,6.7,5.4,13c0,7.5-4.7,14.7-10.8,17.4l0.6-3.2c4.4-3.2,7.1-8.7,7.1-14.5
		c0-3.8-0.9-6.8-2.9-9.5L516.2,702.2z"/>
</g>
</svg>
