<?xml version="1.0" encoding="utf-8"?>
<!-- Generator: Adobe Illustrator 24.0.0, SVG Export Plug-In . SVG Version: 6.00 Build 0)  -->
<svg version="1.1" xmlns="http://www.w3.org/2000/svg" xmlns:xlink="http://www.w3.org/1999/xlink" x="0px" y="0px"
	 viewBox="0 0 720.1 1190.6" style="enable-background:new 0 0 720.1 1190.6;" xml:space="preserve">
<style type="text/css">
	.st0{fill:#FFFFFF;}
</style>
<g id="Layer_1">
</g>
<g id="Layer_2">
	<g>
		<path class="st0" d="M111.5,426.4c0,18.7,0,37,0,55.5c-2.4,0-4.8,0-7.5,0c0-14.2,0-28.6,0-42.9c-0.2-0.1-0.5-0.2-0.7-0.3
			c-0.6,1-1.2,1.9-1.7,2.9c-6.5,12.6-13,25.1-19.3,37.8c-1.3,2.7-3.1,2.8-5.5,2.8c-2.5,0.1-4.1-0.3-5.4-3
			c-6.2-12.6-12.7-25-19.1-37.4c-0.5-0.9-1-1.7-2.1-2.5c0,14.2,0,28.3,0,42.7c-2.8,0-5.2,0-7.8,0c0-18.5,0-36.9,0-55.7
			c3.1,0,6-0.2,8.8,0.1c1,0.1,2.1,1.6,2.7,2.7c7.2,13.9,14.4,27.8,21.6,41.7c0.4,0.8,0.9,1.6,1.6,2.8c2.7-5.3,5.3-10.2,7.8-15
			c5-9.7,10-19.3,14.9-29.1c1.1-2.3,2.4-3.3,5-3C106.8,426.6,109,426.4,111.5,426.4z"/>
		<path class="st0" d="M79.9,84.7C87.6,69.6,95,55.4,102.2,41c1.5-3,3-4.6,6.5-4c1.8,0.3,3.7,0.1,5.7,0.1c0,18.7,0,37.1,0,55.8
			c-2.4,0-4.8,0-7.5,0c0-14.3,0-28.6,0-42.9c-0.3-0.1-0.5-0.1-0.8-0.2c-2.8,5.4-5.6,10.8-8.3,16.2c-4.1,8-8.4,16-12.3,24.2
			c-1.4,3-3.4,3-6.1,3.1c-2.6,0.1-3.9-0.8-5.1-3.1c-6.7-13.3-13.6-26.6-21.1-39.9c-0.1,1.1-0.2,2.3-0.2,3.4c0,11.6,0,23.2,0,34.8
			c0,4.9,0,4.9-5,4.7c-0.8,0-1.6-0.2-2.6-0.3c0-18.5,0-36.9,0-55.7c2.9,0,5.8-0.2,8.6,0.1c1,0.1,2.1,1.6,2.7,2.6
			c7.1,13.6,14,27.2,21,40.8C78.3,81.7,78.9,82.9,79.9,84.7z"/>
		<path class="st0" d="M191.5,132.4c5.4,0,10.6,0,15.8,0c6.7,0,13.5-0.2,20.2,0.2c10.3,0.7,17.1,9.4,15.6,19.5
			c-0.9,6.1-4.7,9.6-10.9,11.5c9.7,5.3,8.3,16.4,14.3,24.3c-3.1,0-5.4,0.2-7.6-0.1c-1-0.1-2.3-1.1-2.7-2.1c-1.5-3.6-3-7.3-4-11.1
			c-1.4-4.8-4.5-7.4-9.2-7.7c-7.7-0.3-15.5-0.1-23.5-0.1c0,6.9,0,13.7,0,20.7c-2.8,0-5.2,0-7.9,0C191.5,169.2,191.5,151,191.5,132.4
			z M199.5,159.7c8.5,0,16.6,0.1,24.8,0c6.1-0.1,10.1-3.8,10.5-9c0.4-5.6-2.8-10.3-8.6-10.7c-8.8-0.6-17.7-0.2-26.7-0.2
			C199.5,146.5,199.5,152.9,199.5,159.7z"/>
		<path class="st0" d="M199.4,911.5c9.8,5.4,8.4,16.3,14.4,24.2c-3.3,0-5.8,0.2-8.2-0.1c-0.9-0.1-1.9-1.3-2.3-2.2
			c-1.4-3.5-2.7-7.2-3.8-10.8c-1.4-4.6-4.5-7.5-9.2-7.7c-7.7-0.3-15.5-0.1-23.6-0.1c0,6.9,0,13.7,0,20.7c-2.8,0-5.2,0-7.8,0
			c0-18.2,0-36.5,0-54.8c0.1-0.1,0.3-0.3,0.5-0.3c11.8,0,23.7-0.4,35.5,0.1c11,0.5,17.9,10.6,15.2,21.2
			C208.8,907,204.9,909.7,199.4,911.5z M166.9,907.5c8.7,0,17.3,0.4,25.8-0.1c6.7-0.4,10.1-5.3,9.2-11.7c-0.7-4.8-4.6-8-10.5-8.2
			c-4.9-0.2-9.7-0.1-14.6-0.1c-3.3,0-6.6,0-9.9,0C166.9,894.4,166.9,900.8,166.9,907.5z"/>
		<path class="st0" d="M206.7,816.8c9.5,5.1,7.9,16.3,14.2,24.1c-3.2,0-5.7,0.2-8.1-0.1c-0.9-0.1-2-1.2-2.4-2.1
			c-1.4-3.4-2.7-6.9-3.8-10.4c-1.9-5.8-4.5-8.3-10.4-8.5c-7.3-0.2-14.6-0.1-22.3-0.1c0,7,0,13.9,0,20.9c-2.9,0-5.4,0-8.2,0
			c0-18.3,0-36.6,0-55c0.4-0.1,0.8-0.3,1.2-0.3c11.3,0,22.5-0.2,33.7,0.1c8.4,0.2,14.7,5.3,16.4,12.6
			C219,807,216.2,812.2,206.7,816.8z M174,792.6c0,6.9,0,13.4,0,20.1c8.5,0,16.7,0.2,24.9-0.1c6.2-0.2,10.1-4.3,10.2-9.7
			c0.1-5.8-3.9-10.1-10.4-10.2C190.6,792.4,182.4,792.6,174,792.6z"/>
		<path class="st0" d="M470,259c9.8,5.4,8.3,16.5,14.5,24.4c-3.2,0-5.6,0.2-7.9-0.1c-0.9-0.1-2.1-1-2.4-1.9
			c-1.4-3.3-2.6-6.7-3.7-10.1c-2.1-6.5-4.6-8.9-11.4-9.2c-7.1-0.3-14.1-0.1-21.6-0.1c0,6.9,0,13.8,0,21.3c-1.9,0-3.5-0.1-5.1,0
			c-2.6,0.3-3.4-0.8-3.4-3.4c0.1-12.4,0-24.8,0-37.3c0-4.8,0-9.7,0-14.6c0.7-0.2,1.2-0.4,1.6-0.4c11.1,0,22.3-0.2,33.4,0.1
			c11.8,0.3,19.3,10.4,16.4,21.5C479.2,254.5,475.5,257.1,470,259z M437.5,255c8.8,0,17.2,0.3,25.6-0.1c5.9-0.3,9.5-4.1,9.7-9.4
			c0.2-5.5-3.2-9.8-9.2-10.2c-8.6-0.5-17.3-0.1-26.1-0.1C437.5,241.9,437.5,248.6,437.5,255z"/>
		<path class="st0" d="M347.2,842.4c-15.9-0.3-28-9.6-30.7-23.7c-3.2-16.8,7.8-32.1,24.8-34.4c9.7-1.3,18.8,0,26.7,6.1
			c9.5,7.5,12.8,17.5,10.2,29.1c-2.6,12-10.8,18.8-22.4,21.7C353,841.9,350,842,347.2,842.4z M347.4,834.5
			c14.3,0,22.9-8.4,22.8-22.2c-0.1-10.2-6-17.7-15.8-20.2c-11.4-2.8-22.8,1.3-27.4,9.9C318.7,817.9,329.1,834.5,347.4,834.5z"/>
		<path class="st0" d="M284,189c-14.8,0.1-26.8-8.2-30.3-20.9c-4.8-17.4,6.3-34.4,24.2-36.9c12.3-1.7,23.5,0.8,31.6,10.9
			c7.2,8.9,8.2,19.1,3.7,29.5c-4.7,10.9-13.9,16-25.4,17.3C286.6,189.1,285.3,189,284,189z M284.3,181.5c7.8,0,14.7-2.2,19.3-9
			c9.3-14,1.2-31.6-15.5-33.8c-12.9-1.7-23.3,4.3-26,14.9C258.1,169.4,267.7,181.5,284.3,181.5z"/>
		<path class="st0" d="M423.8,935.4c0-18.6,0-36.9,0-55.7c1.4,0,2.6,0,3.8,0c8.3,0,16.7-0.2,25,0.1c22.6,0.8,28.7,17.6,26.7,32.4
			c-1.9,14.3-11.1,22.7-25.4,23.3c-9.5,0.4-19,0.1-28.5,0.2C425,935.7,424.6,935.6,423.8,935.4z M431.9,928.3
			c7.9,0,15.6,0.3,23.3-0.1c5.4-0.3,10-3,12.7-8c4.1-7.5,4.2-15.3,0.9-23.1c-2-4.7-5.6-7.7-10.4-9c-8.7-2.4-17.6-0.7-26.5-1.1
			C431.9,901.1,431.9,914.6,431.9,928.3z"/>
		<path class="st0" d="M140.4,284.5c-15.9,0-28.1-8.5-31.4-21.4c-4.6-17.8,7.2-34.7,25.5-36.6c11.8-1.2,22.5,1.3,30.4,10.9
			c7.1,8.8,8.2,18.8,4,29.1c-4.4,10.8-13.2,16.1-24.4,17.7C142.9,284.4,141.2,284.4,140.4,284.5z M138.9,276.9
			c16,0,25.6-10.7,23.2-25.3c-1.5-9.3-7.3-15.4-16.6-17.3c-10.5-2.2-20.8,1.2-25.5,8.6c-4.7,7.5-4.9,15.5-1,23.2
			C123.3,274.3,130.9,276.7,138.9,276.9z"/>
		<path class="st0" d="M401.2,924.6c0-15.3,0-29.8,0-44.6c2.7,0,5.1,0,7.9,0c0,1.3,0,2.7,0,4c0,15.5,0,31.1-0.1,46.6
			c0,1.7-0.2,4.1-1.2,4.8c-2,1.5-7.5,0-8.9-1.7c-6.4-7.8-12.7-15.6-19.1-23.4c-5.3-6.4-10.6-12.9-16.6-20.2c0,2.2,0,3.3,0,4.5
			c0,12.1,0,24.1,0,36.2c0,5,0,5-4.8,4.9c-0.8,0-1.6-0.1-2.7-0.2c0-18.6,0-37,0-55.6c4.9-0.7,8.8-0.5,12.4,4.2
			c9.7,12.7,20.1,24.9,30.2,37.3C399.1,922.4,399.9,923.2,401.2,924.6z"/>
		<path class="st0" d="M233.7,68.7c9.8,5.3,8.4,16.3,13.9,23.5c-6.4,2.3-9.1,1.2-11.3-4.6c-0.9-2.5-1.8-5-2.5-7.6
			c-1.3-4.9-4.5-7.4-9.4-8c-1.9-0.2-3.9-0.2-5.9-0.2c-5.8,0-11.5,0-17.6,0c0,7.1,0,13.9,0,20.9c-2.7,0-5.1,0-7.7,0
			c0-18.2,0-36.5,0-54.8c0.2-0.1,0.5-0.4,0.8-0.4c11.7,0,23.4-0.4,35.1,0.2c10.7,0.5,17.6,10.3,15.4,20.5
			C243.4,63.9,239.6,67,233.7,68.7z M201.1,64.8c8.8,0,17.3,0.4,25.7-0.1c7.7-0.4,11.7-7.1,8.9-13.8c-1.9-4.4-5.7-6-10.1-6.1
			c-7.8-0.2-15.5-0.1-23.3,0c-0.4,0-0.8,0.3-1.2,0.4C201.1,51.6,201.1,58,201.1,64.8z"/>
		<path class="st0" d="M100,879.8c15.6,0,31,0,46.7,0c0,2.3,0,4.5,0,7.2c-12.9,0-25.7,0-38.7,0c0,5.7,0,10.9,0,16.5
			c11.3,0,22.4,0,33.7,0c0,2.5,0,4.8,0,7.3c-11.2,0-22.3,0-33.6,0c0,5.9,0,11.5,0,17.6c13.2,0,26.5,0,39.9,0c0,2.5,0,4.7,0,7.1
			c-0.8,0.1-1.7,0.3-2.6,0.3c-14.2,0-28.3,0-42.5,0c-1.9,0-3.3-0.1-3.3-2.7c0.1-17.3,0.1-34.6,0.1-51.9
			C99.7,880.9,99.8,880.6,100,879.8z"/>
		<path class="st0" d="M499.5,928.5c13.3,0,26.4,0,39.3,0c0.3,0.4,0.5,0.6,0.5,0.8c0.6,6.5,0.6,6.5-5.9,6.5c-12.8,0-25.5,0-38.3,0
			c-1.3,0-2.5,0-4,0c0-18.7,0-37.1,0-55.8c15.5,0,31.1,0,47,0c0,2.2,0,4.4,0,7c-12.8,0-25.6,0-38.5,0c0,5.6,0,10.8,0,16.6
			c2,0,4.1,0,6.1,0c8.2,0,16.5,0.1,24.7-0.1c3.3-0.1,2.7,2,2.8,3.9c0.1,2,0.1,3.6-2.8,3.5c-8.9-0.2-17.9-0.1-26.8-0.1
			c-1.3,0-2.5,0-4,0C499.5,916.8,499.5,922.4,499.5,928.5z"/>
		<path class="st0" d="M49.9,816.1c0,6,0,11.6,0,17.5c13.3,0,26.6,0,40.1,0c0,2.5,0,4.7,0,7.1c-0.9,0.1-1.8,0.3-2.6,0.3
			c-14.2,0-28.3,0-42.5,0c-1.9,0-3.3,0-3.3-2.7c0.1-17.3,0.1-34.6,0.1-51.9c0-0.3,0.1-0.7,0.3-1.2c15.5,0,31,0,46.7,0
			c0,2.2,0,4.4,0,7.1c-12.8,0-25.7,0-38.7,0c0,5.6,0,10.8,0,16.5c1.2,0,2.4,0,3.6,0c8.9,0,17.9,0.1,26.8-0.1
			c2.9-0.1,3.5,1.1,3.5,3.7c0,2.5-0.3,3.8-3.4,3.8C70.4,816,60.3,816.1,49.9,816.1z"/>
		<path class="st0" d="M412.2,251.1c0,2.6,0,4.7,0,7.2c-11.2,0-22.3,0-33.7,0c0,6.1,0,11.7,0,17.7c13.4,0,26.5,0,39.9,0
			c0,2.5,0,4.7,0,7.1c-15.9,0-31.7,0-47.8,0c0-18.4,0-36.8,0-55.5c0.8-0.1,1.7-0.3,2.5-0.3c13.7,0,27.4,0.1,41.1-0.1
			c2.9,0,3.5,1,3.5,3.6c0,2.8-0.7,3.9-3.7,3.8c-11.7-0.2-23.4-0.1-35.7-0.1c0,5.1-0.1,10.1,0.1,15c0,0.5,1.8,1.4,2.8,1.5
			c8.9,0.1,17.9,0.1,26.8,0.1C409.3,251.1,410.6,251.1,412.2,251.1z"/>
		<path class="st0" d="M348.5,47.6c0,15.6,0,30.3,0,45.2c-2.6,0-4.9,0-7.5,0c0-18.5,0-37,0-55.6c4.8-0.7,8.7-0.5,12.3,4.2
			c9.9,12.9,20.4,25.3,30.7,37.8c0.6,0.7,1.2,1.4,2.4,2.7c0-15.4,0-30,0-44.8c2.8,0,5.1,0,7.7,0c0.1,1,0.2,2,0.2,3
			c0,16.5-0.1,33,0.1,49.5c0,2.8-0.9,3.5-3.6,3.5c-3.3,0-5.7-0.7-8-3.6c-10.7-13.5-21.8-26.8-32.8-40.2
			C349.8,49,349.5,48.7,348.5,47.6z"/>
		<path class="st0" d="M186.1,238.1c0,15.6,0,30.3,0,45.2c-2.6,0-4.9,0-7.5,0c0-18.5,0-37,0-55.6c4.8-0.7,8.7-0.5,12.3,4.2
			c9.9,12.9,20.4,25.3,30.7,37.8c0.6,0.7,1.2,1.4,2.4,2.7c0-15.4,0-30,0-44.8c2.8,0,5.1,0,7.7,0c0.1,1,0.2,2,0.2,3
			c0,16.5-0.1,33,0.1,49.5c0,2.8-0.9,3.5-3.6,3.5c-3.3,0-5.7-0.7-8-3.6c-10.7-13.5-21.8-26.8-32.8-40.2
			C187.4,239.5,187.1,239.2,186.1,238.1z"/>
		<path class="st0" d="M269.4,924.8c0-15.4,0-30,0-44.8c2.5,0,4.9,0,7.5,0c0,18.5,0,37,0,55.4c-5.4,1.2-9.1,0-12.6-4.6
			c-10.2-13.2-21-26-31.5-38.9c-0.3-0.4-0.5-0.8-1.4-0.9c0,14.7,0,29.5,0,44.5c-2.7,0-5.1,0-7.7,0c0-18.4,0-36.8,0-55.4
			c4.8-0.8,8.8-0.6,12.5,4.1c10.2,13.3,21.1,26.1,31.7,39.1C268.1,923.7,268.5,923.9,269.4,924.8z"/>
		<path class="st0" d="M461.3,187.6c0-18.6,0-37,0-55.6c15.7,0,31.2,0,46.6,0c0.2,0.3,0.4,0.5,0.4,0.7c0.5,6.5,0.5,6.5-5.9,6.5
			c-10.9,0-21.8,0-33,0c0,5.5,0,10.8,0,16.4c11.1,0,22.2,0,33.5,0c0,2.6,0,4.8,0,7.5c-11.2,0-22.3,0-33.6,0c0,5.9,0,11.4,0,17.4
			c13.2,0,26.5,0,39.9,0c0,2.6,0,4.7,0,7.1C493.3,187.6,477.5,187.6,461.3,187.6z"/>
		<path class="st0" d="M465.3,794.8c-0.4,0.4-0.6,0.6-0.9,0.8c-5,3.4-4.9,3.3-10-0.1c-7.3-5-15.3-5.6-23.6-3c-3.3,1-5.7,3.1-5.6,7.1
			c0.1,3.9,2.8,5.6,5.9,6.4c6.5,1.6,13.2,2.6,19.7,4.1c3.2,0.8,6.6,1.8,9.4,3.5c9.1,5.5,9.4,17.9,0.6,23.8
			c-3.4,2.2-7.6,3.6-11.6,4.3c-8.2,1.4-16.4,0.9-24.1-3c-4.8-2.4-8-5.6-10.2-10.3c2.2-1.2,4.5-2.3,7-3.6c3.5,5,8.1,8.8,14.1,9.2
			c5.5,0.4,11.1,0,16.5-1c4.3-0.8,6-3.6,6-7c0-3.5-2-6.4-6.1-7.5c-5.4-1.5-10.9-2.2-16.3-3.5c-4-1-8.2-1.7-11.9-3.5
			c-10.4-4.8-9-17.5-1.5-22.9c8.8-6.4,31.6-7.4,41.1,4.2C464.3,793.3,464.8,794.1,465.3,794.8z"/>
		<path class="st0" d="M596.6,889.7c-2.6,1.7-4.7,2.9-6.9,4.3c-7.2-7.7-16.1-9.3-25.9-7.4c-1.1,0.2-2.2,0.7-3.2,1.2
			c-2.6,1.4-4.4,3.3-4.3,6.6c0,3.2,2.1,5.1,4.7,5.8c4.4,1.3,9,2.1,13.5,3.1c4.3,1,8.7,1.7,12.8,3c6.8,2.1,10.6,6.9,10.9,13
			c0.3,6.7-3,12.3-9.8,14.9c-10.9,4.2-21.8,4-32.4-1c-4.4-2.1-7.8-5.3-10.1-10.1c2.3-1.2,4.6-2.4,7-3.7c7.3,10.2,17.6,11,28.7,9
			c0.8-0.1,1.6-0.4,2.3-0.7c3.3-1.2,5.6-3.2,5.6-7.1c0-3.4-1.9-6.4-5.7-7.4c-5.5-1.5-11.1-2.3-16.6-3.6c-3.7-0.8-7.5-1.5-11-3
			c-4.7-2-8-5.4-8.3-11c-0.3-5.8,2.2-10.1,7-13.1c6.3-3.8,13.3-4.3,20.5-3.9c7.2,0.5,13.6,2.7,18.7,8
			C594.9,887.6,595.7,888.6,596.6,889.7z"/>
		<path class="st0" d="M259.2,436c-2.3,1.5-4.4,2.9-6.7,4.4c-6.6-7.1-14.9-9.4-24.3-7.7c-2.5,0.5-5.1,1.6-7.1,3.2
			c-3.5,2.9-3.1,7.9,1,9.8c4.1,1.8,8.6,2.6,12.9,3.6c5.3,1.3,10.7,2.1,15.8,3.8c4.9,1.6,8.8,4.9,9.6,10.5c0.9,5.6-0.5,10.5-5.1,14.4
			c-8.3,7.1-34.1,8.7-44.4-4.4c-0.9-1.2-1.7-2.4-2.7-4c2.2-1.1,4-2.3,6.1-3c0.6-0.2,1.9,0.4,2.4,1c7.7,8.3,21.3,10.9,31.2,5.8
			c5.4-2.8,5.9-9.6,0.5-12.5c-3.7-2-8.1-2.7-12.2-3.7c-4.8-1.1-9.8-1.7-14.6-3c-7-1.9-11-6.4-11.2-12.1c-0.3-6.8,3.2-11.9,10-14.7
			c12.6-5.2,28.8-2.4,36.9,6.4C258,434.3,258.5,435.1,259.2,436z"/>
		<path class="st0" d="M553.6,270.7c2.4-1.3,4.6-2.4,7-3.7c7.5,10.4,17.9,11.2,29.1,8.9c2.1-0.5,4.5-1.7,6-3.2
			c3.6-3.7,1.5-10.1-4.2-11.8c-5.6-1.7-11.5-2.4-17.3-3.8c-4.1-1-8.5-1.8-12.1-3.9c-8.2-4.6-8.7-15.7-1.4-21.7
			c11.5-9.4,35-6.3,43.7,5.8c-2.1,1.4-4.3,2.7-6.8,4.3c-3.9-4.3-8.7-7.4-14.6-7.8c-4.4-0.2-9,0.2-13.3,1.1c-3.9,0.9-5.8,3.8-5.6,7
			c0.2,3.6,2.7,5.4,5.7,6.2c6.4,1.5,12.9,2.5,19.3,4.1c3.5,0.8,7,1.9,10,3.7c8.5,5,9.2,16.2,1.9,22.8c-11,9.8-37.3,6.9-45.8-5.2
			C554.7,272.7,554.3,271.7,553.6,270.7z"/>
		<path class="st0" d="M393.2,132.1c2.8,0,5.3,0,8.2,0c0,4,0,7.8,0,11.6c0,3.8,0,7.6,0,11.7c12.3,0,24.4,0,36.8,0
			c0-7.6,0-15.3,0-23.2c2.8,0,5.4,0,8.4,0c0,1.3,0,2.5,0,3.8c0,15.8,0,31.6,0,47.4c0,4.6,0,4.6-4.8,4.6c-1,0-2-0.1-3.4-0.2
			c0-8.3,0-16.5,0-25c-12.4,0-24.5,0-37,0c0,8.3,0,16.5,0,24.9c-2.9,0-5.5,0-8.2,0C393.2,169.1,393.2,150.7,393.2,132.1z"/>
		<path class="st0" d="M375.4,169.4c2.5,0.9,4.8,1.8,7,2.6c-2.3,10.6-16.2,18.1-31.4,17c-14.9-1.1-26.6-12.5-27.6-27
			c-1-15,8.6-27.3,23.8-30.5c15.6-3.4,30.4,3.6,35.3,16.9c-2.4,0.8-4.7,1.6-7,2.4c-9.2-11.9-18.4-15.2-30.2-10.9
			c-8.8,3.2-13.7,11-13.2,21.1c0.5,10.1,6,17.2,15.2,19.6C359.3,183.8,368.8,180.1,375.4,169.4z"/>
		<path class="st0" d="M100.7,243.7c-1.1,0.4-2,0.6-2.8,1c-3,1.6-4.7,1.2-6.7-2.2c-5.2-8.8-16-10.5-26.4-7.7
			c-8.8,2.3-14.3,9.9-14.4,19.1c-0.2,11.5,5,19.2,14.9,21.9c11.9,3.4,22-0.5,28.4-11.1c2.3,0.8,4.8,1.7,7.2,2.5
			c-3.7,11.8-18.5,19.1-33.7,16.8C52.8,281.9,42,270.4,41.8,257c-0.3-16,9.4-27.8,25.1-30.4C82.2,224,96.5,231,100.7,243.7z"/>
		<path class="st0" d="M308.8,801.4c-2.5,0.8-4.8,1.6-7.5,2.5c-2.8-6.2-7.4-10.5-14.2-11.9c-5.8-1.2-11.6-0.9-17.1,1.5
			c-8.1,3.5-12.6,11.8-11.8,21.4c0.8,10,6.4,16.9,16.1,18.9c10.4,2.2,21.1,0.3,27.3-11.3c2.4,0.8,4.8,1.7,7.3,2.5
			c-4,11.8-18.4,19-33.1,16.8c-15-2.2-25.6-13.3-26-27.3c-0.5-15.3,8.7-27,23.9-30.1C289.1,781.2,303.2,787.9,308.8,801.4z"/>
		<path class="st0" d="M548.7,283.3c-2.2,0-4.1,0.3-5.8-0.1c-1.2-0.3-2.7-1.1-3.3-2.1c-1.7-3-2.9-6.3-4.6-9.3
			c-0.6-1-2.1-2.1-3.2-2.1c-8.8-0.2-17.6-0.2-26.5,0c-1,0-2.4,1-3,1.9c-1.3,2.1-2.1,4.4-3.1,6.6c-2.7,5.8-3.2,6.1-10.5,4.6
			c2-4.5,4-8.9,6-13.2c6-13,12.2-26,18-39.1c1.7-3.9,4.6-2.9,7.4-3.3c2.8-0.3,3.5,1.4,4.4,3.4c7.6,16.4,15.2,32.8,22.8,49.2
			C547.7,280.8,548.1,281.8,548.7,283.3z M530.8,262.5c-4.1-8.9-8-17.4-12.2-26.5c-4.2,9.2-8.2,17.7-12.2,26.5
			C514.7,262.5,522.5,262.5,530.8,262.5z"/>
		<path class="st0" d="M99.4,785.1c2.7,0,5.2,0,8.1,0c0,3.4,0,6.6,0,9.8c0,7.7-0.1,15.3,0.1,23c0.2,10.6,5.8,16.2,16.5,16.6
			c1,0,2.1,0.1,3.1,0c10.9-0.4,16.5-5.7,16.9-16.6c0.3-9.6,0.1-19.3,0.1-28.9c0-1.3,0-2.5,0-3.9c2.8,0,5.2,0,7.8,0
			c0.1,0.7,0.3,1.4,0.3,2.2c0,10.3,0.1,20.7,0,31c-0.2,13.2-8,22.3-21.2,23.5c-5.5,0.5-11.5,0-16.8-1.6c-10-3-14.3-11.1-14.7-21
			C99,808,99.4,796.7,99.4,785.1z"/>
		<path class="st0" d="M120.5,481.9c5.8-12.5,11.4-24.7,17-36.8c2.6-5.7,5.2-11.4,8-16.9c0.5-1,2.3-1.9,3.4-1.9
			c2.3,0.2,5.3-1.6,6.8,1.6c8.2,17.6,16.4,35.2,24.6,52.9c0.1,0.3,0,0.7,0,1.3c-2,0-3.9,0.2-5.8-0.1c-1-0.2-2.3-0.9-2.8-1.8
			c-1.7-3.3-3-6.8-4.8-10c-0.5-0.9-2-1.9-3-1.9c-8.8-0.2-17.6-0.2-26.4,0c-1,0-2.4,1-3,1.9c-1.1,1.6-1.8,3.5-2.6,5.3
			C128.8,482.4,128.8,482.4,120.5,481.9z M150.7,434.7c-4.2,9.2-8.1,17.7-12.1,26.4c8.3,0,16,0,24.3,0
			C158.9,452.3,155,443.9,150.7,434.7z"/>
		<path class="st0" d="M274.4,482c-2.6,0-5.2,0-8.3,0c2.3-5.1,4.5-10,6.8-14.8c5.9-12.8,11.9-25.6,17.8-38.4
			c0.8-1.7,1.7-3.1,3.9-2.6c2.4,0.5,5.4-1.6,7,2c8.1,17.5,16.3,35.1,24.4,52.6c0.1,0.3,0.1,0.7,0.2,1.4c-2.3,0-4.4,0.2-6.6-0.1
			c-0.9-0.1-1.9-1.1-2.3-2c-1.6-3.1-3-6.2-4.4-9.5c-0.7-1.7-1.6-2.4-3.6-2.4c-8.7,0.1-17.4,0-26.1,0.1c-1.1,0-2.7,1.1-3.2,2.2
			C277.9,474.2,276.3,478.1,274.4,482z M284.2,460.9c8.2,0,16,0,24.2,0c-4-8.7-7.9-17.1-12.1-26.2
			C292.1,443.8,288.2,452.2,284.2,460.9z"/>
		<path class="st0" d="M346.2,935.7c-2.5,0-4.7,0.2-6.8-0.1c-0.8-0.1-1.7-1-2.1-1.8c-1.1-1.9-2.2-3.9-2.8-6
			c-1.3-4.7-3.9-6.1-8.8-5.8c-7.4,0.5-14.8,0.2-22.3,0.1c-2,0-3.3,0.4-3.9,2.4c-0.7,2-1.7,3.8-2.6,5.7c-2.9,6.3-2.9,6.3-10.7,5
			c1.7-3.7,3.4-7.4,5.1-11c6.5-14,13.1-27.9,19.3-41.9c1.5-3.3,3.8-2.5,6.2-2.7c2.2-0.1,3.8,0,4.9,2.6c7.7,17.1,15.7,34,23.6,51
			C345.7,933.9,345.8,934.6,346.2,935.7z M316.3,888.4c-4.3,9.3-8.2,17.9-12.3,26.7c8.4,0,16.3,0,24.6,0
			C324.5,906.2,320.5,897.7,316.3,888.4z"/>
		<path class="st0" d="M183.5,92.5c-0.5,0.2-0.6,0.3-0.7,0.3c-7,0.7-7.5,0.9-9.8-5.8c-2.2-6.3-5.6-8.4-12.2-7.7
			c-6.7,0.7-13.4,0.2-20.2,0.1c-1.9,0-3,0.6-3.7,2.3c-1,2.6-2.6,5-3.4,7.6c-1,3.2-2.9,4.1-6,3.7c-1.2-0.2-2.5,0-4.1,0
			c3.2-7.1,6.2-13.7,9.3-20.3c5.2-11.2,10.5-22.4,15.7-33.7c0.9-1.9,2-2.5,3.7-2.1c2.3,0.5,5.1-1.5,6.7,1.9
			c8,17.4,16.1,34.8,24.2,52.3C183.2,91.5,183.3,92,183.5,92.5z M166,72.4c-4.2-9-8.1-17.5-12.3-26.7c-4.2,9.2-8.2,17.8-12.3,26.7
			C149.9,72.4,157.6,72.4,166,72.4z"/>
		<path class="st0" d="M532.3,840.9c-2.2,0-4.3,0.2-6.5-0.1c-0.9-0.1-1.9-1.1-2.3-2c-1.5-3-3-6-4.2-9.1c-0.7-1.8-1.8-2.3-3.7-2.3
			c-8.7,0.1-17.4,0.1-26.1,0c-2,0-2.9,0.6-3.6,2.4c-1,2.5-2.4,4.8-3.3,7.3c-1,3.2-2.9,4.4-6.2,3.9c-1.1-0.2-2.3,0-4.1,0
			c2.5-5.5,4.8-10.5,7.1-15.5c5.9-12.8,11.9-25.6,17.9-38.4c0.5-1,2.2-2.1,3.3-2c2.3,0.2,5.3-1.8,6.8,1.5
			c8.3,17.7,16.5,35.5,24.7,53.3C532.3,840,532.3,840.3,532.3,840.9z M502.6,793.6c-4.3,9.2-8.2,17.8-12.3,26.6c8.4,0,16.2,0,24.5,0
			C510.7,811.4,506.9,802.9,502.6,793.6z"/>
		<path class="st0" d="M153.1,187.9c-2.3,0-4.4,0.2-6.4-0.1c-0.9-0.1-2-1-2.4-1.9c-1.6-3-2.9-6-4.2-9.1c-0.7-1.7-1.6-2.5-3.6-2.5
			c-8.8,0.1-17.6,0-26.5,0.2c-1.1,0-2.6,1.1-3.2,2.1c-1.2,1.9-2,4.2-3,6.3c-2.6,5.7-3.5,6-10.5,4.5c1.6-3.5,3.2-6.9,4.8-10.3
			c6.6-14.2,13.2-28.3,19.7-42.5c1-2.3,2.4-2.9,4.5-2.6c2.3,0.4,4.8-1.1,6.4,2.3c7.8,17.2,15.9,34.2,23.8,51.4
			C152.8,186.2,152.8,186.9,153.1,187.9z M123.2,140.6c-4.2,9.2-8.2,17.8-12.3,26.7c8.3,0,16.2,0,24.6,0
			C131.4,158.4,127.5,149.9,123.2,140.6z"/>
		<path class="st0" d="M89.8,879.9c0.2,0.5,0.3,0.7,0.3,0.9c0.4,6.3,0.4,6.3-5.8,6.3c-10,0-20,0-29.9,0c-1.3,0-2.5,0-4,0
			c0,5.7,0,11.1,0,16.9c10.8,0,21.6,0,32.1,0c0.4,0.5,0.5,0.6,0.5,0.7c0.9,6.7,0.9,6.7-5.9,6.7c-8.8,0-17.6,0-26.8,0
			c0,8.1,0,15.9,0,24c-2.8,0-5.1,0-7.8,0c0-18.4,0-36.9,0-55.5C58.2,879.9,73.9,879.9,89.8,879.9z"/>
		<path class="st0" d="M206.4,606.8c-0.2,0.6-0.2,1.2-0.4,1.2c-5.4,2.2-7.2,7.3-9.6,11.8c-5.8,10.6-11.5,21.2-17.3,31.7
			c-0.6,1-1.9,1.6-2.9,2.4c-0.4-1.1-1.1-2.2-1.1-3.3c-0.1-10-0.1-19.9-0.7-30.1c-0.5,0.7-1,1.3-1.4,2c-5.1,9.6-10.1,19.3-15.3,28.9
			c-0.6,1.2-1.8,2-2.8,3c-0.5-0.2-1.1-0.4-1.6-0.6c0-13.1,0-26.2,0-39.3c0-3.4-0.6-6.1-4.8-6c0.9-2.2,10-2.9,17.5-1.4
			c-1.4,0.7-2.1,1.4-2.8,1.5c-2.6,0.3-3.6,1.9-3.6,4.3c0,9.3,0,18.5,0.6,28c0.9-1.5,1.7-3.1,2.6-4.6c3.4-6.2,6.7-12.4,10.1-18.7
			c3.2-6,2.4-7.9-4-9.5c1.1-1.9,8.8-2.5,17.8-0.8c-0.8,0.4-1.7,0.7-2.4,1.3c-1.1,0.9-3.1,2-3.1,3c-0.2,9.7-0.1,19.4,0.5,29.2
			c3.6-6.7,7.1-13.4,10.7-20.1c1-1.9,2.1-3.9,3.1-5.8c2.1-4.4,1.8-5.2-2.5-6.8C193.9,606.3,199.1,605.7,206.4,606.8z"/>
		<path class="st0" d="M274.2,283.2c-3.1,0-5.6,0-8.4,0c0-16.1,0-32.1,0-48.4c-8,0-15.7,0-23.6,0c0-2.6,0-4.8,0-7.3
			c18.5,0,36.9,0,55.5,0c0,2.3,0,4.5,0,7c-7.8,0-15.5,0-23.5,0C274.2,250.9,274.2,266.8,274.2,283.2z"/>
		<path class="st0" d="M284.6,92.9c-2.9,0-5.2,0-8,0c0-1.5,0-2.8,0-4.2c0-13.7-0.1-27.4,0.1-41c0-2.6-0.8-3.4-3.4-3.3
			c-6.8,0.2-13.6,0.1-20.6,0.1c0-2.5,0-4.7,0-7.1c18.5,0,37.1,0,55.6,0c0.1,0.3,0.3,0.5,0.3,0.7c0.4,6.4,0.4,6.4-6,6.4
			c-5.9,0-11.8,0-18,0C284.6,60.7,284.6,76.7,284.6,92.9z"/>
		<path class="st0" d="M52,132.1c0,16.1,0,32.1,0,48.5c12.5,0,24.7,0,37.1,0c0,2.6,0,4.7,0,7.1c-15,0-29.9,0-45,0
			c0-18.6,0-37,0-55.6C46.7,132.1,49.2,132.1,52,132.1z"/>
		<path class="st0" d="M441.6,1011.6c4.7,2.7,4.9,9,0.2,11.7c-6.9,4-14.2,4.1-21.3,0.5c-4.2-2.1-4.2-6-0.4-8.9
			c1.3-1,2.7-1.7,4.1-2.6c-4-2.8-4-3.9,0-6.8c1.2-0.9,2.5-1.7,3.7-2.6c-3.5-8.2-1.7-15.3,4.8-19.4c3.2-2,6.6-2.6,10.2-0.8
			c0.9,0.5,2.4,0,3.5-0.3c1-0.3,1.9-1.3,2.8-1.3c1.3,0,2.7,0.4,3.7,1.2c0.5,0.4,0.5,2.3,0,2.8c-0.8,0.7-2.2,1-3.3,1.2
			c-0.8,0.1-1.7-0.3-2.9-0.5c0.1,1.3,0.2,2.2,0.3,3.1c1.2,9.7-5.3,16.5-15,15.9c-1.1-0.1-2.3,0.8-3.4,1.2c0,0.4,0.1,2.4,0.1,2.8
			L441.6,1011.6z M442.9,990.4c-1.2-2-2.1-5-3.8-5.7c-2.9-1.2-5.1,1.5-6,4c-1.1,3.2-2,6.7-1.9,10c0.1,3.8,3.4,4.8,6.5,2.4
			C441,998.6,441.7,994.9,442.9,990.4z M431,1023.8c2.2-0.6,4.7-0.9,6.8-1.9c2.4-1.1,2.7-3.3,1.1-5.1c-3.5-3.9-12.3-3.6-15.5,0.4
			c-1.6,2-1.2,3.8,1.1,4.8C426.4,1022.8,428.6,1023.1,431,1023.8z"/>
		<path class="st0" d="M458.2,625.2c1.3,6.1,0.2,11.1-3.6,15.7c-3.9,4.7-9.8,2.4-14.4,4.3c0,0.4,0,0.9,0,1.3
			c1.8,0.6,3.6,1.1,5.4,1.7c2.6,0.9,5.4,1.6,7.8,2.9c4.5,2.6,4.5,8.5,0.3,11.6c-5,3.6-16.4,3.9-21.7,0.6c-3.8-2.4-4-6-0.4-8.8
			c1.3-1,2.7-1.7,4.1-2.6c-3.9-3.2-3.9-3.2,3.8-9.7c-3.3-6.5-2.5-12.5,2.5-17.4c4.2-4.1,8.6-4.7,14.2-1.7c1.4-0.8,2.7-2,4.2-2.3
			c1.3-0.3,2.9,0.2,4.1,0.8c0.5,0.3,0.6,2.5,0.2,2.7c-1.1,0.7-2.6,0.9-3.9,1.2C460.1,625.7,459.4,625.4,458.2,625.2z M454.3,630.6
			c-0.9-2.8-0.5-5.9-3.7-6.6c-2.9-0.7-4.9,1.6-5.8,4c-1.1,2.7-2,5.7-2.1,8.6c-0.1,1.7,1.3,4.5,2.7,4.9c1.4,0.5,4.2-0.8,5.2-2.2
			C452.2,636.8,453.1,633.6,454.3,630.6z M442.7,662.8c0,0.1,0.1,0.3,0.1,0.4c2.2-0.6,4.5-0.9,6.6-1.8c2.9-1.3,3-4.3,0.2-5.9
			c-1.9-1-4.1-1.6-6.2-2.1c-3.2-0.8-8.8,2.3-9.2,5c-0.4,2.4,2.4,4.1,7.1,4.4C441.7,662.9,442.2,662.8,442.7,662.8z"/>
		<path class="st0" d="M40.7,689.4c-1.9,2.1-3.7,4.3-6.3,7.2c0-1.5-0.3-2.4,0-2.8c2.1-2.7,4.2-5.6,6.7-7.9c0.9-0.9,3.4-1.5,4.3-0.9
			c1.1,0.7,2.1,2.9,1.8,4.3c-0.6,3.5-1.8,6.9-2.9,10.3c-1,3.1-2.2,6.1-3,9.2c-0.3,0.9,0.3,2.1,0.5,3.2c1.1-0.3,2.6-0.3,3.4-1
			c1.4-1.3,2.8-2.9,3.6-4.6c2.7-5.8,5.2-11.6,7.6-17.5c1.6-4.1,1.5-4.2,6-3.5c-1.3,6.9-2.9,13.8-3.9,20.8c-0.3,2.1,0.9,4.5,1.3,6.7
			c1.8-1.4,4.2-2.5,5.3-4.3c1.9-3.1,3.6-6.5,4.5-10.1c0.6-2.2-0.3-4.8-0.7-7.3c-0.1-0.9-1.1-1.9-0.9-2.6c0.5-1.5,1.5-2.8,2.3-4.2
			c1.2,0.8,2.8,1.4,3.5,2.5c0.7,1,0.8,2.7,0.6,4c-1.1,7.8-3.8,15-8.5,21.4c-2.9,3.8-6.4,5.4-9.1,4.4c-2.9-1.1-4.4-5.3-3.6-10.1
			c0.2-1.1,0.4-2.2,0.1-3.5c-1,1.9-1.8,3.9-3,5.6c-1.6,2.4-3.3,4.9-5.5,6.6c-1.5,1.1-4.4,1.6-5.9,0.9c-1.5-0.8-2.3-3.4-2.8-5.4
			c-0.3-1.3,0.3-3,0.8-4.4c1.3-4.4,2.8-8.8,4.2-13.2c0.3-1,0.5-2.1,0.8-3.1C41.4,689.9,41,689.6,40.7,689.4z"/>
		<path class="st0" d="M65.9,1070c-2.6,3.9-4.8,7.5-7.4,10.9c-1.8,2.3-4.4,4-7.6,2.4c-3.2-1.6-3.3-4.7-2.5-7.6
			c1.4-5.2,3.2-10.4,4.7-15.6c0.3-1,0.6-2.1,0.8-3.2c-0.4-0.3-0.7-0.5-1.1-0.8c-1.8,2.1-3.7,4.2-6.1,7c-0.1-1.2-0.5-2.2-0.2-2.6
			c2.2-2.8,4.4-5.7,6.9-8.2c0.8-0.8,3.1-1.3,4-0.8c1.1,0.7,2.1,2.7,1.9,3.9c-0.7,3.8-2,7.6-3.2,11.3c-0.9,3-2,5.9-2.8,8.9
			c-0.2,0.9,0.1,2.6,0.5,2.7c0.9,0.3,2.4,0.1,3.1-0.5c1.4-1.3,2.9-2.8,3.7-4.6c2.7-5.9,5.3-11.8,7.7-17.8c1.7-4.1,1.5-4.2,6-3.6
			c-1.3,6.9-2.9,13.8-3.9,20.8c-0.3,2.2,0.8,4.5,1.3,6.8c1.8-1.4,4.1-2.5,5.3-4.3c1.9-2.8,3.2-6.1,4.5-9.3c1.1-2.8,1-5.6-0.7-8.3
			c-0.6-0.9-1.1-2.3-0.8-3.2c0.4-1.2,1.5-2.7,2.7-3.1c0.8-0.3,2.5,1,3.1,2c0.7,1.2,0.9,2.9,0.7,4.3c-1.1,7.8-3.7,15-8.5,21.4
			c-3,4-6.7,5.6-9.4,4.3c-2.7-1.3-4.1-5.3-3.4-9.9C65.4,1072.5,65.6,1071.3,65.9,1070z"/>
		<path class="st0" d="M136.4,1013.6c1-1.1,1.4-1.9,1.9-2c3.8-0.5,5.7-3.3,7.4-6.2c6.6-11.2,13.4-22.3,19.7-33.6
			c2-3.5,4.7-4.7,8.6-5.2c0.3,4.4,0.7,8.6,0.9,12.8c0.5,8.7,1.1,17.4,1.5,26c0.3,5,0.6,5.4,6.1,6.5c-0.9,0.7-1.4,1.5-2,1.6
			c-5.3,0.1-10.6,0.1-15.9,0.1c-0.1-0.3-0.2-0.7-0.3-1c0.8-0.4,1.6-1,2.5-1c2.6-0.3,3.6-1.6,3.5-4.2c-0.2-3.2,0-6.5,0-10.2
			c-5.4,0-10.2-0.1-15,0.1c-0.7,0-1.5,0.9-2,1.6c-1.4,2.3-2.7,4.6-4,6.9c-2.3,4.1-1.8,5.1,3.6,6.1c-1.1,0.8-1.7,1.6-2.4,1.6
			C146.2,1013.7,141.7,1013.6,136.4,1013.6z M169.7,993.9c-0.3-6.8-0.7-13.4-1-20c-0.2-0.1-0.5-0.2-0.7-0.2
			c-3.8,6.7-7.7,13.3-11.6,20.2C161,993.9,165.1,993.9,169.7,993.9z"/>
		<path class="st0" d="M185.8,357.2c-1.6,1.8-8.9,2.2-17.8,0.7c0.8-0.4,1.5-1.1,2.3-1.2c2.8-0.2,3.8-1.6,3.6-4.3
			c-0.2-3.1,0-6.2,0-10c-5.4,0-10.3-0.1-15.2,0.1c-0.7,0-1.4,1-1.9,1.7c-1.4,2.2-2.6,4.4-3.8,6.6c-2.4,4.3-2,5.2,2.8,6.2
			c-0.9,1.9-4.8,2.3-15.8,1.5c0.9-0.9,1.4-1.7,1.9-1.8c3.5-0.6,5.3-3,7-5.7c6.6-11.2,13.4-22.2,19.8-33.5c2-3.5,4.5-5.3,8.9-5.6
			c0.3,4.1,0.7,8.2,0.9,12.3c0.6,8.7,1.1,17.4,1.6,26C180.3,355.6,180.4,355.8,185.8,357.2z M173.1,339.1c-0.4-6.9-0.7-13.5-1-20
			c-0.2-0.1-0.5-0.2-0.7-0.2c-3.8,6.7-7.7,13.3-11.7,20.2C164.4,339.1,168.6,339.1,173.1,339.1z"/>
		<path class="st0" d="M657.1,650c1-1.3,2-2.6,2.9-4c0.8-1.2,1.6-2.5,2.8-4.5c0.3,5-4.3,11.3-7.8,12.1c-2.9,0.7-4.5-1.1-5.2-5.3
			c-2,1.5-3.9,3.4-6.2,4.6c-3.9,2-7.6,0.4-8.7-3.8c-0.6-2.2-0.9-4.6-0.5-6.8c1.1-6.7,4.3-12.4,9.3-17.1c3.7-3.5,7.9-5.9,13.4-2.6
			c1-3.7,2-7,2.7-10.3c0.8-3.5-2.3-2.2-4.6-3.2c3.5-3.3,7.8-2.1,11.9-3.7c-4.1,15-7.9,29.4-11.8,43.7
			C655.9,649.5,656.5,649.7,657.1,650z M639.7,646.9c0.5,0.9,1.1,2.9,2.2,3.2c1.2,0.4,3.2-0.5,4.2-1.4c5.4-5.5,8.1-12.3,9-19.8
			c0.2-1.5-1-4-2.1-4.5c-1.2-0.5-3.7,0.5-4.7,1.6C643.1,631.7,641,638.7,639.7,646.9z"/>
		<path class="st0" d="M645.4,983c0.8-3,1.6-5.6,2.3-8.3c1.1-4.1,1-4.2-3.2-4.7c0.5-2.3,0.5-2.3,10.8-3.7
			c-3.9,14.6-7.8,28.9-11.8,43.7c5.2-0.5,4.5-5.8,8-6.8c-1.4,4.3-3,8.4-7.4,10.5c-3.3,1.5-5.5-0.5-5.9-5.2c-1.8,1.5-3.3,3.2-5.3,4.4
			c-4.7,2.8-8.7,1.2-10.1-4.1c-0.5-1.9-0.6-3.9-0.3-5.8c1.3-7.3,4.8-13.5,10.5-18.3C637.2,981.3,640,980.9,645.4,983z M643.8,988.3
			c-0.7-1-1.3-3-2.6-3.4c-1.3-0.4-3.5,0.4-4.5,1.5c-5.2,5.8-7.7,12.8-8.4,20.4c-0.1,1.3,0.7,3.5,1.6,3.8c1.2,0.4,3.3-0.2,4.3-1.2
			C639.9,1003.8,642.3,996.6,643.8,988.3z"/>
		<path class="st0" d="M182.1,1052.6c0.8-3,1.6-5.6,2.3-8.3c1.1-4,0.9-4.2-3.3-4.6c0.6-2.4,0.6-2.4,10.8-3.6
			c-3.9,14.5-7.8,28.9-11.7,43.2c0.6,0.3,1.1,0.6,1.7,0.9c1.9-2.5,3.8-5.1,5.6-7.6c0.3,0.3,0.7,0.6,1,0.8c-1.8,3.9-3.4,8.1-7.8,10.1
			c-3.3,1.5-5.4-0.5-5.8-5.1c-2,1.6-3.9,3.5-6.2,4.7c-4,2.1-7.7,0.4-8.9-4c-0.6-2.1-0.8-4.4-0.5-6.5c1.2-7.2,4.7-13.3,10.2-18.1
			C173.8,1050.9,176.6,1050.5,182.1,1052.6z M164.8,1076.7c0.5,0.9,0.9,3.2,1.9,3.4c1.3,0.3,3.5-0.4,4.5-1.5
			c5.4-5.5,8-12.3,8.9-19.8c0.2-1.5-1.1-4-2.2-4.4c-1.2-0.4-3.7,0.6-4.7,1.8C168.2,1061.8,166.1,1068.7,164.8,1076.7z"/>
		<path class="st0" d="M347.4,1010.5c1.8-2.6,3.5-5.1,5.8-8.3c0.1,4.9-4.2,10.9-7.7,11.9c-3.1,0.9-5-1-5.3-5.6c-1.6,1.4-3,3-4.6,4.1
			c-5.1,3.5-9.6,1.7-10.9-4.3c-0.4-1.9-0.4-3.9,0-5.8c1.2-6.3,4.2-11.8,8.8-16.2c3.8-3.7,8-6.5,13.8-3c1-3.6,2-6.8,2.7-10
			c0.5-2.4,0.2-2.6-4.8-3.4c3.8-3.3,8-2.3,12-3.7c-3.6,15.1-8.3,29.2-11.5,43.7C346.2,1010,346.8,1010.3,347.4,1010.5z
			 M329.9,1007.2c0.5,0.9,1,3.1,2,3.4c1.3,0.3,3.5-0.5,4.5-1.5c5.3-5.5,8-12.4,8.9-19.8c0.2-1.4-1.1-4-2.3-4.4
			c-1.2-0.4-3.6,0.6-4.7,1.8C333.3,992.2,331.2,999.2,329.9,1007.2z"/>
		<path class="st0" d="M368.8,606c-4,14.6-7.8,28.9-11.8,43.8c5.2-0.7,4.6-5.8,7.7-7.3c0.7,4.2-4.8,11.4-8.6,11.3
			c-3.6-0.1-4.1-2.7-4.1-5.7c-2,1.6-3.6,3.4-5.7,4.6c-4.4,2.6-8.4,0.9-9.6-4c-0.5-2.1-0.7-4.4-0.3-6.5c1.3-6.9,4.7-12.8,9.9-17.5
			c3.6-3.2,7.6-5,12.7-2c1-3.5,2-6.8,2.7-10.2c0.5-2.3,0.2-2.5-3.7-2.9C358.6,607.2,358.6,607.2,368.8,606z M357.3,627.9
			c-0.7-1-1.4-3.3-2.7-3.6c-1.3-0.4-3.7,0.7-4.7,1.8c-4.9,5.6-7.4,12.5-8.1,19.9c-0.1,1.4,0.8,3.8,1.7,4.1c1.3,0.3,3.5-0.4,4.5-1.5
			C353.5,643.1,355.8,636.1,357.3,627.9z"/>
		<path class="st0" d="M169.9,685.9c1-3.5,1.9-6.7,2.7-9.9c0.9-3.6-2.1-2.7-4.4-3.3c3.2-3.8,7.7-2,11.7-4.2
			c-3.7,15.4-8.4,29.5-11.6,44c0.5,0.3,1.1,0.5,1.6,0.8c1.8-2.6,3.6-5.1,5.8-8.3c0.2,4.8-4.4,11.1-7.9,11.9
			c-2.9,0.6-4.5-1.1-5.2-5.2c-2.1,1.5-4.1,3.5-6.6,4.6c-3.6,1.8-7.2,0.2-8.3-3.6c-0.7-2.3-0.9-4.8-0.6-7.1c1.1-6.6,4.3-12.2,9-16.8
			C160.1,685.1,164.3,682.8,169.9,685.9z M168.4,691c-0.7-1-1.3-3-2.6-3.4c-1.3-0.4-3.5,0.4-4.5,1.5c-5.2,5.8-7.7,12.8-8.4,20.4
			c-0.1,1.3,0.7,3.5,1.6,3.8c1.2,0.4,3.3-0.2,4.3-1.2C164.5,706.6,166.9,699.4,168.4,691z"/>
		<path class="st0" d="M323.9,675.9c-0.3,1.4-0.6,2.8-0.9,4.3c-0.4,1.5-0.8,2.9-1.2,4.7c0.8-0.1,1.3-0.1,1.8-0.2
			c5.2-0.9,8.8,1.4,10.2,6.5c3.1,11-5.6,24.2-17.3,25.6c-4,0.5-4.4,2.9-4.5,5.6c0,1.4,1.6,2.8,2.6,4.5c-0.7,1-5.8,1.4-13.8,0.4
			c0.6-0.7,1.1-1.6,1.6-1.7c3-0.2,3.7-2.2,4.4-4.6c2.5-9.7,5.1-19.4,8-30.2c-2,1.4-3.2,2.3-4.5,3c-0.7,0.4-1.5,0.4-2.3,0.6
			c0.3-0.8,0.6-1.7,1-2.4c0.3-0.5,0.8-0.9,1.3-1.2c5-2.5,7.2-6.8,8.2-12C319.1,675.8,320.6,674.5,323.9,675.9z M313.9,714.3
			c4.4-0.1,7.5-1.5,9.9-4.5c3.2-4.1,5.1-8.9,5.2-14.1c0-2.3-1.1-5-2.5-6.9c-1.8-2.3-5.4-1.5-6.1,0.9
			C318.2,697.8,316.1,705.8,313.9,714.3z"/>
		<path class="st0" d="M313,1094.1c0.6-0.8,0.8-1.7,1.1-1.7c3.7-0.1,4.3-2.9,5.1-5.6c2.2-8.5,4.5-17,6.7-25.5c0.3-1,0.4-2,0.8-3.7
			c-2,1.4-3.5,2.6-5,3.5c-0.4,0.2-1.1-0.1-1.7-0.2c0.1-0.5,0-1.1,0.3-1.5c0.7-0.8,1.4-1.6,2.3-2.1c5.1-2.3,6.9-6.8,8-11.8
			c0.6-2.9,2.1-4.3,5.5-3c-0.7,2.8-1.4,5.7-2.1,8.5c0.2,0.2,0.4,0.5,0.5,0.4c6.1-1.9,11.2,1.6,11.8,8.9c1,11.1-7.2,21.9-18.1,23
			c-4.2,0.4-4,3.3-4.2,5.8c-0.1,1.2,1.7,2.5,2.8,4C326.2,1094.6,322.6,1095,313,1094.1z M326.2,1080.9c4.2,0.2,7.3-1.2,9.7-4.1
			c3.3-4.2,5.3-9,5.4-14.4c0-2.2-1-4.8-2.3-6.6c-1.7-2.3-5.5-1.8-6.2,0.5C330.5,1064.4,328.4,1072.6,326.2,1080.9z"/>
		<path class="st0" d="M318.2,37.1c2.6,0,5,0,7.9,0c0,1.3,0,2.5,0,3.8c0,15.8,0,31.5,0,47.3c0,4.9,0,4.9-4.9,4.8c-0.9,0-1.8,0-3.1,0
			C318.2,74.4,318.2,55.9,318.2,37.1z"/>
		<path class="st0" d="M238.3,840.7c-2.6,0-5.1,0-7.9,0c0-18.5,0-37,0-55.7c2.6,0,5.1,0,7.9,0C238.3,803.6,238.3,822.1,238.3,840.7z
			"/>
		<path class="st0" d="M119.4,1038.9c3.1-2.5,7-2,11.1-3.1c-1.7,6.5-3.3,12.5-5.1,19.2c1.5-1.1,2.5-1.9,3.5-2.5
			c3.9-2.5,8-1.4,9.7,2.9c0.9,2.2,1.3,4.8,1.2,7.1c-0.6,7.4-3.8,13.6-9.4,18.4c-1.5,1.2-3.3,2.2-5.2,2.7c-5.4,1.6-10-1.7-9.8-7.3
			c0.1-3.1,0.8-6.2,1.6-9.2c1.9-7.3,3.9-14.5,5.9-21.8C124,1040.4,124,1040.4,119.4,1038.9z M135,1060.7c-1.3-2.2-2.4-4.2-3.5-6.1
			c-1.9,1.3-4.8,2.2-5.5,3.9c-2.4,5.8-4.1,12-5.7,18.1c-0.3,1.2,0.7,3.4,1.8,4c1.1,0.6,3.2,0.1,4.4-0.6c1.3-0.7,2.6-2.2,3.1-3.6
			C131.5,1071.4,133.1,1066.2,135,1060.7z"/>
		<path class="st0" d="M118.2,669.3c-1.7,6.3-3.3,12.2-4.9,18.5c0.7-0.2,0.9-0.2,1.1-0.4c2.4-2.2,5-4.1,8.4-2.6
			c3.7,1.6,4.7,5,4.8,8.6c0.1,9.1-3.7,16.4-11.1,21.7c-3,2.2-6.7,3.1-10.1,0.8c-3.5-2.3-3.9-5.9-3-9.6c2.3-9.4,4.8-18.8,7.3-28.3
			c1.2-4.5,1.2-4.5-3.2-5.3C108.2,670.4,108.9,670.2,118.2,669.3z M122.6,694.4c-0.2-0.1-0.5-0.2-0.7-0.2c-0.1-0.9,0.1-2-0.2-2.7
			c-0.6-1.3-1.3-3.1-2.3-3.4c-1.1-0.4-2.7,0.7-3.9,1.4c-0.6,0.3-1.1,1-1.3,1.6c-2.1,6.3-4.2,12.6-6,19c-0.3,1.1,0.7,3.3,1.7,3.7
			c1.2,0.6,3.3,0.3,4.4-0.4c1.5-0.9,2.9-2.5,3.5-4.1C119.5,704.3,121,699.3,122.6,694.4z"/>
		<path class="st0" d="M600.6,652.8c2.3-9.1,6.8-17.4,8.2-26.5c-0.5-0.2-0.9-0.4-1.4-0.6c-1.1,1.4-2.2,2.8-3.3,4.2
			c-1,1.1-2,2.2-3,3.3c-0.4-0.4-0.9-0.8-1.3-1.2c2.5-3.1,4.8-6.4,7.5-9.2c0.9-0.9,3.3-1.6,4.2-1c1.2,0.7,2.3,2.8,2.2,4.2
			c-0.3,3.1-1.3,6.1-2.1,9.1c-0.4,1.3-0.9,2.5-0.7,4.1c2.2-3.6,4.3-7.2,6.6-10.7c1.5-2.2,3.1-4.4,5.1-6.1c2.8-2.4,6.2-0.9,6.4,2.8
			c0.2,2.2-0.4,4.6-1,6.8c-1.4,4.8-3.1,9.5-4.6,14.2c-0.3,1-0.5,2.1-0.8,3.2c0.4,0.3,0.7,0.5,1.1,0.8c2-2.3,4-4.7,6.2-7.3
			c0.3,0.7,0.8,1.5,0.6,1.8c-1.9,2.7-3.8,5.6-6.2,7.9c-1,1-3.9,1.4-4.9,0.7c-1.2-0.9-2.1-3.5-1.7-5c1.5-5.9,3.6-11.7,5.4-17.6
			c0.4-1.4,0.5-2.9,0.7-4.4c-0.4-0.2-0.8-0.4-1.3-0.6c-1.2,1.4-2.6,2.7-3.5,4.3c-4.1,6.7-8.3,13.4-12.2,20.3
			C605.4,652.7,603.7,653.8,600.6,652.8z"/>
		<path class="st0" d="M618.3,1003.2c0.3,0.8,0.7,1.4,0.6,1.6c-2,2.8-3.9,5.8-6.3,8.2c-1,1-3.9,1.4-4.9,0.7c-1.2-0.9-2-3.5-1.6-5
			c1.5-5.9,3.6-11.7,5.4-17.6c0.4-1.4,0.5-2.9,0.7-4.4c-0.4-0.2-0.8-0.4-1.3-0.6c-1.2,1.5-2.7,2.9-3.7,4.6c-4.1,6.6-8.2,13.2-12,20
			c-1.5,2.6-3.2,3.7-6.3,2.7c2.2-9,6.8-17.3,8.2-27.3c-4.4,1.7-4.6,6.4-7.9,7.6c-0.4-0.4-0.8-0.8-1.2-1.2c2.5-3.1,4.8-6.4,7.5-9.2
			c0.9-0.9,3.3-1.5,4.2-1c1.2,0.7,2.3,2.8,2.2,4.2c-0.3,3.1-1.3,6.1-2.1,9.1c-0.4,1.3-0.9,2.5-0.7,4.1c2.2-3.6,4.3-7.2,6.6-10.7
			c1.4-2.1,2.9-4.2,4.8-5.9c3.1-2.7,6.6-1.1,6.8,3c0.1,2.1-0.5,4.4-1.1,6.4c-1.4,4.8-3.1,9.5-4.6,14.2c-0.3,1-0.5,2.1-0.8,3.2
			c0.4,0.2,0.7,0.5,1.1,0.7C614,1008.2,616,1005.9,618.3,1003.2z"/>
		<path class="st0" d="M474.3,986.1c-1.2,1.6-2.6,3-3.7,4.7c-4,6.5-8,13-11.8,19.7c-1.5,2.6-3.1,3.9-6.3,2.8
			c2.1-9,6.8-17.3,8.1-26.6c-0.4-0.2-0.8-0.4-1.2-0.6c-2.1,2.5-4.3,5-6.4,7.5c-0.5-0.4-0.9-0.8-1.4-1.3c2.6-3.2,5-6.5,7.8-9.4
			c0.8-0.9,3.2-1.5,4-0.9c1.2,0.8,2.5,2.9,2.3,4.2c-0.6,3.8-1.9,7.6-2.9,11.4c-0.1,0.5-0.3,1.1,0.1,1.9c2.1-3.4,4.1-6.9,6.4-10.3
			c1.5-2.2,3-4.4,5-6.2c1-0.9,3.3-1.5,4.3-1c1.2,0.7,2.4,2.6,2.5,4.1c0.2,2.1-0.5,4.3-1.1,6.4c-1.4,4.7-3,9.3-4.5,13.9
			c-0.3,1.1-0.6,2.2-0.8,3.2c0.4,0.3,0.7,0.5,1.1,0.8c2.1-2.4,4.1-4.7,6.5-7.4c0.1,4.4-5.1,10.7-8.5,11.1c-3,0.4-5-2.1-4.1-5.6
			c1.7-5.9,3.7-11.7,5.5-17.6c0.4-1.4,0.5-3,0.8-4.4C475.3,986.5,474.8,986.3,474.3,986.1z"/>
		<path class="st0" d="M464,652.7c2.4-9,6.7-17.3,8.3-26.4c-0.5-0.2-1-0.4-1.5-0.7c-1.1,1.4-2.2,2.8-3.3,4.2c-1,1.1-2,2.2-3,3.4
			c-0.4-0.4-0.9-0.8-1.3-1.2c2.5-3.1,4.8-6.4,7.5-9.2c0.9-0.9,3.3-1.6,4.2-1.1c1.2,0.7,2.3,2.8,2.2,4.2c-0.3,3.1-1.3,6.1-2.1,9.1
			c-0.3,1.3-0.9,2.5-0.8,4.1c2.2-3.6,4.3-7.2,6.6-10.6c1.5-2.2,3.1-4.4,5.1-6.1c2.8-2.4,6.2-1,6.5,2.7c0.2,2.2-0.4,4.6-1,6.8
			c-1.4,4.8-3.1,9.5-4.6,14.2c-0.3,1.1-0.5,2.1-0.8,3.2c0.4,0.2,0.7,0.5,1.1,0.7c2.1-2.3,4.1-4.7,6.6-7.4c-0.1,4.4-5,10.5-8.3,11.1
			c-3.2,0.6-5.4-1.9-4.3-5.6c1.7-5.9,3.7-11.7,5.5-17.6c0.4-1.4,0.5-2.9,0.8-4.4c-0.4-0.2-0.8-0.4-1.3-0.6c-1.2,1.4-2.6,2.7-3.5,4.2
			c-4.1,6.7-8.3,13.4-12.2,20.2C468.9,652.6,467.3,654,464,652.7z"/>
		<path class="st0" d="M595.8,621.2c-3.3,9.7-6.2,18.5-9.2,27.3c0.5,0.3,1,0.6,1.5,0.9c2.2-2.4,4.5-4.9,6.7-7.3
			c0.4,0.3,0.7,0.7,1.1,1c-2,2.8-3.8,5.9-6.2,8.4c-1.2,1.3-3.8,2.3-5.4,1.9c-1.4-0.4-2.2-2.9-3.3-4.6c-0.5,0.5-1.4,1.7-2.6,2.6
			c-2.6,2.3-5.7,3.2-9,1.9c-3.2-1.3-4.2-4-4.5-7.2c-0.7-8.4,6-20,13.5-23.6c4.6-2.2,7.5-1.8,10,0.7
			C590.9,622.4,593,621.9,595.8,621.2z M587.4,629.1c0-4.6-1.9-6-5.1-4.7c-1.2,0.5-2.5,1.3-3.4,2.3c-5,5.5-7.4,12.2-8.1,19.5
			c-0.1,1.3,0.9,3.5,1.9,3.9c1.1,0.5,3.4-0.1,4.3-1C583.1,643.4,585.7,635.9,587.4,629.1z"/>
		<path class="st0" d="M576.6,1009.7c2.2-2.4,4.3-4.8,6.5-7.2c0.3,0.3,0.7,0.6,1,0.9c-1.8,2.6-3.2,5.5-5.4,7.7
			c-1.5,1.5-4.1,2.8-6.1,2.7c-1.2-0.1-2.2-3-3.1-4.4c-0.7,0.7-2,1.9-3.3,2.9c-2.5,1.9-5.4,2.7-8.5,1.5c-3.1-1.2-4.2-3.8-4.5-6.9
			c-0.9-8.6,5.9-20.5,13.7-24.1c4.5-2,7.3-1.7,9.7,0.8c2.5-0.7,4.6-1.2,7.4-2c-3.2,9.7-6.2,18.5-9.2,27.3
			C575.5,1009.2,576.1,1009.5,576.6,1009.7z M558.8,1007.2c0.5,0.9,1,3,2.1,3.3c1.3,0.4,3.6-0.1,4.6-1.1c5.8-5.7,9-12.8,10.1-20.8
			c0.5-3.6-1.9-5.2-5.2-3.7c-1.2,0.5-2.5,1.4-3.4,2.3C562.1,992.7,560.1,999.4,558.8,1007.2z"/>
		<path class="st0" d="M197.8,482c-2.6,0-4.9,0-7.5,0c0-18.5,0-36.8,0-55.5c2.4,0,4.8,0,7.5,0C197.8,444.9,197.8,463.3,197.8,482z"
			/>
		<path class="st0" d="M289.8,1073c0.9-7.5,4-14.2,10.4-19.2c3.2-2.5,6.8-3.6,10.7-1.5c3.8,2.1,5.2,5.6,5,9.7
			c-0.6,8.4-4.2,15.4-11.3,20.2c-3.2,2.1-6.6,2.7-10.2,0.6C290.8,1080.6,289.8,1077.3,289.8,1073z M294.7,1077.4
			c0.6,0.9,1.4,3.4,2.8,3.9c1.5,0.5,3.7-0.9,5.4-1.7c0.7-0.4,1.4-1.3,1.7-2.2c2.1-6,4.1-12,6-18c0.3-0.8,0-1.8-0.2-2.7
			c-0.8-3.4-3.5-4.4-6.3-2.4c-1,0.7-1.9,1.7-2.6,2.8C297.7,1062.9,295.9,1069.4,294.7,1077.4z"/>
		<path class="st0" d="M277.6,706.3c0.6-7.3,3.9-14.2,10.4-19.4c3.2-2.5,6.8-3.6,10.7-1.5c3.7,2.1,5.2,5.6,4.9,9.7
			c-0.6,8.6-4.3,15.7-11.7,20.3C285.1,719.7,277.7,715.4,277.6,706.3z M282.5,710.5c0.6,0.9,1.3,3.4,2.7,3.9
			c1.5,0.5,4.3-0.4,5.4-1.7c5.2-6.3,7.4-13.8,7.7-21.8c0-1.4-1.3-3.7-2.4-4c-1.4-0.4-3.3,0.7-4.9,1.5c-0.8,0.4-1.3,1.3-1.8,2.1
			C285.5,696.2,283.7,702.6,282.5,710.5z"/>
		<path class="st0" d="M212.5,689.5c-1.8,2.1-3.6,4.2-5.9,6.8c-0.2-1.1-0.6-2-0.3-2.4c2.2-2.8,4.3-5.7,6.9-8.2
			c0.9-0.9,3.6-1.5,4.3-0.8c1.1,1,1.9,3.2,1.7,4.8c-0.3,2.7-1.3,5.4-2.1,8c-1.2,3.9-2.5,7.7-3.6,11.6c-0.3,1.2-0.1,3.4,0.6,3.7
			c1.1,0.5,3.1,0.4,4.1-0.3c5.7-4.2,9.2-9.8,9.6-16.9c0.1-1.5-0.8-3.1-1.3-4.6c-0.3-1.2-1.1-2.5-0.8-3.6c0.2-1.1,1.3-2.7,2.2-3
			c0.9-0.2,2.7,0.9,3.1,1.9c0.7,1.6,1,3.6,0.8,5.4c-0.8,7.7-3.6,14.7-8.9,20.3c-1.7,1.9-4.2,3.4-6.6,4.3c-5.3,1.9-9.3-1.4-8.1-6.9
			c1.1-5.3,3-10.5,4.5-15.7c0.4-1.3,0.7-2.5,1-3.8C213.3,689.9,212.9,689.7,212.5,689.5z"/>
		<path class="st0" d="M224.7,1056.3c-1.8,2.1-3.6,4.2-5.9,6.8c-0.2-1-0.7-1.9-0.4-2.2c2.3-2.9,4.5-5.9,7.1-8.4
			c0.9-0.8,3.5-1.2,4.3-0.5c1.1,0.9,1.8,3.1,1.5,4.5c-0.9,4.4-2.4,8.7-3.7,13c-0.7,2.4-1.6,4.8-2.2,7.3c-0.2,1,0.1,2.7,0.7,3.1
			c0.9,0.5,2.5,0.5,3.5,0c7.4-3.3,11.9-15.2,8.8-22.5c-0.5-1.1-0.9-2.6-0.5-3.6c0.3-1,1.4-2.2,2.4-2.4c0.7-0.2,2.4,0.8,2.6,1.6
			c0.6,2.1,1.1,4.3,0.9,6.4c-0.8,7.2-3.4,13.8-8.3,19.1c-2,2.2-4.9,4-7.7,5c-4.7,1.7-8.6-1.7-7.6-6.7c1.1-5.4,3-10.7,4.5-16
			c0.4-1.3,0.7-2.5,1.1-3.8C225.5,1056.8,225.1,1056.5,224.7,1056.3z"/>
		<path class="st0" d="M212.3,1073.4c0,0.9,0.3,1.8,0,2.1c-2.8,2.6-5.4,5.9-8.8,7.5c-5.4,2.6-10.5-0.6-11.6-6.6
			c-1.6-8.2,5.3-21,13-24.3c3.5-1.5,7.2-1.1,9,1.2c2.2,3,1.3,6-0.5,8.7c-3.1,4.7-7.9,7.3-13,9.5c-2.8,1.3-3.8,4.3-2.3,7.4
			c1.5,3,4.1,2.6,6.2,1.2C206.9,1078.4,209.2,1076,212.3,1073.4z M198,1070.3c5.4-2.3,9.5-5.3,11.7-10.1c0.7-1.6,0-3.8-0.1-5.7
			c-1.7,0.6-3.8,0.9-5,2C200.8,1059.9,199.1,1064.5,198,1070.3z"/>
		<path class="st0" d="M200.7,706.6c0,1,0.3,1.9,0,2.1c-2.9,2.6-5.4,5.8-8.8,7.5c-5.4,2.6-10.4-0.7-11.6-6.6
			c-1.6-8.2,5.3-21,13-24.3c3.5-1.5,7.3-1.1,9,1.3c2.2,3,1.2,6-0.6,8.7c-3.1,4.7-8,7.3-13,9.5c-2.8,1.2-3.8,4.3-2.3,7.4
			c1.5,3,4.1,2.6,6.2,1.2C195.4,711.5,197.8,709.1,200.7,706.6z M186.5,703.5c5.6-2.6,10-5.6,12-11c0.5-1.4-0.2-3.2-0.3-4.8
			c-1.5,0.4-3.5,0.4-4.6,1.4C189.5,692.6,187.6,697.5,186.5,703.5z"/>
		<path class="st0" d="M279.7,643.3c0,0.9,0.3,1.8,0,2.1c-2.8,2.6-5.4,5.9-8.8,7.5c-5.4,2.6-10.5-0.6-11.6-6.6
			c-1.6-8.2,5.3-21,13-24.3c3.5-1.5,7.2-1.1,9,1.2c2.2,3,1.3,6-0.5,8.7c-3.1,4.7-7.9,7.3-13,9.5c-2.8,1.3-3.8,4.2-2.3,7.4
			c1.5,3,4.1,2.6,6.2,1.2C274.3,648.3,276.6,645.9,279.7,643.3z M265.4,640.2c5.4-2.3,9.5-5.3,11.7-10.1c0.7-1.6,0-3.8,0-5.7
			c-1.7,0.6-3.8,0.9-5,2C268.2,629.8,266.5,634.5,265.4,640.2z"/>
		<path class="st0" d="M338.8,706.4c0.9-7.9,4.4-15.1,11.6-20.1c1.2-0.8,2.8-1.7,4.1-1.6c2.2,0.2,5,0.5,6.2,1.9
			c1.2,1.4,1.6,4.7,0.8,6.3c-1.6,3-4.2,5.7-6.8,8c-1.8,1.6-4.3,2.9-6.7,3.6c-3.3,1-3.6,3.1-3.3,5.8c0.4,3.5,2.7,5.1,5.8,3.4
			c2.5-1.3,4.5-3.5,6.7-5.3c0.6-0.5,1.4-0.8,2.1-1.2c-0.2,0.9-0.1,2-0.6,2.5c-1.6,1.8-3.2,3.7-5.1,5.1c-3,2.2-6.5,3.2-10.1,1.3
			C340,714.2,339.1,710.8,338.8,706.4z M345.3,703.7c5.9-3.1,10.6-6.2,12.4-12.1c0.4-1.2-0.5-2.7-0.8-4.1c-1.3,0.3-2.8,0.3-3.8,1
			C348.5,692.2,346.6,697.3,345.3,703.7z"/>
		<path class="st0" d="M268.5,1074.7c-2.2,3.7-5,6.9-9.2,8.5c-5.6,2.1-10.6-0.7-11.7-6.6c-1.7-8.3,5.4-21.4,13.2-24.5
			c3.1-1.2,6.3-1.5,8.6,1.3c2.4,2.8,1.4,6-0.4,8.7c-3.1,4.8-7.9,7.3-12.9,9.5c-2.9,1.3-3.8,4.1-2.4,7.3c1.1,2.4,3.5,3.1,6.5,1.2
			c2.1-1.3,3.8-3.3,5.7-5c0.6-0.5,1.3-0.9,2-1.4C268.1,1074,268.3,1074.3,268.5,1074.7z M253.7,1070.3c5.4-2.3,9.5-5.3,11.7-10.1
			c0.7-1.6,0-3.8-0.1-5.7c-1.7,0.6-3.8,0.9-5,2C256.6,1059.9,254.9,1064.6,253.7,1070.3z"/>
		<path class="st0" d="M351.1,1072.9c0.9-7.6,4.4-14.5,11-19.5c0.8-0.6,1.8-1.1,2.7-1.5c3-1.1,6.1-1.3,8.3,1.3
			c2.3,2.7,1.5,5.7-0.2,8.4c-3,5-8,7.6-13.1,9.9c-3,1.3-3.9,4-2.5,7.3c1.1,2.4,3.5,3.2,6.4,1.3c2.2-1.4,3.9-3.5,5.9-5.2
			c0.5-0.4,1.2-0.6,1.9-0.9c-0.1,0.7,0.1,1.6-0.2,2c-1.9,2-3.7,4.2-5.9,5.8c-3.1,2.3-6.6,3-10.1,0.9
			C352,1080.7,351.2,1077.2,351.1,1072.9z M357.5,1070.4c5.8-2.9,10.4-6,12.4-11.8c0.4-1.2-0.4-2.8-0.6-4.2c-1.4,0.3-3.1,0.2-4,1
			C360.7,1059.1,358.7,1064.2,357.5,1070.4z"/>
		<path class="st0" d="M77,705.9c0.8-7.5,4.3-14.6,11.6-19.7c1.2-0.8,2.8-1.7,4.1-1.6c2.2,0.2,5,0.5,6.2,1.9
			c1.2,1.4,1.6,4.7,0.8,6.3c-1.6,3-4.2,5.7-6.8,8c-1.8,1.6-4.3,2.9-6.7,3.6c-3.6,1-3.6,3.4-3.2,6.2c0.5,3.1,2.6,4.6,5.5,3.2
			c2.6-1.3,4.7-3.6,7-5.4c0.6-0.5,1.4-0.8,2.1-1.2c-0.2,0.9-0.1,2-0.6,2.5c-1.6,1.8-3.2,3.7-5.1,5.1c-3,2.2-6.5,3.1-10.1,1.3
			C78.8,714.7,77,711.2,77,705.9z M83.4,703.4c5.4-2.3,9.5-5.3,11.7-10.1c0.7-1.6,0-3.8-0.1-5.7c-1.7,0.6-3.8,0.9-5,2
			C86.2,693.1,84.5,697.7,83.4,703.4z"/>
		<path class="st0" d="M256.3,707.8c-2.2,3.7-5,6.9-9.1,8.5c-5.6,2.1-10.6-0.7-11.8-6.6c-1.7-8.2,5.4-21.4,13.2-24.5
			c3.1-1.2,6.3-1.5,8.7,1.3c2.4,2.8,1.4,5.9-0.4,8.7c-3.1,4.8-7.9,7.3-12.9,9.6c-3,1.3-3.9,4.1-2.5,7.3c1.1,2.4,3.5,3.1,6.5,1.3
			c2.1-1.3,3.8-3.3,5.7-5c0.6-0.5,1.3-1,2-1.5C255.8,707.2,256,707.5,256.3,707.8z M241.5,703.5c5.6-2.7,10-5.7,12.1-11.1
			c0.5-1.4-0.2-3.2-0.4-4.8c-1.5,0.4-3.3,0.4-4.3,1.3C244.6,692.5,242.6,697.5,241.5,703.5z"/>
		<path class="st0" d="M89.1,1073.2c0.9-7.9,4.4-15.1,11.6-20.1c0.9-0.6,2.1-1,3.1-1.4c2.7-0.9,5.4-0.6,7.4,1.6
			c2.1,2.3,1.6,5,0.4,7.5c-2.8,5.5-7.8,8.5-13.3,10.6c-3.2,1.2-3.6,3.1-3.2,5.8c0.4,3.5,2.7,5,5.9,3.4c2.4-1.2,4.3-3.4,6.5-5.1
			c0.7-0.6,1.5-1,2.3-1.5c-0.3,1-0.2,2.1-0.8,2.8c-1.5,1.8-3.1,3.5-4.9,4.8c-3.1,2.2-6.5,3.2-10.1,1.3
			C90.3,1081,89.3,1077.6,89.1,1073.2z M95.6,1070.3c5.6-2.7,10-5.7,12.1-11.1c0.5-1.4-0.2-3.2-0.4-4.8c-1.5,0.4-3.3,0.4-4.3,1.3
			C98.7,1059.3,96.7,1064.3,95.6,1070.3z"/>
		<path class="st0" d="M507.7,1003.8c0,0.9,0.3,1.8,0,2.1c-2.8,2.6-5.4,5.9-8.8,7.5c-5.4,2.6-10.5-0.6-11.6-6.6
			c-1.6-8.2,5.3-21,13-24.3c3.5-1.5,7.3-1.1,9,1.2c2.2,3,1.3,6-0.5,8.7c-3.1,4.7-7.9,7.3-13,9.5c-2.8,1.2-3.8,4.3-2.3,7.4
			c1.5,3,4.1,2.6,6.2,1.2C502.3,1008.8,504.7,1006.4,507.7,1003.8z M493.4,1000.8c5.5-2.7,10-5.7,12-11c0.5-1.4-0.1-3.2-0.3-4.8
			c-1.5,0.4-3.5,0.4-4.6,1.3C496.5,989.8,494.5,994.7,493.4,1000.8z"/>
		<path class="st0" d="M377.9,1005.1c-2.3,3.8-5.1,7-9.4,8.6c-5.5,2-10.3-0.8-11.5-6.5c-1.8-8.3,5.5-21.8,13.4-24.7
			c3.1-1.2,6.3-1.3,8.6,1.5c2.2,2.7,1.2,5.8-0.4,8.4c-3.1,4.8-7.9,7.4-12.9,9.6c-3,1.4-4.1,4.4-2.5,7.6c1.2,2.3,3.6,2.8,6.6,0.9
			c2-1.3,3.6-3.2,5.4-4.8c0.6-0.6,1.3-1.1,1.9-1.6C377.4,1004.4,377.6,1004.7,377.9,1005.1z M363.1,1000.7c5.6-2.6,9.9-5.6,12-10.9
			c0.6-1.4-0.2-3.4-0.4-5.1c-1.5,0.5-3.4,0.6-4.5,1.6C366.2,989.9,364.3,994.8,363.1,1000.7z"/>
		<path class="st0" d="M520.5,644.5c-2.3,3.8-5.1,7-9.4,8.6c-5.5,2-10.3-0.8-11.5-6.5c-1.8-8.3,5.4-21.8,13.3-24.7
			c3.1-1.2,6.3-1.3,8.6,1.5c2.2,2.7,1.3,5.8-0.4,8.4c-3.1,4.8-7.9,7.4-12.9,9.6c-3.1,1.4-4.1,4.4-2.5,7.6c1.1,2.3,3.6,2.8,6.6,0.9
			c2-1.3,3.6-3.2,5.4-4.8c0.7-0.6,1.5-1,2.2-1.5C520.1,644,520.3,644.2,520.5,644.5z M505.7,640.3c6-3,10.6-6.1,12.4-12
			c0.4-1.2-0.5-2.7-0.8-4.1c-1.3,0.3-2.8,0.3-3.8,1C509,628.9,507,634,505.7,640.3z"/>
		<path class="st0" d="M389,643.3c0,1,0.3,1.9,0,2.2c-2.9,2.6-5.5,5.8-8.8,7.5c-5.2,2.6-10.3-0.6-11.5-6.3
			c-1.8-8.3,5.4-21.7,13.3-24.8c3.1-1.2,6.3-1.4,8.6,1.4c2.2,2.7,1.3,5.8-0.4,8.4c-3.1,4.9-8,7.5-13.2,9.8c-2.8,1.2-3.8,4.3-2.2,7.4
			c1.5,3,4.1,2.5,6.2,1.2C383.7,648.3,386,645.8,389,643.3z M374.8,640.2c5.4-2.5,9.7-5.5,11.9-10.5c0.6-1.5-0.1-3.6-0.2-5.4
			c-1.6,0.6-3.6,0.7-4.8,1.8C377.7,629.6,375.9,634.3,374.8,640.2z"/>
		<path class="st0" d="M257.9,1015c-2.6-1.3-5.5-2.3-7.8-4c-1-0.7-1.3-2.9-1.1-4.3c0.1-0.8,2-2.1,2.7-1.9c1.2,0.4,2.4,1.6,3.1,2.8
			c1.1,2,2,4.4,4.7,3.8c1.7-0.4,4.2-1.8,4.4-3c0.3-1.9-0.7-4.4-1.9-6.1c-1.5-2.1-4-3.5-5.8-5.4c-3.9-4-3.8-9.1,0.2-12.5
			c4-3.5,11.2-3.5,14.3,0.2c1.4,1.7,2.3,3.8,0.1,5.4c-2.3,1.7-3.5-0.3-4.6-2c-2.3-3.6-4.2-4.4-6.2-2.7c-2.3,1.9-2.2,5,0.4,7.6
			c1.5,1.6,3.4,2.9,5,4.3c3.9,3.6,5,7.1,3.5,10.8C267.1,1011.8,263,1014.3,257.9,1015z"/>
		<path class="st0" d="M389,1014.9c-2.5-1.1-5.3-1.8-7.4-3.4c-1.1-0.8-1.5-3.1-1.7-4.8c-0.1-0.6,1.9-2.2,2.3-2
			c1.4,0.7,2.9,1.7,3.6,3.1c1.2,2.2,2.4,4,5.2,3.6c3.8-0.5,5.6-4.4,3.2-7.6c-1.7-2.3-4.1-4-6.2-6c-4.3-4-5-8.5-2.1-12.3
			c3.2-4.1,9.9-5.2,14.1-2.2c1.1,0.8,2.2,2,2.4,3.2c0.2,1.1-0.4,2.9-1.3,3.4c-0.8,0.4-2.4-0.3-3.5-0.9c-0.7-0.4-1-1.5-1.5-2.3
			c-1.2-1.8-2.7-3.2-4.9-1.9c-2.3,1.4-3,3.6-1.7,6c0.7,1.3,1.9,2.3,2.9,3.4c1.1,1,2.3,1.9,3.4,2.9c3.9,3.6,5,7.1,3.6,10.8
			C398.1,1011.8,394,1014.3,389,1014.9z"/>
		<path class="st0" d="M400.5,654.5c-2.6-1.3-5.5-2.3-7.8-4c-1-0.7-1.3-2.9-1.1-4.3c0.1-0.8,2-2.1,2.7-1.9c1.2,0.4,2.4,1.6,3.1,2.8
			c1.1,2,2,4.4,4.7,3.8c1.7-0.4,4.2-1.8,4.4-3c0.3-1.9-0.7-4.4-1.9-6.1c-1.5-2.1-4-3.5-5.8-5.4c-3.9-4-3.8-9.1,0.2-12.5
			c4-3.5,11.2-3.5,14.3,0.2c1.4,1.7,2.3,3.8,0.1,5.4c-2.3,1.7-3.5-0.3-4.6-2c-2.3-3.6-4.2-4.4-6.2-2.7c-2.3,1.9-2.2,5,0.4,7.6
			c1.5,1.6,3.4,2.9,5,4.3c3.9,3.6,5,7.1,3.5,10.8C409.7,651.3,405.6,653.8,400.5,654.5z"/>
		<path class="st0" d="M261.3,360.1c-2.6-1.2-5.3-2.1-7.6-3.8c-1-0.8-1.3-3-1.2-4.6c0-0.7,1.9-2.1,2.4-1.8c1.3,0.6,2.6,1.7,3.4,2.9
			c1.1,2,2.1,4.3,4.7,3.7c1.6-0.3,4-1.7,4.2-2.8c0.3-2-0.5-4.5-1.7-6.2c-1.4-2-3.8-3.4-5.6-5.2c-4.1-4-4.3-9-0.7-12.6
			c3.9-3.8,11.2-4.1,14.5-0.4c0.9,1,1.3,2.7,1.3,4.1c0,0.7-1.7,2.1-2.3,2c-1.2-0.3-2.2-1.4-3.2-2.2c-0.4-0.4-0.6-1-0.9-1.4
			c-1.2-1.8-3-3.3-4.8-1.6c-1.2,1.2-1.9,3.6-1.7,5.4c0.1,1.3,1.8,2.6,2.9,3.7c1.1,1.1,2.5,2.1,3.7,3.2c3.9,3.6,4.9,7.1,3.4,10.8
			C270.4,357,266.3,359.4,261.3,360.1z"/>
		<path class="st0" d="M267.3,713.3c1.8-2.6,3.5-5.1,5.6-8.2c0.3,0.9,0.9,1.6,0.7,2c-1.6,2.7-3,5.6-5.1,7.8c-1.2,1.2-4,2.2-5.3,1.6
			c-1.3-0.6-2.4-3.5-2.1-5.1c0.7-4.7,2-9.3,3.2-13.8c1.7-6.5,3.5-13,5.1-19.5c1.2-4.4,1.1-4.4-4.3-5.7c4-2.9,8-2.2,12.1-3.4
			c-3.9,14.9-7.7,29.3-11.5,43.6C266.3,712.8,266.8,713.1,267.3,713.3z"/>
		<path class="st0" d="M277.5,1039.4c3.7-3.4,7.8-2.3,11.9-3.8c-3.9,15-7.7,29.4-11.5,43.8c0.5,0.2,1,0.5,1.5,0.7
			c1.8-2.5,3.6-5,5.6-8c0.3,0.5,1,1.3,0.8,1.5c-2,3.1-3.9,6.3-6.3,9c-0.8,0.9-3.2,1.2-4.3,0.6c-1.1-0.6-2.1-2.5-2.1-3.9
			c-0.1-2.3,0.6-4.6,1.1-6.8c2.4-9.3,4.9-18.6,7.3-27.8C282.8,1040.3,282.7,1040.3,277.5,1039.4z"/>
		<path class="st0" d="M230.9,327.4c2.1,0,3.8,0,5.6,0c0.3,2.7-0.8,3.9-3.3,3.5c-2.5-0.4-3.6,0.6-4.2,3.2
			c-1.3,6.1-3.1,12.1-4.6,18.2c-0.2,0.9-0.3,1.9-0.4,2.9c0.4,0.2,0.7,0.4,1.1,0.6c1.9-2.2,3.7-4.4,6-7.1c0.3,1,1,2.1,0.7,2.4
			c-2.1,2.6-4,5.5-6.6,7.4c-3.3,2.4-6.8,0.3-6.2-3.8c0.7-5,2.2-9.9,3.3-14.9c0.7-2.8,1.4-5.6,2.2-8.7c-1.7-0.1-3.3-0.2-5.2-0.3
			c0.2-1,0.4-2,0.6-2.9c0.3-0.2,0.5-0.4,0.7-0.4c6.3,1.3,6.3-3.9,7.3-7.5c0.9-3.3,2.6-4,5.7-2.9
			C232.7,320.4,231.9,323.7,230.9,327.4z"/>
		<path class="st0" d="M221.6,1010.6c1.9-2.2,3.7-4.4,6-7c0.3,0.9,1,2,0.7,2.3c-2,2.5-3.9,5.2-6.3,7.3c-1,0.9-3.6,1.1-4.7,0.4
			c-1.1-0.7-2-3-1.8-4.4c0.8-4.9,2.1-9.7,3.3-14.6c0.7-2.8,1.4-5.6,2.2-8.7c-1.7-0.1-3.3-0.2-5.2-0.4c0.2-1,0.4-1.9,0.6-2.9
			c0.4-0.1,0.7-0.4,1-0.4c3.8,0.7,5.8-1,6.3-4.8c0.1-0.9,0.7-1.8,0.8-2.7c0.5-3.4,2.5-4,5.6-2.9c-0.9,3.3-1.7,6.5-2.7,10.1
			c1.9,0,3.7,0,5.6,0c0.3,2.8-0.7,4-3.3,3.6c-2.5-0.4-3.7,0.5-4.2,3.1c-1.3,6.1-3.1,12.1-4.6,18.2c-0.2,0.9-0.3,1.9-0.4,2.9
			C220.9,1010.2,221.2,1010.4,221.6,1010.6z"/>
		<path class="st0" d="M246.5,625.4c-1.7-0.1-3.3-0.2-5.1-0.3c0.3-1.1,0.5-2.1,0.8-3.4c6.7,2.2,6.7-3.3,7.8-7.1
			c0.9-3.1,2.2-4.4,5.7-3.1c-0.8,3.3-1.7,6.6-2.6,10.1c2,0.1,3.8,0.2,5.6,0.3c0.3,2.8-1.1,3.7-3.5,3.3c-2.4-0.4-3.4,0.5-4,3
			c-1.4,6.2-3.2,12.3-4.7,18.5c-0.2,0.9-0.2,1.8-0.4,2.6c0.3,0.2,0.7,0.5,1,0.7c1.8-2.1,3.7-4.2,6.1-7c0.2,0.9,0.9,2,0.6,2.4
			c-1.9,2.5-3.7,5.1-6.1,7c-1.1,0.9-3.7,1.1-5,0.4c-1.1-0.6-1.9-3-1.6-4.4c1.3-6.6,3-13.1,4.6-19.6
			C245.9,627.8,246.2,626.7,246.5,625.4z"/>
		<path class="st0" d="M283.7,330.9c-1.9,0-3.4,0-4.9,0c-0.3-3,1-3.9,3.6-3.5c2,0.3,2.9-0.6,3.4-2.5c0.4-1.7,1.2-3.3,1.5-5
			c0.6-3.2,2.4-3.9,5.6-2.8c-0.8,3.3-1.7,6.6-2.6,10.2c2,0.1,3.7,0.2,5.5,0.2c0.3,2.8-0.9,3.8-3.4,3.4c-2.6-0.4-3.6,0.8-4.1,3.2
			c-1.4,6.1-3.1,12.1-4.6,18.2c-0.2,0.9-0.3,1.8-0.5,3.1c4-0.8,4.5-4.4,7.2-6.8c0.3,1.1,0.9,2.1,0.6,2.5c-1.8,2.4-3.5,5-5.8,6.8
			c-1.2,1-3.9,1.3-5.3,0.7c-1.1-0.5-1.9-3.2-1.6-4.7c1.3-6.5,3-12.9,4.6-19.3C283,333.5,283.3,332.4,283.7,330.9z"/>
		<path class="st0" d="M289.3,972c-0.9,3.5-1.7,6.7-2.6,10.1c2,0.1,3.8,0.2,5.6,0.3c0.3,2.8-1.1,3.7-3.5,3.3c-2.4-0.4-3.4,0.6-4,3
			c-1.4,6.2-3.2,12.3-4.7,18.5c-0.2,0.9-0.2,1.8-0.4,2.6c0.3,0.2,0.7,0.5,1,0.7c1.8-2.1,3.7-4.2,6.1-7c0.2,1,0.9,2.1,0.6,2.5
			c-1.9,2.5-3.7,5.1-6.1,7c-1.1,0.9-3.7,1.1-5,0.4c-1.1-0.6-1.9-3-1.6-4.4c1.3-6.6,3-13.1,4.6-19.6c0.3-1.1,0.5-2.2,0.8-3.5
			c-1.7-0.1-3.3-0.2-5.1-0.3c0.3-1.1,0.5-2.1,0.8-3.4c6.7,2.1,6.7-3.3,7.8-7.2C284.5,971.9,285.9,970.7,289.3,972z"/>
		<path class="st0" d="M513.7,1013.3c2.5-9,6.6-17.4,8.2-26.5c-0.5-0.2-1-0.5-1.4-0.7c-2,2.5-3.9,5-5.9,7.6
			c-0.5-0.4-0.9-0.8-0.9-0.8c2.7-3.6,5.1-7.6,8.4-10.6c2.2-2,5.4,0.7,4.9,4.1c-0.6,3.4-1.7,6.6-2.8,10.8c2.5-4,4.4-7.4,6.6-10.7
			c1.1-1.6,2.5-3.2,4.2-4.1c1-0.5,2.8,0.3,4.3,0.5c-0.3,1.5-0.6,3.1-1.1,4.6c-0.1,0.4-1,0.8-1.5,0.8c-4.8,0.2-6.9,3.8-8.9,7.3
			c-2.7,4.9-5.5,9.7-7.8,14.7C518.5,1013.2,516.9,1014.4,513.7,1013.3z"/>
		<path class="st0" d="M526,652.7c2.5-9,6.5-17.5,8.3-26.5c-0.5-0.2-1-0.5-1.5-0.7c-2,2.5-3.9,5.1-6.3,8.1c-0.2-1.2-0.7-1.9-0.4-2.2
			c2.1-2.9,4-6,6.5-8.6c1-1,3.7-1.6,4.8-1c1.1,0.7,1.9,3.1,1.7,4.7c-0.4,3.1-1.6,6.2-2.2,9.4c2-3.3,3.9-6.7,6.1-9.9
			c1.1-1.6,2.5-3.2,4.1-4.1c1.1-0.6,2.8,0.2,4.3,0.4c-0.3,1.5-0.6,3.1-1,4.6c-0.1,0.3-0.7,0.6-1.2,0.7c-6,0.4-8.1,5.3-10.5,9.5
			c-2.4,4.1-4.6,8.3-6.6,12.6C530.9,652.6,529.3,653.9,526,652.7z"/>
		<path class="st0" d="M203.9,625.6c-2,2.5-4,5-6,7.6c-0.2-4,5-10.9,8-11.9c2.8-0.9,5.1,1.4,4.5,4.7c-0.6,3.3-1.7,6.4-2.3,9.8
			c1.9-3.1,3.6-6.2,5.6-9.2c1.2-1.8,2.8-3.4,4.5-4.8c1.6-1.3,3.7-1.2,4.4,0.7c0.4,1.2-0.6,3-1.2,4.5c-0.1,0.3-0.8,0.6-1.2,0.6
			c-5.2,0.2-7.3,4.1-9.4,7.8c-2.7,4.7-5.2,9.6-7.7,14.4c-1.7,3.2-1.6,3.2-5.9,2.9c2.2-9,6.6-17.5,8.1-26.6
			C204.9,626.1,204.4,625.9,203.9,625.6z"/>
		<path class="st0" d="M372.4,688.9c-2,2.5-4.1,5.1-6.5,8.1c-0.1-4.3,5.7-12,8.9-12.5c2.6-0.4,4.6,1.8,3.9,5.1
			c-0.6,3.2-1.7,6.4-2.8,10.5c2.5-4.2,4.5-7.6,6.7-10.8c1.1-1.6,2.5-3.2,4.2-4c1-0.5,2.8,0.3,4.2,0.6c-0.3,1.5-0.4,3-0.9,4.4
			c-0.2,0.5-1.1,1-1.7,1c-4.6,0.3-6.8,3.6-8.8,7.1c-2.8,5-5.6,9.9-8,15c-1.3,2.8-2.9,3.9-6,2.9c2.1-9,6.6-17.3,8.1-26.4
			C373.3,689.4,372.8,689.1,372.4,688.9z"/>
		<path class="st0" d="M285.7,652.7c2.4-8.9,6.5-17.3,8.2-26.4c-0.5-0.3-0.9-0.5-1.4-0.8c-2,2.5-4,5.1-6.3,7.9
			c-0.4-0.9-0.8-1.5-0.6-1.7c2.3-3.2,4.4-6.5,7.1-9.4c0.8-0.9,3.4-1.4,4.3-0.8c1.1,0.8,2.1,2.9,1.9,4.3c-0.4,3.3-1.6,6.5-2.2,9.8
			c1.8-3,3.4-6,5.4-8.9c1.4-2,3.1-3.8,5-5.2c0.8-0.6,3.5-0.2,3.8,0.5c0.5,1.1,0,2.9-0.3,4.3c-0.1,0.5-1.1,1-1.7,1.1
			c-5.3,0.3-7.4,4.3-9.6,8.1c-2.6,4.6-5.2,9.3-7.4,14.1C290.4,652.9,288.7,653.8,285.7,652.7z"/>
		<path class="st0" d="M200.1,342.3c2.5-4,4.4-7.4,6.6-10.7c1.1-1.6,2.5-3.2,4.2-4.1c1-0.5,2.8,0.3,4.3,0.5
			c-0.3,1.5-0.6,3.1-1.1,4.6c-0.1,0.4-1,0.8-1.5,0.8c-4.6,0.2-6.8,3.5-8.8,7c-2.8,5-5.6,9.9-8,15c-1.3,2.8-2.9,4-6.1,2.9
			c2.3-8.9,6.6-17.4,8.2-26.5c-0.5-0.2-1-0.4-1.4-0.7c-2,2.5-3.9,5.1-5.9,7.6c-0.5-0.4-0.9-0.8-0.9-0.8c2.7-3.6,5.1-7.6,8.4-10.6
			c2.2-2,5.4,0.7,4.9,4.1C202.3,334.9,201.2,338.1,200.1,342.3z"/>
		<path class="st0" d="M186.5,994.2c-0.1-4.4,5.8-12,8.9-12.5c2.4-0.4,4.4,1.6,4,4.4c-0.3,2.3-1.1,4.5-1.7,6.7
			c-0.3,1.2-0.8,2.3-0.7,3.6c2.1-3.3,4-6.8,6.2-10c1.1-1.6,2.5-3.2,4.2-4c1-0.5,2.8,0.3,4.2,0.6c-0.3,1.5-0.5,2.9-0.9,4.4
			c-0.1,0.4-0.9,0.8-1.4,0.9c-5.7,0.4-7.8,4.9-10.1,9c-2.5,4.3-4.9,8.7-6.9,13.2c-1.3,2.9-3,3.9-6.1,2.8c2.6-8.8,6.3-17.4,8.5-26.3
			c-0.5-0.3-1-0.6-1.5-0.8C191.1,988.6,189,991.2,186.5,994.2z"/>
		<path class="st0" d="M384.7,1055.7c-2.1,2.5-4.2,5.1-6.2,7.6c-0.4-0.3-0.7-0.6-1.1-0.9c2.4-4,4.4-8.4,8.9-10.7
			c2.8-1.4,5.4,1,4.7,4.6c-0.6,3.3-1.7,6.4-2.3,9.8c1.9-3.1,3.6-6.3,5.6-9.2c1.2-1.8,2.8-3.4,4.5-4.8c1.6-1.3,3.7-1.1,4.4,0.8
			c0.4,1.2-0.7,3-1.2,4.5c-0.1,0.2-0.6,0.5-0.9,0.5c-6.3,0.5-8.3,5.6-10.9,10.1c-2.3,4-4.4,8.2-6.5,12.3c-1.7,3.2-1.6,3.2-5.9,2.8
			c2.1-9.1,6.6-17.4,8.1-26.6C385.5,1056.1,385.1,1055.9,384.7,1055.7z"/>
		<path class="st0" d="M423,625.6c-1.3,1.7-2.5,3.4-3.8,5c-0.5,0.6-1.3,0.9-2,1.4c0-0.8-0.3-1.8,0.1-2.3c1.7-2.3,3.3-4.9,5.4-6.7
			c1.3-1.1,4-1.7,5.5-1.1c1,0.4,1.7,3.5,1.3,5.1c-1.3,5.2-3.2,10.2-4.8,15.2c-0.8,2.3-1.5,4.7-2.3,7c0.4,0.3,0.8,0.5,1.3,0.8
			c2.2-2.4,4.4-4.9,6.6-7.3c0.4,0.4,0.9,0.8,1.3,1.2c-2.4,2.9-4.5,6-7.3,8.5c-1,1-3.9,1.3-4.9,0.6c-1.2-0.9-2.1-3.5-1.7-5
			c1.6-6.1,3.9-12.1,5.8-18.2c0.4-1.2,0.5-2.4,0.7-3.6C423.8,626,423.4,625.8,423,625.6z"/>
		<path class="st0" d="M411.4,986.2c-1.7,2.2-3.4,4.4-5.7,7.3c-0.2-1.4-0.6-2.4-0.3-2.8c2-2.7,4-5.4,6.4-7.7c1-1,3.7-1.5,4.6-0.9
			c1.1,0.8,2,3.3,1.7,4.7c-1.3,5.2-3.1,10.2-4.7,15.3c-0.8,2.6-1.7,5.1-2.5,7.7c0.5,0.3,0.9,0.6,1.4,0.8c2-2.4,3.9-4.8,6.2-7.6
			c0.3,0.7,0.9,1.6,0.7,1.9c-1.8,2.6-3.6,5.5-5.9,7.6c-1.2,1.1-4.2,1.6-5.5,0.9c-1.2-0.7-2-3.7-1.5-5.3c1.6-6,3.8-11.9,5.7-17.9
			c0.4-1.2,0.4-2.4,0.6-3.6C412.2,986.5,411.8,986.3,411.4,986.2z"/>
		<path class="st0" d="M243.4,331.3c-1.7,2.2-3.4,4.5-5.6,7.3c-0.2-1.4-0.7-2.3-0.4-2.6c2.2-2.8,4.3-5.7,6.9-8.2
			c0.9-0.9,3.3-1.1,4.4-0.5c1,0.6,1.8,2.8,1.6,4.1c-0.7,3.6-1.9,7.1-3,10.7c-1.4,4.2-2.8,8.4-4.4,13.1c4.8,0,4.8-5.9,8.3-6.6
			c0.3,0.4,0.6,0.7,0.9,1.1c-2.1,2.7-4.1,5.5-6.4,8c-1.5,1.6-4,2.9-5.8,1c-1.2-1.2-1.8-3.9-1.3-5.5c1.6-5.9,3.7-11.7,5.6-17.5
			c0.4-1.2,0.5-2.5,0.8-3.7C244.3,331.7,243.8,331.5,243.4,331.3z"/>
		<path class="st0" d="M240,986.1c-1.3,1.8-2.6,3.6-4,5.3c-0.4,0.5-1.2,0.7-1.8,1c0-0.7-0.3-1.6,0-2c2-2.6,3.8-5.2,6.2-7.4
			c1-1,3.7-1.5,4.6-0.9c1.1,0.8,2,3.3,1.7,4.7c-1.3,5.2-3.1,10.2-4.7,15.3c-0.8,2.6-1.7,5.1-2.5,7.7c0.4,0.3,0.8,0.5,1.3,0.8
			c2.2-2.4,4.5-4.9,6.7-7.3c0.4,0.4,0.8,0.8,1.2,1.2c-2.2,2.8-4.1,5.8-6.7,8.1c-1.2,1.1-4.2,1.7-5.5,0.9c-1.2-0.7-2-3.7-1.5-5.3
			c1.6-6,3.8-11.9,5.7-17.9c0.4-1.2,0.4-2.4,0.7-3.6C240.8,986.5,240.4,986.3,240,986.1z"/>
		<path class="st0" d="M228.6,625.6c-1.7,2.2-3.4,4.4-5.7,7.5c-0.1-1.6-0.5-2.5-0.2-3c1.9-2.6,3.8-5.3,6.1-7.5c1.1-1,4-1.7,4.9-1
			c1.2,0.9,2,3.5,1.6,5.1c-1.7,6.3-3.9,12.4-5.9,18.5c-0.4,1.3-0.7,2.6-1.1,4c2.6-0.2,2.6-0.2,7.5-7.1c0.3,1,0.9,2,0.7,2.3
			c-1.9,2.7-3.8,5.6-6.2,7.8c-1.1,1-4,1.4-5.2,0.6c-1.2-0.8-2-3.5-1.5-5c1.7-6.1,3.9-12.1,5.8-18.2c0.4-1.1,0.5-2.3,0.7-3.4
			C229.5,626.1,229.1,625.9,228.6,625.6z"/>
		<path class="st0" d="M290.7,1023.3c2-1.8,3.6-3.1,5-4.5c1.8-1.8,2.8-3.5,0.5-6c-0.8-0.8-0.8-3.1-0.2-4.3c0.4-0.9,2.5-1.8,3.4-1.5
			c1.3,0.5,2.7,1.9,3.1,3.2C303.9,1014.6,297,1023.1,290.7,1023.3z"/>
		<path class="st0" d="M303,662.8c1.8-2,3.4-3.6,4.9-5.3c1.4-1.6,1.6-3,0.1-4.9c-0.8-1.1-1-3.3-0.5-4.6c0.4-0.9,2.8-1.9,3.7-1.4
			c1.3,0.6,2.7,2.3,2.9,3.7C314.9,655.2,308.4,662.4,303,662.8z"/>
		<path class="st0" d="M241.3,609.8c-2.5,1.7-3.9,3.2-5.4,3.5c-2.2,0.3-3.7-1.3-3.7-3.6c0-2.5,1.6-4.1,3.9-3.7
			C237.6,606.2,238.9,607.9,241.3,609.8z"/>
		<path class="st0" d="M247.3,975.5c-1.8-2.4-3.4-3.7-3.7-5.3c-0.4-2.4,1.6-4.2,3.8-3.7c1.4,0.3,3.3,2.3,3.4,3.7
			C251,971.5,249.1,973,247.3,975.5z"/>
		<path class="st0" d="M250.8,320.6c-1.8-2.4-3.5-3.7-3.7-5.3c-0.4-2.4,1.5-4.2,3.8-3.7c1.4,0.3,3.3,2.3,3.5,3.7
			C254.4,316.6,252.5,318.1,250.8,320.6z"/>
		<path class="st0" d="M418.5,975.5c-1.7-2.5-3.4-3.9-3.5-5.4c-0.3-2.4,1.7-4.1,3.9-3.6c1.4,0.3,3.2,2.4,3.3,3.8
			C422.3,971.6,420.3,973.1,418.5,975.5z"/>
		<path class="st0" d="M424.9,609.6c2.5-1.8,3.8-3.5,5.4-3.7c2.3-0.3,3.9,1.4,3.8,3.9c-0.1,2.2-1.7,3.9-3.8,3.4
			C428.6,612.9,427.3,611.4,424.9,609.6z"/>
		<path class="st0" d="M107.3,1054.4"/>
		<path class="st0" d="M95.6,1070.3"/>
	</g>
	<path class="st0" d="M99.1,568.7c6.1-11.8,11.9-23.1,17.7-34.4c1.7-3.4,3.6-6.7,5.2-10.2c0.9-2,2.1-2.8,4.3-2.6
		c2.3,0.2,4.6,0,7.2,0v55.5h-7.3l0-43c-0.4-0.1-0.4-0.1-0.8-0.2c-0.5,1-1.1,1.9-1.6,2.9c-6.5,12.7-13.1,25.3-19.4,38.1
		c-1.2,2.4-2.7,2.7-4.9,2.6c-2.7-0.2-5,0.5-6.5-4.8c-3.2-12.1-9.1-23.1-16.9-32.8c-1.5-1.8-1.6-3.6-3.7-5.3V577h-7.9
		c-0.1-1-0.2-2-0.2-3c0-16.4,0.1-32.7-0.1-49.1c0-3,1-3.4,3.7-3.7c5-0.5,7.5,1.3,9.7,5.9c6.4,13.3,13.3,26.2,20.1,39.3
		C98,567,98.4,567.5,99.1,568.7z"/>
	<path class="st0" d="M212.4,521.4c2.9,0,5.7-0.2,8.4,0.1c1,0.1,2.2,1.5,2.8,2.5c7.1,13.7,14.1,27.4,21.2,41c0.6,1.1,1.2,2.2,2,3.7
		c2.5-4.7,4.8-9.1,7-13.5c5.3-10.2,10.6-20.3,15.7-30.6c1.2-2.5,2.6-3.4,5.3-3.1c2,0.2,4.1,0,6.4,0v55.5h-7.3l0-42.9
		c-0.4-0.1-0.4-0.1-0.8-0.2c-0.5,0.9-1,1.7-1.5,2.6c-6.5,12.7-13.1,25.3-19.5,38c-1.2,2.5-2.8,2.9-5.2,2.8c-2.4-0.1-4.2,0-5.6-2.8
		c-6.7-13.6-13.8-27-21.4-40.3v42.9h-7.6V521.4z"/>
	<path class="st0" d="M292.5,549.2c0.1-15.4,11.8-27.7,27.7-28.9c11.5-0.9,21.8,1.9,29.3,11.2c13.9,17.4,3.2,43.2-19.1,46.5
		c-7.9,1.2-15.5,0.4-22.6-3.3C298.1,569.5,292.5,560.2,292.5,549.2z M346.8,549.4c0-13.3-8.6-21.5-22.3-21.6
		c-14.7,0-23.5,8.1-23.5,21.5c0.1,13.1,9,21.6,22.9,21.5C338,570.9,346.8,562.6,346.8,549.4z"/>
	<path class="st0" d="M498.7,558.8c2.4,0.8,4.9,1.7,7.4,2.5c-5.1,12.8-20.2,19.7-35.7,16.4c-14.7-3.2-24.5-15.4-23.7-29.6
		c0.8-15.1,12-26.5,27.4-27.9c15.1-1.4,28.3,5.8,31.5,17.3c-4.3,1.6-2.7,1-7,2.6c-5.2-10.5-14-14.7-28.5-11.4
		c-9.2,2.1-14.6,9.9-14.6,19.6c0,11.4,5,18.7,14.9,21.5C482.1,573.2,492.1,569.4,498.7,558.8z"/>
	<path class="st0" d="M151,577.2h-8.3c0.8-1.9,1.5-3.7,2.2-5.4c7.5-16,15-32.1,22.4-48.1c0.8-1.8,1.8-2.7,3.6-2.3
		c2.4,0.5,5.4-1.6,7,1.9c8.1,17.5,16.3,35,24.4,52.6c0.1,0.3,0.1,0.7,0.1,1c-0.2,0.1-0.4,0.3-0.6,0.4c-7.3,0.4-7.9,0.6-10.2-6.4
		c-2-6.1-5.2-8.2-11.5-7.6c-6.5,0.6-13.2,0.3-19.8,0.1c-2.4-0.1-3.5,0.8-4.4,2.9C154.5,569.9,152.7,573.5,151,577.2z M172.8,529.9
		c-4.2,9.2-8.1,17.7-12.1,26.3H185C180.9,547.5,177,539,172.8,529.9z"/>
	<path class="st0" d="M385.4,577.3c-8.1-18.6-16-37-24.2-55.9c2.6,0,4.8-0.3,6.9,0.1c1,0.2,2.1,1.5,2.6,2.6
		c6.1,14,12.1,28.1,18.1,42.1c0.3,0.6,0.6,1.2,1.1,2.2c3.3-7.7,6.5-15,9.6-22.3c3-6.9,6-13.8,8.8-20.8c1.1-2.8,2.5-4.5,5.8-3.9
		c1.2,0.2,2.5,0,4.3,0c-2.5,5.8-4.9,11.2-7.2,16.6c-5,11.6-10.2,23.1-14.9,34.7c-1.4,3.4-3.1,5.1-6.8,4.4
		C388.2,577.1,386.9,577.3,385.4,577.3z"/>
	<rect x="41.9" y="521.5" class="st0" width="7.5" height="55.6"/>
	<rect x="427.7" y="521.6" class="st0" width="7.5" height="55.4"/>
	<path class="st0" d="M346.6,259c9.7,5.3,8.1,16.6,14.4,24.3c-3.2,0-5.8,0.2-8.2-0.1c-0.9-0.1-2-1.2-2.3-2.1
		c-1.4-3.5-2.8-7.1-3.9-10.8c-1.4-4.8-4.3-7.8-9.3-8c-7.7-0.3-15.5-0.1-23.6-0.1c0,5.5,0,11,0,16.6c0,4.5,0,4.5-4.6,4.5
		c-1,0-2.1,0-3.3,0c0-18.5,0-36.8,0-55.2c0.1-0.1,0.2-0.3,0.4-0.3c11.8,0,23.7-0.4,35.5,0.1c10.9,0.5,17.7,10.2,15.5,20.7
		C356.1,253.6,353.6,256.1,346.6,259z M313.8,255.6c5.7,0,11,0.1,16.3,0c3.3-0.1,6.7-0.3,10-0.8c6.9-1,10.5-6.8,8.4-13.2
		c-1.4-4.1-5.4-6.7-11.1-6.7c-7-0.1-13.9,0-20.9,0c-0.9,0-1.8,0.2-2.7,0.3C313.8,242,313.8,248.6,313.8,255.6z"/>
</g>
</svg>
