<?xml version="1.0" encoding="utf-8"?>
<!-- Generator: Adobe Illustrator 24.0.0, SVG Export Plug-In . SVG Version: 6.00 Build 0)  -->
<svg version="1.1" id="Layer_1" xmlns="http://www.w3.org/2000/svg" xmlns:xlink="http://www.w3.org/1999/xlink" x="0px" y="0px"
	 viewBox="0 0 841.9 1190.6" style="enable-background:new 0 0 841.9 1190.6;" xml:space="preserve">
<style type="text/css">
	.st0{fill:none;}
	.st1{fill:#FFFFFF;}
</style>
<g>

		<rect x="-174.9" y="235.5" transform="matrix(3.613946e-15 -1 1 3.613946e-15 -174.3307 1016.2205)" class="st0" width="1191.6" height="719.6"/>
	<g>
		<path class="st1" d="M456.3,1059c0.6,1.2,2.9,3.8,4.2,3.8c1.2,0,1.2-1.5,3-1.5c1.3,0,2.2,1.1,2.2,2.3c0,1.5-1.3,2.3-2.6,2.3
			c-3.5,0-6.2-3.5-7.7-6.4L456.3,1059z"/>
		<path class="st1" d="M456.3,1051.1c0.6,1.2,2.9,3.8,4.2,3.8c1.2,0,1.2-1.5,3-1.5c1.3,0,2.2,1.1,2.2,2.3c0,1.5-1.3,2.3-2.6,2.3
			c-3.5,0-6.2-3.5-7.7-6.4L456.3,1051.1z"/>
		<path class="st1" d="M455.8,1026.5l7.5-0.6l0.3,1.3c-3.7,1-6.5,2.8-6.5,7c0,1.1,0.6,1.3,1.6,1.5l19.4,5.1c0.7,0.2,2,0.6,2.8,0.6
			c1.7,0,1.8-1.9,1.8-3.2l1.3,0.3v11.2l-1.3-0.3c0-1.1,0-2.3-0.8-3.2c-1-1-2.3-1.3-3.6-1.7l-19.5-5.2c-0.6-0.2-1.8-0.5-1.8,0.5
			c0,3.8,3.3,8.1,6.2,10.4l-0.7,1.2l-6.7-4V1026.5z"/>
		<path class="st1" d="M460.6,1023.3c-0.5-0.1-1.3-0.3-1.7-0.3c-0.8,0-1.1,0.4-1,2.5l-1.3-0.3l-1.1-6.3l21.2,5.7l0.1-0.1
			c-2.8-1.5-12.1-6.4-12.1-9.7c0-1.5,1.5-2.5,2.9-2.5c1.1,0,3,0.6,4.1,1l8.6,2.9c0.3,0.1,0.8,0.3,1.1,0.3c0.3,0,0.6-0.2,0.6-0.5
			c0-1.2-3.4-3-4.4-3.7l0.7-1.1c2,1.3,6.1,3.5,6.1,6.3c0,1.5-1.3,2.2-2.7,2.2c-1,0-2.2-0.4-3-0.7l-7.9-2.7c-0.7-0.2-1.6-0.6-2.3-0.6
			c-0.4,0-0.9,0.2-0.9,0.7c0,1.3,4.6,4.2,5.3,4.6c5,2.5,7.8,4.4,11,5.6v3.2L460.6,1023.3z"/>
		<path class="st1" d="M478.7,995.1c2.7,1.6,5.7,4.5,5.7,7.9c0,3.4-2.9,5.2-6.1,5.2c-5.1,0-13.5-5-13.5-10.6c0-2,1.2-3.7,3.4-3.7
			c4.8,0,8.2,6.7,9.5,10.6c0.6,0.1,1.2,0.1,1.7,0.1c2.9,0,3.4-1,3.4-2.3c0-2.4-2.7-5-4.6-6.2L478.7,995.1z M468,996.5
			c-0.8,0-1.6,0.4-1.6,1.3c0,1.9,3.7,5.4,9.7,6.5C475.1,1001.2,471.5,996.5,468,996.5z"/>
		<path class="st1" d="M468.9,964.8c2.9,0.7,7.3,1.8,10.3,1.8c0.8,0,2.8-0.1,2.8-1.3c0-2-7-5.8-10.8-5.8c-1.9,0-2.6,1.4-4.3,1.4
			c-1.1,0-2.2-0.7-2.2-1.8c0-1.6,2-2.2,3.2-2.2c4.3,0,16.5,4.3,16.5,9.5c0,2.5-2.8,3.3-4.8,3.3c-1.3,0-4.1-0.6-7.1-1.5l-0.1,0.1
			c3.6,1.2,12,4.4,12,8.9c0,1.8-1.7,2.9-3.3,2.9c-1.4,0-2.7-0.4-4-0.8l-6.7-2.2c-0.3-0.1-1.5-0.5-1.8-0.5c-0.3,0-0.7,0.1-0.7,0.4
			c0,1,3.1,2.9,3.9,3.5l-0.7,1c-1.7-1-6.4-4.2-6.4-6.3c0-1.5,1.1-2.1,2.5-2.1c1.3,0,3.2,0.7,4.3,1.1l6.7,2.2
			c0.7,0.2,1.5,0.5,2.1,0.5c0.6,0,1.2-0.3,1.2-1c0-3.6-13.2-8.1-16.3-9.1v-3L468.9,964.8z"/>
		<path class="st1" d="M470.8,939.5c6.5,0,13.5,5.5,13.5,10.3c0,3.4-2.7,5.5-6,5.5c-5.1,0-13.7-4.7-13.7-10.5
			C464.7,942.2,466.9,939.5,470.8,939.5z M480.2,952.1c1.6,0,2.9-0.7,2.9-2.4c0-4-10.7-7-14-7c-1.5,0-3.2,0.5-3.2,2.3
			C466,949.1,477,952.1,480.2,952.1z"/>
		<path class="st1" d="M483.9,933.8v2.8l-13.2-4.5c-0.7-0.2-1.5-0.5-2.2-0.5c-0.3,0-1,0.2-1,0.5c0,1.2,3.6,3,4.5,3.7l-0.7,1
			c-1.8-1.2-6.8-3.8-6.8-6.3c0-1.4,1.1-2.1,2.4-2.1c1.5,0,4.2,0.9,5.6,1.5l3.3,1.2l0.1-0.1c-2.4-1.4-11.4-5.3-11.4-8.5
			c0-1,0.8-1.8,1.8-1.8c1.6,0,2.3,1.4,2.5,2.8c0.2,1.3,0.5,1.8,1.5,2.7c2,1.7,6.5,4,9,5.3L483.9,933.8z"/>
		<path class="st1" d="M479.7,918.3c0.4,0.1,1.2,0.3,1.6,0.3c0.3,0,0.7-0.1,0.7-0.5c0-1-3.8-2.9-4.7-3.4l0.5-1.1
			c2.1,1.1,6.6,3,6.6,5.8c0,1.6-1.3,2.3-2.8,2.3c-1,0-2.4-0.4-3.4-0.6l-17.6-4.7c-0.5-0.1-1.3-0.3-1.7-0.3c-1.2,0-1,1.1-1,2.6
			l-1.3-0.3l-1.1-6.6L479.7,918.3z"/>
		<path class="st1" d="M460.6,896.4c-0.5-0.1-1.3-0.3-1.7-0.3c-1.2,0-1,1.1-1,2.6l-1.3-0.3l-1.1-6.6l23.8,6.5
			c0.4,0.1,1.2,0.3,1.6,0.3c0.4,0,1-0.2,1-0.6c0-1.2-3.6-2.7-4.6-3.2l0.5-1.1c2.2,1,6.5,3.1,6.5,6c0,1.2-1.1,2.3-2.3,2.3
			c-0.8,0-1.5-0.2-2.2-0.4l-0.1,0.1c2.2,1.3,4.5,3.4,4.5,6.2c0,2.7-2.9,3.8-5.2,3.8c-6,0-14.5-5.9-14.5-10.7c0-1.2,0.4-2,1-3
			L460.6,896.4z M471.8,905.8c2,1,5.8,2.2,8,2.2c0.9,0,2.6-0.2,2.6-1.5c0-3.8-10-7.7-13.2-7.7c-1.3,0-2.7,0.5-2.7,2
			C466.4,903,470.1,905,471.8,905.8z"/>
		<path class="st1" d="M478.2,872c2,1.3,6.2,3.4,6.2,6.2c0,1.4-1.2,2.3-2.5,2.3c-1,0-2.6-0.5-3.6-0.9l-7.9-2.7
			c-0.4-0.2-1.4-0.5-1.8-0.5c-0.3,0-1,0.2-1,0.5c0,0.8,3.3,2.7,4,3.2l-0.7,1.1c-2-1.2-6.2-3.7-6.2-6.3c0-1.3,1.1-1.9,2.3-1.9
			c1.4,0,3,0.5,4.3,1l8.7,2.9c0.3,0.1,1.1,0.4,1.5,0.4c0.3,0,0.5-0.2,0.5-0.5c0-1.2-3.5-3.1-4.4-3.7L478.2,872z M455.4,872.7
			c0-1.3,1-2.3,2.3-2.3c1.3,0,2.3,1,2.3,2.3c0,1.3-1,2.3-2.3,2.3C456.4,875,455.4,874,455.4,872.7z"/>
		<path class="st1" d="M480.5,871.2c-1,0-2-0.8-2-1.8c0-2.8,4.1-1.3,4.1-4.6c0-1.7-1.2-2.8-2.8-2.8c-3.8,0-4.8,6.5-9.8,6.5
			c-2.9,0-5.4-2.7-5.4-6.2c0-2,1.3-4.9,3.7-4.9c1,0,1.7,0.7,1.7,1.8c0,1.9-3.7,1.8-3.7,4.2c0,1.3,1.5,2.1,2.7,2.1
			c3.5,0,4.6-6.5,9.7-6.5c2.8,0,5.6,2.5,5.6,6.5C484.4,868.3,482.6,871.2,480.5,871.2z"/>
		<path class="st1" d="M480.5,847.2c-1,0-2-0.8-2-1.8c0-2.8,4.1-1.3,4.1-4.6c0-1.7-1.2-2.8-2.8-2.8c-3.8,0-4.8,6.5-9.8,6.5
			c-2.9,0-5.4-2.7-5.4-6.2c0-2,1.3-4.9,3.7-4.9c1,0,1.7,0.7,1.7,1.8c0,1.9-3.7,1.8-3.7,4.2c0,1.3,1.5,2.1,2.7,2.1
			c3.5,0,4.6-6.5,9.7-6.5c2.8,0,5.6,2.5,5.6,6.5C484.4,844.3,482.6,847.2,480.5,847.2z"/>
		<path class="st1" d="M477,817c0.8,0.3,3.1,1.1,3.9,1.1c0.3,0,1.1-0.2,1.1-0.5c0-1-3.7-3.1-4.6-3.7l0.7-1.1c2,1.2,6.3,3.9,6.3,6.4
			c0,1.4-1.2,2.1-2.3,2.1c-1.8,0-4.8-1.2-6.5-1.8l-3.8-1.6l-0.1,0.1l8.9,5.4c1.4,1,3.8,2.8,3.8,4.7c0,1.8-1.5,2.5-3.1,2.5
			c-1.3,0-3.6-0.9-4.9-1.4l-6.7-2.4c-0.4-0.2-1.3-0.5-1.8-0.5c-0.3,0-0.3,0.2-0.3,0.5c0,1,3.2,3.1,4,3.7l-0.8,1.1
			c-1.8-1.3-6.1-3.7-6.1-6.2c0-1.4,1.3-2.3,2.7-2.3c1.2,0,3.5,0.9,4.7,1.3l6.2,2.3c0.7,0.2,2,0.8,2.7,0.8c0.4,0,1-0.3,1-0.7
			c0-0.9-1.8-1.9-2.5-2.4l-14.4-8.7v-2.8L477,817z"/>
		<path class="st1" d="M465.5,798.5l2.1,0.5v4.3l5.3,1.3c12.7,3.1,17.3,7.3,17.3,10.1c0,1.1-0.6,2.1-1.8,2.1c-1.2,0-1.8-1-1.8-2.1
			l0.1-1.5c0-0.9-0.3-1.5-1.2-1.9c-1.2-0.5-3.3-0.9-4.6-1.2l-13.2-3.6v3.3l-2.1-0.5v-3.3c-3.7-1.1-10.2-4.7-10.2-9.1
			c0-1.2,0.8-2.8,2.3-2.8c1.1,0,1.7,1.1,1.7,2c0,1.1-1.1,1.8-1.1,2.7c0,2.3,5.5,3.3,7.3,3.9V798.5z"/>
		<path class="st1" d="M465.5,785.9l2.1,0.5v4.3l5.3,1.3c12.7,3.1,17.3,7.3,17.3,10.1c0,1.1-0.6,2.1-1.8,2.1c-1.2,0-1.8-1-1.8-2.1
			l0.1-1.5c0-0.9-0.3-1.5-1.2-1.9c-1.2-0.5-3.3-0.9-4.6-1.2l-13.2-3.6v3.3l-2.1-0.5v-3.3c-3.7-1.1-10.2-4.7-10.2-9.1
			c0-1.2,0.8-2.8,2.3-2.8c1.1,0,1.7,1.1,1.7,2c0,1.1-1.1,1.8-1.1,2.7c0,2.3,5.5,3.3,7.3,3.9V785.9z"/>
		<path class="st1" d="M478.7,774.6c2.7,1.6,5.7,4.5,5.7,7.9c0,3.4-2.9,5.2-6.1,5.2c-5.1,0-13.5-5-13.5-10.6c0-2,1.2-3.7,3.4-3.7
			c4.8,0,8.2,6.7,9.5,10.6c0.6,0.1,1.2,0.1,1.7,0.1c2.9,0,3.4-1,3.4-2.3c0-2.4-2.7-5-4.6-6.2L478.7,774.6z M468,776
			c-0.8,0-1.6,0.4-1.6,1.3c0,1.9,3.7,5.4,9.7,6.5C475.1,780.7,471.5,776,468,776z"/>
		<path class="st1" d="M483.9,768.4v2.8l-13.2-4.5c-0.7-0.2-1.5-0.5-2.2-0.5c-0.3,0-1,0.2-1,0.5c0,1.2,3.6,3,4.5,3.7l-0.7,1
			c-1.8-1.2-6.8-3.8-6.8-6.3c0-1.4,1.1-2.1,2.4-2.1c1.5,0,4.2,0.9,5.6,1.5l3.3,1.2l0.1-0.1c-2.4-1.4-11.4-5.3-11.4-8.5
			c0-1,0.8-1.8,1.8-1.8c1.6,0,2.3,1.4,2.5,2.8c0.2,1.3,0.5,1.8,1.5,2.7c2,1.7,6.5,4,9,5.3L483.9,768.4z"/>
		<path class="st1" d="M478.2,746.9c2,1.3,6.2,3.4,6.2,6.2c0,1.4-1.2,2.3-2.5,2.3c-1,0-2.6-0.5-3.6-0.9l-7.9-2.7
			c-0.4-0.2-1.4-0.5-1.8-0.5c-0.3,0-1,0.2-1,0.5c0,0.8,3.3,2.7,4,3.2l-0.7,1.1c-2-1.2-6.2-3.7-6.2-6.3c0-1.3,1.1-1.9,2.3-1.9
			c1.4,0,3,0.5,4.3,1l8.7,2.9c0.3,0.1,1.1,0.4,1.5,0.4c0.3,0,0.5-0.2,0.5-0.5c0-1.2-3.5-3.1-4.4-3.7L478.2,746.9z M455.4,747.6
			c0-1.3,1-2.3,2.3-2.3c1.3,0,2.3,1,2.3,2.3c0,1.3-1,2.3-2.3,2.3C456.4,749.9,455.4,748.9,455.4,747.6z"/>
		<path class="st1" d="M473.5,740.3c-1-0.3-3.9-1.4-4.8-1.4c-0.4,0-1.1,0.1-1.1,0.5c0,0.7,1.6,1.7,4.5,3.7l-0.6,1.1
			c-1.9-1.2-6.8-3.9-6.8-6.4c0-1.5,1.5-2.1,2.8-2.1c2.8,0,6.4,1.7,9.1,2.8l1.1,0.5l0.1-0.1l-10.1-6.2c-1.2-0.9-2.9-2.2-2.9-3.8
			c0-1.7,1.7-2.3,3.1-2.3c1.7,0,4,0.9,5.7,1.5l6.3,2.1c0.3,0.1,1.3,0.5,1.7,0.5c0.3,0,0.5-0.2,0.5-0.5c0-1.2-3.3-3.1-4.2-3.7l0.6-1
			c3.5,2.2,6,3.8,6,6.2c0,1.3-1.1,2.2-2.3,2.2c-1,0-2.5-0.5-3.6-0.8l-7.1-2.5c-0.6-0.2-2.1-0.7-2.7-0.7c-0.4,0-1,0.2-1,0.7
			c0,0.8,1.4,1.6,2,2l14.3,8.7v2.8L473.5,740.3z"/>
		<path class="st1" d="M477.2,720c-0.9,1.1-2.3,1.7-3.7,1.7c-4.2,0-8.8-3.5-8.8-7.9c0-1.4,0.5-2.4,1.4-3.5c-0.8-0.9-1.9-2.3-1.9-3.5
			c0-1,0.6-2,1.7-2c1.1,0,1.7,0.8,1.7,1.8c0,0.8-0.4,1-0.4,1.6c0,0.4,0.2,0.7,0.4,1c1-0.5,1.7-0.6,2.8-0.6c4,0,8.3,3.3,8.3,7.5
			c0,0.8-0.2,1.5-0.5,2.3c0.3,0.3,0.9,1.3,1.3,1.3c1.6,0,1-9.9,6.5-9.9c4.4,0,5.4,5.4,5.4,8.8c0,5.4-2.3,8-4,8c-2.5,0-3.7-3-4.5-4.9
			c-0.3,1-0.6,2.4-1.8,2.4c-1.1,0-1.9-1.4-2.4-2.1L477.2,720z M487.4,723.5c2,0,2.4-3.7,2.4-5.1c0-1.6-0.4-5.3-2.7-5.3
			c-2.4,0-2.8,4.4-3.3,6C484.2,720.5,485.6,723.5,487.4,723.5z M469.9,711.8c-1.3,0-3.4,0.3-3.4,2.1c0,3,4.9,4.6,7.3,4.6
			c1.5,0,3.3-0.5,3.3-2.2C477.1,714.8,475.2,711.8,469.9,711.8z"/>
		<path class="st1" d="M465.5,683.3l2.1,0.5v4.3l5.3,1.3c12.7,3.1,17.3,7.3,17.3,10.1c0,1.1-0.6,2.1-1.8,2.1c-1.2,0-1.8-1-1.8-2.1
			l0.1-1.5c0-0.9-0.3-1.5-1.2-1.9c-1.2-0.5-3.3-0.9-4.6-1.2l-13.2-3.6v3.3l-2.1-0.5v-3.3c-3.7-1.1-10.2-4.7-10.2-9.1
			c0-1.2,0.8-2.8,2.3-2.8c1.1,0,1.7,1.1,1.7,2c0,1.1-1.1,1.8-1.1,2.7c0,2.3,5.5,3.3,7.3,3.9V683.3z"/>
		<path class="st1" d="M483.9,682.2v2.8l-13.2-4.5c-0.7-0.2-1.5-0.5-2.2-0.5c-0.3,0-1,0.2-1,0.5c0,1.2,3.6,3,4.5,3.7l-0.7,1
			c-1.8-1.2-6.8-3.8-6.8-6.3c0-1.4,1.1-2.1,2.4-2.1c1.5,0,4.2,0.9,5.6,1.5l3.3,1.2l0.1-0.1c-2.4-1.4-11.4-5.3-11.4-8.5
			c0-1,0.8-1.8,1.8-1.8c1.6,0,2.3,1.4,2.5,2.8c0.2,1.3,0.5,1.8,1.5,2.7c2,1.7,6.5,4,9,5.3L483.9,682.2z"/>
		<path class="st1" d="M470.8,654.1c6.5,0,13.5,5.5,13.5,10.3c0,3.4-2.7,5.5-6,5.5c-5.1,0-13.7-4.7-13.7-10.5
			C464.7,656.8,466.9,654.1,470.8,654.1z M480.2,666.7c1.6,0,2.9-0.7,2.9-2.4c0-4-10.7-7-14-7c-1.5,0-3.2,0.5-3.2,2.3
			C466,663.7,477,666.7,480.2,666.7z"/>
		<path class="st1" d="M470.5,646.8c-0.5-0.2-1.5-0.5-2-0.5c-0.3,0-0.9,0.1-0.9,0.5c0,0.8,2.3,2.2,3,2.7l1.4,0.9l-0.6,1.1
			c-4.1-2.5-6.7-4.3-6.7-6.3c0-1.5,1.5-2.1,2.9-2.1c1.6,0,4.6,1.2,6.1,1.7l4.5,1.8l0.1-0.1l-7.8-4.4c-1.9-1.2-5.8-3.7-5.8-6.2
			c0-1.7,1.3-2.5,2.9-2.5c1.7,0,4.5,1.1,6.1,1.7l4.5,1.8l0.1-0.1l-0.7-0.3c-3.1-1.7-12.9-6.6-12.9-10.5c0-1.7,1.2-2.3,2.8-2.3
			c2,0,4.3,1,6.2,1.6l6.1,2.2c0.5,0.2,1.2,0.4,1.7,0.4c0.3,0,0.5-0.2,0.5-0.5c0-0.7-1.3-1.9-4.3-3.7l0.6-1.1c2,1.3,6.1,3.5,6.1,6.1
			c0,1.5-1.1,2.4-2.5,2.4c-1.1,0-2.5-0.5-3.5-0.9l-7.8-2.8c-0.5-0.2-1.4-0.6-1.9-0.6c-0.5,0-1,0.3-1,0.8c0,0.6,0.8,2.3,9,7l7.4,4.2
			v2.8l-13.4-4.7c-0.5-0.2-1.5-0.5-2.1-0.5c-0.5,0-0.8,0.3-0.8,0.8c0,1.1,0,1.5,8.1,6.3l8.2,4.8v2.9L470.5,646.8z"/>
		<path class="st1" d="M465.1,594.8v-3.4l8.1,2.9c1.2,0.4,6.6,2.3,7.6,2.3c0.3,0,0.6-0.2,0.6-0.5c0-0.7-1.3-2.1-4.3-3.8l0.6-1
			c4.2,2.5,6.6,4.2,6.6,6.3c0,1.3-1,2.2-2.3,2.2c-1,0-1.8-0.2-2.6-0.5l-0.1,0.1c2.6,1.1,5,3.1,5,6.2c0,3-2.6,4.4-5.3,4.4
			c-5.5,0-14.3-5.2-14.3-11.3c0-1.7,0.6-2.7,2.2-3.4L465.1,594.8z M468.5,596.4c-1.2,0-2.1,0.6-2.1,1.8c0,2.8,2.9,4.7,5.1,5.8
			c2.2,1.1,6.1,2.5,8.5,2.5c1.2,0,2.3-0.6,2.3-1.9C482.4,600.9,471.8,596.4,468.5,596.4z"/>
		<path class="st1" d="M460.6,563.7c-0.5-0.1-1.3-0.3-1.7-0.3c-1.2,0-1,1.1-1,2.6l-1.3-0.3l-1.1-6.6l23.8,6.5
			c0.4,0.1,1.2,0.3,1.6,0.3c0.4,0,1-0.2,1-0.6c0-1.2-3.6-2.7-4.6-3.2l0.5-1.1c2.2,1,6.5,3.1,6.5,6c0,1.2-1.1,2.3-2.3,2.3
			c-0.8,0-1.5-0.2-2.2-0.4l-0.1,0.1c2.2,1.3,4.5,3.4,4.5,6.2c0,2.7-2.9,3.8-5.2,3.8c-6,0-14.5-5.9-14.5-10.7c0-1.2,0.4-2,1-3
			L460.6,563.7z M471.8,573.1c2,1,5.8,2.2,8,2.2c0.9,0,2.6-0.2,2.6-1.5c0-3.8-10-7.7-13.2-7.7c-1.3,0-2.7,0.5-2.7,2
			C466.4,570.3,470.1,572.3,471.8,573.1z"/>
		<path class="st1" d="M465.1,544.3v-3.4l8.1,2.9c1.2,0.4,6.6,2.3,7.6,2.3c0.3,0,0.6-0.2,0.6-0.5c0-0.7-1.3-2.1-4.3-3.8l0.6-1
			c4.2,2.5,6.6,4.2,6.6,6.3c0,1.3-1,2.2-2.3,2.2c-1,0-1.8-0.2-2.6-0.5l-0.1,0.1c2.6,1.1,5,3.1,5,6.2c0,3-2.6,4.4-5.3,4.4
			c-5.5,0-14.3-5.2-14.3-11.3c0-1.7,0.6-2.7,2.2-3.4L465.1,544.3z M468.5,545.8c-1.2,0-2.1,0.6-2.1,1.8c0,2.8,2.9,4.7,5.1,5.8
			c2.2,1.1,6.1,2.5,8.5,2.5c1.2,0,2.3-0.6,2.3-1.9C482.4,550.3,471.8,545.8,468.5,545.8z"/>
		<path class="st1" d="M483.9,535.2v2.8l-13.2-4.5c-0.7-0.2-1.5-0.5-2.2-0.5c-0.3,0-1,0.2-1,0.5c0,1.2,3.6,3,4.5,3.7l-0.7,1
			c-1.8-1.2-6.8-3.8-6.8-6.3c0-1.4,1.1-2.1,2.4-2.1c1.5,0,4.2,0.9,5.6,1.5l3.3,1.2l0.1-0.1c-2.4-1.4-11.4-5.3-11.4-8.5
			c0-1,0.8-1.8,1.8-1.8c1.6,0,2.3,1.4,2.5,2.8c0.2,1.3,0.5,1.8,1.5,2.7c2,1.7,6.5,4,9,5.3L483.9,535.2z"/>
		<path class="st1" d="M460.6,517.8c-0.5-0.1-1.3-0.3-1.7-0.3c-1.2,0-1,1-1,2.7l-1.3-0.3l-1.1-6.7l14.3,3.8l0.1-0.1
			c-2.3-1.3-5.2-3.4-5.2-6.3c0-2,1.6-3.5,3.7-3.5c3,0,5.4,3.3,6.4,5.8l4-0.7c0.5-0.1,2.7-0.3,2.7-1.2c0-1-2.8-2.4-3.7-2.7l0.5-1.2
			c2,1,6,2.8,6,5.4c0,1-0.1,2-8.5,3.3l0.7,2.8l7.4,2v3.3L460.6,517.8z M469,510.1c-1,0-2,0.7-2,1.7c0,1.5,1.4,4.2,8.1,6.6
			C474.6,515.7,472.4,510.1,469,510.1z"/>
		<path class="st1" d="M465.1,479.4V476l8.1,2.9c1.2,0.4,6.6,2.3,7.6,2.3c0.3,0,0.6-0.2,0.6-0.5c0-0.7-1.3-2.1-4.3-3.8l0.6-1
			c4.2,2.5,6.6,4.2,6.6,6.3c0,1.3-1,2.2-2.3,2.2c-1,0-1.8-0.2-2.6-0.5l-0.1,0.1c2.6,1.1,5,3.1,5,6.2c0,3-2.6,4.4-5.3,4.4
			c-5.5,0-14.3-5.2-14.3-11.3c0-1.7,0.6-2.7,2.2-3.4L465.1,479.4z M468.5,481c-1.2,0-2.1,0.6-2.1,1.8c0,2.8,2.9,4.7,5.1,5.8
			c2.2,1.1,6.1,2.5,8.5,2.5c1.2,0,2.3-0.6,2.3-1.9C482.4,485.5,471.8,481,468.5,481z"/>
		<path class="st1" d="M473.5,469.5c-1-0.3-3.9-1.4-4.8-1.4c-0.4,0-1.1,0.1-1.1,0.5c0,0.7,1.6,1.7,4.5,3.7l-0.6,1.1
			c-1.9-1.2-6.8-3.9-6.8-6.4c0-1.5,1.5-2.1,2.8-2.1c2.8,0,6.4,1.7,9.1,2.8l1.1,0.5l0.1-0.1l-10.1-6.2c-1.2-0.9-2.9-2.2-2.9-3.8
			c0-1.7,1.7-2.3,3.1-2.3c1.7,0,4,0.9,5.7,1.5l6.3,2.1c0.3,0.1,1.3,0.5,1.7,0.5c0.3,0,0.5-0.2,0.5-0.5c0-1.2-3.3-3.1-4.2-3.7l0.6-1
			c3.5,2.2,6,3.8,6,6.2c0,1.3-1.1,2.2-2.3,2.2c-1,0-2.5-0.5-3.6-0.8l-7.1-2.5c-0.6-0.2-2.1-0.7-2.7-0.7c-0.4,0-1,0.2-1,0.7
			c0,0.8,1.4,1.6,2,2l14.3,8.7v2.8L473.5,469.5z"/>
		<path class="st1" d="M460.6,437.1c-0.5-0.1-1.3-0.3-1.7-0.3c-1.2,0-1,1.1-1,2.6l-1.3-0.3l-1.1-6.6l23.8,6.5
			c0.4,0.1,1.2,0.3,1.6,0.3c0.4,0,1-0.2,1-0.6c0-1.2-3.6-2.7-4.6-3.2l0.5-1.1c2.2,1,6.5,3.1,6.5,6c0,1.2-1.1,2.3-2.3,2.3
			c-0.8,0-1.5-0.2-2.2-0.4l-0.1,0.1c2.2,1.3,4.5,3.4,4.5,6.2c0,2.7-2.9,3.8-5.2,3.8c-6,0-14.5-5.9-14.5-10.7c0-1.2,0.4-2,1-3
			L460.6,437.1z M471.8,446.5c2,1,5.8,2.2,8,2.2c0.9,0,2.6-0.2,2.6-1.5c0-3.8-10-7.7-13.2-7.7c-1.3,0-2.7,0.5-2.7,2
			C466.4,443.7,470.1,445.7,471.8,446.5z"/>
		<path class="st1" d="M480.5,423.9c-1,0-2-0.8-2-1.8c0-2.8,4.1-1.3,4.1-4.6c0-1.7-1.2-2.8-2.8-2.8c-3.8,0-4.8,6.5-9.8,6.5
			c-2.9,0-5.4-2.7-5.4-6.2c0-2,1.3-4.9,3.7-4.9c1,0,1.7,0.7,1.7,1.8c0,1.9-3.7,1.8-3.7,4.2c0,1.3,1.5,2.1,2.7,2.1
			c3.5,0,4.6-6.5,9.7-6.5c2.8,0,5.6,2.5,5.6,6.5C484.4,421,482.6,423.9,480.5,423.9z"/>
		<path class="st1" d="M478.2,399c2,1.3,6.2,3.4,6.2,6.2c0,1.4-1.2,2.3-2.5,2.3c-1,0-2.6-0.5-3.6-0.9l-7.9-2.7
			c-0.4-0.2-1.4-0.5-1.8-0.5c-0.3,0-1,0.2-1,0.5c0,0.8,3.3,2.7,4,3.2l-0.7,1.1c-2-1.2-6.2-3.7-6.2-6.3c0-1.3,1.1-1.9,2.3-1.9
			c1.4,0,3,0.5,4.3,1l8.7,2.9c0.3,0.1,1.1,0.4,1.5,0.4c0.3,0,0.5-0.2,0.5-0.5c0-1.2-3.5-3.1-4.4-3.7L478.2,399z M455.4,399.7
			c0-1.3,1-2.3,2.3-2.3c1.3,0,2.3,1,2.3,2.3c0,1.3-1,2.3-2.3,2.3C456.4,402.1,455.4,401,455.4,399.7z"/>
		<path class="st1" d="M479.7,393.1c0.4,0.1,1.2,0.3,1.6,0.3c0.3,0,0.7-0.1,0.7-0.5c0-1-3.8-2.9-4.7-3.4l0.5-1.1
			c2.1,1.1,6.6,3,6.6,5.8c0,1.6-1.3,2.3-2.8,2.3c-1,0-2.4-0.4-3.4-0.6l-17.6-4.7c-0.5-0.1-1.3-0.3-1.7-0.3c-1.2,0-1,1.1-1,2.6
			l-1.3-0.3l-1.1-6.6L479.7,393.1z"/>
		<path class="st1" d="M478.7,372.6c2.7,1.6,5.7,4.5,5.7,7.9c0,3.4-2.9,5.2-6.1,5.2c-5.1,0-13.5-5-13.5-10.6c0-2,1.2-3.7,3.4-3.7
			c4.8,0,8.2,6.7,9.5,10.6c0.6,0.1,1.2,0.1,1.7,0.1c2.9,0,3.4-1,3.4-2.3c0-2.4-2.7-5-4.6-6.2L478.7,372.6z M468,374
			c-0.8,0-1.6,0.4-1.6,1.3c0,1.9,3.7,5.4,9.7,6.5C475.1,378.7,471.5,374,468,374z"/>
		<path class="st1" d="M473.5,365.6c-1-0.3-3.9-1.4-4.8-1.4c-0.4,0-1.1,0.1-1.1,0.5c0,0.7,1.6,1.7,4.5,3.7l-0.6,1.1
			c-1.9-1.2-6.8-3.9-6.8-6.4c0-1.5,1.5-2.1,2.8-2.1c2.8,0,6.4,1.7,9.1,2.8l1.1,0.5l0.1-0.1l-10.1-6.2c-1.2-0.9-2.9-2.2-2.9-3.8
			c0-1.7,1.7-2.3,3.1-2.3c1.7,0,4,0.9,5.7,1.5l6.3,2.1c0.3,0.1,1.3,0.5,1.7,0.5c0.3,0,0.5-0.2,0.5-0.5c0-1.2-3.3-3.1-4.2-3.7l0.6-1
			c3.5,2.2,6,3.8,6,6.2c0,1.3-1.1,2.2-2.3,2.2c-1,0-2.5-0.5-3.6-0.8l-7.1-2.5c-0.6-0.2-2.1-0.7-2.7-0.7c-0.4,0-1,0.2-1,0.7
			c0,0.8,1.4,1.6,2,2l14.3,8.7v2.8L473.5,365.6z"/>
		<path class="st1" d="M458.6,338.6l6.5,1.8v-3.7l2.1,0.6v3.7l12.5,3.3c0.4,0.1,1.2,0.3,1.7,0.3c0.2,0,0.6-0.2,0.6-0.5
			c0-1.2-3.1-3-4.1-3.5l0.8-1.2c2,1.2,5.6,3.4,5.6,6c0,1.5-1,2.3-2.5,2.3c-1.3,0-3.1-0.5-4.4-0.8l-10.2-2.7v3.3l-2.1-0.6v-3.3
			l-6.5-2.1V338.6z"/>
		<path class="st1" d="M459.3,315.8l5.9,1.5c-0.2-0.7-0.5-1.5-0.5-2.3c0-3.7,3-5.4,6.4-5.4c3.4,0,7.2,1.7,9.6,4
			c2.4,2.4,3.5,5.3,3.4,8.7l1,0.3c0.6,0.2,2.3,0.7,3,0.7c1.4,0,1.2-1.3,1.3-2.3l1.3,0.3v8.4l-1.3-0.3c-0.1-2-0.2-2.5-2.5-3.1
			l-18.5-4.9c0.8,1.1,1.7,2.5,2.7,3.8l-1,0.8c-1.5-1.5-2.8-3.2-3.8-5.2l-7-2.3V315.8z M482.4,322c0-2.2-0.6-4.1-2.3-5.7
			c-2.2-1.9-6.1-3.5-9-3.5c-2.1,0-4.5,1-4.5,3.4c0,0.5,0.1,1.1,0.3,1.6L482.4,322z"/>
		<path class="st1" d="M460.6,301.9c-0.5-0.1-1.3-0.3-1.7-0.3c-0.8,0-1.1,0.4-1,2.5l-1.3-0.3l-1.1-6.3l21.2,5.7l0.1-0.1
			c-2.8-1.5-12.1-6.4-12.1-9.7c0-1.5,1.5-2.5,2.9-2.5c1.1,0,3,0.6,4.1,1l8.6,2.9c0.3,0.1,0.8,0.3,1.1,0.3c0.3,0,0.6-0.2,0.6-0.5
			c0-1.2-3.4-3-4.4-3.7l0.7-1.1c2,1.3,6.1,3.5,6.1,6.3c0,1.5-1.3,2.2-2.7,2.2c-1,0-2.2-0.4-3-0.7l-7.9-2.7c-0.7-0.2-1.6-0.6-2.3-0.6
			c-0.4,0-0.9,0.2-0.9,0.7c0,1.3,4.6,4.2,5.3,4.6c5,2.5,7.8,4.4,11,5.6v3.2L460.6,301.9z"/>
		<path class="st1" d="M478.7,273.7c2.7,1.6,5.7,4.5,5.7,7.9c0,3.4-2.9,5.2-6.1,5.2c-5.1,0-13.5-5-13.5-10.6c0-2,1.2-3.7,3.4-3.7
			c4.8,0,8.2,6.7,9.5,10.6c0.6,0.1,1.2,0.1,1.7,0.1c2.9,0,3.4-1,3.4-2.3c0-2.4-2.7-5-4.6-6.2L478.7,273.7z M468,275.1
			c-0.8,0-1.6,0.4-1.6,1.3c0,1.9,3.7,5.4,9.7,6.5C475.1,279.8,471.5,275.1,468,275.1z"/>
		<path class="st1" d="M473.5,266.7c-1-0.3-3.9-1.4-4.8-1.4c-0.4,0-1.1,0.1-1.1,0.5c0,0.7,1.6,1.7,4.5,3.7l-0.6,1.1
			c-1.9-1.2-6.8-3.9-6.8-6.4c0-1.5,1.5-2.1,2.8-2.1c2.8,0,6.4,1.7,9.1,2.8l1.1,0.5l0.1-0.1l-10.1-6.2c-1.2-0.9-2.9-2.2-2.9-3.8
			c0-1.7,1.7-2.3,3.1-2.3c1.7,0,4,0.9,5.7,1.5l6.3,2.1c0.3,0.1,1.3,0.5,1.7,0.5c0.3,0,0.5-0.2,0.5-0.5c0-1.2-3.3-3.1-4.2-3.7l0.6-1
			c3.5,2.2,6,3.8,6,6.2c0,1.3-1.1,2.2-2.3,2.2c-1,0-2.5-0.5-3.6-0.8l-7.1-2.5c-0.6-0.2-2.1-0.7-2.7-0.7c-0.4,0-1,0.2-1,0.7
			c0,0.8,1.4,1.6,2,2l14.3,8.7v2.8L473.5,266.7z"/>
		<path class="st1" d="M470.8,233.5c6.5,0,13.5,5.5,13.5,10.3c0,3.4-2.7,5.5-6,5.5c-5.1,0-13.7-4.7-13.7-10.5
			C464.7,236.2,466.9,233.5,470.8,233.5z M480.2,246.1c1.6,0,2.9-0.7,2.9-2.4c0-4-10.7-7-14-7c-1.5,0-3.2,0.5-3.2,2.3
			C466,243.1,477,246.1,480.2,246.1z"/>
		<path class="st1" d="M470.5,226.1c-0.5-0.2-1.5-0.5-2-0.5c-0.3,0-0.9,0.1-0.9,0.5c0,0.8,2.3,2.2,3,2.7l1.4,0.9l-0.6,1.1
			c-4.1-2.5-6.7-4.3-6.7-6.3c0-1.5,1.5-2.1,2.9-2.1c1.6,0,4.6,1.2,6.1,1.7l4.5,1.8l0.1-0.1l-7.8-4.4c-1.9-1.2-5.8-3.7-5.8-6.2
			c0-1.7,1.3-2.5,2.9-2.5c1.7,0,4.5,1.1,6.1,1.7l4.5,1.8l0.1-0.1l-0.7-0.3c-3.1-1.7-12.9-6.6-12.9-10.5c0-1.7,1.2-2.3,2.8-2.3
			c2,0,4.3,1,6.2,1.6l6.1,2.2c0.5,0.2,1.2,0.4,1.7,0.4c0.3,0,0.5-0.2,0.5-0.5c0-0.7-1.3-1.9-4.3-3.7l0.6-1.1c2,1.3,6.1,3.5,6.1,6.1
			c0,1.5-1.1,2.4-2.5,2.4c-1.1,0-2.5-0.5-3.5-0.9l-7.8-2.8c-0.5-0.2-1.4-0.6-1.9-0.6c-0.5,0-1,0.3-1,0.8c0,0.6,0.8,2.3,9,7l7.4,4.2
			v2.8l-13.4-4.7c-0.5-0.2-1.5-0.5-2.1-0.5c-0.5,0-0.8,0.3-0.8,0.8c0,1.1,0,1.5,8.1,6.3l8.2,4.8v2.9L470.5,226.1z"/>
		<path class="st1" d="M478.7,186.1c2.7,1.6,5.7,4.5,5.7,7.9c0,3.4-2.9,5.2-6.1,5.2c-5.1,0-13.5-5-13.5-10.6c0-2,1.2-3.7,3.4-3.7
			c4.8,0,8.2,6.7,9.5,10.6c0.6,0.1,1.2,0.1,1.7,0.1c2.9,0,3.4-1,3.4-2.3c0-2.4-2.7-5-4.6-6.2L478.7,186.1z M468,187.5
			c-0.8,0-1.6,0.4-1.6,1.3c0,1.9,3.7,5.4,9.7,6.5C475.1,192.2,471.5,187.5,468,187.5z"/>
		<path class="st1" d="M473.5,179.1c-1-0.3-3.9-1.4-4.8-1.4c-0.4,0-1.1,0.1-1.1,0.5c0,0.7,1.6,1.7,4.5,3.7l-0.6,1.1
			c-1.9-1.2-6.8-3.9-6.8-6.4c0-1.5,1.5-2.1,2.8-2.1c2.8,0,6.4,1.7,9.1,2.8l1.1,0.5l0.1-0.1l-10.1-6.2c-1.2-0.9-2.9-2.2-2.9-3.8
			c0-1.7,1.7-2.3,3.1-2.3c1.7,0,4,0.9,5.7,1.5l6.3,2.1c0.3,0.1,1.3,0.5,1.7,0.5c0.3,0,0.5-0.2,0.5-0.5c0-1.2-3.3-3.1-4.2-3.7l0.6-1
			c3.5,2.2,6,3.8,6,6.2c0,1.3-1.1,2.2-2.3,2.2c-1,0-2.5-0.5-3.6-0.8l-7.1-2.5c-0.6-0.2-2.1-0.7-2.7-0.7c-0.4,0-1,0.2-1,0.7
			c0,0.8,1.4,1.6,2,2l14.3,8.7v2.8L473.5,179.1z"/>
		<path class="st1" d="M470.8,145.8c6.5,0,13.5,5.5,13.5,10.3c0,3.4-2.7,5.5-6,5.5c-5.1,0-13.7-4.7-13.7-10.5
			C464.7,148.6,466.9,145.8,470.8,145.8z M480.2,158.5c1.6,0,2.9-0.7,2.9-2.4c0-4-10.7-7-14-7c-1.5,0-3.2,0.5-3.2,2.3
			C466,155.5,477,158.5,480.2,158.5z"/>
		<path class="st1" d="M473.5,139.4c-1-0.3-3.9-1.4-4.8-1.4c-0.4,0-1.1,0.1-1.1,0.5c0,0.7,1.6,1.7,4.5,3.7l-0.6,1.1
			c-1.9-1.2-6.8-3.9-6.8-6.4c0-1.5,1.5-2.1,2.8-2.1c2.8,0,6.4,1.7,9.1,2.8l1.1,0.5l0.1-0.1l-10.1-6.2c-1.2-0.9-2.9-2.2-2.9-3.8
			c0-1.7,1.7-2.3,3.1-2.3c1.7,0,4,0.9,5.7,1.5l6.3,2.1c0.3,0.1,1.3,0.5,1.7,0.5c0.3,0,0.5-0.2,0.5-0.5c0-1.2-3.3-3.1-4.2-3.7l0.6-1
			c3.5,2.2,6,3.8,6,6.2c0,1.3-1.1,2.2-2.3,2.2c-1,0-2.5-0.5-3.6-0.8l-7.1-2.5c-0.6-0.2-2.1-0.7-2.7-0.7c-0.4,0-1,0.2-1,0.7
			c0,0.8,1.4,1.6,2,2l14.3,8.7v2.8L473.5,139.4z"/>
		<path class="st1" d="M515.5,1141.4c-0.5-0.1-1.3-0.3-1.7-0.3c-1.2,0-1,1-1,2.7l-1.3-0.3l-1.1-6.7l14.3,3.8l0.1-0.1
			c-2.3-1.3-5.2-3.4-5.2-6.3c0-2,1.6-3.5,3.7-3.5c3,0,5.4,3.3,6.4,5.8l4-0.7c0.5-0.1,2.7-0.3,2.7-1.2c0-1-2.8-2.4-3.7-2.7l0.5-1.2
			c2,1,6,2.8,6,5.4c0,1-0.1,2-8.5,3.3l0.7,2.8l7.4,2v3.3L515.5,1141.4z M523.9,1133.8c-1,0-2,0.7-2,1.7c0,1.5,1.4,4.2,8.1,6.6
			C529.5,1139.3,527.2,1133.8,523.9,1133.8z"/>
		<path class="st1" d="M528.4,1124.2c-1-0.3-3.9-1.4-4.8-1.4c-0.4,0-1.1,0.1-1.1,0.5c0,0.7,1.6,1.7,4.5,3.7l-0.6,1.1
			c-1.9-1.2-6.8-3.9-6.8-6.4c0-1.5,1.5-2.1,2.8-2.1c2.8,0,6.4,1.7,9.1,2.8l1.1,0.5l0.1-0.1l-10.1-6.2c-1.2-0.9-2.9-2.2-2.9-3.8
			c0-1.7,1.7-2.3,3.1-2.3c1.7,0,4,0.9,5.7,1.5l6.3,2.1c0.3,0.1,1.3,0.5,1.7,0.5c0.3,0,0.5-0.2,0.5-0.5c0-1.2-3.3-3.1-4.2-3.7l0.6-1
			c3.5,2.2,6,3.8,6,6.2c0,1.3-1.1,2.2-2.3,2.2c-1,0-2.5-0.5-3.6-0.8l-7.1-2.5c-0.6-0.2-2.1-0.7-2.7-0.7c-0.4,0-1,0.2-1,0.7
			c0,0.8,1.4,1.6,2,2l14.3,8.7v2.8L528.4,1124.2z"/>
		<path class="st1" d="M525.7,1091c6.5,0,13.5,5.5,13.5,10.3c0,3.4-2.7,5.5-6,5.5c-5.1,0-13.7-4.7-13.7-10.5
			C519.6,1093.8,521.8,1091,525.7,1091z M535.1,1103.6c1.6,0,2.9-0.7,2.9-2.4c0-4-10.7-7-14-7c-1.5,0-3.2,0.5-3.2,2.3
			C520.9,1100.6,531.9,1103.6,535.1,1103.6z"/>
		<path class="st1" d="M523.8,1071.6c2.9,0.7,7.3,1.8,10.3,1.8c0.8,0,2.8-0.1,2.8-1.3c0-2-7-5.8-10.8-5.8c-1.9,0-2.6,1.4-4.3,1.4
			c-1.1,0-2.2-0.7-2.2-1.8c0-1.6,2-2.2,3.2-2.2c4.3,0,16.5,4.3,16.5,9.5c0,2.5-2.8,3.3-4.8,3.3c-1.3,0-4.1-0.6-7.1-1.5l-0.1,0.1
			c3.6,1.2,12,4.4,12,8.9c0,1.8-1.7,2.9-3.3,2.9c-1.4,0-2.7-0.4-4-0.8l-6.7-2.2c-0.3-0.1-1.5-0.5-1.8-0.5c-0.3,0-0.7,0.1-0.7,0.4
			c0,1,3.1,2.9,3.9,3.5l-0.7,1c-1.7-1-6.4-4.2-6.4-6.3c0-1.5,1.1-2.1,2.5-2.1c1.3,0,3.2,0.7,4.3,1.1l6.7,2.2
			c0.7,0.2,1.5,0.5,2.1,0.5c0.6,0,1.2-0.3,1.2-1c0-3.6-13.2-8.1-16.3-9.1v-3L523.8,1071.6z"/>
		<path class="st1" d="M528.4,1057.9c-1-0.3-3.9-1.4-4.8-1.4c-0.4,0-1.1,0.1-1.1,0.5c0,0.7,1.6,1.7,4.5,3.7l-0.6,1.1
			c-1.9-1.2-6.8-3.9-6.8-6.4c0-1.5,1.5-2.1,2.8-2.1c2.8,0,6.4,1.7,9.1,2.8l1.1,0.5l0.1-0.1l-10.1-6.2c-1.2-0.9-2.9-2.2-2.9-3.8
			c0-1.7,1.7-2.3,3.1-2.3c1.7,0,4,0.9,5.7,1.5l6.3,2.1c0.3,0.1,1.3,0.5,1.7,0.5c0.3,0,0.5-0.2,0.5-0.5c0-1.2-3.3-3.1-4.2-3.7l0.6-1
			c3.5,2.2,6,3.8,6,6.2c0,1.3-1.1,2.2-2.3,2.2c-1,0-2.5-0.5-3.6-0.8l-7.1-2.5c-0.6-0.2-2.1-0.7-2.7-0.7c-0.4,0-1,0.2-1,0.7
			c0,0.8,1.4,1.6,2,2l14.3,8.7v2.8L528.4,1057.9z"/>
		<path class="st1" d="M520,1015.2v-3.4l8.1,2.9c1.2,0.4,6.6,2.3,7.6,2.3c0.3,0,0.6-0.2,0.6-0.5c0-0.7-1.3-2.1-4.3-3.8l0.6-1
			c4.2,2.5,6.6,4.2,6.6,6.3c0,1.3-1,2.2-2.3,2.2c-1,0-1.8-0.2-2.6-0.5l-0.1,0.1c2.6,1.1,5,3.1,5,6.2c0,3-2.6,4.4-5.3,4.4
			c-5.5,0-14.3-5.2-14.3-11.3c0-1.7,0.6-2.7,2.2-3.4L520,1015.2z M523.4,1016.8c-1.2,0-2.1,0.6-2.1,1.8c0,2.8,2.9,4.7,5.1,5.8
			c2.2,1.1,6.1,2.5,8.5,2.5c1.2,0,2.3-0.6,2.3-1.9C537.3,1021.2,526.7,1016.8,523.4,1016.8z"/>
		<path class="st1" d="M535.4,1011c-1,0-2-0.8-2-1.8c0-2.8,4.1-1.3,4.1-4.6c0-1.7-1.2-2.8-2.8-2.8c-3.8,0-4.8,6.5-9.8,6.5
			c-2.9,0-5.4-2.7-5.4-6.2c0-2,1.3-4.9,3.7-4.9c1,0,1.7,0.7,1.7,1.8c0,1.9-3.7,1.8-3.7,4.2c0,1.3,1.5,2.1,2.7,2.1
			c3.5,0,4.6-6.5,9.7-6.5c2.8,0,5.6,2.5,5.6,6.5C539.2,1008.2,537.5,1011,535.4,1011z"/>
		<path class="st1" d="M511.2,974.6c0.6,1.2,2.9,3.8,4.2,3.8c1.2,0,1.2-1.5,3-1.5c1.3,0,2.2,1.1,2.2,2.3c0,1.5-1.3,2.3-2.6,2.3
			c-3.5,0-6.2-3.5-7.7-6.4L511.2,974.6z"/>
		<path class="st1" d="M515.5,962.5c-0.5-0.1-1.3-0.3-1.7-0.3c-1.2,0-1,1.1-1,2.6l-1.3-0.3l-1.1-6.6l23.8,6.5
			c0.4,0.1,1.2,0.3,1.6,0.3c0.4,0,1-0.2,1-0.6c0-1.2-3.6-2.7-4.6-3.2l0.5-1.1c2.2,1,6.5,3.1,6.5,6c0,1.2-1.1,2.3-2.3,2.3
			c-0.8,0-1.5-0.2-2.2-0.4l-0.1,0.1c2.2,1.3,4.5,3.4,4.5,6.2c0,2.7-2.9,3.8-5.2,3.8c-6,0-14.5-5.9-14.5-10.7c0-1.2,0.4-2,1-3
			L515.5,962.5z M526.7,971.8c2,1,5.8,2.2,8,2.2c0.9,0,2.6-0.2,2.6-1.5c0-3.8-10-7.7-13.2-7.7c-1.3,0-2.7,0.5-2.7,2
			C521.3,969.1,525,971,526.7,971.8z"/>
		<path class="st1" d="M533.1,948.4c2,1.3,6.2,3.4,6.2,6.2c0,1.4-1.2,2.3-2.5,2.3c-1,0-2.6-0.5-3.6-0.9l-7.9-2.7
			c-0.4-0.2-1.4-0.5-1.8-0.5c-0.3,0-1,0.2-1,0.5c0,0.8,3.3,2.7,4,3.2l-0.7,1.1c-2-1.2-6.2-3.7-6.2-6.3c0-1.3,1.1-1.9,2.3-1.9
			c1.4,0,3,0.5,4.3,1l8.7,2.9c0.3,0.1,1.1,0.4,1.5,0.4c0.3,0,0.5-0.2,0.5-0.5c0-1.2-3.5-3.1-4.4-3.7L533.1,948.4z M510.3,949.1
			c0-1.3,1-2.3,2.3-2.3c1.3,0,2.3,1,2.3,2.3c0,1.3-1,2.3-2.3,2.3C511.3,951.5,510.3,950.4,510.3,949.1z"/>
		<path class="st1" d="M532.1,943.1c-0.9,1.1-2.3,1.7-3.7,1.7c-4.2,0-8.8-3.5-8.8-7.9c0-1.4,0.5-2.4,1.4-3.5
			c-0.8-0.9-1.9-2.3-1.9-3.5c0-1,0.6-2,1.7-2c1.1,0,1.7,0.8,1.7,1.8c0,0.8-0.4,1-0.4,1.6c0,0.4,0.2,0.7,0.4,1c1-0.5,1.7-0.6,2.8-0.6
			c4,0,8.3,3.3,8.3,7.5c0,0.8-0.2,1.5-0.5,2.3c0.3,0.3,0.9,1.3,1.3,1.3c1.6,0,1-9.9,6.5-9.9c4.4,0,5.4,5.4,5.4,8.8c0,5.4-2.3,8-4,8
			c-2.5,0-3.7-3-4.5-4.9c-0.3,1-0.6,2.4-1.8,2.4c-1.1,0-1.9-1.4-2.4-2.1L532.1,943.1z M542.2,946.6c2,0,2.4-3.7,2.4-5.1
			c0-1.6-0.4-5.3-2.7-5.3c-2.4,0-2.8,4.4-3.3,6C539.1,943.6,540.5,946.6,542.2,946.6z M524.8,934.9c-1.3,0-3.4,0.3-3.4,2.1
			c0,3,4.9,4.6,7.3,4.6c1.5,0,3.3-0.5,3.3-2.2C532,937.9,530.1,934.9,524.8,934.9z"/>
		<path class="st1" d="M533.1,919c2,1.3,6.2,3.4,6.2,6.2c0,1.4-1.2,2.3-2.5,2.3c-1,0-2.6-0.5-3.6-0.9l-7.9-2.7
			c-0.4-0.2-1.4-0.5-1.8-0.5c-0.3,0-1,0.2-1,0.5c0,0.8,3.3,2.7,4,3.2l-0.7,1.1c-2-1.2-6.2-3.7-6.2-6.3c0-1.3,1.1-1.9,2.3-1.9
			c1.4,0,3,0.5,4.3,1l8.7,2.9c0.3,0.1,1.1,0.4,1.5,0.4c0.3,0,0.5-0.2,0.5-0.5c0-1.2-3.5-3.1-4.4-3.7L533.1,919z M510.3,919.7
			c0-1.3,1-2.3,2.3-2.3c1.3,0,2.3,1,2.3,2.3c0,1.3-1,2.3-2.3,2.3C511.3,922,510.3,921,510.3,919.7z"/>
		<path class="st1" d="M513.5,906.9l6.5,1.8V905l2.1,0.6v3.7l12.5,3.3c0.4,0.1,1.2,0.3,1.7,0.3c0.2,0,0.6-0.2,0.6-0.5
			c0-1.2-3.1-3-4.1-3.5l0.8-1.2c2,1.2,5.6,3.4,5.6,6c0,1.5-1,2.3-2.5,2.3c-1.3,0-3.1-0.5-4.4-0.8l-10.2-2.7v3.3l-2.1-0.6v-3.3
			l-6.5-2.1V906.9z"/>
		<path class="st1" d="M520,890.2v-3.4l8.1,2.9c1.2,0.4,6.6,2.3,7.6,2.3c0.3,0,0.6-0.2,0.6-0.5c0-0.7-1.3-2.1-4.3-3.8l0.6-1
			c4.2,2.5,6.6,4.2,6.6,6.3c0,1.3-1,2.2-2.3,2.2c-1,0-1.8-0.2-2.6-0.5l-0.1,0.1c2.6,1.1,5,3.1,5,6.2c0,3-2.6,4.4-5.3,4.4
			c-5.5,0-14.3-5.2-14.3-11.3c0-1.7,0.6-2.7,2.2-3.4L520,890.2z M523.4,891.7c-1.2,0-2.1,0.6-2.1,1.8c0,2.8,2.9,4.7,5.1,5.8
			c2.2,1.1,6.1,2.5,8.5,2.5c1.2,0,2.3-0.6,2.3-1.9C537.3,896.2,526.7,891.7,523.4,891.7z"/>
		<path class="st1" d="M534.6,880.8c0.4,0.1,1.2,0.3,1.6,0.3c0.3,0,0.7-0.1,0.7-0.5c0-1-3.8-2.9-4.7-3.4l0.5-1.1
			c2.1,1.1,6.6,3,6.6,5.8c0,1.6-1.3,2.3-2.8,2.3c-1,0-2.4-0.4-3.4-0.6l-17.6-4.7c-0.5-0.1-1.3-0.3-1.7-0.3c-1.2,0-1,1.1-1,2.6
			l-1.3-0.3l-1.1-6.6L534.6,880.8z"/>
		<path class="st1" d="M515.5,848.5c-0.5-0.1-1.3-0.3-1.7-0.3c-1.2,0-1,1.1-1,2.6l-1.3-0.3l-1.1-6.6l23.8,6.5
			c0.4,0.1,1.2,0.3,1.6,0.3c0.4,0,1-0.2,1-0.6c0-1.2-3.6-2.7-4.6-3.2l0.5-1.1c2.2,1,6.5,3.1,6.5,6c0,1.2-1.1,2.3-2.3,2.3
			c-0.8,0-1.5-0.2-2.2-0.4l-0.1,0.1c2.2,1.3,4.5,3.4,4.5,6.2c0,2.7-2.9,3.8-5.2,3.8c-6,0-14.5-5.9-14.5-10.7c0-1.2,0.4-2,1-3
			L515.5,848.5z M526.7,857.9c2,1,5.8,2.2,8,2.2c0.9,0,2.6-0.2,2.6-1.5c0-3.8-10-7.7-13.2-7.7c-1.3,0-2.7,0.5-2.7,2
			C521.3,855.1,525,857,526.7,857.9z"/>
		<path class="st1" d="M533.6,830.6c2.7,1.6,5.7,4.5,5.7,7.9c0,3.4-2.9,5.2-6.1,5.2c-5.1,0-13.5-5-13.5-10.6c0-2,1.2-3.7,3.4-3.7
			c4.8,0,8.2,6.7,9.5,10.6c0.6,0.1,1.2,0.1,1.7,0.1c2.9,0,3.4-1,3.4-2.3c0-2.4-2.7-5-4.6-6.2L533.6,830.6z M522.9,831.9
			c-0.8,0-1.6,0.4-1.6,1.3c0,1.9,3.7,5.4,9.7,6.5C530,836.7,526.4,831.9,522.9,831.9z"/>
		<path class="st1" d="M534.3,814.9c2.1,1.6,4.9,4.7,4.9,7.4c0,3.3-3,5.3-6,5.3c-5.8,0-13.6-5.8-13.6-10.7c0-2.1,1.6-3.7,3.7-3.7
			c1.2,0,2.4,0.7,2.4,2c0,1-1.1,1.6-2,1.6c-0.4,0-0.8-0.1-1.3-0.1c-0.6,0-1.1,0.4-1.1,1c0,2,7.3,6.4,13.2,6.4c1.4,0,3-0.4,3-2.1
			c0-2.3-2.4-4.7-4-6.1L534.3,814.9z"/>
		<path class="st1" d="M520,796.9v-3.4l8.1,2.9c1.2,0.4,6.6,2.3,7.6,2.3c0.3,0,0.6-0.2,0.6-0.5c0-0.7-1.3-2.1-4.3-3.8l0.6-1
			c4.2,2.5,6.6,4.2,6.6,6.3c0,1.3-1,2.2-2.3,2.2c-1,0-1.8-0.2-2.6-0.5l-0.1,0.1c2.6,1.1,5,3.1,5,6.2c0,3-2.6,4.4-5.3,4.4
			c-5.5,0-14.3-5.2-14.3-11.3c0-1.7,0.6-2.7,2.2-3.4L520,796.9z M523.4,798.4c-1.2,0-2.1,0.6-2.1,1.8c0,2.8,2.9,4.7,5.1,5.8
			c2.2,1.1,6.1,2.5,8.5,2.5c1.2,0,2.3-0.6,2.3-1.9C537.3,802.9,526.7,798.4,523.4,798.4z"/>
		<path class="st1" d="M534.2,782.7c-1.9-1.1-6.5-3.5-8.5-3.5c-2,0-2.7,1-4,1c-1.1,0-2.1-0.8-2.1-1.9c0-1.6,1.7-2.1,3-2.1
			c3.7,0,10.5,3.7,13.8,5.7c3.5,2.1,9.7,6.3,9.7,10.9c0,1.2-0.6,2.4-1.9,2.4c-1.2,0-1.9-1.3-1.9-2.3c0-1,0.4-1.8,0.4-2.7
			c0-2-3-3.9-4.5-5l-13.9,2.5c-0.4,0.1-1.5,0.1-1.5,0.7c0,0.8,3,1.6,3.6,1.9l-0.3,1.2c-1.8-0.8-6.5-2.3-6.5-4.7
			c0-1.7,2.5-1.8,3.7-2.1L534.2,782.7z"/>
		<path class="st1" d="M519.7,773.5c-0.6-1.2-2.9-3.8-4.2-3.8c-1.2,0-1.2,1.5-3,1.5c-1.3,0-2.2-1.1-2.2-2.3c0-1.5,1.3-2.3,2.6-2.3
			c3.5,0,6.2,3.5,7.7,6.4L519.7,773.5z"/>
		<path class="st1" d="M527.4,719.1l2.9,0.8v38.5l-2.9-0.8V719.1z"/>
		<path class="st1" d="M520,693.6v-3.4l8.1,2.9c1.2,0.4,6.6,2.3,7.6,2.3c0.3,0,0.6-0.2,0.6-0.5c0-0.7-1.3-2.1-4.3-3.8l0.6-1
			c4.2,2.5,6.6,4.2,6.6,6.3c0,1.3-1,2.2-2.3,2.2c-1,0-1.8-0.2-2.6-0.5l-0.1,0.1c2.6,1.1,5,3.1,5,6.2c0,3-2.6,4.4-5.3,4.4
			c-5.5,0-14.3-5.2-14.3-11.3c0-1.7,0.6-2.7,2.2-3.4L520,693.6z M523.4,695.1c-1.2,0-2.1,0.6-2.1,1.8c0,2.8,2.9,4.7,5.1,5.8
			c2.2,1.1,6.1,2.5,8.5,2.5c1.2,0,2.3-0.6,2.3-1.9C537.3,699.6,526.7,695.1,523.4,695.1z"/>
		<path class="st1" d="M528.4,683.6c-1-0.3-3.9-1.4-4.8-1.4c-0.4,0-1.1,0.1-1.1,0.5c0,0.7,1.6,1.7,4.5,3.7l-0.6,1.1
			c-1.9-1.2-6.8-3.9-6.8-6.4c0-1.5,1.5-2.1,2.8-2.1c2.8,0,6.4,1.7,9.1,2.8l1.1,0.5l0.1-0.1l-10.1-6.2c-1.2-0.9-2.9-2.2-2.9-3.8
			c0-1.7,1.7-2.3,3.1-2.3c1.7,0,4,0.9,5.7,1.5l6.3,2.1c0.3,0.1,1.3,0.5,1.7,0.5c0.3,0,0.5-0.2,0.5-0.5c0-1.2-3.3-3.1-4.2-3.7l0.6-1
			c3.5,2.2,6,3.8,6,6.2c0,1.3-1.1,2.2-2.3,2.2c-1,0-2.5-0.5-3.6-0.8l-7.1-2.5c-0.6-0.2-2.1-0.7-2.7-0.7c-0.4,0-1,0.2-1,0.7
			c0,0.8,1.4,1.6,2,2l14.3,8.7v2.8L528.4,683.6z"/>
		<path class="st1" d="M534.2,657.8c-1.9-1.1-6.5-3.5-8.5-3.5c-2,0-2.7,1-4,1c-1.1,0-2.1-0.8-2.1-1.9c0-1.6,1.7-2.1,3-2.1
			c3.7,0,10.5,3.7,13.8,5.7c3.5,2.1,9.7,6.3,9.7,10.9c0,1.2-0.6,2.4-1.9,2.4c-1.2,0-1.9-1.3-1.9-2.3c0-1,0.4-1.8,0.4-2.7
			c0-2-3-3.9-4.5-5l-13.9,2.5c-0.4,0.1-1.5,0.1-1.5,0.7c0,0.8,3,1.6,3.6,1.9l-0.3,1.2c-1.8-0.8-6.5-2.3-6.5-4.7
			c0-1.7,2.5-1.8,3.7-2.1L534.2,657.8z"/>
		<path class="st1" d="M513.5,641.3l6.5,1.8v-3.7l2.1,0.6v3.7l12.5,3.3c0.4,0.1,1.2,0.3,1.7,0.3c0.2,0,0.6-0.2,0.6-0.5
			c0-1.2-3.1-3-4.1-3.5l0.8-1.2c2,1.2,5.6,3.4,5.6,6c0,1.5-1,2.3-2.5,2.3c-1.3,0-3.1-0.5-4.4-0.8l-10.2-2.7v3.3l-2.1-0.6v-3.3
			l-6.5-2.1V641.3z"/>
		<path class="st1" d="M515.5,634.2c-0.5-0.1-1.3-0.3-1.7-0.3c-0.8,0-1.1,0.4-1,2.5l-1.3-0.3l-1.1-6.3l21.2,5.7l0.1-0.1
			c-2.8-1.5-12.1-6.4-12.1-9.7c0-1.5,1.5-2.5,2.9-2.5c1.1,0,3,0.6,4.1,1l8.6,2.9c0.3,0.1,0.8,0.3,1.1,0.3c0.3,0,0.6-0.2,0.6-0.5
			c0-1.2-3.4-3-4.4-3.7l0.7-1.1c2,1.3,6.1,3.5,6.1,6.3c0,1.5-1.3,2.2-2.7,2.2c-1,0-2.2-0.4-3-0.7l-7.9-2.7c-0.7-0.2-1.6-0.6-2.3-0.6
			c-0.4,0-0.9,0.2-0.9,0.7c0,1.3,4.6,4.2,5.3,4.6c5,2.5,7.8,4.4,11,5.6v3.2L515.5,634.2z"/>
		<path class="st1" d="M533.1,609.9c2,1.3,6.2,3.4,6.2,6.2c0,1.4-1.2,2.3-2.5,2.3c-1,0-2.6-0.5-3.6-0.9l-7.9-2.7
			c-0.4-0.2-1.4-0.5-1.8-0.5c-0.3,0-1,0.2-1,0.5c0,0.8,3.3,2.7,4,3.2l-0.7,1.1c-2-1.2-6.2-3.7-6.2-6.3c0-1.3,1.1-1.9,2.3-1.9
			c1.4,0,3,0.5,4.3,1l8.7,2.9c0.3,0.1,1.1,0.4,1.5,0.4c0.3,0,0.5-0.2,0.5-0.5c0-1.2-3.5-3.1-4.4-3.7L533.1,609.9z M510.3,610.6
			c0-1.3,1-2.3,2.3-2.3c1.3,0,2.3,1,2.3,2.3c0,1.3-1,2.3-2.3,2.3C511.3,613,510.3,611.9,510.3,610.6z"/>
		<path class="st1" d="M528.4,603.3c-1-0.3-3.9-1.4-4.8-1.4c-0.4,0-1.1,0.1-1.1,0.5c0,0.7,1.6,1.7,4.5,3.7l-0.6,1.1
			c-1.9-1.2-6.8-3.9-6.8-6.4c0-1.5,1.5-2.1,2.8-2.1c2.8,0,6.4,1.7,9.1,2.8l1.1,0.5l0.1-0.1l-10.1-6.2c-1.2-0.9-2.9-2.2-2.9-3.8
			c0-1.7,1.7-2.3,3.1-2.3c1.7,0,4,0.9,5.7,1.5l6.3,2.1c0.3,0.1,1.3,0.5,1.7,0.5c0.3,0,0.5-0.2,0.5-0.5c0-1.2-3.3-3.1-4.2-3.7l0.6-1
			c3.5,2.2,6,3.8,6,6.2c0,1.3-1.1,2.2-2.3,2.2c-1,0-2.5-0.5-3.6-0.8l-7.1-2.5c-0.6-0.2-2.1-0.7-2.7-0.7c-0.4,0-1,0.2-1,0.7
			c0,0.8,1.4,1.6,2,2l14.3,8.7v2.8L528.4,603.3z"/>
		<path class="st1" d="M532.1,583c-0.9,1.1-2.3,1.7-3.7,1.7c-4.2,0-8.8-3.5-8.8-7.9c0-1.4,0.5-2.4,1.4-3.5c-0.8-0.9-1.9-2.3-1.9-3.5
			c0-1,0.6-2,1.7-2c1.1,0,1.7,0.8,1.7,1.8c0,0.8-0.4,1-0.4,1.6c0,0.4,0.2,0.7,0.4,1c1-0.5,1.7-0.6,2.8-0.6c4,0,8.3,3.3,8.3,7.5
			c0,0.8-0.2,1.5-0.5,2.3c0.3,0.3,0.9,1.3,1.3,1.3c1.6,0,1-9.9,6.5-9.9c4.4,0,5.4,5.4,5.4,8.8c0,5.4-2.3,8-4,8c-2.5,0-3.7-3-4.5-4.9
			c-0.3,1-0.6,2.4-1.8,2.4c-1.1,0-1.9-1.4-2.4-2.1L532.1,583z M542.2,586.5c2,0,2.4-3.7,2.4-5.1c0-1.6-0.4-5.3-2.7-5.3
			c-2.4,0-2.8,4.4-3.3,6C539.1,583.5,540.5,586.5,542.2,586.5z M524.8,574.8c-1.3,0-3.4,0.3-3.4,2.1c0,3,4.9,4.6,7.3,4.6
			c1.5,0,3.3-0.5,3.3-2.2C532,577.8,530.1,574.8,524.8,574.8z"/>
		<path class="st1" d="M535.4,559.7c-1,0-2-0.8-2-1.8c0-2.8,4.1-1.3,4.1-4.6c0-1.7-1.2-2.8-2.8-2.8c-3.8,0-4.8,6.5-9.8,6.5
			c-2.9,0-5.4-2.7-5.4-6.2c0-2,1.3-4.9,3.7-4.9c1,0,1.7,0.7,1.7,1.8c0,1.9-3.7,1.8-3.7,4.2c0,1.3,1.5,2.1,2.7,2.1
			c3.5,0,4.6-6.5,9.7-6.5c2.8,0,5.6,2.5,5.6,6.5C539.2,556.9,537.5,559.7,535.4,559.7z"/>
		<path class="st1" d="M513.5,534.9l6.5,1.8V533l2.1,0.6v3.7l12.5,3.3c0.4,0.1,1.2,0.3,1.7,0.3c0.2,0,0.6-0.2,0.6-0.5
			c0-1.2-3.1-3-4.1-3.5l0.8-1.2c2,1.2,5.6,3.4,5.6,6c0,1.5-1,2.3-2.5,2.3c-1.3,0-3.1-0.5-4.4-0.8l-10.2-2.7v3.3l-2.1-0.6v-3.3
			l-6.5-2.1V534.9z"/>
		<path class="st1" d="M525.7,517.2c6.5,0,13.5,5.5,13.5,10.3c0,3.4-2.7,5.5-6,5.5c-5.1,0-13.7-4.7-13.7-10.5
			C519.6,520,521.8,517.2,525.7,517.2z M535.1,529.9c1.6,0,2.9-0.7,2.9-2.4c0-4-10.7-7-14-7c-1.5,0-3.2,0.5-3.2,2.3
			C520.9,526.8,531.9,529.9,535.1,529.9z"/>
		<path class="st1" d="M538.8,511.6v2.8l-13.2-4.5c-0.7-0.2-1.5-0.5-2.2-0.5c-0.3,0-1,0.2-1,0.5c0,1.2,3.6,3,4.5,3.7l-0.7,1
			c-1.8-1.2-6.8-3.8-6.8-6.3c0-1.4,1.1-2.1,2.4-2.1c1.5,0,4.2,0.9,5.6,1.5l3.3,1.2l0.1-0.1c-2.4-1.4-11.4-5.3-11.4-8.5
			c0-1,0.8-1.8,1.8-1.8c1.6,0,2.3,1.4,2.5,2.8c0.2,1.3,0.5,1.8,1.5,2.7c2,1.7,6.5,4,9,5.3L538.8,511.6z"/>
		<path class="st1" d="M533.6,486.2c2.7,1.6,5.7,4.5,5.7,7.9c0,3.4-2.9,5.2-6.1,5.2c-5.1,0-13.5-5-13.5-10.6c0-2,1.2-3.7,3.4-3.7
			c4.8,0,8.2,6.7,9.5,10.6c0.6,0.1,1.2,0.1,1.7,0.1c2.9,0,3.4-1,3.4-2.3c0-2.4-2.7-5-4.6-6.2L533.6,486.2z M522.9,487.6
			c-0.8,0-1.6,0.4-1.6,1.3c0,1.9,3.7,5.4,9.7,6.5C530,492.3,526.4,487.6,522.9,487.6z"/>
		<path class="st1" d="M515.5,468.4c-0.5-0.1-1.3-0.3-1.7-0.3c-1.2,0-1,1.1-1,2.6l-1.3-0.3l-1.1-6.6l23.8,6.5
			c0.4,0.1,1.2,0.3,1.6,0.3c0.4,0,1-0.2,1-0.6c0-1.2-3.6-2.7-4.6-3.2l0.5-1.1c2.2,1,6.5,3.1,6.5,6c0,1.2-1.1,2.3-2.3,2.3
			c-0.8,0-1.5-0.2-2.2-0.4l-0.1,0.1c2.2,1.3,4.5,3.4,4.5,6.2c0,2.7-2.9,3.8-5.2,3.8c-6,0-14.5-5.9-14.5-10.7c0-1.2,0.4-2,1-3
			L515.5,468.4z M526.7,477.8c2,1,5.8,2.2,8,2.2c0.9,0,2.6-0.2,2.6-1.5c0-3.8-10-7.7-13.2-7.7c-1.3,0-2.7,0.5-2.7,2
			C521.3,475,525,477,526.7,477.8z"/>
		<path class="st1" d="M533.1,444c2,1.3,6.2,3.4,6.2,6.2c0,1.4-1.2,2.3-2.5,2.3c-1,0-2.6-0.5-3.6-0.9l-7.9-2.7
			c-0.4-0.2-1.4-0.5-1.8-0.5c-0.3,0-1,0.2-1,0.5c0,0.8,3.3,2.7,4,3.2l-0.7,1.1c-2-1.2-6.2-3.7-6.2-6.3c0-1.3,1.1-1.9,2.3-1.9
			c1.4,0,3,0.5,4.3,1l8.7,2.9c0.3,0.1,1.1,0.4,1.5,0.4c0.3,0,0.5-0.2,0.5-0.5c0-1.2-3.5-3.1-4.4-3.7L533.1,444z M510.3,444.7
			c0-1.3,1-2.3,2.3-2.3c1.3,0,2.3,1,2.3,2.3c0,1.3-1,2.3-2.3,2.3C511.3,447,510.3,446,510.3,444.7z"/>
		<path class="st1" d="M528.4,437.4c-1-0.3-3.9-1.4-4.8-1.4c-0.4,0-1.1,0.1-1.1,0.5c0,0.7,1.6,1.7,4.5,3.7l-0.6,1.1
			c-1.9-1.2-6.8-3.9-6.8-6.4c0-1.5,1.5-2.1,2.8-2.1c2.8,0,6.4,1.7,9.1,2.8l1.1,0.5l0.1-0.1l-10.1-6.2c-1.2-0.9-2.9-2.2-2.9-3.8
			c0-1.7,1.7-2.3,3.1-2.3c1.7,0,4,0.9,5.7,1.5l6.3,2.1c0.3,0.1,1.3,0.5,1.7,0.5c0.3,0,0.5-0.2,0.5-0.5c0-1.2-3.3-3.1-4.2-3.7l0.6-1
			c3.5,2.2,6,3.8,6,6.2c0,1.3-1.1,2.2-2.3,2.2c-1,0-2.5-0.5-3.6-0.8l-7.1-2.5c-0.6-0.2-2.1-0.7-2.7-0.7c-0.4,0-1,0.2-1,0.7
			c0,0.8,1.4,1.6,2,2l14.3,8.7v2.8L528.4,437.4z"/>
		<path class="st1" d="M534.3,396.7c2.1,1.6,4.9,4.7,4.9,7.4c0,3.3-3,5.3-6,5.3c-5.8,0-13.6-5.8-13.6-10.7c0-2.1,1.6-3.7,3.7-3.7
			c1.2,0,2.4,0.7,2.4,2c0,1-1.1,1.6-2,1.6c-0.4,0-0.8-0.1-1.3-0.1c-0.6,0-1.1,0.4-1.1,1c0,2,7.3,6.4,13.2,6.4c1.4,0,3-0.4,3-2.1
			c0-2.3-2.4-4.7-4-6.1L534.3,396.7z"/>
		<path class="st1" d="M525.7,377.8c6.5,0,13.5,5.5,13.5,10.3c0,3.4-2.7,5.5-6,5.5c-5.1,0-13.7-4.7-13.7-10.5
			C519.6,380.6,521.8,377.8,525.7,377.8z M535.1,390.5c1.6,0,2.9-0.7,2.9-2.4c0-4-10.7-7-14-7c-1.5,0-3.2,0.5-3.2,2.3
			C520.9,387.4,531.9,390.5,535.1,390.5z"/>
		<path class="st1" d="M525.4,370.5c-0.5-0.2-1.5-0.5-2-0.5c-0.3,0-0.9,0.1-0.9,0.5c0,0.8,2.3,2.2,3,2.7l1.4,0.9l-0.6,1.1
			c-4.1-2.5-6.7-4.3-6.7-6.3c0-1.5,1.5-2.1,2.9-2.1c1.6,0,4.6,1.2,6.1,1.7l4.5,1.8l0.1-0.1l-7.8-4.4c-1.9-1.2-5.8-3.7-5.8-6.2
			c0-1.7,1.3-2.5,2.9-2.5c1.7,0,4.5,1.1,6.1,1.7l4.5,1.8l0.1-0.1l-0.7-0.3c-3.1-1.7-12.9-6.6-12.9-10.5c0-1.7,1.2-2.3,2.8-2.3
			c2,0,4.3,1,6.2,1.6l6.1,2.2c0.5,0.2,1.2,0.4,1.7,0.4c0.3,0,0.5-0.2,0.5-0.5c0-0.7-1.3-1.9-4.3-3.7l0.6-1.1c2,1.3,6.1,3.5,6.1,6.1
			c0,1.5-1.1,2.4-2.5,2.4c-1.1,0-2.5-0.5-3.5-0.9l-7.8-2.8c-0.5-0.2-1.4-0.6-1.9-0.6c-0.5,0-1,0.3-1,0.8c0,0.6,0.8,2.3,9,7l7.4,4.2
			v2.8l-13.4-4.7c-0.5-0.2-1.5-0.5-2.1-0.5c-0.5,0-0.8,0.3-0.8,0.8c0,1.1,0,1.5,8.1,6.3l8.2,4.8v2.9L525.4,370.5z"/>
		<path class="st1" d="M514.2,333.4l5.9,1.5c-0.2-0.7-0.5-1.5-0.5-2.3c0-3.7,3-5.4,6.4-5.4s7.2,1.7,9.6,4c2.4,2.4,3.5,5.3,3.4,8.7
			l1,0.3c0.6,0.2,2.3,0.7,3,0.7c1.4,0,1.2-1.3,1.3-2.3l1.3,0.3v8.4l-1.3-0.3c-0.1-2-0.2-2.5-2.5-3.1l-18.5-4.9
			c0.8,1.1,1.7,2.5,2.7,3.8l-1,0.8c-1.5-1.5-2.8-3.2-3.8-5.2l-7-2.3V333.4z M537.3,339.6c0-2.2-0.6-4.1-2.3-5.7
			c-2.2-1.9-6.1-3.5-9-3.5c-2.1,0-4.5,1-4.5,3.4c0,0.5,0.1,1.1,0.3,1.6L537.3,339.6z"/>
		<path class="st1" d="M531.9,309.8c0.8,0.3,3.1,1.1,3.9,1.1c0.3,0,1.1-0.2,1.1-0.5c0-1-3.7-3.1-4.6-3.7l0.7-1.1
			c2,1.2,6.3,3.9,6.3,6.4c0,1.4-1.2,2.1-2.3,2.1c-1.8,0-4.8-1.2-6.5-1.8l-3.8-1.6l-0.1,0.1l8.9,5.4c1.4,1,3.8,2.8,3.8,4.7
			c0,1.8-1.5,2.5-3.1,2.5c-1.3,0-3.6-0.9-4.9-1.4l-6.7-2.4c-0.4-0.2-1.3-0.5-1.8-0.5c-0.3,0-0.3,0.2-0.3,0.5c0,1,3.2,3.1,4,3.7
			l-0.8,1.1c-1.8-1.3-6.1-3.7-6.1-6.2c0-1.4,1.3-2.3,2.7-2.3c1.2,0,3.5,0.9,4.7,1.3l6.2,2.3c0.7,0.2,2,0.8,2.7,0.8
			c0.4,0,1-0.3,1-0.7c0-0.9-1.8-1.9-2.5-2.4l-14.4-8.7v-2.8L531.9,309.8z"/>
		<path class="st1" d="M513.5,293.5l6.5,1.8v-3.7l2.1,0.6v3.7l12.5,3.3c0.4,0.1,1.2,0.3,1.7,0.3c0.2,0,0.6-0.2,0.6-0.5
			c0-1.2-3.1-3-4.1-3.5l0.8-1.2c2,1.2,5.6,3.4,5.6,6c0,1.5-1,2.3-2.5,2.3c-1.3,0-3.1-0.5-4.4-0.8l-10.2-2.7v3.3l-2.1-0.6v-3.3
			l-6.5-2.1V293.5z"/>
		<path class="st1" d="M533.6,278.2c2.7,1.6,5.7,4.5,5.7,7.9c0,3.4-2.9,5.2-6.1,5.2c-5.1,0-13.5-5-13.5-10.6c0-2,1.2-3.7,3.4-3.7
			c4.8,0,8.2,6.7,9.5,10.6c0.6,0.1,1.2,0.1,1.7,0.1c2.9,0,3.4-1,3.4-2.3c0-2.4-2.7-5-4.6-6.2L533.6,278.2z M522.9,279.6
			c-0.8,0-1.6,0.4-1.6,1.3c0,1.9,3.7,5.4,9.7,6.5C530,284.3,526.4,279.6,522.9,279.6z"/>
		<path class="st1" d="M538.8,272.1v2.8l-13.2-4.5c-0.7-0.2-1.5-0.5-2.2-0.5c-0.3,0-1,0.2-1,0.5c0,1.2,3.6,3,4.5,3.7l-0.7,1
			c-1.8-1.2-6.8-3.8-6.8-6.3c0-1.4,1.1-2.1,2.4-2.1c1.5,0,4.2,0.9,5.6,1.5l3.3,1.2l0.1-0.1c-2.4-1.4-11.4-5.3-11.4-8.5
			c0-1,0.8-1.8,1.8-1.8c1.6,0,2.3,1.4,2.5,2.8c0.2,1.3,0.5,1.8,1.5,2.7c2,1.7,6.5,4,9,5.3L538.8,272.1z"/>
		<path class="st1" d="M533.1,250.5c2,1.3,6.2,3.4,6.2,6.2c0,1.4-1.2,2.3-2.5,2.3c-1,0-2.6-0.5-3.6-0.9l-7.9-2.7
			c-0.4-0.2-1.4-0.5-1.8-0.5c-0.3,0-1,0.2-1,0.5c0,0.8,3.3,2.7,4,3.2l-0.7,1.1c-2-1.2-6.2-3.7-6.2-6.3c0-1.3,1.1-1.9,2.3-1.9
			c1.4,0,3,0.5,4.3,1l8.7,2.9c0.3,0.1,1.1,0.4,1.5,0.4c0.3,0,0.5-0.2,0.5-0.5c0-1.2-3.5-3.1-4.4-3.7L533.1,250.5z M510.3,251.2
			c0-1.3,1-2.3,2.3-2.3c1.3,0,2.3,1,2.3,2.3c0,1.3-1,2.3-2.3,2.3C511.3,253.6,510.3,252.5,510.3,251.2z"/>
		<path class="st1" d="M525.8,247.2c-2.2-1.1-6.2-2.8-6.2-5.6c0-2.1,1.9-3.6,1.9-5.3c0-0.9-0.5-1.6-1.5-1.9V233
			c5.3,2.2,9.2,5.5,13.7,11.7c0.5,0.7,1,1.3,1.7,1.7l0.1-0.1c-0.6-0.6-1.1-1.4-1.1-2.3c0-1.3,0.7-2.2,1.4-3c0.7-0.8,1.5-1.4,1.5-2.1
			c0-0.3-0.2-0.5-0.5-0.5c-0.5,0-1.2,0.7-1.9,0.7c-0.9,0-1.5-0.7-1.5-1.6c0-1.2,1.1-1.9,2.3-1.9c2.2,0,3.7,1.8,3.7,4
			c0,2.7-2,5.2-2,7c0,1.2,0.8,2,2,2.3v1.3c-7-1.7-11-8.1-15.4-13.2l-0.1,0.1c0.2,0.4,0.3,0.8,0.3,1.4c0,0.9-0.3,1.6-0.7,2.2
			c-0.3,0.6-0.6,1.2-0.6,2c0,1.7,2,2.7,3.4,3.4L525.8,247.2z"/>
		<path class="st1" d="M533.6,219.7c2.7,1.6,5.7,4.5,5.7,7.9c0,3.4-2.9,5.2-6.1,5.2c-5.1,0-13.5-5-13.5-10.6c0-2,1.2-3.7,3.4-3.7
			c4.8,0,8.2,6.7,9.5,10.6c0.6,0.1,1.2,0.1,1.7,0.1c2.9,0,3.4-1,3.4-2.3c0-2.4-2.7-5-4.6-6.2L533.6,219.7z M522.9,221.1
			c-0.8,0-1.6,0.4-1.6,1.3c0,1.9,3.7,5.4,9.7,6.5C530,225.8,526.4,221.1,522.9,221.1z"/>
		<path class="st1" d="M515.5,201.9c-0.5-0.1-1.3-0.3-1.7-0.3c-1.2,0-1,1.1-1,2.6l-1.3-0.3l-1.1-6.6l23.8,6.5
			c0.4,0.1,1.2,0.3,1.6,0.3c0.4,0,1-0.2,1-0.6c0-1.2-3.6-2.7-4.6-3.2l0.5-1.1c2.2,1,6.5,3.1,6.5,6c0,1.2-1.1,2.3-2.3,2.3
			c-0.8,0-1.5-0.2-2.2-0.4l-0.1,0.1c2.2,1.3,4.5,3.4,4.5,6.2c0,2.7-2.9,3.8-5.2,3.8c-6,0-14.5-5.9-14.5-10.7c0-1.2,0.4-2,1-3
			L515.5,201.9z M526.7,211.3c2,1,5.8,2.2,8,2.2c0.9,0,2.6-0.2,2.6-1.5c0-3.8-10-7.7-13.2-7.7c-1.3,0-2.7,0.5-2.7,2
			C521.3,208.5,525,210.5,526.7,211.3z"/>
		<path class="st1" d="M575.3,1062.4l2.1,0.5v4.3l5.3,1.3c12.7,3.1,17.3,7.3,17.3,10.1c0,1.1-0.6,2.1-1.8,2.1c-1.2,0-1.8-1-1.8-2.1
			l0.1-1.5c0-0.9-0.3-1.5-1.2-1.9c-1.2-0.5-3.3-0.9-4.6-1.2l-13.2-3.6v3.3l-2.1-0.5v-3.3c-3.7-1.1-10.2-4.7-10.2-9.1
			c0-1.2,0.8-2.8,2.3-2.8c1.1,0,1.7,1.1,1.7,2c0,1.1-1.1,1.8-1.1,2.7c0,2.3,5.5,3.3,7.3,3.9V1062.4z"/>
		<path class="st1" d="M580.6,1048.8c6.5,0,13.5,5.5,13.5,10.3c0,3.4-2.7,5.5-6,5.5c-5.1,0-13.7-4.7-13.7-10.5
			C574.5,1051.5,576.7,1048.8,580.6,1048.8z M590,1061.4c1.6,0,2.9-0.7,2.9-2.4c0-4-10.7-7-14-7c-1.5,0-3.2,0.5-3.2,2.3
			C575.8,1058.4,586.8,1061.4,590,1061.4z"/>
		<path class="st1" d="M593.7,1043.1v2.8l-13.2-4.5c-0.7-0.2-1.5-0.5-2.2-0.5c-0.3,0-1,0.2-1,0.5c0,1.2,3.6,3,4.5,3.7l-0.7,1
			c-1.8-1.2-6.8-3.8-6.8-6.3c0-1.4,1.1-2.1,2.4-2.1c1.5,0,4.2,0.9,5.6,1.5l3.3,1.2l0.1-0.1c-2.4-1.4-11.4-5.3-11.4-8.5
			c0-1,0.8-1.8,1.8-1.8c1.6,0,2.3,1.4,2.5,2.8c0.2,1.3,0.5,1.8,1.5,2.7c2,1.7,6.5,4,9,5.3L593.7,1043.1z"/>
		<path class="st1" d="M580.3,1025.3c-0.5-0.2-1.5-0.5-2-0.5c-0.3,0-0.9,0.1-0.9,0.5c0,0.8,2.3,2.2,3,2.7l1.4,0.9l-0.6,1.1
			c-4.1-2.5-6.7-4.3-6.7-6.3c0-1.5,1.5-2.1,2.9-2.1c1.6,0,4.6,1.2,6.1,1.7l4.5,1.8l0.1-0.1l-7.8-4.4c-1.9-1.2-5.8-3.7-5.8-6.2
			c0-1.7,1.3-2.5,2.9-2.5c1.7,0,4.5,1.1,6.1,1.7l4.5,1.8l0.1-0.1l-0.7-0.3c-3.1-1.7-12.9-6.6-12.9-10.5c0-1.7,1.2-2.3,2.8-2.3
			c2,0,4.3,1,6.2,1.6l6.1,2.2c0.5,0.2,1.2,0.4,1.7,0.4c0.3,0,0.5-0.2,0.5-0.5c0-0.7-1.3-1.9-4.3-3.7l0.6-1.1c2,1.3,6.1,3.5,6.1,6.1
			c0,1.5-1.1,2.4-2.5,2.4c-1.1,0-2.5-0.5-3.5-0.9l-7.8-2.8c-0.5-0.2-1.4-0.6-1.9-0.6c-0.5,0-1,0.3-1,0.8c0,0.6,0.8,2.3,9,7l7.4,4.2
			v2.8l-13.4-4.7c-0.5-0.2-1.5-0.5-2.1-0.5c-0.5,0-0.8,0.3-0.8,0.8c0,1.1,0,1.5,8.1,6.3l8.2,4.8v2.9L580.3,1025.3z"/>
		<path class="st1" d="M588,978.8c2,1.3,6.2,3.4,6.2,6.2c0,1.4-1.2,2.3-2.5,2.3c-1,0-2.6-0.5-3.6-0.9l-7.9-2.7
			c-0.4-0.2-1.4-0.5-1.8-0.5c-0.3,0-1,0.2-1,0.5c0,0.8,3.3,2.7,4,3.2l-0.7,1.1c-2-1.2-6.2-3.7-6.2-6.3c0-1.3,1.1-1.9,2.3-1.9
			c1.4,0,3,0.5,4.3,1l8.7,2.9c0.3,0.1,1.1,0.4,1.5,0.4c0.3,0,0.5-0.2,0.5-0.5c0-1.2-3.5-3.1-4.4-3.7L588,978.8z M565.1,979.5
			c0-1.3,1-2.3,2.3-2.3c1.3,0,2.3,1,2.3,2.3c0,1.3-1,2.3-2.3,2.3C566.2,981.8,565.1,980.8,565.1,979.5z"/>
		<path class="st1" d="M590.3,978c-1,0-2-0.8-2-1.8c0-2.8,4.1-1.3,4.1-4.6c0-1.7-1.2-2.8-2.8-2.8c-3.8,0-4.8,6.5-9.8,6.5
			c-2.9,0-5.4-2.7-5.4-6.2c0-2,1.3-4.9,3.7-4.9c1,0,1.7,0.7,1.7,1.8c0,1.9-3.7,1.8-3.7,4.2c0,1.3,1.5,2.1,2.7,2.1
			c3.5,0,4.6-6.5,9.7-6.5c2.8,0,5.6,2.5,5.6,6.5C594.1,975.1,592.4,978,590.3,978z"/>
		<path class="st1" d="M580.9,952c-2-1.1-6.4-4-6.4-6.4c0-1.4,1.2-1.9,2.4-1.9c1.1,0,3.3,0.7,4.4,1.1l6.4,2c0.7,0.2,2,0.7,2.8,0.7
			c0.8,0,1.7-0.5,1.7-1.3c0-2.8-6.3-7.6-11.1-7.6c-1.9,0-3,1.5-4.4,1.5c-1.2,0-2.2-0.7-2.2-1.8c0-1.7,2.5-2.1,3.8-2.1
			c5.4,0,15.9,4.7,15.9,11c0,1.7-1.1,3.5-3.4,3.5c-1.4,0-3.7-0.8-5-1.2l-5.9-1.9c-0.3-0.1-1.1-0.4-1.5-0.4c-0.3,0-0.6,0.2-0.6,0.5
			c0,0.9,3.1,3,3.9,3.4L580.9,952z"/>
		<path class="st1" d="M586.8,919.3c0.8,0.3,3.1,1.1,3.9,1.1c0.3,0,1.1-0.2,1.1-0.5c0-1-3.7-3.1-4.6-3.7l0.7-1.1
			c2,1.2,6.3,3.9,6.3,6.4c0,1.4-1.2,2.1-2.3,2.1c-1.8,0-4.8-1.2-6.5-1.8l-3.8-1.6l-0.1,0.1l8.9,5.4c1.4,1,3.8,2.8,3.8,4.7
			c0,1.8-1.5,2.5-3.1,2.5c-1.3,0-3.6-0.9-4.9-1.4l-6.7-2.4c-0.4-0.2-1.3-0.5-1.8-0.5c-0.3,0-0.3,0.2-0.3,0.5c0,1,3.2,3.1,4,3.7
			l-0.8,1.1c-1.8-1.3-6.1-3.7-6.1-6.2c0-1.4,1.3-2.3,2.7-2.3c1.2,0,3.5,0.9,4.7,1.3l6.2,2.3c0.7,0.2,2,0.8,2.7,0.8
			c0.4,0,1-0.3,1-0.7c0-0.9-1.8-1.9-2.5-2.4l-14.4-8.7v-2.8L586.8,919.3z"/>
		<path class="st1" d="M589.5,909c0.4,0.1,1.2,0.3,1.6,0.3c0.3,0,0.7-0.1,0.7-0.5c0-1-3.8-2.9-4.7-3.4l0.5-1.1
			c2.1,1.1,6.6,3,6.6,5.8c0,1.6-1.3,2.3-2.8,2.3c-1,0-2.4-0.4-3.4-0.6l-17.6-4.7c-0.5-0.1-1.3-0.3-1.7-0.3c-1.2,0-1,1.1-1,2.6
			l-1.3-0.3l-1.1-6.6L589.5,909z"/>
		<path class="st1" d="M583.3,897.9c-1-0.3-3.9-1.4-4.8-1.4c-0.4,0-1.1,0.1-1.1,0.5c0,0.7,1.6,1.7,4.5,3.7l-0.6,1.1
			c-1.9-1.2-6.8-3.9-6.8-6.4c0-1.5,1.5-2.1,2.8-2.1c2.8,0,6.4,1.7,9.1,2.8l1.1,0.5l0.1-0.1l-10.1-6.2c-1.2-0.9-2.9-2.2-2.9-3.8
			c0-1.7,1.7-2.3,3.1-2.3c1.7,0,4,0.9,5.7,1.5l6.3,2.1c0.3,0.1,1.3,0.5,1.7,0.5c0.3,0,0.5-0.2,0.5-0.5c0-1.2-3.3-3.1-4.2-3.7l0.6-1
			c3.5,2.2,6,3.8,6,6.2c0,1.3-1.1,2.2-2.3,2.2c-1,0-2.5-0.5-3.6-0.8l-7.1-2.5c-0.6-0.2-2.1-0.7-2.7-0.7c-0.4,0-1,0.2-1,0.7
			c0,0.8,1.4,1.6,2,2l14.3,8.7v2.8L583.3,897.9z"/>
		<path class="st1" d="M588.5,867c2.7,1.6,5.7,4.5,5.7,7.9c0,3.4-2.9,5.2-6.1,5.2c-5.1,0-13.5-5-13.5-10.6c0-2,1.2-3.7,3.4-3.7
			c4.8,0,8.2,6.7,9.5,10.6c0.6,0.1,1.2,0.1,1.7,0.1c2.9,0,3.4-1,3.4-2.3c0-2.4-2.7-5-4.6-6.2L588.5,867z M577.8,868.4
			c-0.8,0-1.6,0.4-1.6,1.3c0,1.9,3.7,5.4,9.7,6.5C584.9,873.1,581.3,868.4,577.8,868.4z"/>
		<path class="st1" d="M593.7,860.8v2.8l-13.2-4.5c-0.7-0.2-1.5-0.5-2.2-0.5c-0.3,0-1,0.2-1,0.5c0,1.2,3.6,3,4.5,3.7l-0.7,1
			c-1.8-1.2-6.8-3.8-6.8-6.3c0-1.4,1.1-2.1,2.4-2.1c1.5,0,4.2,0.9,5.6,1.5l3.3,1.2l0.1-0.1c-2.4-1.4-11.4-5.3-11.4-8.5
			c0-1,0.8-1.8,1.8-1.8c1.6,0,2.3,1.4,2.5,2.8c0.2,1.3,0.5,1.8,1.5,2.7c2,1.7,6.5,4,9,5.3L593.7,860.8z"/>
		<path class="st1" d="M574.9,833.9v-3.4l8.1,2.9c1.2,0.4,6.6,2.3,7.6,2.3c0.3,0,0.6-0.2,0.6-0.5c0-0.7-1.3-2.1-4.3-3.8l0.6-1
			c4.2,2.5,6.6,4.2,6.6,6.3c0,1.3-1,2.2-2.3,2.2c-1,0-1.8-0.2-2.6-0.5l-0.1,0.1c2.6,1.1,5,3.1,5,6.2c0,3-2.6,4.4-5.3,4.4
			c-5.5,0-14.3-5.2-14.3-11.3c0-1.7,0.6-2.7,2.2-3.4L574.9,833.9z M578.3,835.5c-1.2,0-2.1,0.6-2.1,1.8c0,2.8,2.9,4.7,5.1,5.8
			c2.2,1.1,6.1,2.5,8.5,2.5c1.2,0,2.3-0.6,2.3-1.9C592.2,839.9,581.6,835.5,578.3,835.5z"/>
		<path class="st1" d="M577.2,821.7L577.2,821.7c-1.3-1.2-2.7-2.6-2.7-4.5c0-3.2,3.5-4.3,6.2-4.3c5,0,13.5,4.6,13.5,10.3
			c0,2.7-2,4.4-4.7,4.4c-1.6,0-3.2-0.4-4.7-0.8l-13.7-3.7c-0.5-0.2-2-0.5-2.5-0.5c-0.9,0-1,0.5-0.9,2.6l-1.3-0.3l-1.1-6.4
			L577.2,821.7z M580,816.5c-1.1,0-3.5,0.3-3.5,1.8c0,2.3,3.7,3.8,5.5,4.5c1.5,0.6,6.6,2,8.1,2c1.2,0,2.5-0.5,2.5-2
			C592.5,818.5,583.3,816.5,580,816.5z"/>
		<path class="st1" d="M589.5,807c0.4,0.1,1.2,0.3,1.6,0.3c0.3,0,0.7-0.1,0.7-0.5c0-1-3.8-2.9-4.7-3.4l0.5-1.1
			c2.1,1.1,6.6,3,6.6,5.8c0,1.6-1.3,2.3-2.8,2.3c-1,0-2.4-0.4-3.4-0.6l-17.6-4.7c-0.5-0.1-1.3-0.3-1.7-0.3c-1.2,0-1,1.1-1,2.6
			l-1.3-0.3l-1.1-6.6L589.5,807z"/>
		<path class="st1" d="M588.5,786.6c2.7,1.6,5.7,4.5,5.7,7.9c0,3.4-2.9,5.2-6.1,5.2c-5.1,0-13.5-5-13.5-10.6c0-2,1.2-3.7,3.4-3.7
			c4.8,0,8.2,6.7,9.5,10.6c0.6,0.1,1.2,0.1,1.7,0.1c2.9,0,3.4-1,3.4-2.3c0-2.4-2.7-5-4.6-6.2L588.5,786.6z M577.8,787.9
			c-0.8,0-1.6,0.4-1.6,1.3c0,1.9,3.7,5.4,9.7,6.5C584.9,792.7,581.3,787.9,577.8,787.9z"/>
		<path class="st1" d="M568.4,763.7l6.5,1.8v-3.7l2.1,0.6v3.7l12.5,3.3c0.4,0.1,1.2,0.3,1.7,0.3c0.2,0,0.6-0.2,0.6-0.5
			c0-1.2-3.1-3-4.1-3.5l0.8-1.2c2,1.2,5.6,3.4,5.6,6c0,1.5-1,2.3-2.5,2.3c-1.3,0-3.1-0.5-4.4-0.8l-10.2-2.7v3.3l-2.1-0.6v-3.3
			l-6.5-2.1V763.7z"/>
		<path class="st1" d="M580.6,746.1c6.5,0,13.5,5.5,13.5,10.3c0,3.4-2.7,5.5-6,5.5c-5.1,0-13.7-4.7-13.7-10.5
			C574.5,748.9,576.7,746.1,580.6,746.1z M590,758.8c1.6,0,2.9-0.7,2.9-2.4c0-4-10.7-7-14-7c-1.5,0-3.2,0.5-3.2,2.3
			C575.8,755.7,586.8,758.8,590,758.8z"/>
		<path class="st1" d="M577.2,727.1L577.2,727.1c-1.3-1.2-2.7-2.6-2.7-4.5c0-3.2,3.5-4.3,6.2-4.3c5,0,13.5,4.6,13.5,10.3
			c0,2.7-2,4.4-4.7,4.4c-1.6,0-3.2-0.4-4.7-0.8l-13.7-3.7c-0.5-0.2-2-0.5-2.5-0.5c-0.9,0-1,0.5-0.9,2.6l-1.3-0.3l-1.1-6.4
			L577.2,727.1z M580,721.8c-1.1,0-3.5,0.3-3.5,1.8c0,2.3,3.7,3.8,5.5,4.5c1.5,0.6,6.6,2,8.1,2c1.2,0,2.5-0.5,2.5-2
			C592.5,723.8,583.3,721.8,580,721.8z"/>
		<path class="st1" d="M593.7,712.6v2.8l-13.2-4.5c-0.7-0.2-1.5-0.5-2.2-0.5c-0.3,0-1,0.2-1,0.5c0,1.2,3.6,3,4.5,3.7l-0.7,1
			c-1.8-1.2-6.8-3.8-6.8-6.3c0-1.4,1.1-2.1,2.4-2.1c1.5,0,4.2,0.9,5.6,1.5l3.3,1.2l0.1-0.1c-2.4-1.4-11.4-5.3-11.4-8.5
			c0-1,0.8-1.8,1.8-1.8c1.6,0,2.3,1.4,2.5,2.8c0.2,1.3,0.5,1.8,1.5,2.7c2,1.7,6.5,4,9,5.3L593.7,712.6z"/>
		<path class="st1" d="M588.5,687.1c2.7,1.6,5.7,4.5,5.7,7.9c0,3.4-2.9,5.2-6.1,5.2c-5.1,0-13.5-5-13.5-10.6c0-2,1.2-3.7,3.4-3.7
			c4.8,0,8.2,6.7,9.5,10.6c0.6,0.1,1.2,0.1,1.7,0.1c2.9,0,3.4-1,3.4-2.3c0-2.4-2.7-5-4.6-6.2L588.5,687.1z M577.8,688.5
			c-0.8,0-1.6,0.4-1.6,1.3c0,1.9,3.7,5.4,9.7,6.5C584.9,693.3,581.3,688.5,577.8,688.5z"/>
		<path class="st1" d="M574.9,669.3v-3.4l8.1,2.9c1.2,0.4,6.6,2.3,7.6,2.3c0.3,0,0.6-0.2,0.6-0.5c0-0.7-1.3-2.1-4.3-3.8l0.6-1
			c4.2,2.5,6.6,4.2,6.6,6.3c0,1.3-1,2.2-2.3,2.2c-1,0-1.8-0.2-2.6-0.5l-0.1,0.1c2.6,1.1,5,3.1,5,6.2c0,3-2.6,4.4-5.3,4.4
			c-5.5,0-14.3-5.2-14.3-11.3c0-1.7,0.6-2.7,2.2-3.4L574.9,669.3z M578.3,670.9c-1.2,0-2.1,0.6-2.1,1.8c0,2.8,2.9,4.7,5.1,5.8
			c2.2,1.1,6.1,2.5,8.5,2.5c1.2,0,2.3-0.6,2.3-1.9C592.2,675.4,581.6,670.9,578.3,670.9z"/>
		<path class="st1" d="M570.4,658.1c-0.5-0.1-1.3-0.3-1.7-0.3c-1.2,0-1,1-1,2.7l-1.3-0.3l-1.1-6.7l14.3,3.8l0.1-0.1
			c-2.3-1.3-5.2-3.4-5.2-6.3c0-2,1.6-3.5,3.7-3.5c3,0,5.4,3.3,6.4,5.8l4-0.7c0.5-0.1,2.7-0.3,2.7-1.2c0-1-2.8-2.4-3.7-2.7l0.5-1.2
			c2,1,6,2.8,6,5.4c0,1-0.1,2-8.5,3.3l0.7,2.8l7.4,2v3.3L570.4,658.1z M578.8,650.5c-1,0-2,0.7-2,1.7c0,1.5,1.4,4.2,8.1,6.6
			C584.4,656,582.1,650.5,578.8,650.5z"/>
		<path class="st1" d="M570.4,630.1c-0.5-0.1-1.3-0.3-1.7-0.3c-1.2,0-1,1.1-1,2.6l-1.3-0.3l-1.1-6.6l23.8,6.5
			c0.4,0.1,1.2,0.3,1.6,0.3c0.4,0,1-0.2,1-0.6c0-1.2-3.6-2.7-4.6-3.2l0.5-1.1c2.2,1,6.5,3.1,6.5,6c0,1.2-1.1,2.3-2.3,2.3
			c-0.8,0-1.5-0.2-2.2-0.4l-0.1,0.1c2.2,1.3,4.5,3.4,4.5,6.2c0,2.7-2.9,3.8-5.2,3.8c-6,0-14.5-5.9-14.5-10.7c0-1.2,0.4-2,1-3
			L570.4,630.1z M581.6,639.5c2,1,5.8,2.2,8,2.2c0.9,0,2.6-0.2,2.6-1.5c0-3.8-10-7.7-13.2-7.7c-1.3,0-2.7,0.5-2.7,2
			C576.2,636.8,579.9,638.7,581.6,639.5z"/>
		<path class="st1" d="M580.6,609.8c6.5,0,13.5,5.5,13.5,10.3c0,3.4-2.7,5.5-6,5.5c-5.1,0-13.7-4.7-13.7-10.5
			C574.5,612.6,576.7,609.8,580.6,609.8z M590,622.5c1.6,0,2.9-0.7,2.9-2.4c0-4-10.7-7-14-7c-1.5,0-3.2,0.5-3.2,2.3
			C575.8,619.5,586.8,622.5,590,622.5z"/>
		<path class="st1" d="M578.7,590.5c2.9,0.7,7.3,1.8,10.3,1.8c0.8,0,2.8-0.1,2.8-1.3c0-2-7-5.8-10.8-5.8c-1.9,0-2.6,1.4-4.3,1.4
			c-1.1,0-2.2-0.7-2.2-1.8c0-1.6,2-2.2,3.2-2.2c4.3,0,16.5,4.3,16.5,9.5c0,2.5-2.8,3.3-4.8,3.3c-1.3,0-4.1-0.6-7.1-1.5l-0.1,0.1
			c3.6,1.2,12,4.4,12,8.9c0,1.8-1.7,2.9-3.3,2.9c-1.4,0-2.7-0.4-4-0.8l-6.7-2.2c-0.3-0.1-1.5-0.5-1.8-0.5c-0.3,0-0.7,0.1-0.7,0.4
			c0,1,3.1,2.9,3.9,3.5l-0.7,1c-1.7-1-6.4-4.2-6.4-6.3c0-1.5,1.1-2.1,2.5-2.1c1.3,0,3.2,0.7,4.3,1.1l6.7,2.2
			c0.7,0.2,1.5,0.5,2.1,0.5c0.6,0,1.2-0.3,1.2-1c0-3.6-13.2-8.1-16.3-9.1v-3L578.7,590.5z"/>
		<path class="st1" d="M583.3,576.8c-1-0.3-3.9-1.4-4.8-1.4c-0.4,0-1.1,0.1-1.1,0.5c0,0.7,1.6,1.7,4.5,3.7l-0.6,1.1
			c-1.9-1.2-6.8-3.9-6.8-6.4c0-1.5,1.5-2.1,2.8-2.1c2.8,0,6.4,1.7,9.1,2.8l1.1,0.5l0.1-0.1l-10.1-6.2c-1.2-0.9-2.9-2.2-2.9-3.8
			c0-1.7,1.7-2.3,3.1-2.3c1.7,0,4,0.9,5.7,1.5l6.3,2.1c0.3,0.1,1.3,0.5,1.7,0.5c0.3,0,0.5-0.2,0.5-0.5c0-1.2-3.3-3.1-4.2-3.7l0.6-1
			c3.5,2.2,6,3.8,6,6.2c0,1.3-1.1,2.2-2.3,2.2c-1,0-2.5-0.5-3.6-0.8l-7.1-2.5c-0.6-0.2-2.1-0.7-2.7-0.7c-0.4,0-1,0.2-1,0.7
			c0,0.8,1.4,1.6,2,2l14.3,8.7v2.8L583.3,576.8z"/>
		<path class="st1" d="M574.9,534v-3.4l8.1,2.9c1.2,0.4,6.6,2.3,7.6,2.3c0.3,0,0.6-0.2,0.6-0.5c0-0.7-1.3-2.1-4.3-3.8l0.6-1
			c4.2,2.5,6.6,4.2,6.6,6.3c0,1.3-1,2.2-2.3,2.2c-1,0-1.8-0.2-2.6-0.5l-0.1,0.1c2.6,1.1,5,3.1,5,6.2c0,3-2.6,4.4-5.3,4.4
			c-5.5,0-14.3-5.2-14.3-11.3c0-1.7,0.6-2.7,2.2-3.4L574.9,534z M578.3,535.6c-1.2,0-2.1,0.6-2.1,1.8c0,2.8,2.9,4.7,5.1,5.8
			c2.2,1.1,6.1,2.5,8.5,2.5c1.2,0,2.3-0.6,2.3-1.9C592.2,540.1,581.6,535.6,578.3,535.6z"/>
		<path class="st1" d="M583.3,524.1c-1-0.3-3.9-1.4-4.8-1.4c-0.4,0-1.1,0.1-1.1,0.5c0,0.7,1.6,1.7,4.5,3.7l-0.6,1.1
			c-1.9-1.2-6.8-3.9-6.8-6.4c0-1.5,1.5-2.1,2.8-2.1c2.8,0,6.4,1.7,9.1,2.8l1.1,0.5l0.1-0.1l-10.1-6.2c-1.2-0.9-2.9-2.2-2.9-3.8
			c0-1.7,1.7-2.3,3.1-2.3c1.7,0,4,0.9,5.7,1.5l6.3,2.1c0.3,0.1,1.3,0.5,1.7,0.5c0.3,0,0.5-0.2,0.5-0.5c0-1.2-3.3-3.1-4.2-3.7l0.6-1
			c3.5,2.2,6,3.8,6,6.2c0,1.3-1.1,2.2-2.3,2.2c-1,0-2.5-0.5-3.6-0.8l-7.1-2.5c-0.6-0.2-2.1-0.7-2.7-0.7c-0.4,0-1,0.2-1,0.7
			c0,0.8,1.4,1.6,2,2l14.3,8.7v2.8L583.3,524.1z"/>
		<path class="st1" d="M570.4,491.7c-0.5-0.1-1.3-0.3-1.7-0.3c-1.2,0-1,1.1-1,2.6l-1.3-0.3l-1.1-6.6l23.8,6.5
			c0.4,0.1,1.2,0.3,1.6,0.3c0.4,0,1-0.2,1-0.6c0-1.2-3.6-2.7-4.6-3.2l0.5-1.1c2.2,1,6.5,3.1,6.5,6c0,1.2-1.1,2.3-2.3,2.3
			c-0.8,0-1.5-0.2-2.2-0.4l-0.1,0.1c2.2,1.3,4.5,3.4,4.5,6.2c0,2.7-2.9,3.8-5.2,3.8c-6,0-14.5-5.9-14.5-10.7c0-1.2,0.4-2,1-3
			L570.4,491.7z M581.6,501.1c2,1,5.8,2.2,8,2.2c0.9,0,2.6-0.2,2.6-1.5c0-3.8-10-7.7-13.2-7.7c-1.3,0-2.7,0.5-2.7,2
			C576.2,498.4,579.9,500.3,581.6,501.1z"/>
		<path class="st1" d="M580.6,461c6.5,0,13.5,5.5,13.5,10.3c0,3.4-2.7,5.5-6,5.5c-5.1,0-13.7-4.7-13.7-10.5
			C574.5,463.8,576.7,461,580.6,461z M590,473.7c1.6,0,2.9-0.7,2.9-2.4c0-4-10.7-7-14-7c-1.5,0-3.2,0.5-3.2,2.3
			C575.8,470.6,586.8,473.7,590,473.7z"/>
		<path class="st1" d="M577.2,452.4L577.2,452.4c-1.3-1.2-2.7-2.6-2.7-4.5c0-3.2,3.5-4.3,6.2-4.3c5,0,13.5,4.6,13.5,10.3
			c0,2.7-2,4.4-4.7,4.4c-1.6,0-3.2-0.4-4.7-0.8l-13.7-3.7c-0.5-0.2-2-0.5-2.5-0.5c-0.9,0-1,0.5-0.9,2.6l-1.3-0.3l-1.1-6.4
			L577.2,452.4z M580,447.1c-1.1,0-3.5,0.3-3.5,1.8c0,2.3,3.7,3.8,5.5,4.5c1.5,0.6,6.6,2,8.1,2c1.2,0,2.5-0.5,2.5-2
			C592.5,449.1,583.3,447.1,580,447.1z"/>
		<path class="st1" d="M590.3,442.8c-1,0-2-0.8-2-1.8c0-2.8,4.1-1.3,4.1-4.6c0-1.7-1.2-2.8-2.8-2.8c-3.8,0-4.8,6.5-9.8,6.5
			c-2.9,0-5.4-2.7-5.4-6.2c0-2,1.3-4.9,3.7-4.9c1,0,1.7,0.7,1.7,1.8c0,1.9-3.7,1.8-3.7,4.2c0,1.3,1.5,2.1,2.7,2.1
			c3.5,0,4.6-6.5,9.7-6.5c2.8,0,5.6,2.5,5.6,6.5C594.1,440,592.4,442.8,590.3,442.8z"/>
		<path class="st1" d="M580.6,411.7c6.5,0,13.5,5.5,13.5,10.3c0,3.4-2.7,5.5-6,5.5c-5.1,0-13.7-4.7-13.7-10.5
			C574.5,414.5,576.7,411.7,580.6,411.7z M590,424.4c1.6,0,2.9-0.7,2.9-2.4c0-4-10.7-7-14-7c-1.5,0-3.2,0.5-3.2,2.3
			C575.8,421.3,586.8,424.4,590,424.4z"/>
		<path class="st1" d="M589.5,405.9c0.4,0.1,1.2,0.3,1.6,0.3c0.3,0,0.7-0.1,0.7-0.5c0-1-3.8-2.9-4.7-3.4l0.5-1.1
			c2.1,1.1,6.6,3,6.6,5.8c0,1.6-1.3,2.3-2.8,2.3c-1,0-2.4-0.4-3.4-0.6l-17.6-4.7c-0.5-0.1-1.3-0.3-1.7-0.3c-1.2,0-1,1.1-1,2.6
			l-1.3-0.3l-1.1-6.6L589.5,405.9z"/>
		<path class="st1" d="M588.5,385.4c2.7,1.6,5.7,4.5,5.7,7.9c0,3.4-2.9,5.2-6.1,5.2c-5.1,0-13.5-5-13.5-10.6c0-2,1.2-3.7,3.4-3.7
			c4.8,0,8.2,6.7,9.5,10.6c0.6,0.1,1.2,0.1,1.7,0.1c2.9,0,3.4-1,3.4-2.3c0-2.4-2.7-5-4.6-6.2L588.5,385.4z M577.8,386.8
			c-0.8,0-1.6,0.4-1.6,1.3c0,1.9,3.7,5.4,9.7,6.5C584.9,391.5,581.3,386.8,577.8,386.8z"/>
		<path class="st1" d="M590.3,384.2c-1,0-2-0.8-2-1.8c0-2.8,4.1-1.3,4.1-4.6c0-1.7-1.2-2.8-2.8-2.8c-3.8,0-4.8,6.5-9.8,6.5
			c-2.9,0-5.4-2.7-5.4-6.2c0-2,1.3-4.9,3.7-4.9c1,0,1.7,0.7,1.7,1.8c0,1.9-3.7,1.8-3.7,4.2c0,1.3,1.5,2.1,2.7,2.1
			c3.5,0,4.6-6.5,9.7-6.5c2.8,0,5.6,2.5,5.6,6.5C594.1,381.4,592.4,384.2,590.3,384.2z"/>
		<path class="st1" d="M589.2,356.1c2.1,1.6,4.9,4.7,4.9,7.4c0,3.3-3,5.3-6,5.3c-5.8,0-13.6-5.8-13.6-10.7c0-2.1,1.6-3.7,3.7-3.7
			c1.2,0,2.4,0.7,2.4,2c0,1-1.1,1.6-2,1.6c-0.4,0-0.8-0.1-1.3-0.1c-0.6,0-1.1,0.4-1.1,1c0,2,7.3,6.4,13.2,6.4c1.4,0,3-0.4,3-2.1
			c0-2.3-2.4-4.7-4-6.1L589.2,356.1z"/>
		<path class="st1" d="M588.5,339.6c2.7,1.6,5.7,4.5,5.7,7.9c0,3.4-2.9,5.2-6.1,5.2c-5.1,0-13.5-5-13.5-10.6c0-2,1.2-3.7,3.4-3.7
			c4.8,0,8.2,6.7,9.5,10.6c0.6,0.1,1.2,0.1,1.7,0.1c2.9,0,3.4-1,3.4-2.3c0-2.4-2.7-5-4.6-6.2L588.5,339.6z M577.8,341
			c-0.8,0-1.6,0.4-1.6,1.3c0,1.9,3.7,5.4,9.7,6.5C584.9,345.7,581.3,341,577.8,341z"/>
		<path class="st1" d="M583.3,332.6c-1-0.3-3.9-1.4-4.8-1.4c-0.4,0-1.1,0.1-1.1,0.5c0,0.7,1.6,1.7,4.5,3.7l-0.6,1.1
			c-1.9-1.2-6.8-3.9-6.8-6.4c0-1.5,1.5-2.1,2.8-2.1c2.8,0,6.4,1.7,9.1,2.8l1.1,0.5l0.1-0.1l-10.1-6.2c-1.2-0.9-2.9-2.2-2.9-3.8
			c0-1.7,1.7-2.3,3.1-2.3c1.7,0,4,0.9,5.7,1.5l6.3,2.1c0.3,0.1,1.3,0.5,1.7,0.5c0.3,0,0.5-0.2,0.5-0.5c0-1.2-3.3-3.1-4.2-3.7l0.6-1
			c3.5,2.2,6,3.8,6,6.2c0,1.3-1.1,2.2-2.3,2.2c-1,0-2.5-0.5-3.6-0.8l-7.1-2.5c-0.6-0.2-2.1-0.7-2.7-0.7c-0.4,0-1,0.2-1,0.7
			c0,0.8,1.4,1.6,2,2l14.3,8.7v2.8L583.3,332.6z"/>
		<path class="st1" d="M589.2,302.3c2.1,1.6,4.9,4.7,4.9,7.4c0,3.3-3,5.3-6,5.3c-5.8,0-13.6-5.8-13.6-10.7c0-2.1,1.6-3.7,3.7-3.7
			c1.2,0,2.4,0.7,2.4,2c0,1-1.1,1.6-2,1.6c-0.4,0-0.8-0.1-1.3-0.1c-0.6,0-1.1,0.4-1.1,1c0,2,7.3,6.4,13.2,6.4c1.4,0,3-0.4,3-2.1
			c0-2.3-2.4-4.7-4-6.1L589.2,302.3z"/>
		<path class="st1" d="M588.5,285.8c2.7,1.6,5.7,4.5,5.7,7.9c0,3.4-2.9,5.2-6.1,5.2c-5.1,0-13.5-5-13.5-10.6c0-2,1.2-3.7,3.4-3.7
			c4.8,0,8.2,6.7,9.5,10.6c0.6,0.1,1.2,0.1,1.7,0.1c2.9,0,3.4-1,3.4-2.3c0-2.4-2.7-5-4.6-6.2L588.5,285.8z M577.8,287.2
			c-0.8,0-1.6,0.4-1.6,1.3c0,1.9,3.7,5.4,9.7,6.5C584.9,291.9,581.3,287.2,577.8,287.2z"/>
		<path class="st1" d="M589.5,280.8c0-1.3,1-2.3,2.3-2.3c1.3,0,2.3,1,2.3,2.3c0,1.3-1,2.3-2.3,2.3
			C590.5,283.1,589.5,282.1,589.5,280.8z"/>
		<path class="st1" d="M574.6,274.6c-0.6-1.2-2.9-3.8-4.2-3.8c-1.2,0-1.2,1.5-3,1.5c-1.3,0-2.2-1.1-2.2-2.3c0-1.5,1.3-2.3,2.6-2.3
			c3.5,0,6.2,3.5,7.7,6.4L574.6,274.6z"/>
		<path class="st1" d="M574.6,266.6c-0.6-1.2-2.9-3.8-4.2-3.8c-1.2,0-1.2,1.5-3,1.5c-1.3,0-2.2-1.1-2.2-2.3c0-1.5,1.3-2.3,2.6-2.3
			c3.5,0,6.2,3.5,7.7,6.4L574.6,266.6z"/>
		<path class="st1" d="M717.6,1035.1V1006h2.9v29.1H717.6z"/>
		<path class="st1" d="M704.8,991.9v-7.4c0-6,1.7-9.2,6.1-9.2c3.3,0,5,1.8,5.6,3.6c0.7-2.4,2.3-4.7,6-4.7c5.8,0,7.1,5.1,7.1,9.8v7.9
			H704.8z M715.3,988.3v-4c0-3.3-1-5.1-3.8-5.1c-3.3,0-3.7,2.5-3.7,6.2v2.8H715.3z M726.4,988.3v-5.1c0-2.8-1-5.1-4.1-5.1
			c-3,0-4,2.3-4,5.8v4.4H726.4z"/>
		<path class="st1" d="M711.3,967h2.3c-1.7-0.6-2.8-2.3-2.8-4.4c0-0.5,0-0.7,0.1-0.9h3.2c-0.1,0.3-0.1,0.8-0.1,1.2
			c0,3.3,2.4,3.9,6.1,3.9h9.4v3.5H713c-0.5,0-1.1,0-1.6,0V967z"/>
		<path class="st1" d="M726.9,946.7c1.6,0.9,3,2.7,3,5.8c0,4.3-2.6,6.3-7.3,6.3h-11.3v-3.5h10c3.6,0,5.7-1.1,5.7-4
			c0-3.7-3.4-4.4-7.4-4.4h-8.3v-3.5h16.8c0.4,0,0.9,0,1.3,0v3.4H726.9z"/>
		<path class="st1" d="M723.7,921.8c3.6,0.9,6.3,3.8,6.3,8.4c0,5.7-4.1,9.2-9.6,9.2c-5.4,0-9.5-3.6-9.5-9.3c0-4.7,2.6-7.5,6.5-8.4
			v3.6c-2.2,0.8-3.6,2.5-3.6,4.9c0,3.4,2.8,5.4,6.6,5.4c4,0,6.6-2,6.6-5.4c0-2.4-1.2-4-3.4-4.8V921.8z"/>
		<path class="st1" d="M721.3,915.7c3.2-0.1,5.7-2.2,5.7-5.7c0-2.5-1.2-3.7-2.7-4.6v-3.5c3.3,1,5.6,3.9,5.6,8.3
			c0,5.6-3.8,9.1-9.4,9.1c-5.7,0-9.7-3.7-9.7-9.1c0-5.9,4.5-8.6,9.4-8.6h1.1V915.7z M718.6,905.1c-2.9,0.3-4.9,2.1-4.9,5.1
			c0,2.9,1.9,5,4.9,5.4V905.1z"/>
		<path class="st1" d="M722.5,886.6c2.6-0.5,4.6-2.1,4.6-5.7c0-3.3-1.7-5.2-4.2-5.2c-2.7,0-3.3,2.1-4.3,5l-0.5,1.6
			c-1.4,4.5-3.1,7.2-7.1,7.2c-4,0-6.8-3.5-6.8-8.6c0-5.3,2.7-8.2,6.9-8.6v3.7c-2.5,0.4-3.9,2-3.9,5c0,2.9,1.4,4.6,3.5,4.6
			c2.6,0,3.4-2.2,4.2-4.9l0.5-1.7c1.3-4.4,2.9-7.2,7-7.2c4.5,0,7.5,3.7,7.5,9.1c0,5.6-2.8,9.1-7.5,9.4V886.6z"/>
		<path class="st1" d="M711.3,863.5v-3.4h2.7v3.4h10.9c1.8,0,2.2-0.9,2.2-2.2c0-0.2,0-0.6-0.1-0.9h2.6c0.1,0.5,0.1,0.9,0.1,1.4
			c0,3.2-1.1,5.3-4.7,5.3H714v2.7h-2.7v-2.7h-4.9v-3.5H711.3z"/>
		<path class="st1" d="M721.3,854.6c3.2-0.1,5.7-2.2,5.7-5.7c0-2.5-1.2-3.7-2.7-4.6v-3.5c3.3,1,5.6,3.9,5.6,8.3
			c0,5.6-3.8,9.1-9.4,9.1c-5.7,0-9.7-3.7-9.7-9.1c0-5.9,4.5-8.6,9.4-8.6h1.1V854.6z M718.6,844c-2.9,0.3-4.9,2.1-4.9,5.1
			c0,2.9,1.9,5,4.9,5.4V844z"/>
		<path class="st1" d="M711.3,833.3h2.3c-1.7-0.6-2.8-2.3-2.8-4.4c0-0.5,0-0.7,0.1-0.9h3.2c-0.1,0.3-0.1,0.8-0.1,1.2
			c0,3.3,2.4,3.9,6.1,3.9h9.4v3.5H713c-0.5,0-1.1,0-1.6,0V833.3z"/>
		<path class="st1" d="M704.8,824.7v-3.5h24.7v3.5H704.8z"/>
		<path class="st1" d="M704.8,816.1v-3.6h3.9v3.6H704.8z M711.3,812.6h18.2v3.5h-18.2V812.6z"/>
		<path class="st1" d="M713.8,804.1c-1.6-0.9-3-2.7-3-5.8c0-4.2,2.8-6.4,7.5-6.4h11.2v3.5h-9.9c-3.6,0-5.8,1.2-5.8,4
			c0,2.9,2.4,4.5,5.2,4.5h10.5v3.5h-16.8c-0.4,0-0.9,0-1.4,0v-3.5H713.8z"/>
		<path class="st1" d="M726,770.3c6.6,0,10.1,3,10.1,9.1c0,4.6-2.4,7.3-6,8.2v-3.7c1.7-0.7,3.1-1.9,3.1-4.6c0-4.2-2.6-5.6-7.5-5.6
			l0,0.1c1.6,0.9,2.9,2.9,2.9,6.1c0,5.1-3.7,8.4-8.9,8.4c-5.4,0-9-3.5-9-8.4c0-3.2,1.3-5,2.8-6.1c-0.2,0-0.4,0-0.6,0h-1.7v-3.5H726z
			 M719.8,784.4c3.5,0,6.1-2,6.1-5.4c0-3-2.1-5.4-6.2-5.4c-3.6,0-5.9,2.1-5.9,5.4C713.7,782.4,716.1,784.4,719.8,784.4z"/>
		<path class="st1" d="M733,752.1c-2.3,2.9-6.7,5.4-13,5.4c-7.5,0-14.7-4.7-17.4-10.8l3.2,0.6c3.2,4.4,8.7,7.1,14.5,7.1
			c3.8,0,6.8-0.9,9.5-2.9L733,752.1z"/>
		<path class="st1" d="M729.5,734v14.8c-3.4-1.3-6.5-4.7-8.7-7.6l-2.1-2.7c-1.8-2.3-4.7-5.9-7.8-5.9c-2.1,0-3.6,1.5-3.6,3.6
			c0,1.8,1,3.3,3,3.4c2.4,0.1,3.3,0.8,3.3,2.2c0,1-1,1.6-1.9,1.6c-1.7,0-5.7-2.2-5.7-7.3c0-4.1,2.5-6.9,5.8-6.9
			c3.3,0,5.5,3.4,7.1,5.9l1.8,2.8c1.8,2.7,3.8,5.4,6.3,7.5v-5.5c0-3.6-0.1-5.1-3.6-6.9l0.5-1.1L729.5,734z"/>
		<path class="st1" d="M722.1,729.3c-5.5,0-16.2-5.5-16.2-11.8c0-4,4.4-5.7,7.8-5.7c5.8,0,16.1,5.8,16.1,11.8
			C729.9,727.5,725.5,729.3,722.1,729.3z M721.2,717.3c-2.6-1-7.3-2.5-10-2.5c-1.9,0-3.9,0.8-3.9,2.9c0,3.3,4.7,5.2,7.3,6.2
			c2.8,1.1,7.2,2.5,10.2,2.5c1.9,0,3.8-0.7,3.8-2.9C728.5,720.3,723.7,718.3,721.2,717.3z"/>
		<path class="st1" d="M722.1,711.4c-5.5,0-16.2-5.5-16.2-11.8c0-4,4.4-5.7,7.8-5.7c5.8,0,16.1,5.8,16.1,11.8
			C729.9,709.6,725.5,711.4,722.1,711.4z M721.2,699.4c-2.6-1-7.3-2.5-10-2.5c-1.9,0-3.9,0.8-3.9,2.9c0,3.3,4.7,5.2,7.3,6.2
			c2.8,1.1,7.2,2.5,10.2,2.5c1.9,0,3.8-0.7,3.8-2.9C728.5,702.3,723.7,700.4,721.2,699.4z"/>
		<path class="st1" d="M722.3,677.7l1.7,0.5v3.3l1.4,0.4c0.4,0.1,1.1,0.3,1.5,0.3c1.3,0,1.5-1.2,1.5-2.2l1.1,0.3v8.3l-1.1-0.3
			c0-2.2-1-2.8-2.9-3.3l-1.5-0.4v9.4l-1.7-0.4l-16-14.3v-2.4l16,4.2V677.7z M710.6,681L710.6,681l11.7,10.6v-7.4L710.6,681z"/>
		<path class="st1" d="M702.7,672.2c2.3-2.9,6.7-5.4,13-5.4c7.5,0,14.7,4.7,17.4,10.8l-3.2-0.6c-3.2-4.4-8.7-7.1-14.5-7.1
			c-3.8,0-6.8,0.9-9.5,2.9L702.7,672.2z"/>
	</g>
</g>
</svg>
