<?xml version="1.0" encoding="utf-8"?>
<!-- Generator: Adobe Illustrator 24.0.0, SVG Export Plug-In . SVG Version: 6.00 Build 0)  -->
<svg version="1.1" id="Layer_3" xmlns="http://www.w3.org/2000/svg" xmlns:xlink="http://www.w3.org/1999/xlink" x="0px" y="0px"
	 viewBox="0 0 1190.6 719.9" style="enable-background:new 0 0 1190.6 719.9;" xml:space="preserve">
<style type="text/css">
	.st0{fill:#FFFFFF;}
</style>
<g>
	<path class="st0" d="M595.8,268.6c124.7,0,249.3,0,374,0c12,0,23.9,0.5,35.5,4.4c34.8,11.7,58.1,43.5,58.5,80.1
		c0.1,10,0.6,20.1-0.9,29.9c-6.5,42.3-40.3,71.5-83.7,73c-3,0.1-6,0-9,0c-249.6,0-499.3,0.1-748.9-0.2c-11.2,0-22.8-0.9-33.5-4
		c-35.4-10.2-59.6-43-59.9-79.9c-0.1-11.9-0.2-24.2,2-35.8c7.3-37.9,40.5-65.8,79-67.4c5.3-0.2,10.7-0.3,16-0.3
		C348.5,268.6,472.2,268.6,595.8,268.6z M595.7,278.1c-124.3,0-248.7,0-373,0c-5,0-10,0-15,0.3c-32.9,2.2-60.7,24.6-67.9,56.8
		c-2.9,12.8-3,26.5-2.4,39.7c1.8,40.4,34.9,71.7,75.4,71.7c255.3,0.1,510.6,0.1,766,0c34.4,0,64.7-22.8,72.7-56.1
		c3-12.7,3-26.4,2.6-39.7c-0.8-27.4-14.1-48-37.3-62.3c-13.5-8.3-28.5-10.4-44.1-10.4C847.1,278.2,721.4,278.1,595.7,278.1z"/>
	<path class="st0" d="M992.4,424.2c-259.6,0-518,0-776.4-0.1c-0.5,0-1.1-1.4-2.2-2.9c2.1-0.8,3.8-2,5.4-2
		c257.2,0.2,514.3,0.5,771.5,0.8C991,420.1,991.3,421.7,992.4,424.2z"/>
	<path class="st0" d="M289,296.6c3.6,10.1,7,19.6,10.4,29.2c-0.5,0.6-1,1.1-1.5,1.7c-1.7-0.7-4-0.9-5.1-2.2
		c-4.1-4.3-7.5-9.4-11.9-13.4c-17.3-15.5-38.8-11.7-48.7,9.3c-10.8,23-13,46.7-1.1,70.2c4.9,9.7,12.3,16.5,23.3,18.7
		c15.5,3.2,26.4-5,27.6-20.6c0.2-2.6,0.2-5.3,0.1-8c-0.3-9.6-1.7-11.2-11.4-12.9c-2.7-0.5-5.5-0.3-4.9-5.4
		c6.9-1.4,14.1-0.4,21.2-0.6c7.3-0.2,14.6,0,24,0c-1.9,2.9-2.6,5.5-3.8,5.7c-8.6,1.4-10.2,7.6-10.3,14.7c-0.1,8.9,0,17.9,0,26.1
		c-10.9,2.1-20.6,3.8-30.2,5.9c-24.3,5.4-52.3-6.6-59.8-37.9c-5.4-22.6-1.5-43.7,12.8-62.3c11.1-14.4,26.1-20.3,44.1-17.2
		C272.2,299.2,280.2,300.3,289,296.6z"/>
	<path class="st0" d="M750.9,366c8.8,12.6,16.8,24.5,25.3,36c2.2,3,6.2,4.7,9.4,7c1.4,1,2.9,1.9,4.8,3.1c-6.7,3-23,3.6-37.6,1.8
		c0.8-3.9,0.8-3.9,7.9-8.1c-4.4-11.1-12.8-19.6-19.4-29.8c-4.8,3.5-10,5.9-10.4,11.9c-0.4,4.9,0.6,10,0.4,14.9
		c-0.2,7,9.3,4.1,10.5,11.5c-12.2,0.6-23.8,0.4-37.6,0.1c2.6-2.9,3.5-5,4.7-5.2c5.9-1.1,7.3-4.8,7.3-10.1c0-27,0.1-53.9,0-80.9
		c0-8.7-0.5-8.9-12.6-12.2c0.9-7.3,7.6-5.9,11.8-7.8c4.4-2,9.3-3.1,15.3-5c0,27.8,0,54.2,0,80.7c0.7,0.3,1.4,0.7,2.1,1
		c7.5-7.6,15.8-14.6,22.2-23.2c2.7-3.6,2.5-7.5-2.9-9.4c-1.2-0.4-2-2-4.5-4.7c13.9-1.1,25.8-0.7,38.8-0.5c-2.4,7.4-9,5.1-12.4,8.2
		c-3.6,3.4-7.7,6.3-11.4,9.7C758.8,358.3,755.2,361.8,750.9,366z"/>
	<path class="st0" d="M555.5,410.3c-3.5,4.8-8.2,5.3-41.8,4.3c-2.9-0.1-7.1,1.6-7.3-4c0.5-0.5,1-1.2,1.5-1.3
		c13.5-3.7,14.3-4.3,14.4-18.1c0.3-25.3,0.3-50.6,0.2-75.9c0-9.4-2.9-11.7-12.5-10.6c-12.1,1.4-20.4,8.9-27.5,18.2
		c-1.8,2.4-2.4,6.5-8.4,5.7c2.3-10.3,7.1-19.2,10.6-29.3c30.5,0,60.9,0,92,0c3.5,9.2,7,18.5,11.1,29.2c-2.8-0.5-4.9-0.2-5.7-1.1
		c-3.6-3.9-6.4-8.6-10.2-12.2c-6.6-6.4-14.5-10.6-24.1-10.6c-6.3,0-8.2,1.8-9.1,8.1c-0.2,1.6-0.2,3.3-0.2,5
		c0,22.6,0.1,45.3,0.1,67.9c0,1.3,0,2.7,0,4C539.3,405,540.1,406.1,555.5,410.3z"/>
	<path class="st0" d="M863.9,371.1c-18.3,0-35.2,0-51.9,0c-2.6,14,2.9,30.3,12.3,35c14.9,7.5,26-0.6,37.6-12.1
		c-0.5,3.6-0.2,5.5-1,6.7c-10.8,16.1-32.9,20.2-49.4,9.2c-24.2-16.1-22.9-55.7,2.3-70.2c11-6.3,22.3-6.5,33.2,0.1
		C858,346.5,863.1,356.9,863.9,371.1z M846.8,364c0.9-14.1-5.6-22.9-16.4-23c-10.8-0.1-18.3,9.4-17.9,23
		C823.9,364,835.4,364,846.8,364z"/>
	<path class="st0" d="M387,371c-17,0-34.2,0-52.2,0c0.4,14.3,1,28,13.8,35.1c14.4,8,25.9-0.6,37.6-12.4c-0.8,4-0.6,6-1.4,7.2
		c-10.4,15-29.8,19.8-46,11c-14.2-7.7-21-20.3-20.7-36.2c0.4-15.9,6.7-29.4,21.5-36.9C366,325.6,389.8,349.9,387,371z M370.9,364.2
		c0.8-14.4-5.7-23.2-16.5-23.2c-10.8,0-18.3,9.6-17.8,23.2C347.8,364.2,359,364.2,370.9,364.2z"/>
	<path class="st0" d="M932.4,413.2c-5.5-10.9-7.6-17.6-7.5-25.9c2.2,1.9,3.9,3.1,5.2,4.6c6.2,7.1,12.8,13.5,21.8,17
		c4.5,1.8,8.9,2.4,13.5,0.2c9.1-4.4,10.2-15.2,1.6-20.7c-3.9-2.4-8.5-3.8-12.8-5.5c-6.2-2.4-12.7-4.1-18.5-7.2
		c-15.2-8-15.6-27.2-1-36.3c6.2-3.8,12.8-5,20.1-3.6c5.4,1,10.9,1,17.3,1.5c4.4,7.4,7.2,15.8,7.3,24.6c-2.3-1.5-4.2-2.3-5.7-3.7
		c-4.6-4.3-8.8-9.1-13.7-13c-4.5-3.6-10.1-5.3-16-3.8c-4.4,1.1-7.9,3.7-8.7,8.6c-0.7,4.5,1.2,8,5,10c4.7,2.5,9.7,4.4,14.5,6.4
		c6.1,2.6,12.7,4.4,18.3,7.7c13.7,7.9,15,24.9,3,35.2c-7.6,6.5-16.2,8.4-26.1,5.7C945,413.6,939.4,413.8,932.4,413.2z"/>
	<path class="st0" d="M699.9,396.3c-8.3,12.3-19.2,20.7-35,19.9c-14.9-0.8-26.7-11.3-31.5-26.6c-7.6-24.4,7.2-49.6,31.7-53.9
		c8.5-1.5,16.6,0.1,24,4.3c2.8,1.6,5.4,4,7.2,6.7c2.9,4.2,1.9,9-1.6,11.6c-4,3-9.1,2.2-12.3-2.1c-1.4-1.8-2.3-4-3.3-6.1
		c-2.4-5-5.6-9.1-11.9-9.1c-6.8,0-11.4,3.5-14.2,9.3c-5.1,10.5-6.3,21.6-3.9,33c0.8,3.5,2,7.1,3.7,10.3c7.9,15,23.6,18.2,36.9,7.6
		c2.9-2.3,5.7-4.8,8.6-7.3C698.7,394.7,699.3,395.5,699.9,396.3z"/>
	<path class="st0" d="M895.2,337.4c8.6,0,15.2,0,21.4,0c1.2,4-0.3,5.3-3.2,5.3c-5.6,0.1-11.2,0-17.9,0c0,6.5,0,12.1,0,17.6
		c0,12-0.2,23.9,0.1,35.9c0.2,10.7,6.9,14.1,15.9,8.6c2.2-1.3,4.2-2.9,7.3-5.1c0.2,2.3,0.8,3.8,0.3,4.4c-5,6.7-11.7,10.8-20,12
		c-8.5,1.2-15.2-3.2-17-11.7c-1-4.5-1.2-9.2-1.3-13.9c-0.2-12.3,0-24.6-0.1-36.9c0-3.3-0.3-6.5-0.4-10.4c-3.6-0.4-6.7-0.8-11.8-1.4
		c5.7-6.1,10.4-11.1,15.2-16.1c4.5-4.7,2.7-13.3,11.5-18.4C895.2,318.4,895.2,327.1,895.2,337.4z"/>
	<path class="st0" d="M404.9,343.4c-4.1-0.5-7.3-0.8-10.8-1.2c-0.2-6.4,6.4-6.4,8.7-10c2.7-4.2,5.4-8.3,8.2-12.4
		c2.2-3.4,0.7-9.4,8.3-11.1c0,9.8,0,18.5,0,27.7c8.1,0.4,14.9,0.7,22,1.1c-1.2,3-4.3,3.8-21.7,6.4c0,6,0,12.2,0,18.4
		c0,11.3-0.2,22.6,0.1,33.9c0.3,10.6,7,14.1,16,8.5c2.2-1.3,4.2-2.9,7.7-5.3c-0.4,3-0.2,4.8-0.9,5.7c-4.6,5.5-10.3,9.3-17.5,10.8
		c-10,2-17.3-2.6-19.1-12.4c-0.8-4.2-0.9-8.6-1-12.9c-0.1-12.3-0.1-24.6-0.1-36.9C404.9,350.4,404.9,347.1,404.9,343.4z"/>
	<path class="st0" d="M614.2,334.2c0,19.3,0,36.9,0,54.5c0,3,0.1,6,0,9c-0.2,5.9,1,10.7,8,11.5c1.3,0.2,2.4,0.9,4.2,1.6
		c-7.2,4.3-24.2,5-37.2,2.4c1.2-1.7,1.9-3.9,3.1-4.1c5.7-1.2,7.5-4.8,7.5-10.1c-0.1-13.6-0.4-27.3,0.1-40.9
		c0.3-7.7-4.9-9.8-11.4-12.4C596.4,339.5,604.7,337.9,614.2,334.2z"/>
	<path class="st0" d="M604.8,318.4c-5.8,0-10.8-5.2-10.6-11c0.1-5.5,4.6-10.1,10.1-10.4c5.8-0.3,11,4.6,11.2,10.4
		C615.6,313.2,610.5,318.4,604.8,318.4z"/>
	<path class="st0" d="M846.8,364c-11.4,0-22.9,0-34.3,0"/>
</g>
</svg>
